<svg width="900" height="900" viewBox="0 0 900 900" fill="none" xmlns="http://www.w3.org/2000/svg">
  <rect width="900" height="900" fill="#0F172A"/>
  <rect width="900" height="900" fill="url(#bg)"/>
  <rect x="220" y="95" width="250" height="610" rx="54" fill="#020617"/>
  <rect x="242" y="145" width="206" height="500" rx="34" fill="#F8FAFC"/>
  <rect x="294" y="122" width="102" height="16" rx="8" fill="#111827"/>
  <rect x="280" y="202" width="132" height="118" rx="28" fill="#2563EB"/>
  <rect x="280" y="358" width="132" height="34" rx="17" fill="#E2E8F0"/>
  <rect x="280" y="420" width="132" height="34" rx="17" fill="#E2E8F0"/>
  <rect x="280" y="512" width="132" height="54" rx="27" fill="#0F172A"/>
  <rect x="510" y="214" width="170" height="80" rx="22" fill="#FFFFFF" opacity="0.94"/>
  <rect x="536" y="248" width="118" height="14" rx="7" fill="#0F172A"/>
  <rect x="510" y="342" width="170" height="80" rx="22" fill="#FFFFFF" opacity="0.86"/>
  <rect x="536" y="376" width="90" height="14" rx="7" fill="#0F172A"/>
  <rect x="510" y="470" width="170" height="80" rx="22" fill="#FFFFFF" opacity="0.78"/>
  <rect x="536" y="504" width="108" height="14" rx="7" fill="#0F172A"/>
  <defs>
    <linearGradient id="bg" x1="95" y1="90" x2="790" y2="790" gradientUnits="userSpaceOnUse">
      <stop stop-color="#2E1065"/>
      <stop offset="1" stop-color="#155E75"/>
    </linearGradient>
  </defs>
</svg>
