<svg width="1200" height="900" viewBox="0 0 1200 900" fill="none" xmlns="http://www.w3.org/2000/svg">
  <rect width="1200" height="900" fill="#111827"/>
  <rect width="1200" height="900" fill="url(#bg)"/>
  <circle cx="275" cy="175" r="190" fill="#F97316" opacity="0.16"/>
  <circle cx="910" cy="720" r="250" fill="#22D3EE" opacity="0.2"/>
  <rect x="360" y="82" width="300" height="680" rx="54" fill="#020617"/>
  <rect x="382" y="126" width="256" height="584" rx="36" fill="#F8FAFC"/>
  <rect x="450" y="108" width="120" height="18" rx="9" fill="#0F172A"/>
  <rect x="416" y="170" width="188" height="148" rx="30" fill="#2563EB"/>
  <circle cx="462" cy="226" r="24" fill="#FFFFFF" opacity="0.85"/>
  <rect x="416" y="354" width="188" height="46" rx="23" fill="#E2E8F0"/>
  <rect x="416" y="428" width="188" height="46" rx="23" fill="#E2E8F0"/>
  <rect x="416" y="502" width="92" height="98" rx="24" fill="#DBEAFE"/>
  <rect x="528" y="502" width="76" height="98" rx="24" fill="#BFDBFE"/>
  <rect x="416" y="632" width="188" height="42" rx="21" fill="#0F172A"/>
  <rect x="640" y="174" width="200" height="452" rx="46" fill="#111827" opacity="0.9"/>
  <rect x="660" y="216" width="160" height="366" rx="30" fill="#ECFEFF"/>
  <rect x="690" y="258" width="100" height="20" rx="10" fill="#0891B2"/>
  <rect x="690" y="312" width="100" height="100" rx="28" fill="#67E8F9"/>
  <rect x="690" y="442" width="100" height="24" rx="12" fill="#0F172A" opacity="0.35"/>
  <rect x="690" y="492" width="70" height="24" rx="12" fill="#0F172A" opacity="0.2"/>
  <defs>
    <linearGradient id="bg" x1="60" y1="60" x2="1090" y2="820" gradientUnits="userSpaceOnUse">
      <stop stop-color="#2E1065"/>
      <stop offset="0.55" stop-color="#0F172A"/>
      <stop offset="1" stop-color="#164E63"/>
    </linearGradient>
  </defs>
</svg>
