<svg width="1200" height="900" viewBox="0 0 1200 900" fill="none" xmlns="http://www.w3.org/2000/svg">
  <rect width="1200" height="900" fill="#0F172A"/>
  <rect width="1200" height="900" fill="url(#bg)"/>
  <circle cx="600" cy="320" r="190" fill="#E0F2FE" opacity="0.16"/>
  <path d="M395 435C330 435 278 386 278 326C278 270 323 223 381 216C407 159 467 120 537 120C629 120 705 188 714 274C772 280 818 327 818 384C818 447 764 498 698 498H395Z" fill="#F8FAFC"/>
  <rect x="246" y="570" width="230" height="84" rx="22" fill="#E2E8F0"/>
  <rect x="486" y="570" width="230" height="84" rx="22" fill="#E2E8F0"/>
  <rect x="726" y="570" width="230" height="84" rx="22" fill="#E2E8F0"/>
  <circle cx="296" cy="612" r="15" fill="#22C55E"/>
  <circle cx="536" cy="612" r="15" fill="#38BDF8"/>
  <circle cx="776" cy="612" r="15" fill="#F59E0B"/>
  <rect x="330" y="600" width="100" height="24" rx="12" fill="#64748B"/>
  <rect x="570" y="600" width="100" height="24" rx="12" fill="#64748B"/>
  <rect x="810" y="600" width="100" height="24" rx="12" fill="#64748B"/>
  <path d="M600 498V570" stroke="#BAE6FD" stroke-width="14" stroke-linecap="round"/>
  <path d="M600 536H361V570" stroke="#BAE6FD" stroke-width="14" stroke-linecap="round"/>
  <path d="M600 536H841V570" stroke="#BAE6FD" stroke-width="14" stroke-linecap="round"/>
  <defs>
    <linearGradient id="bg" x1="118" y1="102" x2="1064" y2="806" gradientUnits="userSpaceOnUse">
      <stop stop-color="#042F2E"/>
      <stop offset="0.48" stop-color="#0F172A"/>
      <stop offset="1" stop-color="#1E1B4B"/>
    </linearGradient>
  </defs>
</svg>
