<svg width="1200" height="900" viewBox="0 0 1200 900" fill="none" xmlns="http://www.w3.org/2000/svg">
  <rect width="1200" height="900" fill="#101828"/>
  <rect width="1200" height="900" fill="url(#bg)"/>
  <circle cx="1020" cy="130" r="190" fill="#38BDF8" opacity="0.2"/>
  <circle cx="170" cy="780" r="240" fill="#A3E635" opacity="0.16"/>
  <rect x="190" y="150" width="820" height="550" rx="34" fill="#F8FAFC"/>
  <rect x="190" y="150" width="820" height="76" rx="34" fill="#E2E8F0"/>
  <circle cx="238" cy="188" r="12" fill="#EF4444"/>
  <circle cx="278" cy="188" r="12" fill="#F59E0B"/>
  <circle cx="318" cy="188" r="12" fill="#22C55E"/>
  <rect x="250" y="278" width="260" height="68" rx="18" fill="#0F172A"/>
  <rect x="250" y="382" width="620" height="34" rx="17" fill="#CBD5E1"/>
  <rect x="250" y="446" width="390" height="26" rx="13" fill="#E2E8F0"/>
  <rect x="250" y="512" width="170" height="54" rx="27" fill="#2563EB"/>
  <rect x="690" y="276" width="220" height="300" rx="28" fill="#DBEAFE"/>
  <rect x="730" y="324" width="140" height="22" rx="11" fill="#2563EB"/>
  <rect x="730" y="382" width="112" height="22" rx="11" fill="#0F172A" opacity="0.55"/>
  <rect x="730" y="438" width="140" height="22" rx="11" fill="#0F172A" opacity="0.28"/>
  <rect x="730" y="494" width="92" height="22" rx="11" fill="#0F172A" opacity="0.2"/>
  <rect x="430" y="676" width="340" height="36" rx="18" fill="#334155"/>
  <rect x="510" y="710" width="180" height="38" rx="8" fill="#475569"/>
  <defs>
    <linearGradient id="bg" x1="120" y1="80" x2="1090" y2="840" gradientUnits="userSpaceOnUse">
      <stop stop-color="#111827"/>
      <stop offset="0.48" stop-color="#312E81"/>
      <stop offset="1" stop-color="#0F766E"/>
    </linearGradient>
  </defs>
</svg>
