<svg width="1200" height="900" viewBox="0 0 1200 900" fill="none" xmlns="http://www.w3.org/2000/svg">
  <rect width="1200" height="900" fill="#0B1220"/>
  <rect width="1200" height="900" fill="url(#bg)"/>
  <rect x="138" y="120" width="924" height="610" rx="36" fill="#F8FAFC"/>
  <rect x="138" y="120" width="230" height="610" rx="36" fill="#111827"/>
  <rect x="188" y="182" width="120" height="20" rx="10" fill="#F8FAFC"/>
  <rect x="188" y="260" width="126" height="18" rx="9" fill="#64748B"/>
  <rect x="188" y="314" width="90" height="18" rx="9" fill="#64748B"/>
  <rect x="188" y="368" width="132" height="18" rx="9" fill="#64748B"/>
  <rect x="430" y="180" width="250" height="132" rx="28" fill="#DBEAFE"/>
  <rect x="720" y="180" width="250" height="132" rx="28" fill="#DCFCE7"/>
  <rect x="430" y="358" width="540" height="270" rx="32" fill="#E2E8F0"/>
  <path d="M480 560L570 470L650 520L760 410L910 500" stroke="#2563EB" stroke-width="22" stroke-linecap="round" stroke-linejoin="round"/>
  <rect x="478" y="222" width="106" height="22" rx="11" fill="#2563EB"/>
  <rect x="478" y="264" width="150" height="18" rx="9" fill="#1E3A8A" opacity="0.35"/>
  <rect x="768" y="222" width="106" height="22" rx="11" fill="#16A34A"/>
  <rect x="768" y="264" width="150" height="18" rx="9" fill="#166534" opacity="0.35"/>
  <circle cx="984" cy="150" r="170" fill="#38BDF8" opacity="0.14"/>
  <defs>
    <linearGradient id="bg" x1="80" y1="90" x2="1050" y2="790" gradientUnits="userSpaceOnUse">
      <stop stop-color="#172554"/>
      <stop offset="0.52" stop-color="#0F172A"/>
      <stop offset="1" stop-color="#14532D"/>
    </linearGradient>
  </defs>
</svg>
