<svg xmlns="http://www.w3.org/2000/svg" xmlns:xlink="http://www.w3.org/1999/xlink" width="500" zoomAndPan="magnify" viewBox="0 0 375 374.999991" height="500" preserveAspectRatio="xMidYMid meet" version="1.0"><defs><g/><clipPath id="103de767e7"><path d="M 0.199219 9 L 45.320312 9 L 45.320312 60 L 0.199219 60 Z M 0.199219 9 " clip-rule="nonzero"/></clipPath><clipPath id="0d5dcf3964"><rect x="0" width="46" y="0" height="71"/></clipPath><clipPath id="d32969a641"><path d="M 0.679688 9 L 47.960938 9 L 47.960938 60 L 0.679688 60 Z M 0.679688 9 " clip-rule="nonzero"/></clipPath><clipPath id="fae5803c28"><rect x="0" width="48" y="0" height="71"/></clipPath><clipPath id="b28d140300"><path d="M 0.28125 9 L 45.878906 9 L 45.878906 60 L 0.28125 60 Z M 0.28125 9 " clip-rule="nonzero"/></clipPath><clipPath id="7a10b0452f"><rect x="0" width="46" y="0" height="71"/></clipPath><clipPath id="95767f4903"><path d="M 0.519531 9 L 45.640625 9 L 45.640625 60 L 0.519531 60 Z M 0.519531 9 " clip-rule="nonzero"/></clipPath><clipPath id="62452acd74"><rect x="0" width="46" y="0" height="71"/></clipPath><clipPath id="e265b5aeea"><path d="M 121.566406 222.777344 L 253.433594 222.777344 L 253.433594 244.496094 L 121.566406 244.496094 Z M 121.566406 222.777344 " clip-rule="nonzero"/></clipPath><clipPath id="640837e1b1"><path d="M 0.566406 0.777344 L 132.433594 0.777344 L 132.433594 22.496094 L 0.566406 22.496094 Z M 0.566406 0.777344 " clip-rule="nonzero"/></clipPath><clipPath id="fc54d1abaa"><rect x="0" width="133" y="0" height="23"/></clipPath><clipPath id="2ba798c669"><path d="M 0.601562 9 L 45.71875 9 L 45.71875 60 L 0.601562 60 Z M 0.601562 9 " clip-rule="nonzero"/></clipPath><clipPath id="b86d5b0af6"><rect x="0" width="46" y="0" height="71"/></clipPath><clipPath id="dde4ed47dd"><rect x="0" width="47" y="0" height="71"/></clipPath><clipPath id="d7b3f6c7dd"><path d="M 0.0390625 9 L 44.921875 9 L 44.921875 60 L 0.0390625 60 Z M 0.0390625 9 " clip-rule="nonzero"/></clipPath><clipPath id="d9d62737b0"><rect x="0" width="45" y="0" height="71"/></clipPath><clipPath id="e7852db046"><path d="M 204.246094 171.324219 L 236.496094 171.324219 L 236.496094 203.574219 L 204.246094 203.574219 Z M 204.246094 171.324219 " clip-rule="nonzero"/></clipPath></defs><rect x="-37.5" width="450" fill="#ffffff" y="-37.499999" height="449.999989" fill-opacity="1"/><rect x="-37.5" width="450" fill="#000000" y="-37.499999" height="449.999989" fill-opacity="1"/><g transform="matrix(1, 0, 0, 1, 247, 158)"><g clip-path="url(#0d5dcf3964)"><g clip-path="url(#103de767e7)"><g fill="#000000" fill-opacity="1"><g transform="translate(1.935389, 56.484704)"><g><path d="M 41.71875 -5.664062 C 41.855469 -4.847656 42 -4.035156 42.160156 -3.21875 C 42.308594 -2.449219 42.492188 -1.679688 42.703125 -0.910156 L 40.183594 -0.210938 L 42.523438 -1.378906 C 42.898438 -0.632812 42.933594 0.121094 42.628906 0.875 C 42.429688 1.375 42.113281 1.777344 41.671875 2.085938 C 41.390625 2.28125 41.085938 2.417969 40.75 2.503906 L 40.296875 2.617188 L 24.347656 2.617188 C 23.53125 2.617188 22.839844 2.332031 22.269531 1.761719 C 21.839844 1.332031 21.558594 0.796875 21.433594 0.164062 L 24 -0.347656 L 21.449219 0.238281 C 21.019531 -1.632812 20.679688 -3.316406 20.4375 -4.816406 C 20.222656 -6.15625 19.851562 -7.753906 19.320312 -9.605469 L 19.28125 -9.75 L 19.253906 -9.894531 C 19.230469 -10.039062 19.183594 -10.21875 19.109375 -10.441406 C 19.230469 -10.074219 19.460938 -9.773438 19.800781 -9.53125 C 20.132812 -9.292969 20.488281 -9.171875 20.859375 -9.171875 L 20.695312 -9.171875 L 20.535156 -9.195312 C 20.871094 -9.152344 21.226562 -9.222656 21.59375 -9.40625 C 21.929688 -9.574219 22.210938 -9.816406 22.429688 -10.125 C 22.621094 -10.398438 22.746094 -10.691406 22.804688 -11.007812 C 22.769531 -10.8125 22.730469 -10.535156 22.691406 -10.175781 L 22.683594 -10.105469 L 22.671875 -10.035156 C 22.621094 -9.730469 22.476562 -8.972656 22.242188 -7.761719 C 22.011719 -6.59375 21.769531 -5.289062 21.519531 -3.839844 C 21.269531 -2.414062 21.078125 -1.183594 20.941406 -0.148438 L 18.347656 -0.488281 L 20.964844 -0.488281 C 20.964844 0.234375 20.773438 0.863281 20.390625 1.398438 C 20.09375 1.8125 19.71875 2.125 19.257812 2.339844 C 18.863281 2.523438 18.445312 2.617188 18 2.617188 L 1.8125 2.617188 C 1.359375 2.617188 0.929688 2.527344 0.53125 2.347656 C 0.015625 2.113281 -0.398438 1.765625 -0.710938 1.292969 C -1.132812 0.660156 -1.296875 -0.0742188 -1.203125 -0.917969 L 1.394531 -0.628906 L -1.222656 -0.628906 C -1.222656 -0.90625 -1.109375 -1.566406 -0.882812 -2.609375 C -0.699219 -3.453125 -0.507812 -4.402344 -0.300781 -5.457031 C -0.078125 -6.597656 0.136719 -7.53125 0.34375 -8.253906 L 2.859375 -7.535156 L 0.328125 -8.1875 L 1.164062 -11.433594 C 1.433594 -12.492188 1.683594 -13.539062 1.910156 -14.578125 L 1.9375 -14.714844 L 1.984375 -14.851562 C 2.101562 -15.203125 2.246094 -15.722656 2.414062 -16.402344 C 2.609375 -17.179688 2.828125 -17.980469 3.070312 -18.808594 C 3.296875 -19.570312 3.476562 -20.207031 3.609375 -20.71875 C 3.6875 -21.03125 3.761719 -21.28125 3.820312 -21.472656 C 3.996094 -22.023438 4.246094 -22.457031 4.566406 -22.777344 L 6.417969 -20.929688 L 3.988281 -21.902344 C 4 -21.925781 4.003906 -21.941406 4.003906 -21.953125 C 4.003906 -21.945312 4.003906 -21.941406 4.003906 -21.9375 C 3.953125 -22.277344 3.875 -22.621094 3.773438 -22.96875 L 6.277344 -23.71875 L 3.859375 -22.722656 C 3.515625 -23.5625 3.207031 -24.378906 2.933594 -25.171875 C 2.660156 -25.964844 2.398438 -26.804688 2.152344 -27.695312 C 1.679688 -29.351562 1.226562 -31.109375 0.800781 -32.96875 C 0.421875 -34.621094 0.0664062 -36.257812 -0.261719 -37.882812 C -0.597656 -39.539062 -0.886719 -41.207031 -1.125 -42.882812 L -1.128906 -42.925781 L -1.136719 -42.964844 C -1.230469 -43.804688 -1.0625 -44.542969 -0.640625 -45.175781 C -0.328125 -45.644531 0.0859375 -45.996094 0.601562 -46.226562 C 1 -46.40625 1.429688 -46.496094 1.882812 -46.496094 L 17.582031 -46.496094 C 18.394531 -46.496094 19.089844 -46.214844 19.65625 -45.644531 C 20.089844 -45.210938 20.367188 -44.679688 20.496094 -44.046875 L 17.929688 -43.53125 L 20.460938 -44.199219 C 20.703125 -43.269531 20.945312 -42.226562 21.1875 -41.066406 L 21.882812 -37.796875 L 22.472656 -35.089844 C 22.675781 -34.164062 22.777344 -33.535156 22.777344 -33.207031 L 20.160156 -33.207031 L 22.589844 -34.179688 C 22.722656 -33.855469 22.832031 -33.515625 22.929688 -33.164062 C 22.824219 -33.558594 22.597656 -33.898438 22.261719 -34.183594 C 21.847656 -34.535156 21.382812 -34.707031 20.859375 -34.707031 C 20.242188 -34.707031 19.714844 -34.472656 19.277344 -34.007812 C 18.980469 -33.6875 18.804688 -33.339844 18.753906 -32.960938 C 18.800781 -33.316406 18.847656 -33.664062 18.898438 -33.996094 L 18.90625 -34.066406 L 18.921875 -34.140625 C 18.964844 -34.355469 19.089844 -35.035156 19.296875 -36.183594 L 19.992188 -40.117188 C 20.253906 -41.613281 20.503906 -42.914062 20.746094 -44.019531 L 23.300781 -43.460938 L 20.71875 -43.894531 C 20.820312 -44.5 21.050781 -45.019531 21.414062 -45.453125 C 21.996094 -46.148438 22.738281 -46.496094 23.648438 -46.496094 L 39.625 -46.496094 C 40.660156 -46.496094 41.476562 -46.101562 42.066406 -45.3125 C 42.558594 -44.65625 42.75 -43.882812 42.640625 -43 L 40.042969 -43.324219 L 42.652344 -43.105469 C 42.5 -41.296875 42.210938 -39.511719 41.785156 -37.753906 C 41.378906 -36.085938 40.9375 -34.441406 40.460938 -32.816406 L 37.953125 -33.554688 L 40.488281 -32.921875 C 40.386719 -32.511719 40.191406 -31.820312 39.898438 -30.851562 L 38.992188 -27.847656 C 38.660156 -26.765625 38.367188 -25.816406 38.109375 -24.992188 C 37.992188 -24.621094 37.90625 -24.335938 37.855469 -24.132812 C 37.835938 -24.0625 37.820312 -24.011719 37.816406 -23.984375 C 37.835938 -24.082031 37.847656 -24.203125 37.847656 -24.347656 L 37.847656 -23.980469 L 37.746094 -23.628906 C 37.679688 -23.394531 37.671875 -23.167969 37.71875 -22.941406 C 37.839844 -22.386719 37.976562 -21.875 38.132812 -21.40625 L 38.160156 -21.316406 L 38.882812 -18.464844 C 39.125 -17.519531 39.34375 -16.558594 39.539062 -15.582031 L 36.976562 -15.070312 L 39.507812 -15.71875 C 39.933594 -14.070312 40.332031 -12.417969 40.710938 -10.769531 C 41.09375 -9.089844 41.429688 -7.386719 41.71875 -5.664062 Z M 36.558594 -4.800781 C 36.285156 -6.425781 35.972656 -8.023438 35.609375 -9.601562 C 35.242188 -11.207031 34.855469 -12.8125 34.441406 -14.417969 L 34.421875 -14.484375 L 34.410156 -14.554688 C 34.234375 -15.441406 34.03125 -16.316406 33.8125 -17.183594 L 33.113281 -19.9375 L 35.648438 -20.582031 L 33.167969 -19.753906 C 32.949219 -20.402344 32.761719 -21.101562 32.601562 -21.847656 C 32.371094 -22.921875 32.410156 -23.996094 32.714844 -25.066406 L 35.230469 -24.347656 L 32.613281 -24.347656 C 32.613281 -24.753906 32.78125 -25.492188 33.117188 -26.5625 C 33.371094 -27.367188 33.660156 -28.300781 33.980469 -29.359375 L 34.886719 -32.355469 C 35.15625 -33.246094 35.332031 -33.859375 35.414062 -34.191406 L 35.425781 -34.242188 L 35.441406 -34.292969 C 35.894531 -35.835938 36.3125 -37.398438 36.699219 -38.988281 C 37.0625 -40.484375 37.308594 -42 37.4375 -43.539062 L 37.441406 -43.59375 L 37.449219 -43.648438 C 37.382812 -43.132812 37.527344 -42.644531 37.882812 -42.171875 C 38.140625 -41.828125 38.46875 -41.574219 38.863281 -41.417969 C 39.117188 -41.316406 39.371094 -41.265625 39.625 -41.265625 L 23.648438 -41.265625 C 24.375 -41.265625 24.96875 -41.542969 25.433594 -42.101562 C 25.675781 -42.394531 25.828125 -42.707031 25.882812 -43.03125 L 25.859375 -42.90625 C 25.632812 -41.871094 25.394531 -40.636719 25.144531 -39.203125 L 24.445312 -35.253906 C 24.234375 -34.078125 24.101562 -33.363281 24.050781 -33.113281 L 21.488281 -33.625 L 24.078125 -33.257812 C 24.03125 -32.9375 23.988281 -32.609375 23.941406 -32.269531 C 23.84375 -31.542969 23.566406 -30.929688 23.101562 -30.4375 C 22.503906 -29.796875 21.757812 -29.476562 20.859375 -29.476562 C 20.105469 -29.476562 19.445312 -29.714844 18.882812 -30.191406 C 18.390625 -30.605469 18.058594 -31.136719 17.882812 -31.785156 C 17.839844 -31.945312 17.789062 -32.097656 17.734375 -32.234375 L 17.546875 -32.703125 L 17.546875 -33.207031 C 17.546875 -33.121094 17.546875 -33.054688 17.554688 -33.007812 C 17.550781 -33.042969 17.542969 -33.097656 17.527344 -33.167969 C 17.492188 -33.363281 17.4375 -33.628906 17.359375 -33.976562 L 16.765625 -36.710938 L 16.066406 -40 C 15.84375 -41.070312 15.621094 -42.027344 15.398438 -42.867188 L 15.378906 -42.941406 L 15.363281 -43.019531 C 15.445312 -42.617188 15.640625 -42.257812 15.957031 -41.945312 C 16.410156 -41.492188 16.949219 -41.265625 17.582031 -41.265625 L 1.882812 -41.265625 C 2.175781 -41.265625 2.464844 -41.328125 2.746094 -41.457031 C 3.148438 -41.636719 3.46875 -41.910156 3.710938 -42.273438 C 3.996094 -42.695312 4.113281 -43.121094 4.066406 -43.542969 L 1.464844 -43.253906 L 4.054688 -43.625 C 4.28125 -42.046875 4.550781 -40.480469 4.867188 -38.925781 C 5.1875 -37.339844 5.53125 -35.75 5.898438 -34.144531 C 6.304688 -32.375 6.738281 -30.691406 7.195312 -29.09375 C 7.414062 -28.308594 7.640625 -27.566406 7.882812 -26.871094 C 8.121094 -26.175781 8.390625 -25.457031 8.699219 -24.714844 L 8.746094 -24.597656 L 8.785156 -24.472656 C 8.960938 -23.886719 9.089844 -23.300781 9.179688 -22.710938 C 9.320312 -21.78125 9.210938 -20.863281 8.847656 -19.957031 L 8.648438 -19.457031 L 8.269531 -19.078125 C 8.503906 -19.3125 8.675781 -19.570312 8.792969 -19.847656 C 8.800781 -19.867188 8.808594 -19.886719 8.8125 -19.898438 C 8.8125 -19.894531 8.808594 -19.890625 8.804688 -19.878906 C 8.773438 -19.777344 8.730469 -19.617188 8.671875 -19.398438 C 8.523438 -18.835938 8.332031 -18.148438 8.089844 -17.332031 C 7.867188 -16.574219 7.667969 -15.839844 7.492188 -15.132812 C 7.289062 -14.324219 7.109375 -13.675781 6.945312 -13.195312 L 4.464844 -14.023438 L 7.019531 -13.464844 C 6.78125 -12.367188 6.519531 -11.253906 6.230469 -10.125 L 5.386719 -6.847656 L 5.375 -6.816406 C 5.210938 -6.234375 5.03125 -5.449219 4.835938 -4.449219 C 4.621094 -3.363281 4.421875 -2.382812 4.230469 -1.503906 C 4.140625 -1.09375 4.074219 -0.773438 4.03125 -0.554688 C 4.015625 -0.460938 4.003906 -0.394531 3.996094 -0.347656 C 4.007812 -0.417969 4.011719 -0.507812 4.011719 -0.628906 L 4.011719 -0.484375 L 3.996094 -0.339844 C 4.042969 -0.761719 3.925781 -1.183594 3.640625 -1.609375 C 3.398438 -1.972656 3.078125 -2.246094 2.679688 -2.425781 C 2.394531 -2.550781 2.105469 -2.617188 1.8125 -2.617188 L 18 -2.617188 C 17.671875 -2.617188 17.351562 -2.542969 17.046875 -2.402344 C 16.671875 -2.226562 16.367188 -1.976562 16.132812 -1.644531 C 15.863281 -1.269531 15.730469 -0.882812 15.730469 -0.488281 L 15.730469 -0.660156 L 15.753906 -0.828125 C 15.898438 -1.933594 16.101562 -3.238281 16.363281 -4.742188 C 16.621094 -6.222656 16.871094 -7.566406 17.105469 -8.769531 C 17.332031 -9.933594 17.46875 -10.640625 17.511719 -10.894531 L 20.09375 -10.464844 L 17.492188 -10.753906 C 17.542969 -11.230469 17.601562 -11.628906 17.65625 -11.945312 C 17.835938 -12.929688 18.367188 -13.644531 19.253906 -14.085938 C 19.832031 -14.375 20.472656 -14.476562 21.183594 -14.386719 L 20.859375 -11.789062 L 20.859375 -14.40625 C 21.605469 -14.40625 22.265625 -14.199219 22.84375 -13.789062 C 23.425781 -13.371094 23.835938 -12.808594 24.074219 -12.09375 C 24.234375 -11.617188 24.347656 -11.167969 24.417969 -10.753906 L 21.835938 -10.324219 L 24.351562 -11.042969 C 24.9375 -8.992188 25.355469 -7.191406 25.605469 -5.648438 C 25.828125 -4.265625 26.140625 -2.695312 26.546875 -0.9375 L 26.558594 -0.898438 L 26.5625 -0.863281 C 26.484375 -1.261719 26.285156 -1.621094 25.972656 -1.9375 C 25.519531 -2.390625 24.976562 -2.617188 24.347656 -2.617188 L 39.976562 -2.617188 L 39.976562 0 L 39.339844 -2.539062 L 39.480469 -2.574219 C 39.191406 -2.5 38.921875 -2.378906 38.671875 -2.203125 C 38.257812 -1.914062 37.960938 -1.535156 37.773438 -1.066406 C 37.492188 -0.371094 37.515625 0.308594 37.84375 0.960938 L 37.730469 0.734375 L 37.664062 0.492188 C 37.410156 -0.414062 37.199219 -1.316406 37.023438 -2.222656 C 36.855469 -3.082031 36.699219 -3.941406 36.558594 -4.800781 Z M 36.558594 -4.800781 "/></g></g></g></g><g fill="#ffffff" fill-opacity="1"><g transform="translate(1.935389, 56.484704)"><g><path d="M 39.140625 -5.234375 C 39.273438 -4.398438 39.425781 -3.5625 39.59375 -2.71875 C 39.757812 -1.882812 39.957031 -1.046875 40.1875 -0.203125 C 40.226562 -0.109375 40.203125 -0.0507812 40.109375 -0.03125 C 40.015625 -0.0078125 39.96875 0 39.96875 0 L 24.34375 0 C 24.15625 0 24.039062 -0.113281 24 -0.34375 C 23.582031 -2.15625 23.253906 -3.78125 23.015625 -5.21875 C 22.785156 -6.664062 22.394531 -8.367188 21.84375 -10.328125 C 21.789062 -10.609375 21.707031 -10.921875 21.59375 -11.265625 C 21.476562 -11.617188 21.234375 -11.796875 20.859375 -11.796875 C 20.484375 -11.835938 20.269531 -11.726562 20.21875 -11.46875 C 20.175781 -11.21875 20.132812 -10.882812 20.09375 -10.46875 C 20.039062 -10.1875 19.898438 -9.453125 19.671875 -8.265625 C 19.441406 -7.078125 19.195312 -5.75 18.9375 -4.28125 C 18.6875 -2.820312 18.488281 -1.554688 18.34375 -0.484375 C 18.34375 -0.160156 18.226562 0 18 0 L 1.8125 0 C 1.488281 0 1.347656 -0.207031 1.390625 -0.625 C 1.390625 -0.71875 1.484375 -1.191406 1.671875 -2.046875 C 1.859375 -2.910156 2.054688 -3.878906 2.265625 -4.953125 C 2.472656 -6.023438 2.671875 -6.882812 2.859375 -7.53125 C 3.140625 -8.601562 3.414062 -9.6875 3.6875 -10.78125 C 3.96875 -11.875 4.226562 -12.953125 4.46875 -14.015625 C 4.601562 -14.441406 4.765625 -15.023438 4.953125 -15.765625 C 5.140625 -16.515625 5.347656 -17.28125 5.578125 -18.0625 C 5.816406 -18.851562 6.003906 -19.515625 6.140625 -20.046875 C 6.273438 -20.585938 6.367188 -20.878906 6.421875 -20.921875 C 6.609375 -21.390625 6.664062 -21.851562 6.59375 -22.3125 C 6.519531 -22.78125 6.414062 -23.25 6.28125 -23.71875 C 5.957031 -24.507812 5.664062 -25.273438 5.40625 -26.015625 C 5.144531 -26.765625 4.898438 -27.554688 4.671875 -28.390625 C 4.210938 -30.023438 3.769531 -31.75 3.34375 -33.5625 C 2.976562 -35.1875 2.628906 -36.800781 2.296875 -38.40625 C 1.972656 -40.007812 1.695312 -41.625 1.46875 -43.25 C 1.414062 -43.664062 1.554688 -43.875 1.890625 -43.875 L 17.578125 -43.875 C 17.765625 -43.875 17.882812 -43.757812 17.9375 -43.53125 C 18.164062 -42.644531 18.394531 -41.644531 18.625 -40.53125 C 18.851562 -39.414062 19.082031 -38.320312 19.3125 -37.25 C 19.550781 -36.1875 19.75 -35.28125 19.90625 -34.53125 C 20.070312 -33.789062 20.15625 -33.347656 20.15625 -33.203125 C 20.25 -32.972656 20.332031 -32.726562 20.40625 -32.46875 C 20.476562 -32.21875 20.628906 -32.09375 20.859375 -32.09375 C 21.140625 -32.09375 21.300781 -32.265625 21.34375 -32.609375 C 21.394531 -32.960938 21.441406 -33.300781 21.484375 -33.625 C 21.535156 -33.851562 21.664062 -34.550781 21.875 -35.71875 C 22.082031 -36.882812 22.3125 -38.195312 22.5625 -39.65625 C 22.820312 -41.125 23.066406 -42.394531 23.296875 -43.46875 C 23.347656 -43.738281 23.46875 -43.875 23.65625 -43.875 L 39.625 -43.875 C 39.945312 -43.875 40.085938 -43.691406 40.046875 -43.328125 C 39.910156 -41.648438 39.644531 -39.992188 39.25 -38.359375 C 38.851562 -36.734375 38.421875 -35.132812 37.953125 -33.5625 C 37.859375 -33.1875 37.671875 -32.53125 37.390625 -31.59375 C 37.109375 -30.664062 36.804688 -29.664062 36.484375 -28.59375 C 36.160156 -27.53125 35.867188 -26.59375 35.609375 -25.78125 C 35.359375 -24.96875 35.234375 -24.488281 35.234375 -24.34375 C 35.046875 -23.695312 35.019531 -23.046875 35.15625 -22.390625 C 35.300781 -21.742188 35.46875 -21.140625 35.65625 -20.578125 C 35.882812 -19.648438 36.113281 -18.734375 36.34375 -17.828125 C 36.582031 -16.921875 36.789062 -16 36.96875 -15.0625 C 37.394531 -13.4375 37.789062 -11.8125 38.15625 -10.1875 C 38.53125 -8.5625 38.859375 -6.910156 39.140625 -5.234375 Z M 39.140625 -5.234375 "/></g></g></g></g></g><g transform="matrix(1, 0, 0, 1, 223, 158)"><g clip-path="url(#fae5803c28)"><g clip-path="url(#d32969a641)"><g fill="#000000" fill-opacity="1"><g transform="translate(2.423857, 56.484704)"><g><path d="M 42.136719 2.617188 L 19.394531 2.617188 C 18.464844 2.617188 17.710938 2.261719 17.140625 1.546875 C 16.714844 1.011719 16.5 0.378906 16.5 -0.347656 L 16.5 -0.417969 L 16.503906 -0.484375 C 16.550781 -1.40625 16.644531 -2.636719 16.789062 -4.183594 C 16.929688 -5.707031 17.082031 -7.242188 17.246094 -8.789062 L 17.679688 -12.816406 L 17.890625 -13.238281 C 18.261719 -13.976562 18.859375 -14.484375 19.683594 -14.761719 C 20.089844 -14.894531 20.484375 -14.964844 20.859375 -14.964844 L 21.476562 -14.964844 L 22.03125 -14.6875 C 21.777344 -14.816406 21.550781 -14.886719 21.355469 -14.902344 C 21.421875 -14.898438 21.535156 -14.894531 21.695312 -14.894531 L 24.070312 -14.894531 L 24.070312 -12.277344 L 22.953125 -14.644531 L 23.546875 -14.925781 C 23.269531 -14.792969 23.042969 -14.585938 22.871094 -14.300781 C 22.714844 -14.042969 22.636719 -13.789062 22.636719 -13.535156 L 25.253906 -13.535156 L 22.6875 -13.019531 C 22.632812 -13.300781 22.519531 -14.035156 22.351562 -15.222656 L 21.792969 -19.128906 C 21.582031 -20.613281 21.390625 -22.039062 21.226562 -23.40625 C 21.058594 -24.796875 20.949219 -25.839844 20.902344 -26.53125 L 20.898438 -26.566406 L 20.898438 -26.601562 C 20.859375 -27.382812 20.765625 -28.007812 20.609375 -28.472656 L 20.609375 -28.488281 C 20.65625 -28.40625 20.71875 -28.320312 20.804688 -28.234375 C 21.140625 -27.898438 21.554688 -27.730469 22.046875 -27.730469 L 21.953125 -27.730469 L 21.859375 -27.738281 C 22.144531 -27.71875 22.429688 -27.804688 22.707031 -27.996094 C 22.925781 -28.148438 23.066406 -28.308594 23.132812 -28.476562 C 22.949219 -28 22.847656 -27.675781 22.828125 -27.511719 C 22.679688 -26.4375 22.441406 -24.953125 22.109375 -23.058594 C 21.785156 -21.1875 21.410156 -19.132812 20.988281 -16.890625 C 20.574219 -14.675781 20.179688 -12.457031 19.8125 -10.242188 C 19.445312 -8.035156 19.132812 -6.023438 18.882812 -4.207031 C 18.636719 -2.449219 18.492188 -1.121094 18.449219 -0.222656 L 15.835938 -0.347656 L 18.453125 -0.347656 C 18.453125 0.25 18.3125 0.785156 18.027344 1.257812 C 17.769531 1.6875 17.421875 2.023438 16.988281 2.265625 C 16.566406 2.5 16.113281 2.617188 15.628906 2.617188 L 1.535156 2.617188 C 1.042969 2.617188 0.585938 2.5 0.164062 2.269531 C -0.347656 1.992188 -0.734375 1.589844 -0.996094 1.066406 C -1.285156 0.488281 -1.371094 -0.148438 -1.253906 -0.847656 L -1.238281 -0.953125 L -1.210938 -1.054688 C -1.195312 -1.125 -1.179688 -1.207031 -1.171875 -1.300781 C -1.132812 -1.625 -1.078125 -1.9375 -1.003906 -2.238281 L 1.535156 -1.605469 L -1.019531 -2.171875 C -0.929688 -2.574219 -0.746094 -3.457031 -0.472656 -4.8125 L 0.472656 -9.449219 L 1.480469 -14.4375 C 1.816406 -16.089844 2.109375 -17.382812 2.351562 -18.316406 L 4.882812 -17.648438 L 2.296875 -18.046875 C 2.394531 -18.671875 2.570312 -19.714844 2.832031 -21.175781 C 3.082031 -22.605469 3.359375 -24.253906 3.660156 -26.121094 L 4.601562 -31.917969 C 4.925781 -33.882812 5.214844 -35.738281 5.46875 -37.488281 C 5.726562 -39.269531 5.949219 -40.746094 6.136719 -41.921875 C 6.300781 -42.949219 6.382812 -43.507812 6.382812 -43.601562 L 6.382812 -43.925781 L 6.460938 -44.238281 C 6.601562 -44.796875 6.867188 -45.273438 7.253906 -45.660156 C 7.8125 -46.21875 8.488281 -46.496094 9.277344 -46.496094 L 34.671875 -46.496094 C 35.160156 -46.496094 35.613281 -46.375 36.035156 -46.136719 C 36.371094 -45.945312 36.652344 -45.695312 36.886719 -45.382812 C 37.132812 -45.054688 37.3125 -44.671875 37.421875 -44.238281 L 37.433594 -44.175781 L 37.449219 -44.117188 C 37.542969 -43.628906 37.722656 -42.644531 37.980469 -41.15625 L 38.820312 -36.226562 L 39.695312 -31.023438 C 39.96875 -29.402344 40.195312 -28.136719 40.378906 -27.234375 L 40.382812 -27.203125 L 40.390625 -27.171875 C 40.71875 -25.289062 41.023438 -23.40625 41.304688 -21.527344 L 42.144531 -15.945312 L 39.554688 -15.558594 L 42.09375 -16.191406 C 42.207031 -15.742188 42.351562 -14.957031 42.523438 -13.832031 C 42.683594 -12.816406 42.886719 -11.660156 43.136719 -10.367188 C 43.394531 -9.023438 43.644531 -7.671875 43.878906 -6.304688 C 44.105469 -4.992188 44.320312 -3.863281 44.519531 -2.921875 C 44.742188 -1.882812 44.882812 -1.175781 44.9375 -0.789062 L 42.347656 -0.417969 L 44.828125 -1.246094 C 45.105469 -0.421875 45.0625 0.347656 44.703125 1.066406 C 44.414062 1.648438 43.972656 2.074219 43.378906 2.347656 C 42.992188 2.527344 42.578125 2.617188 42.136719 2.617188 Z M 42.136719 -2.617188 C 41.8125 -2.617188 41.496094 -2.542969 41.183594 -2.402344 C 40.667969 -2.164062 40.28125 -1.785156 40.023438 -1.273438 C 39.734375 -0.699219 39.683594 -0.136719 39.863281 0.410156 L 39.789062 0.183594 L 39.757812 -0.046875 C 39.71875 -0.3125 39.601562 -0.90625 39.40625 -1.824219 C 39.1875 -2.835938 38.960938 -4.03125 38.722656 -5.414062 C 38.492188 -6.746094 38.25 -8.066406 38 -9.375 C 37.738281 -10.734375 37.523438 -11.949219 37.355469 -13.027344 C 37.203125 -13.996094 37.089844 -14.628906 37.019531 -14.921875 L 36.988281 -15.042969 L 36.132812 -20.75 C 35.855469 -22.589844 35.558594 -24.429688 35.234375 -26.269531 L 37.8125 -26.71875 L 35.246094 -26.207031 C 35.054688 -27.164062 34.816406 -28.480469 34.535156 -30.160156 L 33.664062 -35.351562 L 32.828125 -40.257812 C 32.574219 -41.699219 32.40625 -42.644531 32.316406 -43.089844 L 34.882812 -43.601562 L 32.34375 -42.96875 C 32.40625 -42.71875 32.523438 -42.476562 32.703125 -42.242188 C 32.902344 -41.976562 33.148438 -41.761719 33.441406 -41.59375 C 33.820312 -41.375 34.234375 -41.265625 34.671875 -41.265625 L 9.277344 -41.265625 C 9.929688 -41.265625 10.488281 -41.496094 10.953125 -41.960938 C 11.25 -42.257812 11.445312 -42.59375 11.539062 -42.96875 L 9 -43.601562 L 11.617188 -43.601562 C 11.617188 -43.230469 11.511719 -42.394531 11.304688 -41.097656 C 11.121094 -39.945312 10.902344 -38.492188 10.648438 -36.738281 C 10.390625 -34.957031 10.097656 -33.066406 9.769531 -31.078125 L 8.828125 -25.292969 C 8.523438 -23.394531 8.242188 -21.71875 7.984375 -20.261719 C 7.730469 -18.839844 7.558594 -17.835938 7.46875 -17.253906 L 7.449219 -17.117188 L 7.414062 -16.984375 C 7.195312 -16.148438 6.925781 -14.953125 6.609375 -13.398438 L 5.597656 -8.410156 L 4.65625 -3.769531 C 4.375 -2.382812 4.183594 -1.472656 4.089844 -1.035156 L 4.082031 -1.003906 L 4.074219 -0.96875 C 4.054688 -0.898438 4.039062 -0.816406 4.03125 -0.722656 C 3.996094 -0.398438 3.9375 -0.0820312 3.863281 0.214844 L 1.324219 -0.417969 L 3.90625 0.0117188 C 3.976562 -0.410156 3.902344 -0.835938 3.683594 -1.273438 C 3.457031 -1.730469 3.117188 -2.078125 2.667969 -2.324219 C 2.3125 -2.519531 1.933594 -2.617188 1.535156 -2.617188 L 15.628906 -2.617188 C 15.210938 -2.617188 14.816406 -2.515625 14.449219 -2.308594 C 14.066406 -2.097656 13.761719 -1.804688 13.539062 -1.433594 C 13.328125 -1.078125 13.21875 -0.714844 13.21875 -0.347656 L 13.21875 -0.410156 L 13.222656 -0.472656 C 13.273438 -1.527344 13.433594 -3.015625 13.699219 -4.929688 C 13.957031 -6.789062 14.273438 -8.847656 14.652344 -11.105469 C 15.027344 -13.355469 15.425781 -15.605469 15.847656 -17.851562 C 16.261719 -20.074219 16.632812 -22.113281 16.957031 -23.960938 C 17.277344 -25.789062 17.503906 -27.1875 17.636719 -28.160156 C 17.707031 -28.738281 17.910156 -29.464844 18.238281 -30.332031 C 18.558594 -31.175781 19.054688 -31.832031 19.726562 -32.296875 C 20.460938 -32.804688 21.292969 -33.023438 22.230469 -32.957031 L 22.046875 -30.347656 L 22.046875 -32.964844 C 23 -32.964844 23.820312 -32.621094 24.503906 -31.9375 C 24.972656 -31.46875 25.328125 -30.867188 25.574219 -30.128906 C 25.882812 -29.199219 26.066406 -28.105469 26.125 -26.839844 L 23.511719 -26.71875 L 26.121094 -26.90625 C 26.164062 -26.296875 26.265625 -25.339844 26.421875 -24.03125 C 26.582031 -22.703125 26.765625 -21.316406 26.972656 -19.867188 L 27.53125 -15.960938 C 27.6875 -14.871094 27.78125 -14.230469 27.820312 -14.046875 L 27.871094 -13.792969 L 27.871094 -13.535156 C 27.871094 -12.8125 27.695312 -12.164062 27.34375 -11.582031 C 26.972656 -10.972656 26.449219 -10.507812 25.777344 -10.191406 L 24.652344 -9.664062 L 21.695312 -9.664062 C 20.820312 -9.664062 20.152344 -9.777344 19.6875 -10.007812 L 20.859375 -12.347656 L 20.859375 -9.730469 C 21.050781 -9.730469 21.207031 -9.753906 21.335938 -9.796875 C 21.882812 -9.976562 22.296875 -10.347656 22.570312 -10.898438 L 20.230469 -12.070312 L 22.832031 -11.789062 L 22.449219 -8.234375 C 22.289062 -6.710938 22.136719 -5.199219 22 -3.699219 C 21.863281 -2.222656 21.773438 -1.0625 21.726562 -0.210938 L 19.117188 -0.347656 L 21.730469 -0.347656 C 21.730469 -0.84375 21.5625 -1.300781 21.226562 -1.722656 C 20.75 -2.316406 20.140625 -2.617188 19.394531 -2.617188 Z M 42.136719 -2.617188 "/></g></g></g></g><g fill="#ffffff" fill-opacity="1"><g transform="translate(2.423857, 56.484704)"><g><path d="M 42.140625 0 L 19.390625 0 C 19.203125 0 19.109375 -0.113281 19.109375 -0.34375 C 19.160156 -1.226562 19.253906 -2.425781 19.390625 -3.9375 C 19.535156 -5.445312 19.6875 -6.96875 19.84375 -8.5 C 20.007812 -10.039062 20.140625 -11.226562 20.234375 -12.0625 C 20.273438 -12.15625 20.363281 -12.222656 20.5 -12.265625 C 20.644531 -12.316406 20.765625 -12.34375 20.859375 -12.34375 C 20.953125 -12.300781 21.226562 -12.28125 21.6875 -12.28125 C 22.15625 -12.28125 22.632812 -12.28125 23.125 -12.28125 C 23.613281 -12.28125 23.925781 -12.28125 24.0625 -12.28125 C 24.0625 -12.28125 24.257812 -12.375 24.65625 -12.5625 C 25.050781 -12.75 25.25 -13.070312 25.25 -13.53125 C 25.207031 -13.769531 25.101562 -14.457031 24.9375 -15.59375 C 24.78125 -16.726562 24.59375 -18.03125 24.375 -19.5 C 24.164062 -20.96875 23.976562 -22.375 23.8125 -23.71875 C 23.65625 -25.070312 23.554688 -26.070312 23.515625 -26.71875 C 23.460938 -27.738281 23.320312 -28.597656 23.09375 -29.296875 C 22.863281 -29.992188 22.515625 -30.34375 22.046875 -30.34375 C 21.390625 -30.394531 20.929688 -30.082031 20.671875 -29.40625 C 20.421875 -28.726562 20.273438 -28.207031 20.234375 -27.84375 C 20.085938 -26.8125 19.851562 -25.363281 19.53125 -23.5 C 19.207031 -21.644531 18.835938 -19.597656 18.421875 -17.359375 C 18.003906 -15.128906 17.609375 -12.898438 17.234375 -10.671875 C 16.859375 -8.441406 16.539062 -6.40625 16.28125 -4.5625 C 16.03125 -2.726562 15.882812 -1.320312 15.84375 -0.34375 C 15.84375 -0.113281 15.769531 0 15.625 0 L 1.53125 0 C 1.34375 0 1.273438 -0.140625 1.328125 -0.421875 C 1.367188 -0.609375 1.398438 -0.804688 1.421875 -1.015625 C 1.453125 -1.222656 1.488281 -1.421875 1.53125 -1.609375 C 1.625 -2.023438 1.8125 -2.914062 2.09375 -4.28125 C 2.375 -5.65625 2.6875 -7.203125 3.03125 -8.921875 C 3.382812 -10.648438 3.722656 -12.316406 4.046875 -13.921875 C 4.367188 -15.523438 4.648438 -16.769531 4.890625 -17.65625 C 4.972656 -18.257812 5.144531 -19.28125 5.40625 -20.71875 C 5.664062 -22.164062 5.945312 -23.828125 6.25 -25.703125 C 6.550781 -27.585938 6.863281 -29.519531 7.1875 -31.5 C 7.507812 -33.476562 7.796875 -35.347656 8.046875 -37.109375 C 8.304688 -38.878906 8.53125 -40.34375 8.71875 -41.5 C 8.90625 -42.664062 9 -43.367188 9 -43.609375 C 9.039062 -43.785156 9.132812 -43.875 9.28125 -43.875 L 34.671875 -43.875 C 34.765625 -43.875 34.832031 -43.785156 34.875 -43.609375 C 34.96875 -43.140625 35.144531 -42.171875 35.40625 -40.703125 C 35.664062 -39.242188 35.945312 -37.601562 36.25 -35.78125 C 36.550781 -33.96875 36.835938 -32.234375 37.109375 -30.578125 C 37.390625 -28.929688 37.625 -27.644531 37.8125 -26.71875 C 38.132812 -24.851562 38.4375 -22.988281 38.71875 -21.125 C 39 -19.269531 39.28125 -17.414062 39.5625 -15.5625 C 39.65625 -15.1875 39.78125 -14.472656 39.9375 -13.421875 C 40.101562 -12.378906 40.3125 -11.195312 40.5625 -9.875 C 40.820312 -8.550781 41.066406 -7.210938 41.296875 -5.859375 C 41.535156 -4.515625 41.757812 -3.351562 41.96875 -2.375 C 42.175781 -1.394531 42.300781 -0.742188 42.34375 -0.421875 C 42.4375 -0.140625 42.367188 0 42.140625 0 Z M 42.140625 0 "/></g></g></g></g></g><g transform="matrix(1, 0, 0, 1, 197, 158)"><g clip-path="url(#7a10b0452f)"><g clip-path="url(#b28d140300)"><g fill="#000000" fill-opacity="1"><g transform="translate(1.552677, 56.484704)"><g><path d="M 39.523438 -14.496094 C 40 -13.542969 40.46875 -12.367188 40.925781 -10.964844 C 41.355469 -9.648438 41.761719 -8.3125 42.144531 -6.949219 C 42.523438 -5.605469 42.839844 -4.421875 43.101562 -3.402344 C 43.382812 -2.3125 43.550781 -1.558594 43.609375 -1.136719 L 41.019531 -0.765625 L 43.59375 -1.234375 C 43.75 -0.375 43.648438 0.390625 43.28125 1.0625 C 42.984375 1.605469 42.5625 2.015625 42.007812 2.292969 C 41.574219 2.507812 41.105469 2.617188 40.601562 2.617188 L 25.046875 2.617188 C 24.136719 2.617188 23.390625 2.269531 22.808594 1.570312 C 22.449219 1.136719 22.214844 0.617188 22.117188 0.0117188 L 24.695312 -0.417969 L 22.179688 0.300781 C 22.101562 0.015625 21.902344 -0.582031 21.59375 -1.492188 C 21.277344 -2.410156 20.90625 -3.425781 20.476562 -4.53125 C 20.050781 -5.636719 19.644531 -6.625 19.261719 -7.5 C 18.96875 -8.179688 18.78125 -8.5625 18.710938 -8.648438 L 20.71875 -10.324219 L 18.871094 -8.476562 C 19.128906 -8.21875 19.441406 -8.050781 19.8125 -7.976562 C 20.125 -7.914062 20.410156 -7.929688 20.675781 -8.015625 C 20.984375 -8.121094 21.25 -8.308594 21.472656 -8.582031 C 21.6875 -8.847656 21.8125 -9.132812 21.851562 -9.441406 L 19.253906 -9.765625 L 21.867188 -9.597656 C 21.777344 -8.199219 21.71875 -6.742188 21.695312 -5.226562 C 21.671875 -3.710938 21.683594 -2.226562 21.730469 -0.78125 L 19.117188 -0.699219 L 21.71875 -0.957031 C 21.800781 -0.148438 21.65625 0.558594 21.289062 1.171875 C 20.992188 1.664062 20.589844 2.039062 20.074219 2.296875 C 19.648438 2.507812 19.191406 2.617188 18.695312 2.617188 L 2.371094 2.617188 C 1.890625 2.617188 1.4375 2.511719 1.019531 2.300781 C 0.550781 2.066406 0.171875 1.730469 -0.117188 1.292969 C -0.480469 0.75 -0.664062 0.109375 -0.664062 -0.628906 L -0.664062 -6.558594 C -0.664062 -6.8125 -0.652344 -7.4375 -0.628906 -8.433594 C -0.605469 -9.390625 -0.59375 -10.53125 -0.59375 -11.859375 L -0.59375 -15.90625 C -0.59375 -17.234375 -0.605469 -18.375 -0.628906 -19.332031 C -0.652344 -20.328125 -0.664062 -20.953125 -0.664062 -21.207031 L -0.664062 -29.859375 L -0.523438 -36.714844 C -0.476562 -38.980469 -0.476562 -41.234375 -0.523438 -43.480469 C -0.523438 -44.113281 -0.382812 -44.667969 -0.0976562 -45.140625 C 0.160156 -45.570312 0.503906 -45.90625 0.941406 -46.148438 C 1.359375 -46.378906 1.816406 -46.496094 2.300781 -46.496094 L 31.882812 -46.496094 C 33.074219 -46.496094 34.257812 -46.210938 35.433594 -45.640625 C 36.425781 -45.160156 37.375 -44.550781 38.277344 -43.820312 L 38.355469 -43.75 C 39.347656 -42.875 40.179688 -41.882812 40.851562 -40.769531 C 41.421875 -39.828125 41.839844 -39.089844 42.105469 -38.5625 L 42.136719 -38.5 L 42.164062 -38.433594 C 42.878906 -36.785156 43.320312 -35.105469 43.484375 -33.390625 C 43.632812 -31.863281 43.707031 -30.128906 43.707031 -28.183594 C 43.707031 -26.804688 43.582031 -25.246094 43.332031 -23.519531 C 43.0625 -21.675781 42.695312 -20.226562 42.226562 -19.167969 L 39.835938 -20.230469 L 42.25 -19.226562 C 41.96875 -18.550781 41.585938 -17.808594 41.101562 -17 C 40.671875 -16.285156 40.289062 -15.660156 39.949219 -15.128906 C 39.519531 -14.457031 39.214844 -14.027344 39.035156 -13.847656 L 38.269531 -13.082031 L 37.113281 -13.082031 L 37.113281 -15.695312 L 38.964844 -13.847656 C 39.082031 -13.960938 39.171875 -14.117188 39.238281 -14.308594 C 39.328125 -14.5625 39.351562 -14.816406 39.308594 -15.070312 C 39.332031 -14.925781 39.40625 -14.734375 39.523438 -14.496094 Z M 34.84375 -12.15625 C 34.496094 -12.847656 34.269531 -13.515625 34.152344 -14.160156 C 34.039062 -14.8125 34.089844 -15.445312 34.308594 -16.058594 C 34.503906 -16.609375 34.824219 -17.105469 35.265625 -17.546875 L 36.03125 -18.3125 L 37.183594 -18.3125 L 37.183594 -15.695312 L 35.335938 -17.546875 C 35.242188 -17.457031 35.171875 -17.371094 35.117188 -17.296875 C 35.128906 -17.3125 35.152344 -17.347656 35.179688 -17.390625 C 35.265625 -17.515625 35.382812 -17.699219 35.535156 -17.9375 C 35.847656 -18.429688 36.207031 -19.015625 36.613281 -19.695312 C 36.96875 -20.28125 37.238281 -20.796875 37.421875 -21.238281 L 37.445312 -21.292969 C 37.71875 -21.910156 37.953125 -22.902344 38.152344 -24.269531 C 38.367188 -25.75 38.472656 -27.054688 38.472656 -28.183594 C 38.472656 -29.960938 38.410156 -31.527344 38.277344 -32.886719 C 38.164062 -34.054688 37.859375 -35.210938 37.363281 -36.351562 L 39.765625 -37.394531 L 37.425781 -36.222656 C 37.222656 -36.625 36.875 -37.238281 36.375 -38.0625 C 35.980469 -38.71875 35.484375 -39.304688 34.894531 -39.828125 L 36.625 -41.789062 L 34.976562 -39.757812 C 34.386719 -40.234375 33.777344 -40.628906 33.144531 -40.933594 C 32.691406 -41.15625 32.273438 -41.265625 31.882812 -41.265625 L 2.300781 -41.265625 C 2.71875 -41.265625 3.113281 -41.367188 3.480469 -41.574219 C 3.863281 -41.785156 4.164062 -42.078125 4.390625 -42.449219 C 4.601562 -42.804688 4.710938 -43.183594 4.707031 -43.585938 C 4.757812 -41.273438 4.757812 -38.945312 4.707031 -36.605469 L 4.570312 -29.859375 L 4.570312 -21.207031 C 4.570312 -20.996094 4.582031 -20.414062 4.605469 -19.457031 C 4.628906 -18.460938 4.640625 -17.277344 4.640625 -15.90625 L 4.640625 -11.859375 C 4.640625 -10.492188 4.628906 -9.308594 4.605469 -8.308594 C 4.582031 -7.351562 4.570312 -6.769531 4.570312 -6.558594 L 4.570312 -0.628906 C 4.570312 -0.945312 4.457031 -1.273438 4.234375 -1.609375 C 4.011719 -1.941406 3.722656 -2.199219 3.359375 -2.378906 C 3.042969 -2.539062 2.714844 -2.617188 2.371094 -2.617188 L 18.695312 -2.617188 C 18.367188 -2.617188 18.046875 -2.539062 17.734375 -2.382812 C 17.339844 -2.1875 17.027344 -1.898438 16.800781 -1.519531 C 16.574219 -1.140625 16.476562 -0.78125 16.511719 -0.4375 L 16.503906 -0.527344 L 16.5 -0.617188 C 16.453125 -2.144531 16.441406 -3.707031 16.464844 -5.304688 C 16.488281 -6.90625 16.546875 -8.449219 16.644531 -9.933594 L 16.648438 -10.011719 L 16.660156 -10.089844 C 16.742188 -10.773438 16.992188 -11.367188 17.40625 -11.875 C 17.824219 -12.394531 18.363281 -12.761719 19.019531 -12.980469 C 19.632812 -13.1875 20.242188 -13.226562 20.839844 -13.109375 C 21.503906 -12.976562 22.082031 -12.664062 22.570312 -12.175781 L 22.652344 -12.089844 L 22.730469 -12 C 23.121094 -11.53125 23.566406 -10.726562 24.058594 -9.589844 C 24.46875 -8.652344 24.902344 -7.59375 25.355469 -6.421875 C 25.8125 -5.25 26.207031 -4.167969 26.542969 -3.183594 C 26.882812 -2.1875 27.105469 -1.503906 27.210938 -1.136719 L 27.253906 -0.996094 L 27.277344 -0.847656 C 27.222656 -1.175781 27.074219 -1.484375 26.828125 -1.78125 C 26.363281 -2.335938 25.769531 -2.617188 25.046875 -2.617188 L 40.601562 -2.617188 C 40.285156 -2.617188 39.972656 -2.539062 39.667969 -2.386719 C 39.242188 -2.175781 38.917969 -1.859375 38.6875 -1.445312 C 38.464844 -1.03125 38.382812 -0.648438 38.445312 -0.300781 L 38.4375 -0.347656 L 38.429688 -0.398438 C 38.398438 -0.628906 38.265625 -1.199219 38.03125 -2.105469 C 37.78125 -3.085938 37.472656 -4.230469 37.105469 -5.535156 C 36.746094 -6.828125 36.359375 -8.09375 35.953125 -9.335938 C 35.574219 -10.492188 35.203125 -11.433594 34.84375 -12.15625 Z M 19.640625 -25.449219 C 19.683594 -26.359375 19.695312 -27.1875 19.675781 -27.933594 C 19.652344 -28.664062 19.601562 -29.363281 19.519531 -30.023438 C 19.46875 -30.492188 19.402344 -30.835938 19.328125 -31.0625 C 19.320312 -31.089844 19.3125 -31.113281 19.304688 -31.128906 C 19.304688 -31.125 19.308594 -31.113281 19.316406 -31.101562 C 19.378906 -30.996094 19.464844 -30.894531 19.582031 -30.792969 C 19.59375 -30.78125 19.625 -30.765625 19.679688 -30.742188 C 19.804688 -30.6875 19.941406 -30.660156 20.09375 -30.660156 C 20.363281 -30.660156 20.605469 -30.738281 20.824219 -30.890625 C 20.976562 -30.996094 21.117188 -31.144531 21.238281 -31.328125 C 21.476562 -31.679688 21.59375 -32.074219 21.59375 -32.511719 L 21.59375 -30.207031 C 21.59375 -29.445312 21.582031 -28.441406 21.558594 -27.195312 C 21.535156 -26.027344 21.546875 -25.085938 21.585938 -24.363281 L 21.59375 -24.285156 L 21.59375 -24.207031 C 21.59375 -24.074219 21.617188 -23.890625 21.667969 -23.660156 C 21.570312 -24.101562 21.332031 -24.460938 20.949219 -24.730469 C 20.722656 -24.894531 20.507812 -24.984375 20.308594 -25 L 20.09375 -22.394531 L 20.09375 -25.011719 C 19.921875 -25.011719 19.769531 -24.976562 19.636719 -24.910156 C 19.605469 -24.898438 19.578125 -24.882812 19.5625 -24.871094 C 19.570312 -24.875 19.582031 -24.886719 19.601562 -24.90625 C 19.558594 -24.863281 19.523438 -24.820312 19.5 -24.78125 L 19.5 -24.777344 C 19.503906 -24.792969 19.511719 -24.808594 19.519531 -24.828125 C 19.578125 -24.996094 19.621094 -25.238281 19.648438 -25.550781 L 22.253906 -25.324219 Z M 24.867188 -25.199219 L 24.867188 -25.148438 L 24.859375 -25.097656 C 24.714844 -23.394531 24.195312 -22.097656 23.300781 -21.207031 C 22.351562 -20.253906 21.28125 -19.777344 20.09375 -19.777344 L 19.984375 -19.777344 L 19.875 -19.785156 C 19.117188 -19.851562 18.460938 -20.078125 17.910156 -20.472656 C 17.203125 -20.980469 16.753906 -21.664062 16.5625 -22.523438 C 16.425781 -23.128906 16.359375 -23.691406 16.359375 -24.207031 L 18.976562 -24.207031 L 16.363281 -24.054688 C 16.3125 -24.914062 16.300781 -25.992188 16.324219 -27.292969 C 16.347656 -28.507812 16.359375 -29.480469 16.359375 -30.207031 L 16.359375 -32.511719 C 16.359375 -33.132812 16.535156 -33.703125 16.886719 -34.230469 C 17.125 -34.59375 17.4375 -34.90625 17.824219 -35.175781 C 18.507812 -35.65625 19.261719 -35.894531 20.09375 -35.894531 C 21.171875 -35.894531 22.152344 -35.5 23.042969 -34.714844 C 23.945312 -33.921875 24.5 -32.574219 24.710938 -30.671875 C 24.816406 -29.84375 24.878906 -28.980469 24.90625 -28.085938 C 24.929688 -27.203125 24.917969 -26.242188 24.867188 -25.199219 Z M 24.867188 -25.199219 "/></g></g></g></g><g fill="#ffffff" fill-opacity="1"><g transform="translate(1.552677, 56.484704)"><g><path d="M 37.1875 -13.328125 C 37.601562 -12.484375 38.019531 -11.421875 38.4375 -10.140625 C 38.851562 -8.867188 39.25 -7.566406 39.625 -6.234375 C 40 -4.910156 40.3125 -3.75 40.5625 -2.75 C 40.820312 -1.75 40.972656 -1.085938 41.015625 -0.765625 C 41.109375 -0.253906 40.972656 0 40.609375 0 L 25.046875 0 C 24.859375 0 24.742188 -0.140625 24.703125 -0.421875 C 24.609375 -0.742188 24.394531 -1.378906 24.0625 -2.328125 C 23.738281 -3.285156 23.351562 -4.332031 22.90625 -5.46875 C 22.46875 -6.613281 22.050781 -7.640625 21.65625 -8.546875 C 21.257812 -9.453125 20.945312 -10.046875 20.71875 -10.328125 C 20.488281 -10.554688 20.195312 -10.613281 19.84375 -10.5 C 19.5 -10.382812 19.300781 -10.140625 19.25 -9.765625 C 19.15625 -8.328125 19.097656 -6.828125 19.078125 -5.265625 C 19.054688 -3.710938 19.066406 -2.191406 19.109375 -0.703125 C 19.160156 -0.234375 19.023438 0 18.703125 0 L 2.375 0 C 2.09375 0 1.953125 -0.207031 1.953125 -0.625 L 1.953125 -6.5625 C 1.953125 -6.789062 1.960938 -7.394531 1.984375 -8.375 C 2.003906 -9.351562 2.015625 -10.515625 2.015625 -11.859375 C 2.015625 -13.210938 2.015625 -14.5625 2.015625 -15.90625 C 2.015625 -17.257812 2.003906 -18.421875 1.984375 -19.390625 C 1.960938 -20.367188 1.953125 -20.972656 1.953125 -21.203125 L 1.953125 -29.859375 C 1.992188 -32.085938 2.035156 -34.351562 2.078125 -36.65625 C 2.128906 -38.957031 2.132812 -41.25 2.09375 -43.53125 C 2.09375 -43.757812 2.160156 -43.875 2.296875 -43.875 L 31.890625 -43.875 C 32.671875 -43.875 33.46875 -43.675781 34.28125 -43.28125 C 35.101562 -42.894531 35.882812 -42.398438 36.625 -41.796875 C 37.414062 -41.097656 38.078125 -40.304688 38.609375 -39.421875 C 39.148438 -38.535156 39.535156 -37.859375 39.765625 -37.390625 C 40.367188 -35.992188 40.738281 -34.570312 40.875 -33.125 C 41.019531 -31.6875 41.09375 -30.039062 41.09375 -28.1875 C 41.09375 -26.925781 40.972656 -25.492188 40.734375 -23.890625 C 40.503906 -22.285156 40.207031 -21.066406 39.84375 -20.234375 C 39.601562 -19.671875 39.273438 -19.039062 38.859375 -18.34375 C 38.441406 -17.644531 38.066406 -17.039062 37.734375 -16.53125 C 37.410156 -16.019531 37.226562 -15.742188 37.1875 -15.703125 C 37.1875 -15.703125 37.160156 -15.703125 37.109375 -15.703125 C 36.785156 -15.367188 36.660156 -15.003906 36.734375 -14.609375 C 36.804688 -14.210938 36.957031 -13.785156 37.1875 -13.328125 Z M 22.25 -25.328125 C 22.300781 -26.304688 22.3125 -27.203125 22.28125 -28.015625 C 22.257812 -28.828125 22.203125 -29.601562 22.109375 -30.34375 C 21.972656 -31.601562 21.707031 -32.40625 21.3125 -32.75 C 20.914062 -33.101562 20.507812 -33.28125 20.09375 -33.28125 C 19.8125 -33.28125 19.550781 -33.195312 19.3125 -33.03125 C 19.082031 -32.875 18.96875 -32.703125 18.96875 -32.515625 C 18.96875 -32.234375 18.96875 -31.882812 18.96875 -31.46875 C 18.96875 -31.050781 18.96875 -30.628906 18.96875 -30.203125 C 18.96875 -29.460938 18.957031 -28.472656 18.9375 -27.234375 C 18.914062 -26.003906 18.925781 -24.992188 18.96875 -24.203125 C 18.96875 -23.878906 19.015625 -23.507812 19.109375 -23.09375 C 19.203125 -22.675781 19.53125 -22.441406 20.09375 -22.390625 C 20.5625 -22.390625 21.015625 -22.609375 21.453125 -23.046875 C 21.890625 -23.492188 22.15625 -24.253906 22.25 -25.328125 Z M 22.25 -25.328125 "/></g></g></g></g></g><g transform="matrix(1, 0, 0, 1, 167, 159)"><g clip-path="url(#62452acd74)"><g clip-path="url(#95767f4903)"><g fill="#000000" fill-opacity="1"><g transform="translate(1.78679, 56.471526)"><g><path d="M 43.289062 -11.582031 L 43.289062 -7.742188 C 43.289062 -7.398438 43.300781 -6.867188 43.320312 -6.152344 C 43.34375 -5.425781 43.378906 -4.644531 43.425781 -3.804688 C 43.472656 -2.929688 43.507812 -2.183594 43.53125 -1.566406 L 43.566406 -0.609375 L 43.566406 -0.558594 C 43.566406 0.351562 43.265625 1.105469 42.660156 1.710938 C 42.058594 2.3125 41.300781 2.617188 40.394531 2.617188 L 2.652344 2.617188 C 1.566406 2.617188 0.6875 2.257812 0.0195312 1.535156 C -0.648438 0.816406 -0.941406 -0.0820312 -0.867188 -1.164062 L 1.742188 -0.976562 L -0.871094 -1.082031 C -0.730469 -4.539062 -0.652344 -8.011719 -0.628906 -11.492188 L -0.523438 -22.070312 C -0.476562 -25.558594 -0.347656 -29.066406 -0.136719 -32.597656 C 0.0625 -35.902344 -0.078125 -39.1875 -0.566406 -42.449219 C -0.742188 -43.519531 -0.464844 -44.472656 0.277344 -45.304688 C 0.984375 -46.101562 1.867188 -46.496094 2.929688 -46.496094 L 40.113281 -46.496094 C 40.835938 -46.496094 41.472656 -46.289062 42.03125 -45.871094 C 42.5625 -45.472656 42.933594 -44.945312 43.152344 -44.289062 L 43.289062 -43.886719 L 43.289062 -43.460938 C 43.289062 -43.363281 43.273438 -43.097656 43.25 -42.671875 C 43.222656 -42.246094 43.183594 -41.820312 43.128906 -41.394531 L 40.53125 -41.71875 L 43.148438 -41.71875 C 43.148438 -41.4375 43.125 -40.855469 43.074219 -39.96875 C 43.03125 -39.15625 42.996094 -38.3125 42.972656 -37.429688 C 42.949219 -36.546875 42.941406 -35.882812 42.941406 -35.441406 C 42.941406 -35.035156 42.960938 -34.523438 43.003906 -33.910156 C 43.046875 -33.289062 43.097656 -32.738281 43.160156 -32.253906 L 43.289062 -31.285156 L 43.289062 -31.113281 C 43.289062 -30.144531 42.945312 -29.355469 42.253906 -28.742188 C 41.652344 -28.207031 40.917969 -27.941406 40.042969 -27.941406 L 40.011719 -27.941406 L 38.617188 -27.976562 C 37.730469 -28 36.605469 -28.011719 35.230469 -28.011719 L 30.800781 -28.011719 C 29.273438 -28.011719 27.863281 -27.988281 26.566406 -27.941406 C 25.320312 -27.898438 24.363281 -27.835938 23.695312 -27.75 C 23.265625 -27.695312 22.808594 -27.554688 22.320312 -27.335938 C 22.394531 -27.371094 22.46875 -27.4375 22.539062 -27.539062 C 22.574219 -27.589844 22.601562 -27.636719 22.617188 -27.683594 L 22.621094 -27.6875 C 22.65625 -28.058594 22.550781 -28.359375 22.300781 -28.59375 C 22.457031 -28.445312 22.609375 -28.339844 22.757812 -28.273438 L 21.695312 -25.882812 L 22.210938 -28.449219 C 22.304688 -28.429688 22.898438 -28.398438 23.992188 -28.355469 C 25.191406 -28.3125 26.636719 -28.289062 28.324219 -28.289062 C 30.035156 -28.289062 31.753906 -28.300781 33.488281 -28.324219 C 35.242188 -28.347656 36.730469 -28.359375 37.953125 -28.359375 L 40.042969 -28.359375 C 40.917969 -28.359375 41.652344 -28.09375 42.253906 -27.558594 C 42.945312 -26.945312 43.289062 -26.152344 43.289062 -25.183594 L 43.289062 -16.882812 C 43.289062 -15.914062 42.945312 -15.121094 42.253906 -14.507812 C 41.652344 -13.976562 40.917969 -13.707031 40.042969 -13.707031 C 39.238281 -13.707031 38.121094 -13.71875 36.6875 -13.742188 C 35.257812 -13.765625 33.777344 -13.800781 32.253906 -13.847656 C 30.753906 -13.894531 29.402344 -13.929688 28.203125 -13.953125 C 27.011719 -13.976562 26.214844 -13.988281 25.8125 -13.988281 L 25.8125 -16.605469 L 26.074219 -14 C 25.519531 -13.945312 24.863281 -13.917969 24.101562 -13.917969 C 23.691406 -13.917969 23.308594 -13.863281 22.953125 -13.753906 C 23.0625 -13.789062 23.144531 -13.859375 23.199219 -13.96875 C 23.167969 -13.910156 23.152344 -13.875 23.144531 -13.859375 C 23.148438 -13.863281 23.148438 -13.871094 23.152344 -13.882812 C 23.171875 -13.96875 23.179688 -14.0625 23.167969 -14.175781 C 23.140625 -14.453125 23.046875 -14.667969 22.882812 -14.828125 C 23.152344 -14.566406 23.433594 -14.402344 23.726562 -14.328125 L 23.089844 -11.789062 L 23.605469 -14.355469 C 23.902344 -14.296875 24.683594 -14.265625 25.953125 -14.265625 C 27.359375 -14.265625 28.96875 -14.300781 30.769531 -14.371094 L 36.070312 -14.578125 C 37.753906 -14.648438 39.03125 -14.707031 39.90625 -14.75 L 39.976562 -14.753906 L 40.042969 -14.753906 C 40.917969 -14.753906 41.652344 -14.488281 42.253906 -13.953125 C 42.945312 -13.339844 43.289062 -12.550781 43.289062 -11.582031 Z M 38.054688 -11.582031 C 38.054688 -10.984375 38.296875 -10.472656 38.777344 -10.042969 C 39.167969 -9.695312 39.589844 -9.523438 40.042969 -9.523438 L 40.042969 -12.140625 L 40.183594 -9.527344 C 39.289062 -9.480469 37.984375 -9.421875 36.277344 -9.351562 L 30.96875 -9.140625 C 29.097656 -9.070312 27.425781 -9.035156 25.953125 -9.035156 C 24.335938 -9.035156 23.214844 -9.097656 22.578125 -9.222656 L 22.519531 -9.238281 L 22.457031 -9.25 C 21.261719 -9.550781 20.195312 -10.152344 19.253906 -11.054688 C 18.488281 -11.792969 18.054688 -12.667969 17.957031 -13.679688 C 17.875 -14.5625 18.0625 -15.4375 18.519531 -16.308594 C 19.132812 -17.535156 20.097656 -18.351562 21.414062 -18.753906 C 22.269531 -19.019531 23.167969 -19.148438 24.101562 -19.148438 C 24.691406 -19.148438 25.171875 -19.167969 25.550781 -19.207031 L 25.683594 -19.21875 L 25.8125 -19.21875 C 26.246094 -19.21875 27.078125 -19.207031 28.304688 -19.183594 C 29.523438 -19.160156 30.894531 -19.125 32.414062 -19.078125 C 33.914062 -19.03125 35.367188 -19 36.773438 -18.976562 C 38.175781 -18.953125 39.269531 -18.941406 40.042969 -18.941406 C 39.589844 -18.941406 39.167969 -18.765625 38.777344 -18.417969 C 38.296875 -17.992188 38.054688 -17.480469 38.054688 -16.882812 L 38.054688 -25.183594 C 38.054688 -24.585938 38.296875 -24.074219 38.777344 -23.648438 C 39.167969 -23.300781 39.589844 -23.125 40.042969 -23.125 L 37.953125 -23.125 C 36.753906 -23.125 35.289062 -23.113281 33.554688 -23.09375 C 31.800781 -23.070312 30.054688 -23.058594 28.324219 -23.058594 C 26.570312 -23.058594 25.0625 -23.082031 23.796875 -23.128906 C 22.421875 -23.179688 21.554688 -23.242188 21.183594 -23.316406 L 20.898438 -23.375 L 20.632812 -23.492188 C 19.945312 -23.796875 19.308594 -24.226562 18.722656 -24.777344 C 17.726562 -25.707031 17.292969 -26.871094 17.421875 -28.265625 C 17.519531 -29.125 17.792969 -29.882812 18.253906 -30.539062 C 18.730469 -31.222656 19.371094 -31.742188 20.167969 -32.105469 C 21.121094 -32.535156 22.082031 -32.816406 23.046875 -32.941406 C 23.867188 -33.046875 24.980469 -33.121094 26.382812 -33.171875 C 27.738281 -33.21875 29.210938 -33.242188 30.800781 -33.242188 L 35.230469 -33.242188 C 36.648438 -33.242188 37.820312 -33.230469 38.75 -33.207031 L 40.113281 -33.171875 L 40.042969 -30.554688 L 40.042969 -33.171875 C 39.589844 -33.171875 39.167969 -33 38.777344 -32.652344 C 38.296875 -32.222656 38.054688 -31.710938 38.054688 -31.113281 L 40.671875 -31.113281 L 38.078125 -30.777344 L 37.972656 -31.578125 C 37.898438 -32.164062 37.832031 -32.824219 37.78125 -33.550781 C 37.734375 -34.285156 37.707031 -34.914062 37.707031 -35.441406 C 37.707031 -35.925781 37.71875 -36.636719 37.742188 -37.566406 C 37.765625 -38.496094 37.804688 -39.394531 37.851562 -40.257812 C 37.894531 -41.046875 37.917969 -41.535156 37.917969 -41.71875 L 37.917969 -41.882812 L 37.9375 -42.042969 C 37.976562 -42.363281 38.007812 -42.679688 38.027344 -43 C 38.039062 -43.179688 38.046875 -43.316406 38.050781 -43.417969 C 38.054688 -43.460938 38.054688 -43.492188 38.054688 -43.515625 C 38.058594 -43.523438 38.058594 -43.523438 38.058594 -43.523438 C 38.054688 -43.507812 38.054688 -43.484375 38.054688 -43.460938 L 40.671875 -43.460938 L 38.191406 -42.636719 C 38.316406 -42.257812 38.550781 -41.941406 38.894531 -41.683594 C 39.265625 -41.40625 39.671875 -41.265625 40.113281 -41.265625 L 2.929688 -41.265625 C 3.433594 -41.265625 3.855469 -41.453125 4.1875 -41.828125 C 4.554688 -42.242188 4.695312 -42.707031 4.609375 -43.21875 C 5.148438 -39.597656 5.308594 -35.953125 5.089844 -32.285156 C 4.882812 -28.835938 4.753906 -25.414062 4.710938 -22.019531 L 4.605469 -11.457031 C 4.582031 -7.917969 4.5 -4.390625 4.359375 -0.871094 L 4.355469 -0.832031 L 4.355469 -0.789062 C 4.363281 -0.914062 4.347656 -1.054688 4.304688 -1.210938 C 4.226562 -1.515625 4.074219 -1.785156 3.851562 -2.023438 C 3.628906 -2.265625 3.371094 -2.4375 3.074219 -2.535156 C 2.917969 -2.589844 2.777344 -2.617188 2.652344 -2.617188 L 40.394531 -2.617188 C 39.855469 -2.617188 39.378906 -2.40625 38.960938 -1.988281 C 38.542969 -1.570312 38.335938 -1.09375 38.335938 -0.558594 L 40.953125 -0.558594 L 38.335938 -0.457031 L 38.300781 -1.363281 C 38.28125 -1.957031 38.246094 -2.675781 38.199219 -3.519531 C 38.152344 -4.402344 38.117188 -5.222656 38.09375 -5.988281 C 38.066406 -6.757812 38.054688 -7.34375 38.054688 -7.742188 Z M 38.054688 -11.582031 "/></g></g></g></g><g fill="#ffffff" fill-opacity="1"><g transform="translate(1.78679, 56.471526)"><g><path d="M 40.671875 -11.578125 C 40.671875 -10.972656 40.671875 -10.3125 40.671875 -9.59375 C 40.671875 -8.875 40.671875 -8.257812 40.671875 -7.75 C 40.671875 -7.375 40.679688 -6.8125 40.703125 -6.0625 C 40.734375 -5.320312 40.769531 -4.519531 40.8125 -3.65625 C 40.851562 -2.800781 40.882812 -2.070312 40.90625 -1.46875 C 40.9375 -0.863281 40.953125 -0.5625 40.953125 -0.5625 C 40.953125 -0.1875 40.765625 0 40.390625 0 L 2.65625 0 C 2 0 1.695312 -0.328125 1.75 -0.984375 C 1.882812 -4.460938 1.960938 -7.957031 1.984375 -11.46875 C 2.003906 -14.988281 2.039062 -18.515625 2.09375 -22.046875 C 2.132812 -25.484375 2.257812 -28.945312 2.46875 -32.4375 C 2.6875 -35.925781 2.535156 -39.394531 2.015625 -42.84375 C 1.972656 -43.113281 2.046875 -43.351562 2.234375 -43.5625 C 2.421875 -43.769531 2.65625 -43.875 2.9375 -43.875 L 40.109375 -43.875 C 40.390625 -43.875 40.578125 -43.738281 40.671875 -43.46875 C 40.671875 -43.414062 40.660156 -43.203125 40.640625 -42.828125 C 40.617188 -42.460938 40.582031 -42.09375 40.53125 -41.71875 C 40.53125 -41.488281 40.503906 -40.953125 40.453125 -40.109375 C 40.410156 -39.273438 40.378906 -38.40625 40.359375 -37.5 C 40.335938 -36.59375 40.328125 -35.90625 40.328125 -35.4375 C 40.328125 -34.976562 40.347656 -34.410156 40.390625 -33.734375 C 40.441406 -33.054688 40.5 -32.445312 40.5625 -31.90625 C 40.632812 -31.375 40.671875 -31.109375 40.671875 -31.109375 C 40.671875 -30.742188 40.460938 -30.5625 40.046875 -30.5625 C 40.046875 -30.5625 39.59375 -30.570312 38.6875 -30.59375 C 37.78125 -30.613281 36.628906 -30.625 35.234375 -30.625 C 33.835938 -30.625 32.359375 -30.625 30.796875 -30.625 C 29.242188 -30.625 27.800781 -30.597656 26.46875 -30.546875 C 25.144531 -30.503906 24.113281 -30.4375 23.375 -30.34375 C 22.675781 -30.25 21.960938 -30.039062 21.234375 -29.71875 C 20.515625 -29.394531 20.109375 -28.8125 20.015625 -27.96875 C 19.972656 -27.457031 20.132812 -27.023438 20.5 -26.671875 C 20.875 -26.328125 21.273438 -26.066406 21.703125 -25.890625 C 21.929688 -25.835938 22.660156 -25.785156 23.890625 -25.734375 C 25.128906 -25.691406 26.609375 -25.671875 28.328125 -25.671875 C 30.046875 -25.671875 31.773438 -25.679688 33.515625 -25.703125 C 35.265625 -25.734375 36.742188 -25.75 37.953125 -25.75 C 39.160156 -25.75 39.859375 -25.75 40.046875 -25.75 C 40.460938 -25.75 40.671875 -25.5625 40.671875 -25.1875 L 40.671875 -19.390625 C 40.671875 -18.878906 40.671875 -18.4375 40.671875 -18.0625 C 40.671875 -17.695312 40.671875 -17.304688 40.671875 -16.890625 C 40.671875 -16.515625 40.460938 -16.328125 40.046875 -16.328125 C 39.253906 -16.328125 38.148438 -16.335938 36.734375 -16.359375 C 35.316406 -16.378906 33.847656 -16.410156 32.328125 -16.453125 C 30.816406 -16.503906 29.457031 -16.539062 28.25 -16.5625 C 27.039062 -16.59375 26.226562 -16.609375 25.8125 -16.609375 C 25.34375 -16.554688 24.769531 -16.53125 24.09375 -16.53125 C 23.425781 -16.53125 22.789062 -16.4375 22.1875 -16.25 C 21.582031 -16.0625 21.140625 -15.691406 20.859375 -15.140625 C 20.390625 -14.253906 20.457031 -13.519531 21.0625 -12.9375 C 21.664062 -12.351562 22.34375 -11.972656 23.09375 -11.796875 C 23.5625 -11.703125 24.515625 -11.65625 25.953125 -11.65625 C 27.390625 -11.65625 29.023438 -11.6875 30.859375 -11.75 C 32.703125 -11.820312 34.472656 -11.890625 36.171875 -11.953125 C 37.867188 -12.023438 39.160156 -12.085938 40.046875 -12.140625 C 40.460938 -12.140625 40.671875 -11.953125 40.671875 -11.578125 Z M 40.671875 -11.578125 "/></g></g></g></g></g><g clip-path="url(#e265b5aeea)"><g transform="matrix(1, 0, 0, 1, 121, 222)"><g clip-path="url(#fc54d1abaa)"><g clip-path="url(#640837e1b1)"><path fill="#000000" d="M 0.566406 0.777344 L 132.402344 0.777344 L 132.402344 22.496094 L 0.566406 22.496094 Z M 0.566406 0.777344 " fill-opacity="1" fill-rule="nonzero"/></g></g></g></g><g transform="matrix(1, 0, 0, 1, 141, 158)"><g clip-path="url(#b86d5b0af6)"><g clip-path="url(#2ba798c669)"><g fill="#000000" fill-opacity="1"><g transform="translate(1.920552, 56.484704)"><g><path d="M 43.289062 -43.742188 C 43.289062 -41.925781 43.332031 -40.09375 43.425781 -38.253906 C 43.523438 -36.285156 43.523438 -34.328125 43.425781 -32.378906 L 43.285156 -29.6875 C 43.242188 -28.871094 43.242188 -28.039062 43.285156 -27.199219 L 43.289062 -27.132812 L 43.289062 -27.066406 C 43.289062 -26.246094 43.050781 -25.539062 42.574219 -24.945312 C 42.039062 -24.277344 41.328125 -23.886719 40.4375 -23.773438 C 39.566406 -23.664062 38.566406 -23.625 37.4375 -23.652344 C 36.480469 -23.671875 35.582031 -23.671875 34.742188 -23.652344 C 34.433594 -23.640625 34.199219 -23.625 34.039062 -23.59375 L 34.03125 -23.597656 C 34.140625 -23.636719 34.257812 -23.695312 34.378906 -23.773438 C 34.425781 -23.804688 34.460938 -23.832031 34.480469 -23.851562 C 34.460938 -23.832031 34.433594 -23.800781 34.394531 -23.761719 C 34.484375 -23.859375 34.546875 -23.953125 34.585938 -24.042969 C 34.589844 -24.054688 34.59375 -24.058594 34.59375 -24.058594 C 34.589844 -24.042969 34.582031 -24.019531 34.574219 -23.988281 L 32.023438 -24.558594 L 34.617188 -24.230469 C 34.582031 -23.9375 34.539062 -23.199219 34.496094 -22.019531 C 34.453125 -20.792969 34.429688 -19.328125 34.429688 -17.617188 L 34.429688 -2.652344 C 34.429688 -2.125 34.433594 -1.722656 34.445312 -1.441406 C 34.449219 -1.328125 34.453125 -1.25 34.457031 -1.199219 C 34.449219 -1.304688 34.417969 -1.4375 34.363281 -1.59375 L 34.5 -1.191406 L 34.5 -0.765625 C 34.5 0.109375 34.25 0.855469 33.75 1.464844 C 33.121094 2.234375 32.289062 2.617188 31.253906 2.617188 L 11.789062 2.617188 C 10.828125 2.617188 10.035156 2.269531 9.410156 1.574219 C 8.921875 1.035156 8.640625 0.363281 8.558594 -0.4375 L 8.546875 -0.566406 L 8.546875 -0.699219 C 8.546875 -1.316406 8.558594 -2.355469 8.582031 -3.808594 C 8.605469 -5.257812 8.640625 -6.894531 8.6875 -8.71875 L 8.824219 -14.125 L 8.929688 -18.753906 C 8.949219 -19.925781 8.945312 -20.636719 8.914062 -20.882812 C 8.804688 -21.710938 8.761719 -22.546875 8.792969 -23.386719 C 8.789062 -23.328125 8.800781 -23.289062 8.824219 -23.265625 L 10.675781 -25.113281 L 8.9375 -23.160156 C 8.785156 -23.292969 8.636719 -23.386719 8.484375 -23.433594 C 8.191406 -23.535156 7.886719 -23.597656 7.578125 -23.625 C 7.21875 -23.664062 6.671875 -23.683594 5.929688 -23.683594 L 2.652344 -23.683594 C 1.664062 -23.683594 0.859375 -24.03125 0.234375 -24.726562 C -0.316406 -25.339844 -0.59375 -26.097656 -0.59375 -27 L -0.59375 -27.941406 C -0.59375 -28.542969 -0.605469 -29.214844 -0.625 -29.953125 C -0.648438 -30.652344 -0.679688 -31.175781 -0.714844 -31.523438 L -0.722656 -31.574219 L -0.726562 -31.625 C -0.773438 -32.304688 -0.824219 -33.277344 -0.871094 -34.539062 C -0.917969 -35.804688 -0.941406 -37.117188 -0.941406 -38.476562 L -0.941406 -43.460938 C -0.941406 -43.945312 -0.835938 -44.394531 -0.625 -44.816406 C -0.394531 -45.28125 -0.0585938 -45.660156 0.378906 -45.953125 C 0.925781 -46.316406 1.566406 -46.496094 2.300781 -46.496094 L 41.148438 -46.496094 L 41.773438 -46.1875 C 42.210938 -45.96875 42.5625 -45.65625 42.832031 -45.253906 C 43.136719 -44.796875 43.289062 -44.292969 43.289062 -43.742188 Z M 38.054688 -43.742188 C 38.054688 -43.238281 38.195312 -42.773438 38.476562 -42.351562 C 38.722656 -41.984375 39.042969 -41.703125 39.433594 -41.507812 L 39.363281 -41.542969 L 40.53125 -43.882812 L 40.53125 -41.265625 L 2.300781 -41.265625 C 2.621094 -41.265625 2.949219 -41.375 3.28125 -41.601562 C 3.617188 -41.820312 3.871094 -42.113281 4.054688 -42.476562 C 4.210938 -42.792969 4.289062 -43.121094 4.289062 -43.460938 L 4.289062 -38.476562 C 4.289062 -37.183594 4.3125 -35.9375 4.359375 -34.738281 C 4.402344 -33.53125 4.449219 -32.621094 4.492188 -32 L 1.882812 -31.8125 L 4.484375 -32.101562 C 4.539062 -31.613281 4.578125 -30.949219 4.601562 -30.113281 C 4.628906 -29.320312 4.640625 -28.59375 4.640625 -27.941406 L 4.640625 -27 C 4.640625 -27.433594 4.46875 -27.84375 4.125 -28.226562 C 3.710938 -28.6875 3.21875 -28.917969 2.652344 -28.917969 L 5.929688 -28.917969 C 6.863281 -28.917969 7.570312 -28.890625 8.050781 -28.835938 C 8.761719 -28.773438 9.460938 -28.625 10.140625 -28.398438 C 10.96875 -28.125 11.726562 -27.679688 12.410156 -27.070312 L 12.46875 -27.019531 L 12.523438 -26.964844 C 13.570312 -25.917969 14.070312 -24.667969 14.019531 -23.214844 C 14.003906 -22.660156 14.03125 -22.101562 14.105469 -21.53125 C 14.167969 -21.039062 14.1875 -20.074219 14.160156 -18.636719 L 14.058594 -13.988281 L 13.917969 -8.582031 C 13.871094 -6.777344 13.835938 -5.160156 13.8125 -3.726562 C 13.789062 -2.296875 13.777344 -1.289062 13.777344 -0.699219 L 11.164062 -0.699219 L 13.765625 -0.957031 C 13.730469 -1.292969 13.578125 -1.617188 13.296875 -1.925781 C 12.882812 -2.386719 12.378906 -2.617188 11.789062 -2.617188 L 31.253906 -2.617188 C 30.636719 -2.617188 30.117188 -2.359375 29.699219 -1.847656 C 29.410156 -1.496094 29.265625 -1.132812 29.265625 -0.765625 L 31.882812 -0.765625 L 29.398438 0.0585938 C 29.265625 -0.347656 29.195312 -1.25 29.195312 -2.652344 L 29.195312 -17.617188 C 29.195312 -19.390625 29.21875 -20.925781 29.265625 -22.210938 C 29.316406 -23.542969 29.371094 -24.433594 29.425781 -24.882812 L 29.441406 -25.003906 L 29.46875 -25.125 C 29.660156 -25.984375 29.996094 -26.6875 30.484375 -27.238281 C 30.820312 -27.613281 31.152344 -27.910156 31.476562 -28.128906 C 32.175781 -28.59375 33.21875 -28.84375 34.605469 -28.882812 C 35.53125 -28.90625 36.515625 -28.90625 37.558594 -28.882812 C 38.429688 -28.863281 39.171875 -28.890625 39.789062 -28.964844 C 39.273438 -28.902344 38.839844 -28.652344 38.488281 -28.214844 C 38.199219 -27.851562 38.054688 -27.472656 38.054688 -27.066406 L 40.671875 -27.066406 L 38.058594 -26.9375 C 38.007812 -27.957031 38.007812 -28.964844 38.058594 -29.960938 L 38.199219 -32.640625 C 38.289062 -34.414062 38.289062 -36.199219 38.199219 -37.996094 C 38.105469 -39.921875 38.054688 -41.839844 38.054688 -43.742188 Z M 38.054688 -43.742188 "/></g></g></g></g><g fill="#ffffff" fill-opacity="1"><g transform="translate(1.920552, 56.484704)"><g><path d="M 40.671875 -43.75 C 40.671875 -41.882812 40.71875 -40.007812 40.8125 -38.125 C 40.90625 -36.238281 40.90625 -34.367188 40.8125 -32.515625 C 40.769531 -31.628906 40.722656 -30.734375 40.671875 -29.828125 C 40.628906 -28.921875 40.628906 -28 40.671875 -27.0625 C 40.671875 -26.644531 40.484375 -26.414062 40.109375 -26.375 C 39.367188 -26.28125 38.5 -26.242188 37.5 -26.265625 C 36.5 -26.285156 35.554688 -26.285156 34.671875 -26.265625 C 33.785156 -26.242188 33.203125 -26.140625 32.921875 -25.953125 C 32.785156 -25.859375 32.625 -25.707031 32.4375 -25.5 C 32.25 -25.289062 32.109375 -24.976562 32.015625 -24.5625 C 31.972656 -24.1875 31.925781 -23.367188 31.875 -22.109375 C 31.832031 -20.859375 31.8125 -19.359375 31.8125 -17.609375 C 31.8125 -15.867188 31.8125 -14.054688 31.8125 -12.171875 C 31.8125 -10.285156 31.8125 -8.503906 31.8125 -6.828125 C 31.8125 -5.160156 31.8125 -3.769531 31.8125 -2.65625 C 31.8125 -1.539062 31.835938 -0.910156 31.890625 -0.765625 C 31.890625 -0.253906 31.675781 0 31.25 0 L 11.796875 0 C 11.421875 0 11.207031 -0.234375 11.15625 -0.703125 C 11.15625 -1.304688 11.164062 -2.328125 11.1875 -3.765625 C 11.21875 -5.210938 11.253906 -6.84375 11.296875 -8.65625 C 11.347656 -10.46875 11.394531 -12.269531 11.4375 -14.0625 C 11.488281 -15.851562 11.523438 -17.398438 11.546875 -18.703125 C 11.566406 -20.003906 11.554688 -20.835938 11.515625 -21.203125 C 11.421875 -21.898438 11.382812 -22.597656 11.40625 -23.296875 C 11.425781 -23.992188 11.179688 -24.597656 10.671875 -25.109375 C 10.253906 -25.484375 9.800781 -25.75 9.3125 -25.90625 C 8.820312 -26.070312 8.320312 -26.179688 7.8125 -26.234375 C 7.394531 -26.273438 6.765625 -26.296875 5.921875 -26.296875 C 5.085938 -26.296875 4.332031 -26.296875 3.65625 -26.296875 C 2.988281 -26.296875 2.65625 -26.296875 2.65625 -26.296875 C 2.226562 -26.296875 2.015625 -26.53125 2.015625 -27 C 2.015625 -27 2.015625 -27.3125 2.015625 -27.9375 C 2.015625 -28.570312 2.003906 -29.269531 1.984375 -30.03125 C 1.960938 -30.800781 1.929688 -31.394531 1.890625 -31.8125 C 1.835938 -32.46875 1.785156 -33.410156 1.734375 -34.640625 C 1.691406 -35.867188 1.671875 -37.144531 1.671875 -38.46875 C 1.671875 -39.800781 1.671875 -40.941406 1.671875 -41.890625 C 1.671875 -42.847656 1.671875 -43.375 1.671875 -43.46875 C 1.671875 -43.738281 1.878906 -43.875 2.296875 -43.875 L 40.53125 -43.875 C 40.53125 -43.875 40.550781 -43.863281 40.59375 -43.84375 C 40.644531 -43.820312 40.671875 -43.789062 40.671875 -43.75 Z M 40.671875 -43.75 "/></g></g></g></g></g><g transform="matrix(1, 0, 0, 1, 105, 159)"><g clip-path="url(#dde4ed47dd)"><g fill="#000000" fill-opacity="1"><g transform="translate(2.422703, 56.471526)"><g><path d="M 42.3125 -45.730469 C 42.558594 -45.484375 42.769531 -45.1875 42.941406 -44.84375 L 43.15625 -44.410156 L 43.207031 -43.933594 C 43.3125 -42.882812 43.347656 -41.984375 43.320312 -41.238281 C 43.296875 -40.589844 43.261719 -39.871094 43.214844 -39.082031 C 43.171875 -38.367188 43.148438 -37.269531 43.148438 -35.789062 C 43.148438 -35.304688 43.191406 -34.566406 43.277344 -33.574219 L 43.496094 -31.015625 L 43.496094 -30.90625 C 43.496094 -29.972656 43.191406 -29.199219 42.574219 -28.585938 C 41.960938 -27.96875 41.183594 -27.660156 40.253906 -27.660156 L 40.214844 -27.660156 L 40.175781 -27.664062 C 38.570312 -27.710938 36.734375 -27.792969 34.664062 -27.910156 L 28.914062 -28.222656 C 27.171875 -28.3125 25.929688 -28.359375 25.183594 -28.359375 L 25.183594 -30.976562 L 25.253906 -28.359375 C 23.667969 -28.316406 22.300781 -28.191406 21.152344 -27.984375 C 21.007812 -27.957031 20.894531 -27.925781 20.816406 -27.894531 C 20.835938 -27.902344 20.871094 -27.929688 20.925781 -27.972656 C 21.230469 -28.230469 21.382812 -28.554688 21.382812 -28.953125 C 21.382812 -28.878906 21.386719 -28.828125 21.390625 -28.796875 C 21.382812 -28.84375 21.363281 -28.902344 21.328125 -28.972656 C 21.15625 -29.359375 20.855469 -29.628906 20.429688 -29.792969 C 20.722656 -29.679688 20.949219 -29.613281 21.113281 -29.59375 L 21.191406 -29.585938 L 21.265625 -29.570312 C 22.292969 -29.382812 23.105469 -29.3125 23.710938 -29.363281 C 24.675781 -29.441406 25.964844 -29.433594 27.582031 -29.332031 C 29.246094 -29.230469 30.890625 -29 32.511719 -28.648438 C 34.417969 -28.230469 36.121094 -27.394531 37.609375 -26.140625 C 38.363281 -25.496094 39.164062 -24.699219 40.007812 -23.75 C 41.019531 -22.621094 41.847656 -21.066406 42.496094 -19.09375 C 43.117188 -17.203125 43.429688 -14.628906 43.429688 -11.371094 C 43.429688 -10.511719 43.253906 -9.355469 42.902344 -7.898438 C 42.527344 -6.347656 41.816406 -4.773438 40.769531 -3.171875 L 40.75 -3.144531 L 40.730469 -3.113281 C 40.160156 -2.289062 39.300781 -1.433594 38.160156 -0.546875 C 36.984375 0.363281 35.671875 1.050781 34.214844 1.515625 C 32.433594 2.054688 30.65625 2.351562 28.890625 2.40625 C 27.332031 2.453125 26.1875 2.476562 25.464844 2.476562 C 25.292969 2.476562 24.625 2.488281 23.457031 2.511719 C 22.253906 2.535156 20.773438 2.546875 19.011719 2.546875 C 17.277344 2.546875 15.460938 2.558594 13.566406 2.582031 C 11.648438 2.605469 9.835938 2.617188 8.128906 2.617188 L 2.441406 2.617188 C 1.570312 2.617188 0.832031 2.347656 0.234375 1.816406 C -0.457031 1.203125 -0.800781 0.410156 -0.800781 -0.558594 C -0.800781 -1.152344 -0.789062 -1.746094 -0.765625 -2.339844 C -0.742188 -2.9375 -0.703125 -3.53125 -0.652344 -4.125 C -0.566406 -5.417969 -0.535156 -6.738281 -0.558594 -8.085938 C -0.582031 -9.515625 -0.59375 -10.9375 -0.59375 -12.347656 C -0.59375 -13.339844 -0.25 -14.144531 0.441406 -14.757812 C 1.125 -15.367188 1.960938 -15.617188 2.941406 -15.507812 C 3.339844 -15.472656 3.859375 -15.453125 4.5 -15.453125 C 5.253906 -15.453125 5.949219 -15.441406 6.589844 -15.414062 C 7.160156 -15.394531 7.523438 -15.382812 7.675781 -15.382812 L 7.761719 -15.382812 L 7.847656 -15.378906 C 8.503906 -15.332031 9.417969 -15.300781 10.585938 -15.277344 C 11.746094 -15.253906 12.980469 -15.265625 14.28125 -15.3125 C 15.589844 -15.355469 16.820312 -15.425781 17.96875 -15.515625 C 18.980469 -15.59375 19.726562 -15.703125 20.210938 -15.839844 L 20.265625 -15.855469 L 20.324219 -15.871094 C 20.335938 -15.875 20.34375 -15.875 20.347656 -15.875 C 20.332031 -15.871094 20.3125 -15.863281 20.292969 -15.847656 C 20.203125 -15.800781 20.121094 -15.730469 20.046875 -15.644531 C 19.921875 -15.492188 19.855469 -15.367188 19.851562 -15.261719 L 19.851562 -15.308594 L 19.855469 -15.355469 C 19.828125 -15.007812 19.925781 -14.671875 20.152344 -14.347656 C 20.335938 -14.085938 20.542969 -13.910156 20.777344 -13.828125 C 20.480469 -13.933594 20.066406 -13.988281 19.535156 -13.988281 C 18.769531 -13.988281 18.003906 -13.957031 17.238281 -13.890625 C 16.332031 -13.816406 15.605469 -13.777344 15.070312 -13.777344 L 15.070312 -16.394531 L 15.230469 -13.785156 C 13.5625 -13.679688 11.925781 -13.746094 10.328125 -13.980469 C 8.519531 -14.246094 6.828125 -14.90625 5.246094 -15.960938 C 4.078125 -16.722656 3.039062 -17.699219 2.132812 -18.898438 C 1.253906 -20.058594 0.585938 -21.277344 0.121094 -22.546875 C -0.800781 -24.996094 -1.140625 -27.558594 -0.894531 -30.238281 C -0.660156 -32.808594 -0.015625 -35.253906 1.035156 -37.570312 C 1.699219 -39.007812 2.53125 -40.308594 3.523438 -41.46875 C 4.601562 -42.722656 5.886719 -43.710938 7.378906 -44.425781 C 8.441406 -44.933594 9.539062 -45.386719 10.667969 -45.789062 C 12 -46.261719 13.347656 -46.496094 14.71875 -46.496094 L 41.546875 -46.496094 Z M 38.613281 -42.03125 L 40.464844 -43.882812 L 40.464844 -41.265625 L 14.71875 -41.265625 C 13.953125 -41.265625 13.183594 -41.128906 12.421875 -40.859375 C 11.460938 -40.515625 10.535156 -40.132812 9.644531 -39.707031 C 8.8125 -39.308594 8.097656 -38.761719 7.496094 -38.0625 C 6.820312 -37.269531 6.253906 -36.382812 5.800781 -35.402344 C 4.992188 -33.625 4.496094 -31.746094 4.316406 -29.757812 C 4.140625 -27.878906 4.382812 -26.070312 5.039062 -24.335938 C 5.324219 -23.558594 5.746094 -22.796875 6.308594 -22.054688 C 6.84375 -21.34375 7.457031 -20.765625 8.148438 -20.316406 C 9.078125 -19.695312 10.058594 -19.308594 11.089844 -19.15625 C 12.328125 -18.972656 13.601562 -18.925781 14.90625 -19.003906 L 14.988281 -19.011719 L 15.070312 -19.011719 C 15.460938 -19.011719 16.039062 -19.042969 16.804688 -19.105469 C 17.714844 -19.183594 18.625 -19.21875 19.535156 -19.21875 C 20.675781 -19.21875 21.679688 -19.0625 22.546875 -18.75 C 23.359375 -18.457031 23.992188 -17.988281 24.445312 -17.339844 C 24.9375 -16.632812 25.148438 -15.828125 25.070312 -14.921875 L 22.464844 -15.140625 L 25.078125 -15.015625 C 25.027344 -13.933594 24.679688 -13.015625 24.042969 -12.261719 C 23.417969 -11.523438 22.582031 -11.027344 21.535156 -10.78125 L 20.929688 -13.324219 L 21.648438 -10.808594 C 20.828125 -10.574219 19.738281 -10.40625 18.378906 -10.296875 C 17.152344 -10.203125 15.847656 -10.128906 14.460938 -10.082031 C 13.066406 -10.035156 11.738281 -10.023438 10.484375 -10.046875 C 9.234375 -10.070312 8.238281 -10.105469 7.5 -10.15625 L 7.675781 -12.765625 L 7.675781 -10.152344 C 7.453125 -10.152344 7.027344 -10.164062 6.386719 -10.1875 C 5.816406 -10.210938 5.1875 -10.21875 4.5 -10.21875 C 3.699219 -10.21875 2.988281 -10.25 2.363281 -10.304688 C 2.925781 -10.242188 3.441406 -10.421875 3.917969 -10.847656 C 4.398438 -11.273438 4.640625 -11.773438 4.640625 -12.347656 C 4.640625 -10.96875 4.652344 -9.574219 4.675781 -8.171875 C 4.699219 -6.679688 4.660156 -5.1875 4.5625 -3.691406 C 4.515625 -3.167969 4.484375 -2.644531 4.460938 -2.125 C 4.441406 -1.601562 4.429688 -1.078125 4.429688 -0.558594 C 4.429688 -1.15625 4.191406 -1.667969 3.710938 -2.09375 C 3.316406 -2.441406 2.894531 -2.617188 2.441406 -2.617188 L 8.128906 -2.617188 C 9.8125 -2.617188 11.605469 -2.628906 13.503906 -2.652344 C 15.417969 -2.675781 17.257812 -2.6875 19.011719 -2.6875 C 20.738281 -2.6875 22.1875 -2.699219 23.355469 -2.71875 C 24.558594 -2.742188 25.261719 -2.753906 25.464844 -2.753906 C 26.136719 -2.753906 27.226562 -2.777344 28.734375 -2.824219 C 30.035156 -2.863281 31.332031 -3.078125 32.621094 -3.46875 C 33.488281 -3.746094 34.265625 -4.152344 34.953125 -4.683594 C 35.671875 -5.242188 36.164062 -5.710938 36.429688 -6.09375 L 38.578125 -4.605469 L 36.390625 -6.039062 C 37.109375 -7.132812 37.582031 -8.164062 37.816406 -9.125 C 38.070312 -10.179688 38.195312 -10.925781 38.195312 -11.371094 C 38.195312 -14.070312 37.972656 -16.097656 37.523438 -17.460938 C 37.101562 -18.742188 36.628906 -19.679688 36.105469 -20.269531 C 35.414062 -21.042969 34.792969 -21.664062 34.246094 -22.136719 C 33.410156 -22.835938 32.460938 -23.300781 31.394531 -23.535156 C 30.035156 -23.832031 28.65625 -24.023438 27.253906 -24.109375 C 25.890625 -24.195312 24.855469 -24.207031 24.144531 -24.148438 C 23.078125 -24.058594 21.796875 -24.152344 20.3125 -24.425781 L 20.789062 -27 L 20.464844 -24.402344 C 19.882812 -24.476562 19.253906 -24.640625 18.566406 -24.902344 C 17.65625 -25.25 16.988281 -25.882812 16.570312 -26.800781 C 16.289062 -27.414062 16.148438 -28.128906 16.148438 -28.953125 C 16.148438 -30.1875 16.621094 -31.199219 17.566406 -31.988281 C 18.242188 -32.550781 19.125 -32.933594 20.21875 -33.128906 C 21.628906 -33.386719 23.257812 -33.539062 25.113281 -33.589844 L 25.183594 -33.589844 C 26.019531 -33.589844 27.359375 -33.542969 29.199219 -33.449219 L 34.960938 -33.132812 C 36.984375 -33.019531 38.773438 -32.9375 40.332031 -32.894531 L 40.253906 -30.277344 L 40.253906 -32.894531 C 39.742188 -32.894531 39.28125 -32.691406 38.875 -32.285156 C 38.46875 -31.878906 38.265625 -31.417969 38.265625 -30.90625 L 40.882812 -30.90625 L 38.273438 -30.683594 L 38.066406 -33.121094 C 37.964844 -34.265625 37.917969 -35.15625 37.917969 -35.789062 C 37.917969 -37.375 37.941406 -38.582031 37.992188 -39.398438 C 38.035156 -40.148438 38.070312 -40.824219 38.09375 -41.433594 C 38.113281 -41.941406 38.082031 -42.601562 38 -43.410156 L 40.601562 -43.671875 L 38.261719 -42.503906 C 38.34375 -42.34375 38.460938 -42.183594 38.613281 -42.03125 Z M 38.613281 -42.03125 "/></g></g></g><g fill="#ffffff" fill-opacity="1"><g transform="translate(2.422703, 56.471526)"><g><path d="M 40.46875 -43.875 C 40.507812 -43.832031 40.554688 -43.765625 40.609375 -43.671875 C 40.703125 -42.742188 40.734375 -41.960938 40.703125 -41.328125 C 40.679688 -40.703125 40.644531 -40.003906 40.59375 -39.234375 C 40.550781 -38.472656 40.53125 -37.328125 40.53125 -35.796875 C 40.53125 -35.234375 40.578125 -34.414062 40.671875 -33.34375 C 40.765625 -32.28125 40.832031 -31.46875 40.875 -30.90625 C 40.875 -30.488281 40.664062 -30.28125 40.25 -30.28125 C 38.664062 -30.320312 36.851562 -30.398438 34.8125 -30.515625 C 32.769531 -30.640625 30.851562 -30.742188 29.0625 -30.828125 C 27.269531 -30.921875 25.976562 -30.96875 25.1875 -30.96875 C 23.46875 -30.925781 21.96875 -30.785156 20.6875 -30.546875 C 19.40625 -30.316406 18.765625 -29.785156 18.765625 -28.953125 C 18.765625 -28.066406 19.007812 -27.53125 19.5 -27.34375 C 19.988281 -27.15625 20.421875 -27.039062 20.796875 -27 C 22.046875 -26.769531 23.085938 -26.6875 23.921875 -26.75 C 24.765625 -26.820312 25.929688 -26.8125 27.421875 -26.71875 C 28.953125 -26.625 30.460938 -26.414062 31.953125 -26.09375 C 33.441406 -25.769531 34.765625 -25.117188 35.921875 -24.140625 C 36.578125 -23.578125 37.285156 -22.863281 38.046875 -22 C 38.816406 -21.144531 39.46875 -19.90625 40 -18.28125 C 40.539062 -16.65625 40.8125 -14.351562 40.8125 -11.375 C 40.8125 -10.71875 40.660156 -9.757812 40.359375 -8.5 C 40.054688 -7.25 39.460938 -5.953125 38.578125 -4.609375 C 38.160156 -4.003906 37.484375 -3.335938 36.546875 -2.609375 C 35.617188 -1.890625 34.578125 -1.347656 33.421875 -0.984375 C 31.878906 -0.515625 30.34375 -0.253906 28.8125 -0.203125 C 27.28125 -0.160156 26.164062 -0.140625 25.46875 -0.140625 C 25.28125 -0.140625 24.59375 -0.125 23.40625 -0.09375 C 22.21875 -0.0703125 20.75 -0.0625 19 -0.0625 C 17.257812 -0.0625 15.4375 -0.0507812 13.53125 -0.03125 C 11.625 -0.0078125 9.820312 0 8.125 0 C 6.425781 0 5.050781 0 4 0 C 2.957031 0 2.4375 0 2.4375 0 C 2.019531 0 1.8125 -0.1875 1.8125 -0.5625 C 1.8125 -1.113281 1.820312 -1.664062 1.84375 -2.21875 C 1.875 -2.78125 1.910156 -3.34375 1.953125 -3.90625 C 2.046875 -5.300781 2.078125 -6.707031 2.046875 -8.125 C 2.023438 -9.539062 2.015625 -10.945312 2.015625 -12.34375 C 2.015625 -12.757812 2.226562 -12.945312 2.65625 -12.90625 C 3.164062 -12.863281 3.78125 -12.84375 4.5 -12.84375 C 5.21875 -12.84375 5.878906 -12.828125 6.484375 -12.796875 C 7.085938 -12.773438 7.484375 -12.765625 7.671875 -12.765625 C 8.367188 -12.722656 9.320312 -12.6875 10.53125 -12.65625 C 11.738281 -12.632812 13.015625 -12.644531 14.359375 -12.6875 C 15.710938 -12.738281 16.984375 -12.8125 18.171875 -12.90625 C 19.359375 -13 20.273438 -13.140625 20.921875 -13.328125 C 21.898438 -13.554688 22.414062 -14.160156 22.46875 -15.140625 C 22.507812 -15.691406 22.238281 -16.070312 21.65625 -16.28125 C 21.082031 -16.5 20.375 -16.609375 19.53125 -16.609375 C 18.695312 -16.609375 17.859375 -16.570312 17.015625 -16.5 C 16.179688 -16.425781 15.53125 -16.390625 15.0625 -16.390625 C 13.582031 -16.296875 12.128906 -16.351562 10.703125 -16.5625 C 9.285156 -16.78125 7.953125 -17.304688 6.703125 -18.140625 C 5.765625 -18.742188 4.9375 -19.519531 4.21875 -20.46875 C 3.5 -21.425781 2.953125 -22.414062 2.578125 -23.4375 C 1.785156 -25.53125 1.492188 -27.71875 1.703125 -30 C 1.910156 -32.28125 2.484375 -34.441406 3.421875 -36.484375 C 3.972656 -37.691406 4.664062 -38.785156 5.5 -39.765625 C 6.34375 -40.742188 7.347656 -41.507812 8.515625 -42.0625 C 9.484375 -42.53125 10.488281 -42.945312 11.53125 -43.3125 C 12.582031 -43.6875 13.644531 -43.875 14.71875 -43.875 Z M 40.46875 -43.875 "/></g></g></g></g></g><g transform="matrix(1, 0, 0, 1, 77, 158)"><g clip-path="url(#d9d62737b0)"><g clip-path="url(#d7b3f6c7dd)"><g fill="#000000" fill-opacity="1"><g transform="translate(1.127712, 56.484704)"><g><path d="M 43.289062 -11.582031 L 43.289062 -7.742188 C 43.289062 -7.398438 43.300781 -6.867188 43.320312 -6.152344 C 43.34375 -5.425781 43.378906 -4.644531 43.425781 -3.804688 C 43.472656 -2.929688 43.507812 -2.183594 43.53125 -1.566406 L 43.566406 -0.609375 L 43.566406 -0.558594 C 43.566406 0.351562 43.265625 1.105469 42.660156 1.710938 C 42.058594 2.3125 41.300781 2.617188 40.394531 2.617188 L 2.652344 2.617188 C 1.566406 2.617188 0.6875 2.257812 0.0195312 1.535156 C -0.648438 0.816406 -0.941406 -0.0820312 -0.867188 -1.164062 L 1.742188 -0.976562 L -0.871094 -1.082031 C -0.730469 -4.539062 -0.652344 -8.011719 -0.628906 -11.492188 L -0.523438 -22.070312 C -0.476562 -25.558594 -0.347656 -29.066406 -0.136719 -32.597656 C 0.0625 -35.902344 -0.078125 -39.1875 -0.566406 -42.449219 C -0.742188 -43.519531 -0.464844 -44.472656 0.277344 -45.304688 C 0.984375 -46.101562 1.867188 -46.496094 2.929688 -46.496094 L 40.113281 -46.496094 C 40.835938 -46.496094 41.472656 -46.289062 42.03125 -45.871094 C 42.5625 -45.472656 42.933594 -44.945312 43.152344 -44.289062 L 43.289062 -43.886719 L 43.289062 -43.460938 C 43.289062 -43.363281 43.273438 -43.097656 43.25 -42.671875 C 43.222656 -42.246094 43.183594 -41.820312 43.128906 -41.394531 L 40.53125 -41.71875 L 43.148438 -41.71875 C 43.148438 -41.4375 43.125 -40.855469 43.074219 -39.96875 C 43.03125 -39.15625 42.996094 -38.3125 42.972656 -37.429688 C 42.949219 -36.546875 42.941406 -35.882812 42.941406 -35.441406 C 42.941406 -35.035156 42.960938 -34.523438 43.003906 -33.910156 C 43.046875 -33.289062 43.097656 -32.738281 43.160156 -32.253906 L 43.289062 -31.285156 L 43.289062 -31.113281 C 43.289062 -30.144531 42.945312 -29.355469 42.253906 -28.742188 C 41.652344 -28.207031 40.917969 -27.941406 40.042969 -27.941406 L 40.011719 -27.941406 L 38.617188 -27.976562 C 37.730469 -28 36.605469 -28.011719 35.230469 -28.011719 L 30.800781 -28.011719 C 29.273438 -28.011719 27.863281 -27.988281 26.566406 -27.941406 C 25.320312 -27.898438 24.363281 -27.835938 23.695312 -27.75 C 23.265625 -27.695312 22.808594 -27.554688 22.320312 -27.335938 C 22.394531 -27.371094 22.46875 -27.4375 22.539062 -27.539062 C 22.574219 -27.589844 22.601562 -27.636719 22.617188 -27.683594 L 22.621094 -27.6875 C 22.65625 -28.058594 22.550781 -28.359375 22.300781 -28.59375 C 22.457031 -28.445312 22.609375 -28.339844 22.757812 -28.273438 L 21.695312 -25.882812 L 22.210938 -28.449219 C 22.304688 -28.429688 22.898438 -28.398438 23.992188 -28.355469 C 25.191406 -28.3125 26.636719 -28.289062 28.324219 -28.289062 C 30.035156 -28.289062 31.753906 -28.300781 33.488281 -28.324219 C 35.242188 -28.347656 36.730469 -28.359375 37.953125 -28.359375 L 40.042969 -28.359375 C 40.917969 -28.359375 41.652344 -28.09375 42.253906 -27.558594 C 42.945312 -26.945312 43.289062 -26.152344 43.289062 -25.183594 L 43.289062 -16.882812 C 43.289062 -15.914062 42.945312 -15.121094 42.253906 -14.507812 C 41.652344 -13.976562 40.917969 -13.707031 40.042969 -13.707031 C 39.238281 -13.707031 38.121094 -13.71875 36.6875 -13.742188 C 35.257812 -13.765625 33.777344 -13.800781 32.253906 -13.847656 C 30.753906 -13.894531 29.402344 -13.929688 28.203125 -13.953125 C 27.011719 -13.976562 26.214844 -13.988281 25.8125 -13.988281 L 25.8125 -16.605469 L 26.074219 -14 C 25.519531 -13.945312 24.863281 -13.917969 24.101562 -13.917969 C 23.691406 -13.917969 23.308594 -13.863281 22.953125 -13.753906 C 23.0625 -13.789062 23.144531 -13.859375 23.199219 -13.96875 C 23.167969 -13.910156 23.152344 -13.875 23.144531 -13.859375 C 23.148438 -13.863281 23.148438 -13.871094 23.152344 -13.882812 C 23.171875 -13.96875 23.179688 -14.0625 23.167969 -14.175781 C 23.140625 -14.453125 23.046875 -14.667969 22.882812 -14.828125 C 23.152344 -14.566406 23.433594 -14.402344 23.726562 -14.328125 L 23.089844 -11.789062 L 23.605469 -14.355469 C 23.902344 -14.296875 24.683594 -14.265625 25.953125 -14.265625 C 27.359375 -14.265625 28.96875 -14.300781 30.769531 -14.371094 L 36.070312 -14.578125 C 37.753906 -14.648438 39.03125 -14.707031 39.90625 -14.75 L 39.976562 -14.753906 L 40.042969 -14.753906 C 40.917969 -14.753906 41.652344 -14.488281 42.253906 -13.953125 C 42.945312 -13.339844 43.289062 -12.550781 43.289062 -11.582031 Z M 38.054688 -11.582031 C 38.054688 -10.984375 38.296875 -10.472656 38.777344 -10.042969 C 39.167969 -9.695312 39.589844 -9.523438 40.042969 -9.523438 L 40.042969 -12.140625 L 40.183594 -9.527344 C 39.289062 -9.480469 37.984375 -9.421875 36.277344 -9.351562 L 30.96875 -9.140625 C 29.097656 -9.070312 27.425781 -9.035156 25.953125 -9.035156 C 24.335938 -9.035156 23.214844 -9.097656 22.578125 -9.222656 L 22.519531 -9.238281 L 22.457031 -9.25 C 21.261719 -9.550781 20.195312 -10.152344 19.253906 -11.054688 C 18.488281 -11.792969 18.054688 -12.667969 17.957031 -13.679688 C 17.875 -14.5625 18.0625 -15.4375 18.519531 -16.308594 C 19.132812 -17.535156 20.097656 -18.351562 21.414062 -18.753906 C 22.269531 -19.019531 23.167969 -19.148438 24.101562 -19.148438 C 24.691406 -19.148438 25.171875 -19.167969 25.550781 -19.207031 L 25.683594 -19.21875 L 25.8125 -19.21875 C 26.246094 -19.21875 27.078125 -19.207031 28.304688 -19.183594 C 29.523438 -19.160156 30.894531 -19.125 32.414062 -19.078125 C 33.914062 -19.03125 35.367188 -19 36.773438 -18.976562 C 38.175781 -18.953125 39.269531 -18.941406 40.042969 -18.941406 C 39.589844 -18.941406 39.167969 -18.765625 38.777344 -18.417969 C 38.296875 -17.992188 38.054688 -17.480469 38.054688 -16.882812 L 38.054688 -25.183594 C 38.054688 -24.585938 38.296875 -24.074219 38.777344 -23.648438 C 39.167969 -23.300781 39.589844 -23.125 40.042969 -23.125 L 37.953125 -23.125 C 36.753906 -23.125 35.289062 -23.113281 33.554688 -23.09375 C 31.800781 -23.070312 30.054688 -23.058594 28.324219 -23.058594 C 26.570312 -23.058594 25.0625 -23.082031 23.796875 -23.128906 C 22.421875 -23.179688 21.554688 -23.242188 21.183594 -23.316406 L 20.898438 -23.375 L 20.632812 -23.492188 C 19.945312 -23.796875 19.308594 -24.226562 18.722656 -24.777344 C 17.726562 -25.707031 17.292969 -26.871094 17.421875 -28.265625 C 17.519531 -29.125 17.792969 -29.882812 18.253906 -30.539062 C 18.730469 -31.222656 19.371094 -31.742188 20.167969 -32.105469 C 21.121094 -32.535156 22.082031 -32.816406 23.046875 -32.941406 C 23.867188 -33.046875 24.980469 -33.121094 26.382812 -33.171875 C 27.738281 -33.21875 29.210938 -33.242188 30.800781 -33.242188 L 35.230469 -33.242188 C 36.648438 -33.242188 37.820312 -33.230469 38.75 -33.207031 L 40.113281 -33.171875 L 40.042969 -30.554688 L 40.042969 -33.171875 C 39.589844 -33.171875 39.167969 -33 38.777344 -32.652344 C 38.296875 -32.222656 38.054688 -31.710938 38.054688 -31.113281 L 40.671875 -31.113281 L 38.078125 -30.777344 L 37.972656 -31.578125 C 37.898438 -32.164062 37.832031 -32.824219 37.78125 -33.550781 C 37.734375 -34.285156 37.707031 -34.914062 37.707031 -35.441406 C 37.707031 -35.925781 37.71875 -36.636719 37.742188 -37.566406 C 37.765625 -38.496094 37.804688 -39.394531 37.851562 -40.257812 C 37.894531 -41.046875 37.917969 -41.535156 37.917969 -41.71875 L 37.917969 -41.882812 L 37.9375 -42.042969 C 37.976562 -42.363281 38.007812 -42.679688 38.027344 -43 C 38.039062 -43.179688 38.046875 -43.316406 38.050781 -43.417969 C 38.054688 -43.460938 38.054688 -43.492188 38.054688 -43.515625 C 38.058594 -43.523438 38.058594 -43.523438 38.058594 -43.523438 C 38.054688 -43.507812 38.054688 -43.484375 38.054688 -43.460938 L 40.671875 -43.460938 L 38.191406 -42.636719 C 38.316406 -42.257812 38.550781 -41.941406 38.894531 -41.683594 C 39.265625 -41.40625 39.671875 -41.265625 40.113281 -41.265625 L 2.929688 -41.265625 C 3.433594 -41.265625 3.855469 -41.453125 4.1875 -41.828125 C 4.554688 -42.242188 4.695312 -42.707031 4.609375 -43.21875 C 5.148438 -39.597656 5.308594 -35.953125 5.089844 -32.285156 C 4.882812 -28.835938 4.753906 -25.414062 4.710938 -22.019531 L 4.605469 -11.457031 C 4.582031 -7.917969 4.5 -4.390625 4.359375 -0.871094 L 4.355469 -0.832031 L 4.355469 -0.789062 C 4.363281 -0.914062 4.347656 -1.054688 4.304688 -1.210938 C 4.226562 -1.515625 4.074219 -1.785156 3.851562 -2.023438 C 3.628906 -2.265625 3.371094 -2.4375 3.074219 -2.535156 C 2.917969 -2.589844 2.777344 -2.617188 2.652344 -2.617188 L 40.394531 -2.617188 C 39.855469 -2.617188 39.378906 -2.40625 38.960938 -1.988281 C 38.542969 -1.570312 38.335938 -1.09375 38.335938 -0.558594 L 40.953125 -0.558594 L 38.335938 -0.457031 L 38.300781 -1.363281 C 38.28125 -1.957031 38.246094 -2.675781 38.199219 -3.519531 C 38.152344 -4.402344 38.117188 -5.222656 38.09375 -5.988281 C 38.066406 -6.757812 38.054688 -7.34375 38.054688 -7.742188 Z M 38.054688 -11.582031 "/></g></g></g></g><g fill="#ffffff" fill-opacity="1"><g transform="translate(1.127712, 56.484704)"><g><path d="M 40.671875 -11.578125 C 40.671875 -10.972656 40.671875 -10.3125 40.671875 -9.59375 C 40.671875 -8.875 40.671875 -8.257812 40.671875 -7.75 C 40.671875 -7.375 40.679688 -6.8125 40.703125 -6.0625 C 40.734375 -5.320312 40.769531 -4.519531 40.8125 -3.65625 C 40.851562 -2.800781 40.882812 -2.070312 40.90625 -1.46875 C 40.9375 -0.863281 40.953125 -0.5625 40.953125 -0.5625 C 40.953125 -0.1875 40.765625 0 40.390625 0 L 2.65625 0 C 2 0 1.695312 -0.328125 1.75 -0.984375 C 1.882812 -4.460938 1.960938 -7.957031 1.984375 -11.46875 C 2.003906 -14.988281 2.039062 -18.515625 2.09375 -22.046875 C 2.132812 -25.484375 2.257812 -28.945312 2.46875 -32.4375 C 2.6875 -35.925781 2.535156 -39.394531 2.015625 -42.84375 C 1.972656 -43.113281 2.046875 -43.351562 2.234375 -43.5625 C 2.421875 -43.769531 2.65625 -43.875 2.9375 -43.875 L 40.109375 -43.875 C 40.390625 -43.875 40.578125 -43.738281 40.671875 -43.46875 C 40.671875 -43.414062 40.660156 -43.203125 40.640625 -42.828125 C 40.617188 -42.460938 40.582031 -42.09375 40.53125 -41.71875 C 40.53125 -41.488281 40.503906 -40.953125 40.453125 -40.109375 C 40.410156 -39.273438 40.378906 -38.40625 40.359375 -37.5 C 40.335938 -36.59375 40.328125 -35.90625 40.328125 -35.4375 C 40.328125 -34.976562 40.347656 -34.410156 40.390625 -33.734375 C 40.441406 -33.054688 40.5 -32.445312 40.5625 -31.90625 C 40.632812 -31.375 40.671875 -31.109375 40.671875 -31.109375 C 40.671875 -30.742188 40.460938 -30.5625 40.046875 -30.5625 C 40.046875 -30.5625 39.59375 -30.570312 38.6875 -30.59375 C 37.78125 -30.613281 36.628906 -30.625 35.234375 -30.625 C 33.835938 -30.625 32.359375 -30.625 30.796875 -30.625 C 29.242188 -30.625 27.800781 -30.597656 26.46875 -30.546875 C 25.144531 -30.503906 24.113281 -30.4375 23.375 -30.34375 C 22.675781 -30.25 21.960938 -30.039062 21.234375 -29.71875 C 20.515625 -29.394531 20.109375 -28.8125 20.015625 -27.96875 C 19.972656 -27.457031 20.132812 -27.023438 20.5 -26.671875 C 20.875 -26.328125 21.273438 -26.066406 21.703125 -25.890625 C 21.929688 -25.835938 22.660156 -25.785156 23.890625 -25.734375 C 25.128906 -25.691406 26.609375 -25.671875 28.328125 -25.671875 C 30.046875 -25.671875 31.773438 -25.679688 33.515625 -25.703125 C 35.265625 -25.734375 36.742188 -25.75 37.953125 -25.75 C 39.160156 -25.75 39.859375 -25.75 40.046875 -25.75 C 40.460938 -25.75 40.671875 -25.5625 40.671875 -25.1875 L 40.671875 -19.390625 C 40.671875 -18.878906 40.671875 -18.4375 40.671875 -18.0625 C 40.671875 -17.695312 40.671875 -17.304688 40.671875 -16.890625 C 40.671875 -16.515625 40.460938 -16.328125 40.046875 -16.328125 C 39.253906 -16.328125 38.148438 -16.335938 36.734375 -16.359375 C 35.316406 -16.378906 33.847656 -16.410156 32.328125 -16.453125 C 30.816406 -16.503906 29.457031 -16.539062 28.25 -16.5625 C 27.039062 -16.59375 26.226562 -16.609375 25.8125 -16.609375 C 25.34375 -16.554688 24.769531 -16.53125 24.09375 -16.53125 C 23.425781 -16.53125 22.789062 -16.4375 22.1875 -16.25 C 21.582031 -16.0625 21.140625 -15.691406 20.859375 -15.140625 C 20.390625 -14.253906 20.457031 -13.519531 21.0625 -12.9375 C 21.664062 -12.351562 22.34375 -11.972656 23.09375 -11.796875 C 23.5625 -11.703125 24.515625 -11.65625 25.953125 -11.65625 C 27.390625 -11.65625 29.023438 -11.6875 30.859375 -11.75 C 32.703125 -11.820312 34.472656 -11.890625 36.171875 -11.953125 C 37.867188 -12.023438 39.160156 -12.085938 40.046875 -12.140625 C 40.460938 -12.140625 40.671875 -11.953125 40.671875 -11.578125 Z M 40.671875 -11.578125 "/></g></g></g></g></g><g clip-path="url(#e7852db046)"><path fill="#191919" d="M 220.417969 171.324219 C 218.839844 184.644531 217.5625 185.921875 204.246094 187.496094 C 204.273438 187.5 204.300781 187.503906 204.328125 187.507812 C 217.570312 189.078125 218.84375 190.378906 220.417969 203.667969 C 221.992188 190.351562 223.269531 189.074219 236.589844 187.496094 C 223.269531 185.921875 221.992188 184.644531 220.417969 171.324219 Z M 220.417969 171.324219 " fill-opacity="1" fill-rule="nonzero"/></g></svg>