<svg xmlns="http://www.w3.org/2000/svg" xmlns:xlink="http://www.w3.org/1999/xlink" width="100%" viewBox="0 0 620 730">
                            <defs>
                                <pattern id="pattern-a" preserveAspectRatio="xMidYMid slice" width="100%" height="100%" viewBox="0 0 1001 1178">
                                    <image width="1001" height="1215" xlink:href="https://www.satalia.com/wp-content/uploads/2024/06/footer-new-1.jpg.webp"></image>
                                </pattern>
                            </defs>
                            <path id="footer-1" d="M-278.172,481.673A100.124,100.124,0,0,1-178.111,381.486,100.124,100.124,0,0,1-78.051,481.673,100.124,100.124,0,0,1-178.111,581.86,100.124,100.124,0,0,1-278.172,481.673Zm-200.828,0a45.511,45.511,0,0,1,45.482-45.54,45.511,45.511,0,0,1,45.482,45.54,45.511,45.511,0,0,1-45.482,45.54A45.51,45.51,0,0,1-479,481.673ZM-81.769,252.846a100.124,100.124,0,0,1-96.342,73.032A100.124,100.124,0,0,1-278.172,225.691,100.124,100.124,0,0,1-178.111,125.5a100.124,100.124,0,0,1,96.376,73.159A162.157,162.157,0,0,1,4.444,81.344,132.887,132.887,0,0,1-56-30.14a132.987,132.987,0,0,1,71.581-118H138.419q1.3.678,2.581,1.383V374.857a160.538,160.538,0,0,1-63.5,13C-2.528,387.86-68.961,329.471-81.769,252.846ZM-223.594-30.291A45.511,45.511,0,0,1-178.112-75.83a45.511,45.511,0,0,1,45.482,45.539,45.511,45.511,0,0,1-45.482,45.539A45.511,45.511,0,0,1-223.594-30.291Z" transform="translate(479 148.14)" fill="url(#pattern-a)"></path>
                        </svg>