<?xml version="1.0" encoding="UTF-8"?>
<svg xmlns="http://www.w3.org/2000/svg" width="500" height="442" viewBox="0 0 500 442" fill="none">
  <path d="M249.795 227.501C253.168 227.501 255.903 224.766 255.903 221.393C255.903 218.02 253.168 215.286 249.795 215.286C246.422 215.286 243.688 218.02 243.688 221.393C243.688 224.766 246.422 227.501 249.795 227.501Z" fill="white"></path>
  <path d="M218.657 258.936C222.196 258.936 225.064 256.068 225.064 252.529C225.064 248.991 222.196 246.122 218.657 246.122C215.119 246.122 212.25 248.991 212.25 252.529C212.25 256.068 215.119 258.936 218.657 258.936Z" fill="white"></path>
  <path d="M249.786 257.146C252.335 257.146 254.402 255.08 254.402 252.53C254.402 249.981 252.335 247.914 249.786 247.914C247.237 247.914 245.17 249.981 245.17 252.53C245.17 255.08 247.237 257.146 249.786 257.146Z" fill="white"></path>
  <path d="M280.928 254.429C281.977 254.429 282.827 253.579 282.827 252.53C282.827 251.482 281.977 250.631 280.928 250.631C279.879 250.631 279.029 251.482 279.029 252.53C279.029 253.579 279.879 254.429 280.928 254.429Z" fill="white"></path>
  <path d="M280.924 224.726C282.764 224.726 284.256 223.234 284.256 221.394C284.256 219.554 282.764 218.062 280.924 218.062C279.084 218.062 277.592 219.554 277.592 221.394C277.592 223.234 279.084 224.726 280.924 224.726Z" fill="white"></path>
  <path d="M280.93 192.275C282.046 192.275 282.951 191.371 282.951 190.255C282.951 189.139 282.046 188.235 280.93 188.235C279.815 188.235 278.91 189.139 278.91 190.255C278.91 191.371 279.815 192.275 280.93 192.275Z" fill="white"></path>
  <path d="M249.789 195.036C252.43 195.036 254.572 192.895 254.572 190.254C254.572 187.612 252.43 185.471 249.789 185.471C247.147 185.471 245.006 187.612 245.006 190.254C245.006 192.895 247.147 195.036 249.789 195.036Z" fill="white"></path>
  <path d="M218.652 196.725C222.225 196.725 225.122 193.828 225.122 190.255C225.122 186.681 222.225 183.785 218.652 183.785C215.078 183.785 212.182 186.681 212.182 190.255C212.182 193.828 215.078 196.725 218.652 196.725Z" fill="white"></path>
  <path d="M218.65 228.109C222.36 228.109 225.368 225.101 225.368 221.391C225.368 217.681 222.36 214.673 218.65 214.673C214.939 214.673 211.932 217.681 211.932 221.391C211.932 225.101 214.939 228.109 218.65 228.109Z" fill="white"></path>
  <path d="M187.52 290.075C191.059 290.075 193.928 287.207 193.928 283.668C193.928 280.129 191.059 277.261 187.52 277.261C183.982 277.261 181.113 280.129 181.113 283.668C181.113 287.207 183.982 290.075 187.52 290.075Z" fill="white"></path>
  <path d="M218.653 288.349C221.239 288.349 223.336 286.253 223.336 283.667C223.336 281.081 221.239 278.984 218.653 278.984C216.067 278.984 213.971 281.081 213.971 283.667C213.971 286.253 216.067 288.349 218.653 288.349Z" fill="white"></path>
  <path d="M249.79 285.604C250.859 285.604 251.725 284.737 251.725 283.668C251.725 282.599 250.859 281.732 249.79 281.732C248.72 281.732 247.854 282.599 247.854 283.668C247.854 284.737 248.72 285.604 249.79 285.604Z" fill="white"></path>
  <path d="M280.928 287.302C282.935 287.302 284.561 285.675 284.561 283.669C284.561 281.662 282.935 280.035 280.928 280.035C278.922 280.035 277.295 281.662 277.295 283.669C277.295 285.675 278.922 287.302 280.928 287.302Z" fill="white"></path>
  <path d="M312.07 291.711C316.512 291.711 320.112 288.11 320.112 283.668C320.112 279.226 316.512 275.626 312.07 275.626C307.628 275.626 304.027 279.226 304.027 283.668C304.027 288.11 307.628 291.711 312.07 291.711Z" fill="white"></path>
  <path d="M312.07 256.221C314.108 256.221 315.76 254.569 315.76 252.531C315.76 250.492 314.108 248.84 312.07 248.84C310.031 248.84 308.379 250.492 308.379 252.531C308.379 254.569 310.031 256.221 312.07 256.221Z" fill="white"></path>
  <path d="M312.066 222.083C312.447 222.083 312.756 221.775 312.756 221.394C312.756 221.013 312.447 220.704 312.066 220.704C311.686 220.704 311.377 221.013 311.377 221.394C311.377 221.775 311.686 222.083 312.066 222.083Z" fill="white"></path>
  <path d="M312.068 193.687C313.963 193.687 315.499 192.151 315.499 190.256C315.499 188.361 313.963 186.824 312.068 186.824C310.173 186.824 308.637 188.361 308.637 190.256C308.637 192.151 310.173 193.687 312.068 193.687Z" fill="white"></path>
  <path d="M312.073 166.953C316.401 166.953 319.909 163.445 319.909 159.117C319.909 154.789 316.401 151.28 312.073 151.28C307.745 151.28 304.236 154.789 304.236 159.117C304.236 163.445 307.745 166.953 312.073 166.953Z" fill="white"></path>
  <path d="M280.929 162.546C282.824 162.546 284.361 161.01 284.361 159.115C284.361 157.22 282.824 155.684 280.929 155.684C279.034 155.684 277.498 157.22 277.498 159.115C277.498 161.01 279.034 162.546 280.929 162.546Z" fill="white"></path>
  <path d="M249.789 161.172C250.924 161.172 251.844 160.252 251.844 159.117C251.844 157.982 250.924 157.062 249.789 157.062C248.654 157.062 247.734 157.982 247.734 159.117C247.734 160.252 248.654 161.172 249.789 161.172Z" fill="white"></path>
  <path d="M218.656 163.983C221.343 163.983 223.522 161.804 223.522 159.116C223.522 156.428 221.343 154.249 218.656 154.249C215.968 154.249 213.789 156.428 213.789 159.116C213.789 161.804 215.968 163.983 218.656 163.983Z" fill="white"></path>
  <path d="M187.517 165.587C191.09 165.587 193.987 162.69 193.987 159.117C193.987 155.543 191.09 152.647 187.517 152.647C183.944 152.647 181.047 155.543 181.047 159.117C181.047 162.69 183.944 165.587 187.517 165.587Z" fill="white"></path>
  <path d="M187.513 196.833C191.146 196.833 194.092 193.887 194.092 190.254C194.092 186.62 191.146 183.675 187.513 183.675C183.879 183.675 180.934 186.62 180.934 190.254C180.934 193.887 183.879 196.833 187.513 196.833Z" fill="white"></path>
  <path d="M187.517 227.65C190.973 227.65 193.774 224.849 193.774 221.393C193.774 217.938 190.973 215.136 187.517 215.136C184.061 215.136 181.26 217.938 181.26 221.393C181.26 224.849 184.061 227.65 187.517 227.65Z" fill="white"></path>
  <path d="M187.519 259.14C191.171 259.14 194.131 256.18 194.131 252.529C194.131 248.878 191.171 245.918 187.519 245.918C183.868 245.918 180.908 248.878 180.908 252.529C180.908 256.18 183.868 259.14 187.519 259.14Z" fill="white"></path>
  <path d="M156.384 321.237C159.937 321.237 162.818 318.357 162.818 314.804C162.818 311.251 159.937 308.371 156.384 308.371C152.831 308.371 149.951 311.251 149.951 314.804C149.951 318.357 152.831 321.237 156.384 321.237Z" fill="white"></path>
  <path d="M187.515 319.522C190.12 319.522 192.233 317.41 192.233 314.805C192.233 312.199 190.12 310.087 187.515 310.087C184.909 310.087 182.797 312.199 182.797 314.805C182.797 317.41 184.909 319.522 187.515 319.522Z" fill="white"></path>
  <path d="M218.655 316.741C219.724 316.741 220.591 315.874 220.591 314.805C220.591 313.736 219.724 312.869 218.655 312.869C217.586 312.869 216.719 313.736 216.719 314.805C216.719 315.874 217.586 316.741 218.655 316.741Z" fill="white"></path>
  <path d="M249.792 318.412C251.783 318.412 253.398 316.798 253.398 314.806C253.398 312.815 251.783 311.2 249.792 311.2C247.8 311.2 246.186 312.815 246.186 314.806C246.186 316.798 247.8 318.412 249.792 318.412Z" fill="white"></path>
  <path d="M280.925 322.799C285.341 322.799 288.921 319.219 288.921 314.803C288.921 310.387 285.341 306.808 280.925 306.808C276.509 306.808 272.93 310.387 272.93 314.803C272.93 319.219 276.509 322.799 280.925 322.799Z" fill="white"></path>
  <path d="M312.064 325.112C317.755 325.112 322.369 320.498 322.369 314.806C322.369 309.114 317.755 304.5 312.064 304.5C306.372 304.5 301.758 309.114 301.758 314.806C301.758 320.498 306.372 325.112 312.064 325.112Z" fill="white"></path>
  <path d="M343.204 325.134C348.908 325.134 353.533 320.51 353.533 314.805C353.533 309.101 348.908 304.476 343.204 304.476C337.499 304.476 332.875 309.101 332.875 314.805C332.875 320.51 337.499 325.134 343.204 325.134Z" fill="white"></path>
  <path d="M343.204 293.998C348.908 293.998 353.533 289.374 353.533 283.669C353.533 277.965 348.908 273.34 343.204 273.34C337.499 273.34 332.875 277.965 332.875 283.669C332.875 289.374 337.499 293.998 343.204 293.998Z" fill="white"></path>
  <path d="M343.199 260.614C347.664 260.614 351.284 256.994 351.284 252.53C351.284 248.065 347.664 244.445 343.199 244.445C338.735 244.445 335.115 248.065 335.115 252.53C335.115 256.994 338.735 260.614 343.199 260.614Z" fill="white"></path>
  <path d="M343.203 226.322C345.926 226.322 348.133 224.115 348.133 221.393C348.133 218.67 345.926 216.463 343.203 216.463C340.481 216.463 338.273 218.67 338.273 221.393C338.273 224.115 340.481 226.322 343.203 226.322Z" fill="white"></path>
  <path d="M343.205 198.101C347.538 198.101 351.05 194.588 351.05 190.255C351.05 185.922 347.538 182.41 343.205 182.41C338.872 182.41 335.359 185.922 335.359 190.255C335.359 194.588 338.872 198.101 343.205 198.101Z" fill="white"></path>
  <path d="M343.208 169.379C348.875 169.379 353.47 164.784 353.47 159.117C353.47 153.449 348.875 148.854 343.208 148.854C337.54 148.854 332.945 153.449 332.945 159.117C332.945 164.784 337.54 169.379 343.208 169.379Z" fill="white"></path>
  <path d="M343.203 138.352C348.933 138.352 353.578 133.707 353.578 127.977C353.578 122.247 348.933 117.602 343.203 117.602C337.473 117.602 332.828 122.247 332.828 127.977C332.828 133.707 337.473 138.352 343.203 138.352Z" fill="white"></path>
  <path d="M312.066 138.238C317.732 138.238 322.326 133.645 322.326 127.979C322.326 122.313 317.732 117.719 312.066 117.719C306.4 117.719 301.807 122.313 301.807 127.979C301.807 133.645 306.4 138.238 312.066 138.238Z" fill="white"></path>
  <path d="M280.927 135.786C285.238 135.786 288.733 132.291 288.733 127.98C288.733 123.669 285.238 120.174 280.927 120.174C276.616 120.174 273.121 123.669 273.121 127.98C273.121 132.291 276.616 135.786 280.927 135.786Z" fill="white"></path>
  <path d="M249.791 131.381C251.67 131.381 253.194 129.858 253.194 127.979C253.194 126.1 251.67 124.576 249.791 124.576C247.912 124.576 246.389 126.1 246.389 127.979C246.389 129.858 247.912 131.381 249.791 131.381Z" fill="white"></path>
  <path d="M218.65 130.047C219.792 130.047 220.718 129.121 220.718 127.979C220.718 126.837 219.792 125.911 218.65 125.911C217.508 125.911 216.582 126.837 216.582 127.979C216.582 129.121 217.508 130.047 218.65 130.047Z" fill="white"></path>
  <path d="M187.517 132.847C190.205 132.847 192.384 130.668 192.384 127.98C192.384 125.292 190.205 123.113 187.517 123.113C184.829 123.113 182.65 125.292 182.65 127.98C182.65 130.668 184.829 132.847 187.517 132.847Z" fill="white"></path>
  <path d="M156.376 134.449C159.95 134.449 162.846 131.553 162.846 127.979C162.846 124.406 159.95 121.509 156.376 121.509C152.803 121.509 149.906 124.406 149.906 127.979C149.906 131.553 152.803 134.449 156.376 134.449Z" fill="white"></path>
  <path d="M156.38 165.693C160.011 165.693 162.955 162.749 162.955 159.117C162.955 155.486 160.011 152.542 156.38 152.542C152.748 152.542 149.805 155.486 149.805 159.117C149.805 162.749 152.748 165.693 156.38 165.693Z" fill="white"></path>
  <path d="M156.379 195.577C159.319 195.577 161.702 193.195 161.702 190.255C161.702 187.316 159.319 184.933 156.379 184.933C153.44 184.933 151.057 187.316 151.057 190.255C151.057 193.195 153.44 195.577 156.379 195.577Z" fill="white"></path>
  <path d="M156.381 225.027C158.388 225.027 160.014 223.4 160.014 221.394C160.014 219.387 158.388 217.76 156.381 217.76C154.375 217.76 152.748 219.387 152.748 221.394C152.748 223.4 154.375 225.027 156.381 225.027Z" fill="white"></path>
  <path d="M156.379 257.986C159.391 257.986 161.833 255.544 161.833 252.531C161.833 249.519 159.391 247.076 156.379 247.076C153.366 247.076 150.924 249.519 150.924 252.531C150.924 255.544 153.366 257.986 156.379 257.986Z" fill="white"></path>
  <path d="M156.381 290.28C160.032 290.28 162.992 287.32 162.992 283.669C162.992 280.018 160.032 277.058 156.381 277.058C152.729 277.058 149.77 280.018 149.77 283.669C149.77 287.32 152.729 290.28 156.381 290.28Z" fill="white"></path>
  <path d="M125.24 352.377C128.793 352.377 131.673 349.497 131.673 345.944C131.673 342.391 128.793 339.511 125.24 339.511C121.687 339.511 118.807 342.391 118.807 345.944C118.807 349.497 121.687 352.377 125.24 352.377Z" fill="white"></path>
  <path d="M156.375 350.677C158.989 350.677 161.108 348.558 161.108 345.944C161.108 343.33 158.989 341.211 156.375 341.211C153.762 341.211 151.643 343.33 151.643 345.944C151.643 348.558 153.762 350.677 156.375 350.677Z" fill="white"></path>
  <path d="M187.516 347.88C188.585 347.88 189.452 347.013 189.452 345.944C189.452 344.875 188.585 344.008 187.516 344.008C186.447 344.008 185.58 344.875 185.58 345.944C185.58 347.013 186.447 347.88 187.516 347.88Z" fill="white"></path>
  <path d="M218.648 349.305C220.505 349.305 222.01 347.8 222.01 345.944C222.01 344.087 220.505 342.582 218.648 342.582C216.792 342.582 215.287 344.087 215.287 345.944C215.287 347.8 216.792 349.305 218.648 349.305Z" fill="white"></path>
  <path d="M249.794 353.91C254.193 353.91 257.76 350.343 257.76 345.944C257.76 341.545 254.193 337.978 249.794 337.978C245.394 337.978 241.828 341.545 241.828 345.944C241.828 350.343 245.394 353.91 249.794 353.91Z" fill="white"></path>
  <path d="M280.933 356.251C286.625 356.251 291.239 351.637 291.239 345.945C291.239 340.253 286.625 335.639 280.933 335.639C275.241 335.639 270.627 340.253 270.627 345.945C270.627 351.637 275.241 356.251 280.933 356.251Z" fill="white"></path>
  <path d="M312.063 356.272C317.768 356.272 322.392 351.648 322.392 345.943C322.392 340.239 317.768 335.614 312.063 335.614C306.359 335.614 301.734 340.239 301.734 345.943C301.734 351.648 306.359 356.272 312.063 356.272Z" fill="white"></path>
  <path d="M343.209 354.045C347.683 354.045 351.31 350.418 351.31 345.944C351.31 341.469 347.683 337.842 343.209 337.842C338.735 337.842 335.107 341.469 335.107 345.944C335.107 350.418 338.735 354.045 343.209 354.045Z" fill="white"></path>
  <path d="M374.341 349.678C376.404 349.678 378.076 348.006 378.076 345.942C378.076 343.879 376.404 342.207 374.341 342.207C372.278 342.207 370.605 343.879 370.605 345.942C370.605 348.006 372.278 349.678 374.341 349.678Z" fill="white"></path>
  <path d="M374.344 322.89C378.809 322.89 382.428 319.27 382.428 314.806C382.428 310.341 378.809 306.721 374.344 306.721C369.879 306.721 366.26 310.341 366.26 314.806C366.26 319.27 369.879 322.89 374.344 322.89Z" fill="white"></path>
  <path d="M374.343 293.998C380.047 293.998 384.671 289.374 384.671 283.669C384.671 277.965 380.047 273.34 374.343 273.34C368.638 273.34 364.014 277.965 364.014 283.669C364.014 289.374 368.638 293.998 374.343 293.998Z" fill="white"></path>
  <path d="M374.346 262.869C380.056 262.869 384.684 258.241 384.684 252.531C384.684 246.821 380.056 242.193 374.346 242.193C368.636 242.193 364.008 246.821 364.008 252.531C364.008 258.241 368.636 262.869 374.346 262.869Z" fill="white"></path>
  <path d="M374.344 230.926C379.609 230.926 383.877 226.657 383.877 221.392C383.877 216.127 379.609 211.859 374.344 211.859C369.079 211.859 364.811 216.127 364.811 221.392C364.811 226.657 369.079 230.926 374.344 230.926Z" fill="white"></path>
  <path d="M374.345 200.538C380.024 200.538 384.628 195.934 384.628 190.255C384.628 184.576 380.024 179.972 374.345 179.972C368.666 179.972 364.062 184.576 364.062 190.255C364.062 195.934 368.666 200.538 374.345 200.538Z" fill="white"></path>
  <path d="M374.342 169.492C380.071 169.492 384.716 164.847 384.716 159.117C384.716 153.387 380.071 148.742 374.342 148.742C368.612 148.742 363.967 153.387 363.967 159.117C363.967 164.847 368.612 169.492 374.342 169.492Z" fill="white"></path>
  <path d="M374.337 136.251C378.905 136.251 382.609 132.548 382.609 127.979C382.609 123.41 378.905 119.707 374.337 119.707C369.768 119.707 366.064 123.41 366.064 127.979C366.064 132.548 369.768 136.251 374.337 136.251Z" fill="white"></path>
  <path d="M374.342 100.817C376.538 100.817 378.317 99.037 378.317 96.8417C378.317 94.6464 376.538 92.8667 374.342 92.8667C372.147 92.8667 370.367 94.6464 370.367 96.8417C370.367 99.037 372.147 100.817 374.342 100.817Z" fill="white"></path>
  <path d="M343.207 105.154C347.798 105.154 351.52 101.432 351.52 96.8414C351.52 92.2504 347.798 88.5287 343.207 88.5287C338.616 88.5287 334.895 92.2504 334.895 96.8414C334.895 101.432 338.616 105.154 343.207 105.154Z" fill="white"></path>
  <path d="M312.073 107.224C317.807 107.224 322.455 102.576 322.455 96.8423C322.455 91.1087 317.807 86.4607 312.073 86.4607C306.339 86.4607 301.691 91.1087 301.691 96.8423C301.691 102.576 306.339 107.224 312.073 107.224Z" fill="white"></path>
  <path d="M280.93 107.087C286.588 107.087 291.176 102.499 291.176 96.8407C291.176 91.182 286.588 86.5947 280.93 86.5947C275.271 86.5947 270.684 91.182 270.684 96.8407C270.684 102.499 275.271 107.087 280.93 107.087Z" fill="white"></path>
  <path d="M249.79 104.587C254.067 104.587 257.535 101.12 257.535 96.8423C257.535 92.5649 254.067 89.0974 249.79 89.0974C245.512 89.0974 242.045 92.5649 242.045 96.8423C242.045 101.12 245.512 104.587 249.79 104.587Z" fill="white"></path>
  <path d="M218.656 99.9837C220.391 99.9837 221.798 98.577 221.798 96.8417C221.798 95.1064 220.391 93.6997 218.656 93.6997C216.92 93.6997 215.514 95.1064 215.514 96.8417C215.514 98.577 216.92 99.9837 218.656 99.9837Z" fill="white"></path>
  <path d="M187.514 98.8973C188.649 98.8973 189.569 97.9772 189.569 96.8422C189.569 95.7072 188.649 94.7871 187.514 94.7871C186.379 94.7871 185.459 95.7072 185.459 96.8422C185.459 97.9772 186.379 98.8973 187.514 98.8973Z" fill="white"></path>
  <path d="M156.379 101.722C159.075 101.722 161.26 99.537 161.26 96.8412C161.26 94.1454 159.075 91.9601 156.379 91.9601C153.683 91.9601 151.498 94.1454 151.498 96.8412C151.498 99.537 153.683 101.722 156.379 101.722Z" fill="white"></path>
  <path d="M125.241 103.313C128.815 103.313 131.711 100.416 131.711 96.8426C131.711 93.2694 128.815 90.3727 125.241 90.3727C121.668 90.3727 118.771 93.2694 118.771 96.8426C118.771 100.416 121.668 103.313 125.241 103.313Z" fill="white"></path>
  <path d="M125.241 134.555C128.873 134.555 131.816 131.611 131.816 127.979C131.816 124.348 128.873 121.404 125.241 121.404C121.61 121.404 118.666 124.348 118.666 127.979C118.666 131.611 121.61 134.555 125.241 134.555Z" fill="white"></path>
  <path d="M125.244 164.399C128.161 164.399 130.526 162.034 130.526 159.117C130.526 156.199 128.161 153.834 125.244 153.834C122.326 153.834 119.961 156.199 119.961 159.117C119.961 162.034 122.326 164.399 125.244 164.399Z" fill="white"></path>
  <path d="M125.239 192.824C126.658 192.824 127.808 191.674 127.808 190.255C127.808 188.836 126.658 187.686 125.239 187.686C123.82 187.686 122.67 188.836 122.67 190.255C122.67 191.674 123.82 192.824 125.239 192.824Z" fill="white"></path>
  <path d="M125.24 222.083C125.621 222.083 125.93 221.775 125.93 221.394C125.93 221.013 125.621 220.704 125.24 220.704C124.859 220.704 124.551 221.013 124.551 221.394C124.551 221.775 124.859 222.083 125.24 222.083Z" fill="white"></path>
  <path d="M125.241 255.328C126.787 255.328 128.04 254.076 128.04 252.53C128.04 250.985 126.787 249.732 125.241 249.732C123.696 249.732 122.443 250.985 122.443 252.53C122.443 254.076 123.696 255.328 125.241 255.328Z" fill="white"></path>
  <path d="M125.24 289.098C128.238 289.098 130.669 286.667 130.669 283.668C130.669 280.67 128.238 278.239 125.24 278.239C122.241 278.239 119.811 280.67 119.811 283.668C119.811 286.667 122.241 289.098 125.24 289.098Z" fill="white"></path>
  <path d="M125.24 321.417C128.891 321.417 131.851 318.457 131.851 314.806C131.851 311.155 128.891 308.195 125.24 308.195C121.589 308.195 118.629 311.155 118.629 314.806C118.629 318.457 121.589 321.417 125.24 321.417Z" fill="white"></path>
  <path d="M94.1011 383.513C97.6541 383.513 100.534 380.633 100.534 377.08C100.534 373.527 97.6541 370.647 94.1011 370.647C90.5482 370.647 87.668 373.527 87.668 377.08C87.668 380.633 90.5482 383.513 94.1011 383.513Z" fill="white"></path>
  <path d="M125.241 381.851C127.874 381.851 130.009 379.716 130.009 377.083C130.009 374.45 127.874 372.315 125.241 372.315C122.607 372.315 120.473 374.45 120.473 377.083C120.473 379.716 122.607 381.851 125.241 381.851Z" fill="white"></path>
  <path d="M156.379 379.017C157.449 379.017 158.315 378.15 158.315 377.081C158.315 376.012 157.449 375.145 156.379 375.145C155.31 375.145 154.443 376.012 154.443 377.081C154.443 378.15 155.31 379.017 156.379 379.017Z" fill="white"></path>
  <path d="M187.514 377.73C187.873 377.73 188.163 377.439 188.163 377.081C188.163 376.722 187.873 376.432 187.514 376.432C187.156 376.432 186.865 376.722 186.865 377.081C186.865 377.439 187.156 377.73 187.514 377.73Z" fill="white"></path>
  <path d="M218.653 382.274C221.52 382.274 223.845 379.949 223.845 377.082C223.845 374.214 221.52 371.89 218.653 371.89C215.785 371.89 213.461 374.214 213.461 377.082C213.461 379.949 215.785 382.274 218.653 382.274Z" fill="white"></path>
  <path d="M249.792 386.76C255.138 386.76 259.471 382.427 259.471 377.081C259.471 371.736 255.138 367.402 249.792 367.402C244.447 367.402 240.113 371.736 240.113 377.081C240.113 382.427 244.447 386.76 249.792 386.76Z" fill="white"></path>
  <path d="M280.928 387.411C286.633 387.411 291.257 382.787 291.257 377.082C291.257 371.378 286.633 366.753 280.928 366.753C275.224 366.753 270.6 371.378 270.6 377.082C270.6 382.787 275.224 387.411 280.928 387.411Z" fill="white"></path>
  <path d="M312.066 385.183C316.541 385.183 320.168 381.556 320.168 377.082C320.168 372.607 316.541 368.98 312.066 368.98C307.592 368.98 303.965 372.607 303.965 377.082C303.965 381.556 307.592 385.183 312.066 385.183Z" fill="white"></path>
  <path d="M343.208 380.817C345.271 380.817 346.944 379.144 346.944 377.081C346.944 375.018 345.271 373.346 343.208 373.346C341.145 373.346 339.473 375.018 339.473 377.081C339.473 379.144 341.145 380.817 343.208 380.817Z" fill="white"></path>
  <path d="M374.346 377.77C374.726 377.77 375.035 377.462 375.035 377.081C375.035 376.7 374.726 376.392 374.346 376.392C373.965 376.392 373.656 376.7 373.656 377.081C373.656 377.462 373.965 377.77 374.346 377.77Z" fill="white"></path>
  <path d="M405.48 346.634C405.861 346.634 406.17 346.326 406.17 345.945C406.17 345.564 405.861 345.255 405.48 345.255C405.1 345.255 404.791 345.564 404.791 345.945C404.791 346.326 405.1 346.634 405.48 346.634Z" fill="white"></path>
  <path d="M405.482 318.496C407.52 318.496 409.172 316.844 409.172 314.806C409.172 312.767 407.52 311.115 405.482 311.115C403.443 311.115 401.791 312.767 401.791 314.806C401.791 316.844 403.443 318.496 405.482 318.496Z" fill="white"></path>
  <path d="M405.475 291.722C409.923 291.722 413.529 288.115 413.529 283.667C413.529 279.218 409.923 275.612 405.475 275.612C401.026 275.612 397.42 279.218 397.42 283.667C397.42 288.115 401.026 291.722 405.475 291.722Z" fill="white"></path>
  <path d="M405.474 262.837C411.168 262.837 415.783 258.222 415.783 252.529C415.783 246.836 411.168 242.22 405.474 242.22C399.781 242.22 395.166 246.836 395.166 252.529C395.166 258.222 399.781 262.837 405.474 262.837Z" fill="white"></path>
  <path d="M405.484 232.013C411.35 232.013 416.106 227.257 416.106 221.392C416.106 215.526 411.35 210.77 405.484 210.77C399.619 210.77 394.863 215.526 394.863 221.392C394.863 227.257 399.619 232.013 405.484 232.013Z" fill="white"></path>
  <path d="M405.482 200.615C411.205 200.615 415.844 195.976 415.844 190.254C415.844 184.532 411.205 179.893 405.482 179.893C399.76 179.893 395.121 184.532 395.121 190.254C395.121 195.976 399.76 200.615 405.482 200.615Z" fill="white"></path>
  <path d="M405.477 167.364C410.032 167.364 413.724 163.672 413.724 159.117C413.724 154.563 410.032 150.871 405.477 150.871C400.923 150.871 397.23 154.563 397.23 159.117C397.23 163.672 400.923 167.364 405.477 167.364Z" fill="white"></path>
  <path d="M405.478 131.901C407.644 131.901 409.4 130.145 409.4 127.979C409.4 125.813 407.644 124.057 405.478 124.057C403.312 124.057 401.557 125.813 401.557 127.979C401.557 130.145 403.312 131.901 405.478 131.901Z" fill="white"></path>
  <path d="M405.48 97.5312C405.861 97.5312 406.17 97.2226 406.17 96.8418C406.17 96.4611 405.861 96.1525 405.48 96.1525C405.1 96.1525 404.791 96.4611 404.791 96.8418C404.791 97.2226 405.1 97.5312 405.48 97.5312Z" fill="white"></path>
  <path d="M374.346 66.3943C374.726 66.3943 375.035 66.0857 375.035 65.7049C375.035 65.3242 374.726 65.0155 374.346 65.0155C373.965 65.0155 373.656 65.3242 373.656 65.7049C373.656 66.0857 373.965 66.3943 374.346 66.3943Z" fill="white"></path>
  <path d="M343.202 69.7381C345.43 69.7381 347.237 67.9319 347.237 65.7038C347.237 63.4757 345.43 61.6695 343.202 61.6695C340.974 61.6695 339.168 63.4757 339.168 65.7038C339.168 67.9319 340.974 69.7381 343.202 69.7381Z" fill="white"></path>
  <path d="M312.072 74.0445C316.679 74.0445 320.413 70.31 320.413 65.7032C320.413 61.0965 316.679 57.362 312.072 57.362C307.465 57.362 303.73 61.0965 303.73 65.7032C303.73 70.31 307.465 74.0445 312.072 74.0445Z" fill="white"></path>
  <path d="M280.932 76.0849C286.666 76.0849 291.314 71.4369 291.314 65.7033C291.314 59.9697 286.666 55.3217 280.932 55.3217C275.199 55.3217 270.551 59.9697 270.551 65.7033C270.551 71.4369 275.199 76.0849 280.932 76.0849Z" fill="white"></path>
  <path d="M249.791 75.4074C255.15 75.4074 259.495 71.063 259.495 65.704C259.495 60.3449 255.15 56.0005 249.791 56.0005C244.432 56.0005 240.088 60.3449 240.088 65.704C240.088 71.063 244.432 75.4074 249.791 75.4074Z" fill="white"></path>
  <path d="M218.653 70.8939C221.52 70.8939 223.845 68.5694 223.845 65.7019C223.845 62.8345 221.52 60.5099 218.653 60.5099C215.785 60.5099 213.461 62.8345 213.461 65.7019C213.461 68.5694 215.785 70.8939 218.653 70.8939Z" fill="white"></path>
  <path d="M187.514 66.3526C187.873 66.3526 188.163 66.0621 188.163 65.7037C188.163 65.3453 187.873 65.0548 187.514 65.0548C187.156 65.0548 186.865 65.3453 186.865 65.7037C186.865 66.0621 187.156 66.3526 187.514 66.3526Z" fill="white"></path>
  <path d="M156.381 67.7585C157.516 67.7585 158.436 66.8384 158.436 65.7034C158.436 64.5684 157.516 63.6483 156.381 63.6483C155.246 63.6483 154.326 64.5684 154.326 65.7034C154.326 66.8384 155.246 67.7585 156.381 67.7585Z" fill="white"></path>
  <path d="M125.242 70.6127C127.953 70.6127 130.151 68.4146 130.151 65.703C130.151 62.9915 127.953 60.7933 125.242 60.7933C122.53 60.7933 120.332 62.9915 120.332 65.703C120.332 68.4146 122.53 70.6127 125.242 70.6127Z" fill="white"></path>
  <path d="M94.1001 72.1851C97.6794 72.1851 100.581 69.2835 100.581 65.7041C100.581 62.1248 97.6794 59.2232 94.1001 59.2232C90.5208 59.2232 87.6191 62.1248 87.6191 65.7041C87.6191 69.2835 90.5208 72.1851 94.1001 72.1851Z" fill="white"></path>
  <path d="M94.1005 103.416C97.7319 103.416 100.676 100.472 100.676 96.8406C100.676 93.2092 97.7319 90.2654 94.1005 90.2654C90.4692 90.2654 87.5254 93.2092 87.5254 96.8406C87.5254 100.472 90.4692 103.416 94.1005 103.416Z" fill="white"></path>
  <path d="M94.1011 133.261C97.0187 133.261 99.3838 130.896 99.3838 127.979C99.3838 125.061 97.0187 122.696 94.1011 122.696C91.1835 122.696 88.8184 125.061 88.8184 127.979C88.8184 130.896 91.1835 133.261 94.1011 133.261Z" fill="white"></path>
  <path d="M94.1041 161.687C95.5229 161.687 96.6731 160.537 96.6731 159.118C96.6731 157.699 95.5229 156.549 94.1041 156.549C92.6853 156.549 91.5352 157.699 91.5352 159.118C91.5352 160.537 92.6853 161.687 94.1041 161.687Z" fill="white"></path>
  <path d="M94.1054 253.218C94.4862 253.218 94.7948 252.91 94.7948 252.529C94.7948 252.148 94.4862 251.84 94.1054 251.84C93.7247 251.84 93.416 252.148 93.416 252.529C93.416 252.91 93.7247 253.218 94.1054 253.218Z" fill="white"></path>
  <path d="M94.1052 286.416C95.6227 286.416 96.853 285.185 96.853 283.668C96.853 282.15 95.6227 280.92 94.1052 280.92C92.5876 280.92 91.3574 282.15 91.3574 283.668C91.3574 285.185 92.5876 286.416 94.1052 286.416Z" fill="white"></path>
  <path d="M94.1035 320.222C97.0947 320.222 99.5195 317.797 99.5195 314.806C99.5195 311.815 97.0947 309.39 94.1035 309.39C91.1123 309.39 88.6875 311.815 88.6875 314.806C88.6875 317.797 91.1123 320.222 94.1035 320.222Z" fill="white"></path>
  <path d="M94.1018 352.533C97.7413 352.533 100.692 349.583 100.692 345.943C100.692 342.304 97.7413 339.353 94.1018 339.353C90.4622 339.353 87.5117 342.304 87.5117 345.943C87.5117 349.583 90.4622 352.533 94.1018 352.533Z" fill="white"></path>
  <path d="M62.9656 412.9C65.5516 412.9 67.648 410.804 67.648 408.218C67.648 405.632 65.5516 403.535 62.9656 403.535C60.3796 403.535 58.2832 405.632 58.2832 408.218C58.2832 410.804 60.3796 412.9 62.9656 412.9Z" fill="white"></path>
  <path d="M94.1033 412.804C96.6359 412.804 98.689 410.751 98.689 408.219C98.689 405.686 96.6359 403.633 94.1033 403.633C91.5707 403.633 89.5176 405.686 89.5176 408.219C89.5176 410.751 91.5707 412.804 94.1033 412.804Z" fill="white"></path>
  <path d="M125.239 410.155C126.308 410.155 127.175 409.288 127.175 408.219C127.175 407.15 126.308 406.283 125.239 406.283C124.17 406.283 123.303 407.15 123.303 408.219C123.303 409.288 124.17 410.155 125.239 410.155Z" fill="white"></path>
  <path d="M218.653 410.788C220.072 410.788 221.222 409.638 221.222 408.219C221.222 406.8 220.072 405.65 218.653 405.65C217.234 405.65 216.084 406.8 216.084 408.219C216.084 409.638 217.234 410.788 218.653 410.788Z" fill="white"></path>
  <path d="M249.791 415.109C253.596 415.109 256.68 412.025 256.68 408.22C256.68 404.415 253.596 401.331 249.791 401.331C245.987 401.331 242.902 404.415 242.902 408.22C242.902 412.025 245.987 415.109 249.791 415.109Z" fill="white"></path>
  <path d="M280.925 415.853C285.141 415.853 288.559 412.436 288.559 408.219C288.559 404.003 285.141 400.585 280.925 400.585C276.709 400.585 273.291 404.003 273.291 408.219C273.291 412.436 276.709 415.853 280.925 415.853Z" fill="white"></path>
  <path d="M312.069 411.954C314.132 411.954 315.805 410.282 315.805 408.218C315.805 406.155 314.132 404.483 312.069 404.483C310.006 404.483 308.334 406.155 308.334 408.218C308.334 410.282 310.006 411.954 312.069 411.954Z" fill="white"></path>
  <path d="M343.207 408.908C343.588 408.908 343.896 408.6 343.896 408.219C343.896 407.838 343.588 407.53 343.207 407.53C342.826 407.53 342.518 407.838 342.518 408.219C342.518 408.6 342.826 408.908 343.207 408.908Z" fill="white"></path>
  <path d="M436.617 315.497C436.998 315.497 437.307 315.189 437.307 314.808C437.307 314.427 436.998 314.118 436.617 314.118C436.236 314.118 435.928 314.427 435.928 314.808C435.928 315.189 436.236 315.497 436.617 315.497Z" fill="white"></path>
  <path d="M436.621 287.339C438.648 287.339 440.292 285.695 440.292 283.668C440.292 281.64 438.648 279.996 436.621 279.996C434.593 279.996 432.949 281.64 432.949 283.668C432.949 285.695 434.593 287.339 436.621 287.339Z" fill="white"></path>
  <path d="M436.619 260.526C441.034 260.526 444.614 256.947 444.614 252.531C444.614 248.115 441.034 244.535 436.619 244.535C432.203 244.535 428.623 248.115 428.623 252.531C428.623 256.947 432.203 260.526 436.619 260.526Z" fill="white"></path>
  <path d="M436.622 231.443C442.173 231.443 446.674 226.943 446.674 221.392C446.674 215.84 442.173 211.34 436.622 211.34C431.071 211.34 426.57 215.84 426.57 221.392C426.57 226.943 431.071 231.443 436.622 231.443Z" fill="white"></path>
  <path d="M436.615 198.482C441.159 198.482 444.842 194.799 444.842 190.255C444.842 185.712 441.159 182.029 436.615 182.029C432.072 182.029 428.389 185.712 428.389 190.255C428.389 194.799 432.072 198.482 436.615 198.482Z" fill="white"></path>
  <path d="M436.616 163.032C438.778 163.032 440.531 161.279 440.531 159.117C440.531 156.955 438.778 155.202 436.616 155.202C434.454 155.202 432.701 156.955 432.701 159.117C432.701 161.279 434.454 163.032 436.616 163.032Z" fill="white"></path>
  <path d="M436.617 128.669C436.998 128.669 437.307 128.36 437.307 127.979C437.307 127.598 436.998 127.29 436.617 127.29C436.236 127.29 435.928 127.598 435.928 127.979C435.928 128.36 436.236 128.669 436.617 128.669Z" fill="white"></path>
  <path d="M343.207 35.2554C343.588 35.2554 343.896 34.9467 343.896 34.566C343.896 34.1853 343.588 33.8766 343.207 33.8766C342.826 33.8766 342.518 34.1853 342.518 34.566C342.518 34.9467 342.826 35.2554 343.207 35.2554Z" fill="white"></path>
  <path d="M312.063 38.6067C314.294 38.6067 316.104 36.7975 316.104 34.5657C316.104 32.3339 314.294 30.5247 312.063 30.5247C309.831 30.5247 308.021 32.3339 308.021 34.5657C308.021 36.7975 309.831 38.6067 312.063 38.6067Z" fill="white"></path>
  <path d="M280.927 42.4923C285.305 42.4923 288.854 38.9433 288.854 34.5654C288.854 30.1875 285.305 26.6385 280.927 26.6385C276.549 26.6385 273 30.1875 273 34.5654C273 38.9433 276.549 42.4923 280.927 42.4923Z" fill="white"></path>
  <path d="M249.796 41.7356C253.756 41.7356 256.966 38.5257 256.966 34.5662C256.966 30.6067 253.756 27.3968 249.796 27.3968C245.837 27.3968 242.627 30.6067 242.627 34.5662C242.627 38.5257 245.837 41.7356 249.796 41.7356Z" fill="white"></path>
  <path d="M218.661 37.3636C220.207 37.3636 221.459 36.1108 221.459 34.5655C221.459 33.0201 220.207 31.7674 218.661 31.7674C217.116 31.7674 215.863 33.0201 215.863 34.5655C215.863 36.1108 217.116 37.3636 218.661 37.3636Z" fill="white"></path>
  <path d="M125.24 36.7345C126.437 36.7345 127.408 35.7641 127.408 34.5669C127.408 33.3698 126.437 32.3993 125.24 32.3993C124.043 32.3993 123.072 33.3698 123.072 34.5669C123.072 35.7641 124.043 36.7345 125.24 36.7345Z" fill="white"></path>
  <path d="M94.1019 39.333C96.7352 39.333 98.8699 37.1983 98.8699 34.565C98.8699 31.9317 96.7352 29.7971 94.1019 29.7971C91.4687 29.7971 89.334 31.9317 89.334 34.565C89.334 37.1983 91.4687 39.333 94.1019 39.333Z" fill="white"></path>
  <path d="M62.967 39.3993C65.6358 39.3993 67.7993 37.2359 67.7993 34.5671C67.7993 31.8983 65.6358 29.7348 62.967 29.7348C60.2982 29.7348 58.1348 31.8983 58.1348 34.5671C58.1348 37.2359 60.2982 39.3993 62.967 39.3993Z" fill="white"></path>
  <path d="M62.9624 72.0615C66.4743 72.0615 69.3212 69.2145 69.3212 65.7027C69.3212 62.1908 66.4743 59.3438 62.9624 59.3438C59.4505 59.3438 56.6035 62.1908 56.6035 65.7027C56.6035 69.2145 59.4505 72.0615 62.9624 72.0615Z" fill="white"></path>
  <path d="M62.9663 102.123C65.8839 102.123 68.2491 99.7582 68.2491 96.8406C68.2491 93.9231 65.8839 91.5579 62.9663 91.5579C60.0487 91.5579 57.6836 93.9231 57.6836 96.8406C57.6836 99.7582 60.0487 102.123 62.9663 102.123Z" fill="white"></path>
  <path d="M62.9655 130.548C64.3843 130.548 65.5344 129.398 65.5344 127.979C65.5344 126.56 64.3843 125.41 62.9655 125.41C61.5467 125.41 60.3965 126.56 60.3965 127.979C60.3965 129.398 61.5467 130.548 62.9655 130.548Z" fill="white"></path>
  <path d="M62.9648 284.357C63.3455 284.357 63.6542 284.049 63.6542 283.668C63.6542 283.287 63.3455 282.979 62.9648 282.979C62.584 282.979 62.2754 283.287 62.2754 283.668C62.2754 284.049 62.584 284.357 62.9648 284.357Z" fill="white"></path>
  <path d="M62.9638 317.518C64.4615 317.518 65.6756 316.304 65.6756 314.806C65.6756 313.309 64.4615 312.094 62.9638 312.094C61.4661 312.094 60.252 313.309 60.252 314.806C60.252 316.304 61.4661 317.518 62.9638 317.518Z" fill="white"></path>
  <path d="M62.9657 351.315C65.9325 351.315 68.3376 348.91 68.3376 345.943C68.3376 342.976 65.9325 340.571 62.9657 340.571C59.9988 340.571 57.5938 342.976 57.5938 345.943C57.5938 348.91 59.9988 351.315 62.9657 351.315Z" fill="white"></path>
  <path d="M62.9654 383.413C66.4628 383.413 69.298 380.578 69.298 377.08C69.298 373.583 66.4628 370.748 62.9654 370.748C59.468 370.748 56.6328 373.583 56.6328 377.08C56.6328 380.578 59.468 383.413 62.9654 383.413Z" fill="white"></path>
  <path d="M62.9633 440.88C63.8049 440.88 64.4872 440.198 64.4872 439.356C64.4872 438.515 63.8049 437.833 62.9633 437.833C62.1217 437.833 61.4395 438.515 61.4395 439.356C61.4395 440.198 62.1217 440.88 62.9633 440.88Z" fill="white"></path>
  <path d="M94.1034 440.736C94.8649 440.736 95.4822 440.118 95.4822 439.357C95.4822 438.595 94.8649 437.978 94.1034 437.978C93.3419 437.978 92.7246 438.595 92.7246 439.357C92.7246 440.118 93.3419 440.736 94.1034 440.736Z" fill="white"></path>
  <path d="M249.789 441.413C250.924 441.413 251.844 440.493 251.844 439.358C251.844 438.223 250.924 437.303 249.789 437.303C248.654 437.303 247.734 438.223 247.734 439.358C247.734 440.493 248.654 441.413 249.789 441.413Z" fill="white"></path>
  <path d="M280.932 441.831C282.299 441.831 283.407 440.723 283.407 439.357C283.407 437.99 282.299 436.882 280.932 436.882C279.565 436.882 278.457 437.99 278.457 439.357C278.457 440.723 279.565 441.831 280.932 441.831Z" fill="white"></path>
  <path d="M312.066 440.044C312.447 440.044 312.756 439.736 312.756 439.355C312.756 438.974 312.447 438.666 312.066 438.666C311.686 438.666 311.377 438.974 311.377 439.355C311.377 439.736 311.686 440.044 312.066 440.044Z" fill="white"></path>
  <path d="M467.758 284.316C468.117 284.316 468.407 284.025 468.407 283.667C468.407 283.308 468.117 283.018 467.758 283.018C467.4 283.018 467.109 283.308 467.109 283.667C467.109 284.025 467.4 284.316 467.758 284.316Z" fill="white"></path>
  <path d="M467.756 256.136C469.748 256.136 471.362 254.522 471.362 252.53C471.362 250.539 469.748 248.924 467.756 248.924C465.765 248.924 464.15 250.539 464.15 252.53C464.15 254.522 465.765 256.136 467.756 256.136Z" fill="white"></path>
  <path d="M467.755 227.616C471.192 227.616 473.978 224.83 473.978 221.393C473.978 217.956 471.192 215.17 467.755 215.17C464.318 215.17 461.531 217.956 461.531 221.393C461.531 224.83 464.318 227.616 467.755 227.616Z" fill="white"></path>
  <path d="M467.761 194.116C469.893 194.116 471.622 192.387 471.622 190.255C471.622 188.123 469.893 186.395 467.761 186.395C465.629 186.395 463.9 188.123 463.9 190.255C463.9 192.387 465.629 194.116 467.761 194.116Z" fill="white"></path>
  <path d="M467.758 159.806C468.139 159.806 468.447 159.498 468.447 159.117C468.447 158.736 468.139 158.428 467.758 158.428C467.377 158.428 467.068 158.736 467.068 159.117C467.068 159.498 467.377 159.806 467.758 159.806Z" fill="white"></path>
  <path d="M312.066 4.11742C312.447 4.11742 312.756 3.80876 312.756 3.42801C312.756 3.04727 312.447 2.73862 312.066 2.73862C311.686 2.73862 311.377 3.04727 311.377 3.42801C311.377 3.80876 311.686 4.11742 312.066 4.11742Z" fill="white"></path>
  <path d="M280.925 6.22669C282.47 6.22669 283.723 4.97395 283.723 3.42862C283.723 1.88329 282.47 0.630554 280.925 0.630554C279.38 0.630554 278.127 1.88329 278.127 3.42862C278.127 4.97395 279.38 6.22669 280.925 6.22669Z" fill="white"></path>
  <path d="M249.789 5.80618C251.102 5.80618 252.166 4.74205 252.166 3.42939C252.166 2.11673 251.102 1.05261 249.789 1.05261C248.476 1.05261 247.412 2.11673 247.412 3.42939C247.412 4.74205 248.476 5.80618 249.789 5.80618Z" fill="white"></path>
  <path d="M94.1002 5.05749C95.0002 5.05749 95.7298 4.32792 95.7298 3.42796C95.7298 2.528 95.0002 1.79843 94.1002 1.79843C93.2003 1.79843 92.4707 2.528 92.4707 3.42796C92.4707 4.32792 93.2003 5.05749 94.1002 5.05749Z" fill="white"></path>
  <path d="M62.9636 5.10048C63.8873 5.10048 64.6362 4.35164 64.6362 3.42791C64.6362 2.50418 63.8873 1.75536 62.9636 1.75536C62.0398 1.75536 61.291 2.50418 61.291 3.42791C61.291 4.35164 62.0398 5.10048 62.9636 5.10048Z" fill="white"></path>
  <path d="M31.8291 36.8101C33.068 36.8101 34.0723 35.8058 34.0723 34.5669C34.0723 33.3281 33.068 32.3238 31.8291 32.3238C30.5902 32.3238 29.5859 33.3281 29.5859 34.5669C29.5859 35.8058 30.5902 36.8101 31.8291 36.8101Z" fill="white"></path>
  <path d="M31.8299 69.6257C33.9957 69.6257 35.7515 67.8699 35.7515 65.704C35.7515 63.5381 33.9957 61.7823 31.8299 61.7823C29.664 61.7823 27.9082 63.5381 27.9082 65.704C27.9082 67.8699 29.664 69.6257 31.8299 69.6257Z" fill="white"></path>
  <path d="M31.8254 99.3723C33.223 99.3723 34.3559 98.2393 34.3559 96.8418C34.3559 95.4442 33.223 94.3113 31.8254 94.3113C30.4279 94.3113 29.2949 95.4442 29.2949 96.8418C29.2949 98.2393 30.4279 99.3723 31.8254 99.3723Z" fill="white"></path>
  <path d="M31.8247 315.456C32.1831 315.456 32.4736 315.165 32.4736 314.807C32.4736 314.448 32.1831 314.158 31.8247 314.158C31.4663 314.158 31.1758 314.448 31.1758 314.807C31.1758 315.165 31.4663 315.456 31.8247 315.456Z" fill="white"></path>
  <path d="M31.8254 348.592C33.2888 348.592 34.4751 347.406 34.4751 345.942C34.4751 344.479 33.2888 343.293 31.8254 343.293C30.3621 343.293 29.1758 344.479 29.1758 345.942C29.1758 347.406 30.3621 348.592 31.8254 348.592Z" fill="white"></path>
  <path d="M31.8299 381.003C33.9957 381.003 35.7515 379.247 35.7515 377.081C35.7515 374.915 33.9957 373.159 31.8299 373.159C29.664 373.159 27.9082 374.915 27.9082 377.081C27.9082 379.247 29.664 381.003 31.8299 381.003Z" fill="white"></path>
  <path d="M31.8246 410.274C32.9596 410.274 33.8797 409.354 33.8797 408.219C33.8797 407.084 32.9596 406.164 31.8246 406.164C30.6896 406.164 29.7695 407.084 29.7695 408.219C29.7695 409.354 30.6896 410.274 31.8246 410.274Z" fill="white"></path>
  <path d="M498.894 222.502C499.506 222.502 500.003 222.005 500.003 221.393C500.003 220.781 499.506 220.284 498.894 220.284C498.282 220.284 497.785 220.781 497.785 221.393C497.785 222.005 498.282 222.502 498.894 222.502Z" fill="white"></path>
  <path d="M498.893 190.942C499.273 190.942 499.582 190.634 499.582 190.253C499.582 189.872 499.273 189.564 498.893 189.564C498.512 189.564 498.203 189.872 498.203 190.253C498.203 190.634 498.512 190.942 498.893 190.942Z" fill="white"></path>
  <path d="M0.689399 66.3953C1.07015 66.3953 1.37881 66.0866 1.37881 65.7059C1.37881 65.3251 1.07015 65.0165 0.689399 65.0165C0.308652 65.0165 0 65.3251 0 65.7059C0 66.0866 0.308652 66.3953 0.689399 66.3953Z" fill="white"></path>
  <path d="M0.689399 377.771C1.07015 377.771 1.37881 377.462 1.37881 377.082C1.37881 376.701 1.07015 376.392 0.689399 376.392C0.308652 376.392 0 376.701 0 377.082C0 377.462 0.308652 377.771 0.689399 377.771Z" fill="white"></path>
</svg>
