<?xml version="1.0" encoding="UTF-8"?>
<svg xmlns="http://www.w3.org/2000/svg" width="166" height="166" viewBox="0 0 166 166" fill="none">
  <path d="M82.5806 85.5946C83.9767 85.5946 85.1084 84.4629 85.1084 83.0668C85.1084 81.6707 83.9767 80.5389 82.5806 80.5389C81.1845 80.5389 80.0527 81.6707 80.0527 83.0668C80.0527 84.4629 81.1845 85.5946 82.5806 85.5946Z" fill="white"></path>
  <path d="M72.3277 95.8272C73.7125 95.8272 74.835 94.7047 74.835 93.3199C74.835 91.9351 73.7125 90.8125 72.3277 90.8125C70.9429 90.8125 69.8203 91.9351 69.8203 93.3199C69.8203 94.7047 70.9429 95.8272 72.3277 95.8272Z" fill="white"></path>
  <path d="M82.5797 95.8781C83.9926 95.8781 85.1379 94.7327 85.1379 93.3198C85.1379 91.907 83.9926 90.7616 82.5797 90.7616C81.1668 90.7616 80.0215 91.907 80.0215 93.3198C80.0215 94.7327 81.1668 95.8781 82.5797 95.8781Z" fill="white"></path>
  <path d="M92.8328 95.9381C94.2787 95.9381 95.4508 94.766 95.4508 93.3201C95.4508 91.8743 94.2787 90.7021 92.8328 90.7021C91.3869 90.7021 90.2148 91.8743 90.2148 93.3201C90.2148 94.766 91.3869 95.9381 92.8328 95.9381Z" fill="white"></path>
  <path d="M92.8328 85.7238C94.3003 85.7238 95.4899 84.5342 95.4899 83.0667C95.4899 81.5993 94.3003 80.4097 92.8328 80.4097C91.3654 80.4097 90.1758 81.5993 90.1758 83.0667C90.1758 84.5342 91.3654 85.7238 92.8328 85.7238Z" fill="white"></path>
  <path d="M92.8326 75.4901C94.3107 75.4901 95.509 74.2918 95.509 72.8137C95.509 71.3356 94.3107 70.1373 92.8326 70.1373C91.3545 70.1373 90.1562 71.3356 90.1562 72.8137C90.1562 74.2918 91.3545 75.4901 92.8326 75.4901Z" fill="white"></path>
  <path d="M82.5799 75.2901C83.9475 75.2901 85.0562 74.1814 85.0562 72.8137C85.0562 71.4461 83.9475 70.3374 82.5799 70.3374C81.2122 70.3374 80.1035 71.4461 80.1035 72.8137C80.1035 74.1814 81.2122 75.2901 82.5799 75.2901Z" fill="white"></path>
  <path d="M72.327 75.0724C73.5745 75.0724 74.5857 74.0612 74.5857 72.8137C74.5857 71.5663 73.5745 70.5551 72.327 70.5551C71.0796 70.5551 70.0684 71.5663 70.0684 72.8137C70.0684 74.0612 71.0796 75.0724 72.327 75.0724Z" fill="white"></path>
  <path d="M72.3272 85.4581C73.6481 85.4581 74.7189 84.3873 74.7189 83.0665C74.7189 81.7456 73.6481 80.6748 72.3272 80.6748C71.0063 80.6748 69.9355 81.7456 69.9355 83.0665C69.9355 84.3873 71.0063 85.4581 72.3272 85.4581Z" fill="white"></path>
  <path d="M62.0751 106.211C63.5318 106.211 64.7126 105.03 64.7126 103.573C64.7126 102.116 63.5318 100.936 62.0751 100.936C60.6184 100.936 59.4375 102.116 59.4375 103.573C59.4375 105.03 60.6184 106.211 62.0751 106.211Z" fill="white"></path>
  <path d="M72.3267 106.171C73.7617 106.171 74.9249 105.008 74.9249 103.573C74.9249 102.138 73.7617 100.975 72.3267 100.975C70.8918 100.975 69.7285 102.138 69.7285 103.573C69.7285 105.008 70.8918 106.171 72.3267 106.171Z" fill="white"></path>
  <path d="M82.58 106.141C83.9984 106.141 85.1483 104.992 85.1483 103.573C85.1483 102.155 83.9984 101.005 82.58 101.005C81.1616 101.005 80.0117 102.155 80.0117 103.573C80.0117 104.992 81.1616 106.141 82.58 106.141Z" fill="white"></path>
  <path d="M92.8336 106.131C94.2465 106.131 95.3918 104.986 95.3918 103.573C95.3918 102.16 94.2465 101.015 92.8336 101.015C91.4207 101.015 90.2754 102.16 90.2754 103.573C90.2754 104.986 91.4207 106.131 92.8336 106.131Z" fill="white"></path>
  <path d="M103.086 106.131C104.498 106.131 105.644 104.986 105.644 103.573C105.644 102.16 104.498 101.015 103.086 101.015C101.673 101.015 100.527 102.16 100.527 103.573C100.527 104.986 101.673 106.131 103.086 106.131Z" fill="white"></path>
  <path d="M103.087 95.9962C104.565 95.9962 105.763 94.7979 105.763 93.3198C105.763 91.8417 104.565 90.6434 103.087 90.6434C101.608 90.6434 100.41 91.8417 100.41 93.3198C100.41 94.7979 101.608 95.9962 103.087 95.9962Z" fill="white"></path>
  <path d="M103.087 85.8377C104.618 85.8377 105.858 84.5971 105.858 83.0667C105.858 81.5364 104.618 80.2958 103.087 80.2958C101.557 80.2958 100.316 81.5364 100.316 83.0667C100.316 84.5971 101.557 85.8377 103.087 85.8377Z" fill="white"></path>
  <path d="M103.087 75.6581C104.657 75.6581 105.931 74.3846 105.931 72.8137C105.931 71.2428 104.657 69.9694 103.087 69.9694C101.516 69.9694 100.242 71.2428 100.242 72.8137C100.242 74.3846 101.516 75.6581 103.087 75.6581Z" fill="white"></path>
  <path d="M103.086 65.4589C104.686 65.4589 105.984 64.1613 105.984 62.5607C105.984 60.9601 104.686 59.6625 103.086 59.6625C101.485 59.6625 100.188 60.9601 100.188 62.5607C100.188 64.1613 101.485 65.4589 103.086 65.4589Z" fill="white"></path>
  <path d="M92.8326 65.237C94.3107 65.237 95.509 64.0388 95.509 62.5606C95.509 61.0825 94.3107 59.8843 92.8326 59.8843C91.3545 59.8843 90.1562 61.0825 90.1562 62.5606C90.1562 64.0388 91.3545 65.237 92.8326 65.237Z" fill="white"></path>
  <path d="M82.5801 64.9631C83.907 64.9631 84.9826 63.8876 84.9826 62.5607C84.9826 61.2339 83.907 60.1583 82.5801 60.1583C81.2533 60.1583 80.1777 61.2339 80.1777 62.5607C80.1777 63.8876 81.2533 64.9631 82.5801 64.9631Z" fill="white"></path>
  <path d="M72.3283 64.6781C73.4977 64.6781 74.4457 63.7301 74.4457 62.5607C74.4457 61.3913 73.4977 60.4434 72.3283 60.4434C71.1589 60.4434 70.2109 61.3913 70.2109 62.5607C70.2109 63.7301 71.1589 64.6781 72.3283 64.6781Z" fill="white"></path>
  <path d="M62.0749 64.4188C63.1011 64.4188 63.933 63.5869 63.933 62.5606C63.933 61.5344 63.1011 60.7025 62.0749 60.7025C61.0487 60.7025 60.2168 61.5344 60.2168 62.5606C60.2168 63.5869 61.0487 64.4188 62.0749 64.4188Z" fill="white"></path>
  <path d="M62.0747 74.8945C63.2237 74.8945 64.1552 73.963 64.1552 72.8139C64.1552 71.6649 63.2237 70.7334 62.0747 70.7334C60.9256 70.7334 59.9941 71.6649 59.9941 72.8139C59.9941 73.963 60.9256 74.8945 62.0747 74.8945Z" fill="white"></path>
  <path d="M62.0734 85.3704C63.3458 85.3704 64.3773 84.3389 64.3773 83.0666C64.3773 81.7942 63.3458 80.7627 62.0734 80.7627C60.801 80.7627 59.7695 81.7942 59.7695 83.0666C59.7695 84.3389 60.801 85.3704 62.0734 85.3704Z" fill="white"></path>
  <path d="M62.0746 95.8066C63.448 95.8066 64.5614 94.6933 64.5614 93.3199C64.5614 91.9465 63.448 90.8331 62.0746 90.8331C60.7012 90.8331 59.5879 91.9465 59.5879 93.3199C59.5879 94.6933 60.7012 95.8066 62.0746 95.8066Z" fill="white"></path>
  <path d="M51.8203 116.652C53.3812 116.652 54.6466 115.387 54.6466 113.826C54.6466 112.265 53.3812 111 51.8203 111C50.2595 111 48.9941 112.265 48.9941 113.826C48.9941 115.387 50.2595 116.652 51.8203 116.652Z" fill="white"></path>
  <path d="M62.0734 116.559C63.583 116.559 64.8069 115.336 64.8069 113.826C64.8069 112.316 63.583 111.092 62.0734 111.092C60.5637 111.092 59.3398 112.316 59.3398 113.826C59.3398 115.336 60.5637 116.559 62.0734 116.559Z" fill="white"></path>
  <path d="M72.327 116.473C73.7891 116.473 74.9743 115.288 74.9743 113.826C74.9743 112.364 73.7891 111.179 72.327 111.179C70.8649 111.179 69.6797 112.364 69.6797 113.826C69.6797 115.288 70.8649 116.473 72.327 116.473Z" fill="white"></path>
  <path d="M82.58 116.394C83.9984 116.394 85.1483 115.245 85.1483 113.826C85.1483 112.408 83.9984 111.258 82.58 111.258C81.1616 111.258 80.0117 112.408 80.0117 113.826C80.0117 115.245 81.1616 116.394 82.58 116.394Z" fill="white"></path>
  <path d="M92.833 116.323C94.2121 116.323 95.3301 115.205 95.3301 113.826C95.3301 112.447 94.2121 111.329 92.833 111.329C91.4539 111.329 90.3359 112.447 90.3359 113.826C90.3359 115.205 91.4539 116.323 92.833 116.323Z" fill="white"></path>
  <path d="M103.087 116.26C104.431 116.26 105.521 115.17 105.521 113.826C105.521 112.482 104.431 111.392 103.087 111.392C101.742 111.392 100.652 112.482 100.652 113.826C100.652 115.17 101.742 116.26 103.087 116.26Z" fill="white"></path>
  <path d="M113.34 116.207C114.655 116.207 115.721 115.141 115.721 113.826C115.721 112.511 114.655 111.445 113.34 111.445C112.025 111.445 110.959 112.511 110.959 113.826C110.959 115.141 112.025 116.207 113.34 116.207Z" fill="white"></path>
  <path d="M113.34 106.141C114.758 106.141 115.908 104.992 115.908 103.573C115.908 102.155 114.758 101.005 113.34 101.005C111.921 101.005 110.771 102.155 110.771 103.573C110.771 104.992 111.921 106.141 113.34 106.141Z" fill="white"></path>
  <path d="M113.339 96.0533C114.849 96.0533 116.073 94.8295 116.073 93.3198C116.073 91.8101 114.849 90.5863 113.339 90.5863C111.829 90.5863 110.605 91.8101 110.605 93.3198C110.605 94.8295 111.829 96.0533 113.339 96.0533Z" fill="white"></path>
  <path d="M113.34 85.9382C114.926 85.9382 116.212 84.6526 116.212 83.0667C116.212 81.4809 114.926 80.1953 113.34 80.1953C111.754 80.1953 110.469 81.4809 110.469 83.0667C110.469 84.6526 111.754 85.9382 113.34 85.9382Z" fill="white"></path>
  <path d="M113.34 75.7909C114.985 75.7909 116.318 74.4579 116.318 72.8137C116.318 71.1695 114.985 69.8365 113.34 69.8365C111.696 69.8365 110.363 71.1695 110.363 72.8137C110.363 74.4579 111.696 75.7909 113.34 75.7909Z" fill="white"></path>
  <path d="M113.341 65.6062C115.023 65.6062 116.386 64.2427 116.386 62.5606C116.386 60.8786 115.023 59.515 113.341 59.515C111.658 59.515 110.295 60.8786 110.295 62.5606C110.295 64.2427 111.658 65.6062 113.341 65.6062Z" fill="white"></path>
  <path d="M113.339 55.4117C115.053 55.4117 116.443 54.0218 116.443 52.3074C116.443 50.593 115.053 49.2031 113.339 49.2031C111.624 49.2031 110.234 50.593 110.234 52.3074C110.234 54.0218 111.624 55.4117 113.339 55.4117Z" fill="white"></path>
  <path d="M103.086 55.2412C104.706 55.2412 106.019 53.9278 106.019 52.3076C106.019 50.6874 104.706 49.374 103.086 49.374C101.466 49.374 100.152 50.6874 100.152 52.3076C100.152 53.9278 101.466 55.2412 103.086 55.2412Z" fill="white"></path>
  <path d="M92.8347 54.9741C94.3075 54.9741 95.5014 53.7801 95.5014 52.3073C95.5014 50.8346 94.3075 49.6406 92.8347 49.6406C91.3619 49.6406 90.168 50.8346 90.168 52.3073C90.168 53.7801 91.3619 54.9741 92.8347 54.9741Z" fill="white"></path>
  <path d="M82.5794 54.6451C83.8701 54.6451 84.9165 53.5987 84.9165 52.3079C84.9165 51.0171 83.8701 49.9707 82.5794 49.9707C81.2886 49.9707 80.2422 51.0171 80.2422 52.3079C80.2422 53.5987 81.2886 54.6451 82.5794 54.6451Z" fill="white"></path>
  <path d="M72.3266 54.2866C73.4196 54.2866 74.3056 53.4006 74.3056 52.3076C74.3056 51.2146 73.4196 50.3286 72.3266 50.3286C71.2337 50.3286 70.3477 51.2146 70.3477 52.3076C70.3477 53.4006 71.2337 54.2866 72.3266 54.2866Z" fill="white"></path>
  <path d="M62.0745 53.9605C62.9872 53.9605 63.7271 53.2206 63.7271 52.3079C63.7271 51.3952 62.9872 50.6553 62.0745 50.6553C61.1618 50.6553 60.4219 51.3952 60.4219 52.3079C60.4219 53.2206 61.1618 53.9605 62.0745 53.9605Z" fill="white"></path>
  <path d="M51.8222 53.6884C52.5848 53.6884 53.2031 53.0702 53.2031 52.3076C53.2031 51.545 52.5848 50.9268 51.8222 50.9268C51.0596 50.9268 50.4414 51.545 50.4414 52.3076C50.4414 53.0702 51.0596 53.6884 51.8222 53.6884Z" fill="white"></path>
  <path d="M51.8206 64.1976C52.7246 64.1976 53.4575 63.4647 53.4575 62.5607C53.4575 61.6566 52.7246 60.9237 51.8206 60.9237C50.9165 60.9237 50.1836 61.6566 50.1836 62.5607C50.1836 63.4647 50.9165 64.1976 51.8206 64.1976Z" fill="white"></path>
  <path d="M51.8223 74.7532C52.8935 74.7532 53.7619 73.8849 53.7619 72.8137C53.7619 71.7425 52.8935 70.8741 51.8223 70.8741C50.7512 70.8741 49.8828 71.7425 49.8828 72.8137C49.8828 73.8849 50.7512 74.7532 51.8223 74.7532Z" fill="white"></path>
  <path d="M51.8217 85.3026C53.0565 85.3026 54.0574 84.3016 54.0574 83.0668C54.0574 81.832 53.0565 80.8311 51.8217 80.8311C50.5869 80.8311 49.5859 81.832 49.5859 83.0668C49.5859 84.3016 50.5869 85.3026 51.8217 85.3026Z" fill="white"></path>
  <path d="M51.8213 95.8169C53.2004 95.8169 54.3184 94.6989 54.3184 93.3198C54.3184 91.9407 53.2004 90.8228 51.8213 90.8228C50.4422 90.8228 49.3242 91.9407 49.3242 93.3198C49.3242 94.6989 50.4422 95.8169 51.8213 95.8169Z" fill="white"></path>
  <path d="M51.8205 106.268C53.3093 106.268 54.5161 105.062 54.5161 103.573C54.5161 102.084 53.3093 100.877 51.8205 100.877C50.3318 100.877 49.125 102.084 49.125 103.573C49.125 105.062 50.3318 106.268 51.8205 106.268Z" fill="white"></path>
  <path d="M41.5682 127.091C43.2315 127.091 44.5798 125.742 44.5798 124.079C44.5798 122.416 43.2315 121.067 41.5682 121.067C39.905 121.067 38.5566 122.416 38.5566 124.079C38.5566 125.742 39.905 127.091 41.5682 127.091Z" fill="white"></path>
  <path d="M51.8212 126.986C53.4267 126.986 54.7283 125.685 54.7283 124.079C54.7283 122.473 53.4267 121.172 51.8212 121.172C50.2156 121.172 48.9141 122.473 48.9141 124.079C48.9141 125.685 50.2156 126.986 51.8212 126.986Z" fill="white"></path>
  <path d="M62.0747 126.868C63.6153 126.868 64.8642 125.62 64.8642 124.079C64.8642 122.538 63.6153 121.289 62.0747 121.289C60.5341 121.289 59.2852 122.538 59.2852 124.079C59.2852 125.62 60.5341 126.868 62.0747 126.868Z" fill="white"></path>
  <path d="M72.3268 126.755C73.8049 126.755 75.0031 125.557 75.0031 124.079C75.0031 122.601 73.8049 121.402 72.3268 121.402C70.8486 121.402 69.6504 122.601 69.6504 124.079C69.6504 125.557 70.8486 126.755 72.3268 126.755Z" fill="white"></path>
  <path d="M82.5794 126.627C83.9867 126.627 85.1275 125.486 85.1275 124.079C85.1275 122.672 83.9867 121.531 82.5794 121.531C81.1721 121.531 80.0312 122.672 80.0312 124.079C80.0312 125.486 81.1721 126.627 82.5794 126.627Z" fill="white"></path>
  <path d="M92.8328 126.513C94.1773 126.513 95.2672 125.423 95.2672 124.079C95.2672 122.734 94.1773 121.645 92.8328 121.645C91.4883 121.645 90.3984 122.734 90.3984 124.079C90.3984 125.423 91.4883 126.513 92.8328 126.513Z" fill="white"></path>
  <path d="M103.087 126.394C104.365 126.394 105.402 125.357 105.402 124.079C105.402 122.8 104.365 121.764 103.087 121.764C101.808 121.764 100.771 122.8 100.771 124.079C100.771 125.357 101.808 126.394 103.087 126.394Z" fill="white"></path>
  <path d="M113.34 126.28C114.555 126.28 115.54 125.294 115.54 124.079C115.54 122.863 114.555 121.878 113.34 121.878C112.124 121.878 111.139 122.863 111.139 124.079C111.139 125.294 112.124 126.28 113.34 126.28Z" fill="white"></path>
  <path d="M123.592 126.147C124.734 126.147 125.66 125.221 125.66 124.079C125.66 122.937 124.734 122.011 123.592 122.011C122.449 122.011 121.523 122.937 121.523 124.079C121.523 125.221 122.449 126.147 123.592 126.147Z" fill="white"></path>
  <path d="M123.592 116.152C124.876 116.152 125.918 115.111 125.918 113.826C125.918 112.541 124.876 111.5 123.592 111.5C122.307 111.5 121.266 112.541 121.266 113.826C121.266 115.111 122.307 116.152 123.592 116.152Z" fill="white"></path>
  <path d="M123.592 106.141C125.01 106.141 126.16 104.992 126.16 103.573C126.16 102.155 125.01 101.005 123.592 101.005C122.173 101.005 121.023 102.155 121.023 103.573C121.023 104.992 122.173 106.141 123.592 106.141Z" fill="white"></path>
  <path d="M123.592 96.1093C125.133 96.1093 126.382 94.8604 126.382 93.3198C126.382 91.7792 125.133 90.5303 123.592 90.5303C122.052 90.5303 120.803 91.7792 120.803 93.3198C120.803 94.8604 122.052 96.1093 123.592 96.1093Z" fill="white"></path>
  <path d="M123.592 86.0179C125.222 86.0179 126.543 84.6966 126.543 83.0668C126.543 81.437 125.222 80.1157 123.592 80.1157C121.962 80.1157 120.641 81.437 120.641 83.0668C120.641 84.6966 121.962 86.0179 123.592 86.0179Z" fill="white"></path>
  <path d="M123.592 75.8846C125.288 75.8846 126.663 74.5097 126.663 72.8137C126.663 71.1177 125.288 69.7428 123.592 69.7428C121.896 69.7428 120.521 71.1177 120.521 72.8137C120.521 74.5097 121.896 75.8846 123.592 75.8846Z" fill="white"></path>
  <path d="M123.593 65.7146C125.335 65.7146 126.747 64.3026 126.747 62.5609C126.747 60.8192 125.335 59.4072 123.593 59.4072C121.851 59.4072 120.439 60.8192 120.439 62.5609C120.439 64.3026 121.851 65.7146 123.593 65.7146Z" fill="white"></path>
  <path d="M123.593 55.526C125.371 55.526 126.812 54.0851 126.812 52.3076C126.812 50.5301 125.371 49.0892 123.593 49.0892C121.816 49.0892 120.375 50.5301 120.375 52.3076C120.375 54.0851 121.816 55.526 123.593 55.526Z" fill="white"></path>
  <path d="M123.592 45.3127C125.392 45.3127 126.85 43.854 126.85 42.0545C126.85 40.2551 125.392 38.7964 123.592 38.7964C121.793 38.7964 120.334 40.2551 120.334 42.0545C120.334 43.854 121.793 45.3127 123.592 45.3127Z" fill="white"></path>
  <path d="M113.34 45.1916C115.073 45.1916 116.478 43.787 116.478 42.0543C116.478 40.3216 115.073 38.917 113.34 38.917C111.608 38.917 110.203 40.3216 110.203 42.0543C110.203 43.787 111.608 45.1916 113.34 45.1916Z" fill="white"></path>
  <path d="M103.087 44.997C104.712 44.997 106.029 43.6797 106.029 42.0546C106.029 40.4296 104.712 39.1123 103.087 39.1123C101.462 39.1123 100.145 40.4296 100.145 42.0546C100.145 43.6797 101.462 44.997 103.087 44.997Z" fill="white"></path>
  <path d="M92.8329 44.7019C94.2949 44.7019 95.4802 43.5166 95.4802 42.0546C95.4802 40.5925 94.2949 39.4072 92.8329 39.4072C91.3708 39.4072 90.1855 40.5925 90.1855 42.0546C90.1855 43.5166 91.3708 44.7019 92.8329 44.7019Z" fill="white"></path>
  <path d="M82.5806 44.3247C83.8343 44.3247 84.8507 43.3083 84.8507 42.0546C84.8507 40.8009 83.8343 39.7845 82.5806 39.7845C81.3269 39.7845 80.3105 40.8009 80.3105 42.0546C80.3105 43.3083 81.3269 44.3247 82.5806 44.3247Z" fill="white"></path>
  <path d="M72.3286 43.8987C73.3471 43.8987 74.1728 43.0731 74.1728 42.0545C74.1728 41.036 73.3471 40.2103 72.3286 40.2103C71.3101 40.2103 70.4844 41.036 70.4844 42.0545C70.4844 43.0731 71.3101 43.8987 72.3286 43.8987Z" fill="white"></path>
  <path d="M62.0747 43.5257C62.8872 43.5257 63.5459 42.867 63.5459 42.0545C63.5459 41.242 62.8872 40.5834 62.0747 40.5834C61.2622 40.5834 60.6035 41.242 60.6035 42.0545C60.6035 42.867 61.2622 43.5257 62.0747 43.5257Z" fill="white"></path>
  <path d="M51.8202 43.2341C52.4716 43.2341 52.9997 42.706 52.9997 42.0546C52.9997 41.4031 52.4716 40.875 51.8202 40.875C51.1687 40.875 50.6406 41.4031 50.6406 42.0546C50.6406 42.706 51.1687 43.2341 51.8202 43.2341Z" fill="white"></path>
  <path d="M41.5686 43.0176C42.1005 43.0176 42.5317 42.5864 42.5317 42.0545C42.5317 41.5226 42.1005 41.0914 41.5686 41.0914C41.0367 41.0914 40.6055 41.5226 40.6055 42.0545C40.6055 42.5864 41.0367 43.0176 41.5686 43.0176Z" fill="white"></path>
  <path d="M41.5682 53.4872C42.2197 53.4872 42.7478 52.9591 42.7478 52.3076C42.7478 51.6562 42.2197 51.1281 41.5682 51.1281C40.9168 51.1281 40.3887 51.6562 40.3887 52.3076C40.3887 52.9591 40.9168 53.4872 41.5682 53.4872Z" fill="white"></path>
  <path d="M41.5687 64.0493C42.3908 64.0493 43.0572 63.3828 43.0572 62.5607C43.0572 61.7386 42.3908 61.0721 41.5687 61.0721C40.7465 61.0721 40.0801 61.7386 40.0801 62.5607C40.0801 63.3828 40.7465 64.0493 41.5687 64.0493Z" fill="white"></path>
  <path d="M41.5691 74.6718C42.5953 74.6718 43.4272 73.8399 43.4272 72.8137C43.4272 71.7875 42.5953 70.9556 41.5691 70.9556C40.5429 70.9556 39.7109 71.7875 39.7109 72.8137C39.7109 73.8399 40.5429 74.6718 41.5691 74.6718Z" fill="white"></path>
  <path d="M41.5678 85.3026C42.8026 85.3026 43.8035 84.3016 43.8035 83.0668C43.8035 81.832 42.8026 80.8311 41.5678 80.8311C40.333 80.8311 39.332 81.832 39.332 83.0668C39.332 84.3016 40.333 85.3026 41.5678 85.3026Z" fill="white"></path>
  <path d="M41.5677 95.8678C42.975 95.8678 44.1158 94.7269 44.1158 93.3196C44.1158 91.9123 42.975 90.7715 41.5677 90.7715C40.1604 90.7715 39.0195 91.9123 39.0195 93.3196C39.0195 94.7269 40.1604 95.8678 41.5677 95.8678Z" fill="white"></path>
  <path d="M41.5688 106.362C43.1094 106.362 44.3583 105.113 44.3583 103.573C44.3583 102.032 43.1094 100.783 41.5688 100.783C40.0282 100.783 38.7793 102.032 38.7793 103.573C38.7793 105.113 40.0282 106.362 41.5688 106.362Z" fill="white"></path>
  <path d="M41.5693 116.751C43.1846 116.751 44.4941 115.441 44.4941 113.826C44.4941 112.211 43.1846 110.901 41.5693 110.901C39.954 110.901 38.6445 112.211 38.6445 113.826C38.6445 115.441 39.954 116.751 41.5693 116.751Z" fill="white"></path>
  <path d="M31.315 136.647C32.5936 136.647 33.63 135.611 33.63 134.332C33.63 133.053 32.5936 132.017 31.315 132.017C30.0365 132.017 29 133.053 29 134.332C29 135.611 30.0365 136.647 31.315 136.647Z" fill="white"></path>
  <path d="M41.5683 137.266C43.1885 137.266 44.5019 135.952 44.5019 134.332C44.5019 132.712 43.1885 131.398 41.5683 131.398C39.9482 131.398 38.6348 132.712 38.6348 134.332C38.6348 135.952 39.9482 137.266 41.5683 137.266Z" fill="white"></path>
  <path d="M51.8222 137.283C53.452 137.283 54.7733 135.962 54.7733 134.332C54.7733 132.702 53.452 131.381 51.8222 131.381C50.1923 131.381 48.8711 132.702 48.8711 134.332C48.8711 135.962 50.1923 137.283 51.8222 137.283Z" fill="white"></path>
  <path d="M62.0736 137.167C63.6395 137.167 64.9089 135.898 64.9089 134.332C64.9089 132.766 63.6395 131.497 62.0736 131.497C60.5077 131.497 59.2383 132.766 59.2383 134.332C59.2383 135.898 60.5077 137.167 62.0736 137.167Z" fill="white"></path>
  <path d="M72.3284 137.028C73.8171 137.028 75.0239 135.821 75.0239 134.332C75.0239 132.844 73.8171 131.637 72.3284 131.637C70.8397 131.637 69.6328 132.844 69.6328 134.332C69.6328 135.821 70.8397 137.028 72.3284 137.028Z" fill="white"></path>
  <path d="M82.581 136.87C83.9827 136.87 85.119 135.734 85.119 134.332C85.119 132.93 83.9827 131.794 82.581 131.794C81.1793 131.794 80.043 132.93 80.043 134.332C80.043 135.734 81.1793 136.87 82.581 136.87Z" fill="white"></path>
  <path d="M92.834 136.713C94.1489 136.713 95.2148 135.647 95.2148 134.332C95.2148 133.017 94.1489 131.951 92.834 131.951C91.5191 131.951 90.4531 133.017 90.4531 134.332C90.4531 135.647 91.5191 136.713 92.834 136.713Z" fill="white"></path>
  <path d="M103.088 136.544C104.31 136.544 105.3 135.554 105.3 134.332C105.3 133.11 104.31 132.119 103.088 132.119C101.866 132.119 100.875 133.11 100.875 134.332C100.875 135.554 101.866 136.544 103.088 136.544Z" fill="white"></path>
  <path d="M113.339 136.362C114.46 136.362 115.369 135.453 115.369 134.332C115.369 133.211 114.46 132.302 113.339 132.302C112.218 132.302 111.309 133.211 111.309 134.332C111.309 135.453 112.218 136.362 113.339 136.362Z" fill="white"></path>
  <path d="M123.593 136.134C124.588 136.134 125.395 135.327 125.395 134.332C125.395 133.337 124.588 132.53 123.593 132.53C122.598 132.53 121.791 133.337 121.791 134.332C121.791 135.327 122.598 136.134 123.593 136.134Z" fill="white"></path>
  <path d="M133.845 135.656C134.576 135.656 135.169 135.063 135.169 134.332C135.169 133.601 134.576 133.008 133.845 133.008C133.114 133.008 132.521 133.601 132.521 134.332C132.521 135.063 133.114 135.656 133.845 135.656Z" fill="white"></path>
  <path d="M133.845 125.978C134.894 125.978 135.744 125.128 135.744 124.079C135.744 123.03 134.894 122.18 133.845 122.18C132.796 122.18 131.945 123.03 131.945 124.079C131.945 125.128 132.796 125.978 133.845 125.978Z" fill="white"></path>
  <path d="M133.846 116.096C135.1 116.096 136.116 115.079 136.116 113.826C136.116 112.572 135.1 111.556 133.846 111.556C132.593 111.556 131.576 112.572 131.576 113.826C131.576 115.079 132.593 116.096 133.846 116.096Z" fill="white"></path>
  <path d="M133.846 106.141C135.264 106.141 136.414 104.992 136.414 103.573C136.414 102.155 135.264 101.005 133.846 101.005C132.427 101.005 131.277 102.155 131.277 103.573C131.277 104.992 132.427 106.141 133.846 106.141Z" fill="white"></path>
  <path d="M133.845 96.1551C135.411 96.1551 136.68 94.8857 136.68 93.3198C136.68 91.7539 135.411 90.4845 133.845 90.4845C132.279 90.4845 131.01 91.7539 131.01 93.3198C131.01 94.8857 132.279 96.1551 133.845 96.1551Z" fill="white"></path>
  <path d="M133.846 86.0871C135.514 86.0871 136.866 84.735 136.866 83.067C136.866 81.399 135.514 80.0469 133.846 80.0469C132.178 80.0469 130.826 81.399 130.826 83.067C130.826 84.735 132.178 86.0871 133.846 86.0871Z" fill="white"></path>
  <path d="M133.845 75.9589C135.582 75.9589 136.99 74.5507 136.99 72.8135C136.99 71.0762 135.582 69.668 133.845 69.668C132.108 69.668 130.699 71.0762 130.699 72.8135C130.699 74.5507 132.108 75.9589 133.845 75.9589Z" fill="white"></path>
  <path d="M133.846 65.795C135.632 65.795 137.08 64.3469 137.08 62.5606C137.08 60.7744 135.632 59.3263 133.846 59.3263C132.059 59.3263 130.611 60.7744 130.611 62.5606C130.611 64.3469 132.059 65.795 133.846 65.795Z" fill="white"></path>
  <path d="M133.846 55.6128C135.672 55.6128 137.152 54.133 137.152 52.3076C137.152 50.4821 135.672 49.0023 133.846 49.0023C132.021 49.0023 130.541 50.4821 130.541 52.3076C130.541 54.133 132.021 55.6128 133.846 55.6128Z" fill="white"></path>
  <path d="M133.846 45.281C135.627 45.281 137.072 43.8365 137.072 42.0546C137.072 40.2727 135.627 38.8282 133.846 38.8282C132.064 38.8282 130.619 40.2727 130.619 42.0546C130.619 43.8365 132.064 45.281 133.846 45.281Z" fill="white"></path>
  <path d="M133.846 34.2883C135.219 34.2883 136.333 33.1749 136.333 31.8015C136.333 30.4282 135.219 29.3148 133.846 29.3148C132.473 29.3148 131.359 30.4282 131.359 31.8015C131.359 33.1749 132.473 34.2883 133.846 34.2883Z" fill="white"></path>
  <path d="M123.593 34.9552C125.335 34.9552 126.747 33.5432 126.747 31.8015C126.747 30.0598 125.335 28.6478 123.593 28.6478C121.851 28.6478 120.439 30.0598 120.439 31.8015C120.439 33.5432 121.851 34.9552 123.593 34.9552Z" fill="white"></path>
  <path d="M113.339 34.9552C115.081 34.9552 116.493 33.5432 116.493 31.8015C116.493 30.0598 115.081 28.6478 113.339 28.6478C111.597 28.6478 110.186 30.0598 110.186 31.8015C110.186 33.5432 111.597 34.9552 113.339 34.9552Z" fill="white"></path>
  <path d="M103.086 34.7526C104.716 34.7526 106.037 33.4314 106.037 31.8015C106.037 30.1717 104.716 28.8505 103.086 28.8505C101.456 28.8505 100.135 30.1717 100.135 31.8015C100.135 33.4314 101.456 34.7526 103.086 34.7526Z" fill="white"></path>
  <path d="M92.8329 34.4293C94.2842 34.4293 95.4606 33.2528 95.4606 31.8015C95.4606 30.3502 94.2842 29.1737 92.8329 29.1737C91.3816 29.1737 90.2051 30.3502 90.2051 31.8015C90.2051 33.2528 91.3816 34.4293 92.8329 34.4293Z" fill="white"></path>
  <path d="M82.5798 34.0024C83.7953 34.0024 84.7807 33.017 84.7807 31.8015C84.7807 30.586 83.7953 29.6006 82.5798 29.6006C81.3643 29.6006 80.3789 30.586 80.3789 31.8015C80.3789 33.017 81.3643 34.0024 82.5798 34.0024Z" fill="white"></path>
  <path d="M72.3277 33.545C73.2907 33.545 74.0713 32.7643 74.0713 31.8013C74.0713 30.8383 73.2907 30.0576 72.3277 30.0576C71.3647 30.0576 70.584 30.8383 70.584 31.8013C70.584 32.7643 71.3647 33.545 72.3277 33.545Z" fill="white"></path>
  <path d="M62.0735 33.1445C62.8152 33.1445 63.4164 32.5432 63.4164 31.8015C63.4164 31.0598 62.8152 30.4585 62.0735 30.4585C61.3317 30.4585 60.7305 31.0598 60.7305 31.8015C60.7305 32.5432 61.3317 33.1445 62.0735 33.1445Z" fill="white"></path>
  <path d="M51.8215 32.8418C52.396 32.8418 52.8618 32.376 52.8618 31.8015C52.8618 31.227 52.396 30.7612 51.8215 30.7612C51.247 30.7612 50.7812 31.227 50.7812 31.8015C50.7812 32.376 51.247 32.8418 51.8215 32.8418Z" fill="white"></path>
  <path d="M41.5685 32.62C42.0205 32.62 42.387 32.2535 42.387 31.8015C42.387 31.3495 42.0205 30.983 41.5685 30.983C41.1164 30.983 40.75 31.3495 40.75 31.8015C40.75 32.2535 41.1164 32.62 41.5685 32.62Z" fill="white"></path>
  <path d="M31.3158 32.3576C31.6229 32.3576 31.8719 32.1086 31.8719 31.8015C31.8719 31.4944 31.6229 31.2455 31.3158 31.2455C31.0087 31.2455 30.7598 31.4944 30.7598 31.8015C30.7598 32.1086 31.0087 32.3576 31.3158 32.3576Z" fill="white"></path>
  <path d="M31.3146 42.8733C31.7666 42.8733 32.1331 42.5068 32.1331 42.0548C32.1331 41.6028 31.7666 41.2363 31.3146 41.2363C30.8625 41.2363 30.4961 41.6028 30.4961 42.0548C30.4961 42.5068 30.8625 42.8733 31.3146 42.8733Z" fill="white"></path>
  <path d="M31.3148 53.3727C31.9028 53.3727 32.3795 52.896 32.3795 52.3079C32.3795 51.7199 31.9028 51.2432 31.3148 51.2432C30.7267 51.2432 30.25 51.7199 30.25 52.3079C30.25 52.896 30.7267 53.3727 31.3148 53.3727Z" fill="white"></path>
  <path d="M31.3161 63.9784C32.099 63.9784 32.7337 63.3437 32.7337 62.5607C32.7337 61.7778 32.099 61.1431 31.3161 61.1431C30.5331 61.1431 29.8984 61.7778 29.8984 62.5607C29.8984 63.3437 30.5331 63.9784 31.3161 63.9784Z" fill="white"></path>
  <path d="M31.3149 74.6581C32.3334 74.6581 33.1591 73.8325 33.1591 72.8139C33.1591 71.7954 32.3334 70.9697 31.3149 70.9697C30.2964 70.9697 29.4707 71.7954 29.4707 72.8139C29.4707 73.8325 30.2964 74.6581 31.3149 74.6581Z" fill="white"></path>
  <path d="M31.3146 85.3479C32.5746 85.3479 33.596 84.3265 33.596 83.0665C33.596 81.8066 32.5746 80.7852 31.3146 80.7852C30.0546 80.7852 29.0332 81.8066 29.0332 83.0665C29.0332 84.3265 30.0546 85.3479 31.3146 85.3479Z" fill="white"></path>
  <path d="M31.3153 95.9574C32.772 95.9574 33.9529 94.7765 33.9529 93.3198C33.9529 91.8631 32.772 90.6823 31.3153 90.6823C29.8586 90.6823 28.6777 91.8631 28.6777 93.3198C28.6777 94.7765 29.8586 95.9574 31.3153 95.9574Z" fill="white"></path>
  <path d="M31.3151 106.462C32.9108 106.462 34.2044 105.169 34.2044 103.573C34.2044 101.977 32.9108 100.684 31.3151 100.684C29.7194 100.684 28.4258 101.977 28.4258 103.573C28.4258 105.169 29.7194 106.462 31.3151 106.462Z" fill="white"></path>
  <path d="M31.315 116.846C32.983 116.846 34.3352 115.494 34.3352 113.826C34.3352 112.158 32.983 110.806 31.315 110.806C29.6471 110.806 28.2949 112.158 28.2949 113.826C28.2949 115.494 29.6471 116.846 31.315 116.846Z" fill="white"></path>
  <path d="M31.315 127.056C32.9593 127.056 34.2922 125.723 34.2922 124.079C34.2922 122.434 32.9593 121.102 31.315 121.102C29.6708 121.102 28.3379 122.434 28.3379 124.079C28.3379 125.723 29.6708 127.056 31.315 127.056Z" fill="white"></path>
  <path d="M31.3157 145.575C31.8622 145.575 32.3052 145.132 32.3052 144.585C32.3052 144.039 31.8622 143.596 31.3157 143.596C30.7692 143.596 30.3262 144.039 30.3262 144.585C30.3262 145.132 30.7692 145.575 31.3157 145.575Z" fill="white"></path>
  <path d="M41.5685 146.628C42.6968 146.628 43.6115 145.713 43.6115 144.585C43.6115 143.457 42.6968 142.542 41.5685 142.542C40.4401 142.542 39.5254 143.457 39.5254 144.585C39.5254 145.713 40.4401 146.628 41.5685 146.628Z" fill="white"></path>
  <path d="M51.8212 147.232C53.2832 147.232 54.4685 146.047 54.4685 144.585C54.4685 143.123 53.2832 141.938 51.8212 141.938C50.3591 141.938 49.1738 143.123 49.1738 144.585C49.1738 146.047 50.3591 147.232 51.8212 147.232Z" fill="white"></path>
  <path d="M62.0737 147.356C63.6041 147.356 64.8447 146.115 64.8447 144.585C64.8447 143.055 63.6041 141.814 62.0737 141.814C60.5433 141.814 59.3027 143.055 59.3027 144.585C59.3027 146.115 60.5433 147.356 62.0737 147.356Z" fill="white"></path>
  <path d="M72.3266 147.271C73.81 147.271 75.0126 146.068 75.0126 144.585C75.0126 143.102 73.81 141.899 72.3266 141.899C70.8432 141.899 69.6406 143.102 69.6406 144.585C69.6406 146.068 70.8432 147.271 72.3266 147.271Z" fill="white"></path>
  <path d="M82.5801 147.103C83.9706 147.103 85.0977 145.975 85.0977 144.585C85.0977 143.195 83.9706 142.067 82.5801 142.067C81.1897 142.067 80.0625 143.195 80.0625 144.585C80.0625 145.975 81.1897 147.103 82.5801 147.103Z" fill="white"></path>
  <path d="M92.8339 146.911C94.1186 146.911 95.1601 145.87 95.1601 144.585C95.1601 143.3 94.1186 142.259 92.8339 142.259C91.5493 142.259 90.5078 143.3 90.5078 144.585C90.5078 145.87 91.5493 146.911 92.8339 146.911Z" fill="white"></path>
  <path d="M103.086 146.666C104.235 146.666 105.167 145.734 105.167 144.585C105.167 143.436 104.235 142.505 103.086 142.505C101.937 142.505 101.006 143.436 101.006 144.585C101.006 145.734 101.937 146.666 103.086 146.666Z" fill="white"></path>
  <path d="M113.34 146.314C114.295 146.314 115.069 145.54 115.069 144.585C115.069 143.63 114.295 142.856 113.34 142.856C112.385 142.856 111.611 143.63 111.611 144.585C111.611 145.54 112.385 146.314 113.34 146.314Z" fill="white"></path>
  <path d="M123.592 145.786C124.255 145.786 124.793 145.249 124.793 144.585C124.793 143.922 124.255 143.384 123.592 143.384C122.928 143.384 122.391 143.922 122.391 144.585C122.391 145.249 122.928 145.786 123.592 145.786Z" fill="white"></path>
  <path d="M133.845 145.141C134.152 145.141 134.401 144.892 134.401 144.585C134.401 144.278 134.152 144.029 133.845 144.029C133.538 144.029 133.289 144.278 133.289 144.585C133.289 144.892 133.538 145.141 133.845 145.141Z" fill="white"></path>
  <path d="M144.099 134.888C144.406 134.888 144.655 134.639 144.655 134.332C144.655 134.025 144.406 133.776 144.099 133.776C143.792 133.776 143.543 134.025 143.543 134.332C143.543 134.639 143.792 134.888 144.099 134.888Z" fill="white"></path>
  <path d="M144.099 125.403C144.83 125.403 145.423 124.81 145.423 124.079C145.423 123.348 144.83 122.755 144.099 122.755C143.368 122.755 142.775 123.348 142.775 124.079C142.775 124.81 143.368 125.403 144.099 125.403Z" fill="white"></path>
  <path d="M144.099 115.831C145.206 115.831 146.103 114.933 146.103 113.826C146.103 112.719 145.206 111.821 144.099 111.821C142.991 111.821 142.094 112.719 142.094 113.826C142.094 114.933 142.991 115.831 144.099 115.831Z" fill="white"></path>
  <path d="M144.099 106.08C145.484 106.08 146.607 104.958 146.607 103.573C146.607 102.188 145.484 101.066 144.099 101.066C142.714 101.066 141.592 102.188 141.592 103.573C141.592 104.958 142.714 106.08 144.099 106.08Z" fill="white"></path>
  <path d="M144.098 96.1642C145.669 96.1642 146.943 94.8908 146.943 93.3199C146.943 91.7489 145.669 90.4755 144.098 90.4755C142.527 90.4755 141.254 91.7489 141.254 93.3199C141.254 94.8908 142.527 96.1642 144.098 96.1642Z" fill="white"></path>
  <path d="M144.099 86.1208C145.786 86.1208 147.153 84.7535 147.153 83.0667C147.153 81.38 145.786 80.0127 144.099 80.0127C142.412 80.0127 141.045 81.38 141.045 83.0667C141.045 84.7535 142.412 86.1208 144.099 86.1208Z" fill="white"></path>
  <path d="M144.098 75.9918C145.853 75.9918 147.276 74.5689 147.276 72.8137C147.276 71.0585 145.853 69.6356 144.098 69.6356C142.343 69.6356 140.92 71.0585 140.92 72.8137C140.92 74.5689 142.343 75.9918 144.098 75.9918Z" fill="white"></path>
  <path d="M144.099 65.763C145.867 65.763 147.301 64.3293 147.301 62.5607C147.301 60.7921 145.867 59.3584 144.099 59.3584C142.33 59.3584 140.896 60.7921 140.896 62.5607C140.896 64.3293 142.33 65.763 144.099 65.763Z" fill="white"></path>
  <path d="M144.1 55.3023C145.754 55.3023 147.094 53.9617 147.094 52.3079C147.094 50.6541 145.754 49.3135 144.1 49.3135C142.446 49.3135 141.105 50.6541 141.105 52.3079C141.105 53.9617 142.446 55.3023 144.1 55.3023Z" fill="white"></path>
  <path d="M144.098 44.3247C145.352 44.3247 146.368 43.3083 146.368 42.0546C146.368 40.8009 145.352 39.7845 144.098 39.7845C142.844 39.7845 141.828 40.8009 141.828 42.0546C141.828 43.3083 142.844 44.3247 144.098 44.3247Z" fill="white"></path>
  <path d="M144.1 32.8663C144.688 32.8663 145.165 32.3896 145.165 31.8016C145.165 31.2135 144.688 30.7368 144.1 30.7368C143.512 30.7368 143.035 31.2135 143.035 31.8016C143.035 32.3896 143.512 32.8663 144.1 32.8663Z" fill="white"></path>
  <path d="M144.098 21.7753C144.223 21.7753 144.325 21.6737 144.325 21.5483C144.325 21.4229 144.223 21.3213 144.098 21.3213C143.973 21.3213 143.871 21.4229 143.871 21.5483C143.871 21.6737 143.973 21.7753 144.098 21.7753Z" fill="white"></path>
  <path d="M133.845 22.5887C134.419 22.5887 134.885 22.123 134.885 21.5485C134.885 20.9739 134.419 20.5082 133.845 20.5082C133.27 20.5082 132.805 20.9739 132.805 21.5485C132.805 22.123 133.27 22.5887 133.845 22.5887Z" fill="white"></path>
  <path d="M123.591 23.7258C124.794 23.7258 125.769 22.751 125.769 21.5485C125.769 20.3459 124.794 19.3711 123.591 19.3711C122.389 19.3711 121.414 20.3459 121.414 21.5485C121.414 22.751 122.389 23.7258 123.591 23.7258Z" fill="white"></path>
  <path d="M113.34 24.3474C114.885 24.3474 116.138 23.0944 116.138 21.5487C116.138 20.003 114.885 18.75 113.34 18.75C111.794 18.75 110.541 20.003 110.541 21.5487C110.541 23.0944 111.794 24.3474 113.34 24.3474Z" fill="white"></path>
  <path d="M103.086 24.4022C104.662 24.4022 105.939 23.1246 105.939 21.5487C105.939 19.9728 104.662 18.6953 103.086 18.6953C101.51 18.6953 100.232 19.9728 100.232 21.5487C100.232 23.1246 101.51 24.4022 103.086 24.4022Z" fill="white"></path>
  <path d="M92.8344 24.1365C94.2638 24.1365 95.4226 22.9777 95.4226 21.5482C95.4226 20.1188 94.2638 18.96 92.8344 18.96C91.4049 18.96 90.2461 20.1188 90.2461 21.5482C90.2461 22.9777 91.4049 24.1365 92.8344 24.1365Z" fill="white"></path>
  <path d="M82.5794 23.702C83.7687 23.702 84.7329 22.7379 84.7329 21.5485C84.7329 20.3591 83.7687 19.3949 82.5794 19.3949C81.39 19.3949 80.4258 20.3591 80.4258 21.5485C80.4258 22.7379 81.39 23.702 82.5794 23.702Z" fill="white"></path>
  <path d="M72.3283 23.2167C73.2496 23.2167 73.9965 22.4698 73.9965 21.5485C73.9965 20.6272 73.2496 19.8804 72.3283 19.8804C71.407 19.8804 70.6602 20.6272 70.6602 21.5485C70.6602 22.4698 71.407 23.2167 72.3283 23.2167Z" fill="white"></path>
  <path d="M62.074 22.771C62.7492 22.771 63.2965 22.2237 63.2965 21.5485C63.2965 20.8734 62.7492 20.326 62.074 20.326C61.3989 20.326 60.8516 20.8734 60.8516 21.5485C60.8516 22.2237 61.3989 22.771 62.074 22.771Z" fill="white"></path>
  <path d="M51.8206 22.4277C52.3062 22.4277 52.6998 22.0341 52.6998 21.5485C52.6998 21.0629 52.3062 20.6693 51.8206 20.6693C51.335 20.6693 50.9414 21.0629 50.9414 21.5485C50.9414 22.0341 51.335 22.4277 51.8206 22.4277Z" fill="white"></path>
  <path d="M41.5678 22.1043C41.8749 22.1043 42.1238 21.8553 42.1238 21.5482C42.1238 21.2411 41.8749 20.9922 41.5678 20.9922C41.2607 20.9922 41.0117 21.2411 41.0117 21.5482C41.0117 21.8553 41.2607 22.1043 41.5678 22.1043Z" fill="white"></path>
  <path d="M31.3149 21.7753C31.4403 21.7753 31.5419 21.6737 31.5419 21.5483C31.5419 21.4229 31.4403 21.3213 31.3149 21.3213C31.1895 21.3213 31.0879 21.4229 31.0879 21.5483C31.0879 21.6737 31.1895 21.7753 31.3149 21.7753Z" fill="white"></path>
  <path d="M21.0629 32.0286C21.1883 32.0286 21.29 31.927 21.29 31.8016C21.29 31.6762 21.1883 31.5746 21.0629 31.5746C20.9376 31.5746 20.8359 31.6762 20.8359 31.8016C20.8359 31.927 20.9376 32.0286 21.0629 32.0286Z" fill="white"></path>
  <path d="M21.0619 42.6106C21.369 42.6106 21.618 42.3617 21.618 42.0546C21.618 41.7475 21.369 41.4985 21.0619 41.4985C20.7548 41.4985 20.5059 41.7475 20.5059 42.0546C20.5059 42.3617 20.7548 42.6106 21.0619 42.6106Z" fill="white"></path>
  <path d="M21.061 53.2436C21.5779 53.2436 21.9969 52.8246 21.9969 52.3077C21.9969 51.7907 21.5779 51.3717 21.061 51.3717C20.544 51.3717 20.125 51.7907 20.125 52.3077C20.125 52.8246 20.544 53.2436 21.061 53.2436Z" fill="white"></path>
  <path d="M21.0625 63.9415C21.8251 63.9415 22.4433 63.3232 22.4433 62.5606C22.4433 61.798 21.8251 61.1798 21.0625 61.1798C20.2999 61.1798 19.6816 61.798 19.6816 62.5606C19.6816 63.3232 20.2999 63.9415 21.0625 63.9415Z" fill="white"></path>
  <path d="M21.0614 74.6994C22.1029 74.6994 22.9471 73.8552 22.9471 72.8138C22.9471 71.7723 22.1029 70.9281 21.0614 70.9281C20.02 70.9281 19.1758 71.7723 19.1758 72.8138C19.1758 73.8552 20.02 74.6994 21.0614 74.6994Z" fill="white"></path>
  <path d="M21.0616 85.4581C22.3825 85.4581 23.4532 84.3873 23.4532 83.0665C23.4532 81.7456 22.3825 80.6748 21.0616 80.6748C19.7407 80.6748 18.6699 81.7456 18.6699 83.0665C18.6699 84.3873 19.7407 85.4581 21.0616 85.4581Z" fill="white"></path>
  <path d="M21.0629 96.0721C22.5829 96.0721 23.8152 94.8399 23.8152 93.3198C23.8152 91.7998 22.5829 90.5675 21.0629 90.5675C19.5428 90.5675 18.3105 91.7998 18.3105 93.3198C18.3105 94.8399 19.5428 96.0721 21.0629 96.0721Z" fill="white"></path>
  <path d="M21.0633 106.48C22.6689 106.48 23.9704 105.179 23.9704 103.573C23.9704 101.968 22.6689 100.666 21.0633 100.666C19.4578 100.666 18.1562 101.968 18.1562 103.573C18.1562 105.179 19.4578 106.48 21.0633 106.48Z" fill="white"></path>
  <path d="M21.0629 116.578C22.5829 116.578 23.8152 115.346 23.8152 113.826C23.8152 112.306 22.5829 111.074 21.0629 111.074C19.5428 111.074 18.3105 112.306 18.3105 113.826C18.3105 115.346 19.5428 116.578 21.0629 116.578Z" fill="white"></path>
  <path d="M21.0616 126.172C22.2175 126.172 23.1545 125.235 23.1545 124.079C23.1545 122.923 22.2175 121.986 21.0616 121.986C19.9058 121.986 18.9688 122.923 18.9688 124.079C18.9688 125.235 19.9058 126.172 21.0616 126.172Z" fill="white"></path>
  <path d="M21.0618 135.322C21.6082 135.322 22.0513 134.879 22.0513 134.332C22.0513 133.786 21.6082 133.343 21.0618 133.343C20.5153 133.343 20.0723 133.786 20.0723 134.332C20.0723 134.879 20.5153 135.322 21.0618 135.322Z" fill="white"></path>
  <path d="M41.5678 155.394C41.8749 155.394 42.1238 155.145 42.1238 154.838C42.1238 154.531 41.8749 154.282 41.5678 154.282C41.2607 154.282 41.0117 154.531 41.0117 154.838C41.0117 155.145 41.2607 155.394 41.5678 155.394Z" fill="white"></path>
  <path d="M51.8213 156.122C52.5305 156.122 53.1054 155.547 53.1054 154.838C53.1054 154.129 52.5305 153.554 51.8213 153.554C51.112 153.554 50.5371 154.129 50.5371 154.838C50.5371 155.547 51.112 156.122 51.8213 156.122Z" fill="white"></path>
  <path d="M62.0746 156.626C63.0617 156.626 63.862 155.825 63.862 154.838C63.862 153.851 63.0617 153.051 62.0746 153.051C61.0874 153.051 60.2871 153.851 60.2871 154.838C60.2871 155.825 61.0874 156.626 62.0746 156.626Z" fill="white"></path>
  <path d="M72.3271 156.843C73.4344 156.843 74.332 155.945 74.332 154.838C74.332 153.731 73.4344 152.833 72.3271 152.833C71.2199 152.833 70.3223 153.731 70.3223 154.838C70.3223 155.945 71.2199 156.843 72.3271 156.843Z" fill="white"></path>
  <path d="M82.5792 156.804C83.665 156.804 84.5452 155.924 84.5452 154.838C84.5452 153.752 83.665 152.872 82.5792 152.872C81.4935 152.872 80.6133 153.752 80.6133 154.838C80.6133 155.924 81.4935 156.804 82.5792 156.804Z" fill="white"></path>
  <path d="M92.8343 156.567C93.7891 156.567 94.5631 155.793 94.5631 154.838C94.5631 153.883 93.7891 153.109 92.8343 153.109C91.8795 153.109 91.1055 153.883 91.1055 154.838C91.1055 155.793 91.8795 156.567 92.8343 156.567Z" fill="white"></path>
  <path d="M103.087 156.181C103.829 156.181 104.43 155.58 104.43 154.838C104.43 154.096 103.829 153.495 103.087 153.495C102.345 153.495 101.744 154.096 101.744 154.838C101.744 155.58 102.345 156.181 103.087 156.181Z" fill="white"></path>
  <path d="M113.34 155.688C113.809 155.688 114.189 155.307 114.189 154.838C114.189 154.369 113.809 153.989 113.34 153.989C112.871 153.989 112.49 154.369 112.49 154.838C112.49 155.307 112.871 155.688 113.34 155.688Z" fill="white"></path>
  <path d="M123.593 155.159C123.77 155.159 123.914 155.015 123.914 154.838C123.914 154.661 123.77 154.517 123.593 154.517C123.415 154.517 123.271 154.661 123.271 154.838C123.271 155.015 123.415 155.159 123.593 155.159Z" fill="white"></path>
  <path d="M154.352 124.472C154.569 124.472 154.745 124.296 154.745 124.079C154.745 123.862 154.569 123.686 154.352 123.686C154.135 123.686 153.959 123.862 153.959 124.079C153.959 124.296 154.135 124.472 154.352 124.472Z" fill="white"></path>
  <path d="M154.351 114.815C154.897 114.815 155.34 114.372 155.34 113.826C155.34 113.279 154.897 112.836 154.351 112.836C153.804 112.836 153.361 113.279 153.361 113.826C153.361 114.372 153.804 114.815 154.351 114.815Z" fill="white"></path>
  <path d="M154.352 105.226C155.265 105.226 156.004 104.486 156.004 103.573C156.004 102.66 155.265 101.92 154.352 101.92C153.439 101.92 152.699 102.66 152.699 103.573C152.699 104.486 153.439 105.226 154.352 105.226Z" fill="white"></path>
  <path d="M154.351 95.4732C155.54 95.4732 156.504 94.509 156.504 93.3196C156.504 92.1302 155.54 91.166 154.351 91.166C153.161 91.166 152.197 92.1302 152.197 93.3196C152.197 94.509 153.161 95.4732 154.351 95.4732Z" fill="white"></path>
  <path d="M154.352 85.4689C155.678 85.4689 156.754 84.3933 156.754 83.0665C156.754 81.7397 155.678 80.6641 154.352 80.6641C153.025 80.6641 151.949 81.7397 151.949 83.0665C151.949 84.3933 153.025 85.4689 154.352 85.4689Z" fill="white"></path>
  <path d="M154.353 75.2052C155.673 75.2052 156.744 74.1344 156.744 72.8135C156.744 71.4927 155.673 70.4219 154.353 70.4219C153.032 70.4219 151.961 71.4927 151.961 72.8135C151.961 74.1344 153.032 75.2052 154.353 75.2052Z" fill="white"></path>
  <path d="M154.351 64.6536C155.507 64.6536 156.444 63.7165 156.444 62.5607C156.444 61.4048 155.507 60.4678 154.351 60.4678C153.195 60.4678 152.258 61.4048 152.258 62.5607C152.258 63.7165 153.195 64.6536 154.351 64.6536Z" fill="white"></path>
  <path d="M154.352 53.7612C155.155 53.7612 155.806 53.1104 155.806 52.3077C155.806 51.5049 155.155 50.8541 154.352 50.8541C153.549 50.8541 152.898 51.5049 152.898 52.3077C152.898 53.1104 153.549 53.7612 154.352 53.7612Z" fill="white"></path>
  <path d="M154.353 42.6966C154.708 42.6966 154.995 42.4092 154.995 42.0546C154.995 41.6999 154.708 41.4125 154.353 41.4125C153.998 41.4125 153.711 41.6999 153.711 42.0546C153.711 42.4092 153.998 42.6966 154.353 42.6966Z" fill="white"></path>
  <path d="M123.593 11.896C123.924 11.896 124.193 11.6271 124.193 11.2954C124.193 10.9637 123.924 10.6948 123.593 10.6948C123.261 10.6948 122.992 10.9637 122.992 11.2954C122.992 11.6271 123.261 11.896 123.593 11.896Z" fill="white"></path>
  <path d="M113.339 12.6381C114.081 12.6381 114.682 12.0368 114.682 11.2951C114.682 10.5534 114.081 9.95215 113.339 9.95215C112.597 9.95215 111.996 10.5534 111.996 11.2951C111.996 12.0368 112.597 12.6381 113.339 12.6381Z" fill="white"></path>
  <path d="M103.086 13.1256C104.097 13.1256 104.916 12.3062 104.916 11.2954C104.916 10.2846 104.097 9.46521 103.086 9.46521C102.075 9.46521 101.256 10.2846 101.256 11.2954C101.256 12.3062 102.075 13.1256 103.086 13.1256Z" fill="white"></path>
  <path d="M92.8344 13.2217C93.8982 13.2217 94.7606 12.3593 94.7606 11.2955C94.7606 10.2317 93.8982 9.36926 92.8344 9.36926C91.7706 9.36926 90.9082 10.2317 90.9082 11.2955C90.9082 12.3593 91.7706 13.2217 92.8344 13.2217Z" fill="white"></path>
  <path d="M82.5803 12.9636C83.5016 12.9636 84.2484 12.2168 84.2484 11.2955C84.2484 10.3742 83.5016 9.62732 82.5803 9.62732C81.659 9.62732 80.9121 10.3742 80.9121 11.2955C80.9121 12.2168 81.659 12.9636 82.5803 12.9636Z" fill="white"></path>
  <path d="M72.3273 12.5389C73.014 12.5389 73.5707 11.9822 73.5707 11.2955C73.5707 10.6088 73.014 10.0521 72.3273 10.0521C71.6407 10.0521 71.084 10.6088 71.084 11.2955C71.084 11.9822 71.6407 12.5389 72.3273 12.5389Z" fill="white"></path>
  <path d="M62.0754 12.0815C62.5097 12.0815 62.8618 11.7295 62.8618 11.2952C62.8618 10.8609 62.5097 10.5088 62.0754 10.5088C61.6411 10.5088 61.2891 10.8609 61.2891 11.2952C61.2891 11.7295 61.6411 12.0815 62.0754 12.0815Z" fill="white"></path>
  <path d="M51.8212 11.7495C52.0719 11.7495 52.2752 11.5462 52.2752 11.2954C52.2752 11.0447 52.0719 10.8414 51.8212 10.8414C51.5705 10.8414 51.3672 11.0447 51.3672 11.2954C51.3672 11.5462 51.5705 11.7495 51.8212 11.7495Z" fill="white"></path>
  <path d="M10.8095 52.7617C11.0602 52.7617 11.2635 52.5584 11.2635 52.3076C11.2635 52.0569 11.0602 51.8536 10.8095 51.8536C10.5587 51.8536 10.3555 52.0569 10.3555 52.3076C10.3555 52.5584 10.5587 52.7617 10.8095 52.7617Z" fill="white"></path>
  <path d="M10.809 63.4969C11.3259 63.4969 11.745 63.0779 11.745 62.561C11.745 62.0441 11.3259 61.625 10.809 61.625C10.2921 61.625 9.87305 62.0441 9.87305 62.561C9.87305 63.0779 10.2921 63.4969 10.809 63.4969Z" fill="white"></path>
  <path d="M10.8089 74.3024C11.631 74.3024 12.2975 73.6359 12.2975 72.8138C12.2975 71.9917 11.631 71.3252 10.8089 71.3252C9.98677 71.3252 9.32031 71.9917 9.32031 72.8138C9.32031 73.6359 9.98677 74.3024 10.8089 74.3024Z" fill="white"></path>
  <path d="M10.8087 85.006C11.8799 85.006 12.7482 84.1377 12.7482 83.0665C12.7482 81.9953 11.8799 81.127 10.8087 81.127C9.7375 81.127 8.86914 81.9953 8.86914 83.0665C8.86914 84.1377 9.7375 85.006 10.8087 85.006Z" fill="white"></path>
  <path d="M10.8088 95.4369C11.9782 95.4369 12.9262 94.4889 12.9262 93.3195C12.9262 92.1501 11.9782 91.2021 10.8088 91.2021C9.63939 91.2021 8.69141 92.1501 8.69141 93.3195C8.69141 94.4889 9.63939 95.4369 10.8088 95.4369Z" fill="white"></path>
  <path d="M10.8093 105.486C11.8657 105.486 12.7221 104.629 12.7221 103.573C12.7221 102.516 11.8657 101.66 10.8093 101.66C9.75287 101.66 8.89648 102.516 8.89648 103.573C8.89648 104.629 9.75287 105.486 10.8093 105.486Z" fill="white"></path>
  <path d="M10.8098 115.169C11.5515 115.169 12.1528 114.568 12.1528 113.826C12.1528 113.084 11.5515 112.483 10.8098 112.483C10.0681 112.483 9.4668 113.084 9.4668 113.826C9.4668 114.568 10.0681 115.169 10.8098 115.169Z" fill="white"></path>
  <path d="M10.8096 124.68C11.1413 124.68 11.4102 124.411 11.4102 124.079C11.4102 123.747 11.1413 123.478 10.8096 123.478C10.4779 123.478 10.209 123.747 10.209 124.079C10.209 124.411 10.4779 124.68 10.8096 124.68Z" fill="white"></path>
  <path d="M62.0747 165.318C62.2 165.318 62.3017 165.217 62.3017 165.091C62.3017 164.966 62.2 164.864 62.0747 164.864C61.9493 164.864 61.8477 164.966 61.8477 165.091C61.8477 165.217 61.9493 165.318 62.0747 165.318Z" fill="white"></path>
  <path d="M72.3279 165.599C72.6083 165.599 72.8355 165.371 72.8355 165.091C72.8355 164.811 72.6083 164.583 72.3279 164.583C72.0476 164.583 71.8203 164.811 71.8203 165.091C71.8203 165.371 72.0476 165.599 72.3279 165.599Z" fill="white"></path>
  <path d="M82.5795 165.647C82.8866 165.647 83.1355 165.398 83.1355 165.091C83.1355 164.784 82.8866 164.535 82.5795 164.535C82.2724 164.535 82.0234 164.784 82.0234 165.091C82.0234 165.398 82.2724 165.647 82.5795 165.647Z" fill="white"></path>
  <path d="M92.8329 165.545C93.0837 165.545 93.2869 165.342 93.2869 165.091C93.2869 164.84 93.0837 164.637 92.8329 164.637C92.5822 164.637 92.3789 164.84 92.3789 165.091C92.3789 165.342 92.5822 165.545 92.8329 165.545Z" fill="white"></path>
  <path d="M103.086 165.318C103.212 165.318 103.313 165.217 103.313 165.091C103.313 164.966 103.212 164.864 103.086 164.864C102.961 164.864 102.859 164.966 102.859 165.091C102.859 165.217 102.961 165.318 103.086 165.318Z" fill="white"></path>
  <path d="M164.606 103.8C164.731 103.8 164.833 103.698 164.833 103.573C164.833 103.447 164.731 103.346 164.606 103.346C164.481 103.346 164.379 103.447 164.379 103.573C164.379 103.698 164.481 103.8 164.606 103.8Z" fill="white"></path>
  <path d="M164.605 93.8759C164.912 93.8759 165.161 93.6269 165.161 93.3198C165.161 93.0127 164.912 92.7638 164.605 92.7638C164.298 92.7638 164.049 93.0127 164.049 93.3198C164.049 93.6269 164.298 93.8759 164.605 93.8759Z" fill="white"></path>
  <path d="M164.605 83.7478C164.981 83.7478 165.286 83.4429 165.286 83.0668C165.286 82.6906 164.981 82.3857 164.605 82.3857C164.229 82.3857 163.924 82.6906 163.924 83.0668C163.924 83.4429 164.229 83.7478 164.605 83.7478Z" fill="white"></path>
  <path d="M164.605 73.4141C164.936 73.4141 165.205 73.1452 165.205 72.8135C165.205 72.4818 164.936 72.2129 164.605 72.2129C164.273 72.2129 164.004 72.4818 164.004 72.8135C164.004 73.1452 164.273 73.4141 164.605 73.4141Z" fill="white"></path>
  <path d="M164.604 62.8817C164.782 62.8817 164.925 62.738 164.925 62.5607C164.925 62.3834 164.782 62.2396 164.604 62.2396C164.427 62.2396 164.283 62.3834 164.283 62.5607C164.283 62.738 164.427 62.8817 164.604 62.8817Z" fill="white"></path>
  <path d="M103.086 1.26944C103.212 1.26944 103.313 1.16781 103.313 1.04243C103.313 0.917063 103.212 0.81543 103.086 0.81543C102.961 0.81543 102.859 0.917063 102.859 1.04243C102.859 1.16781 102.961 1.26944 103.086 1.26944Z" fill="white"></path>
  <path d="M92.8329 1.4964C93.0837 1.4964 93.2869 1.29313 93.2869 1.04239C93.2869 0.791645 93.0837 0.588379 92.8329 0.588379C92.5822 0.588379 92.3789 0.791645 92.3789 1.04239C92.3789 1.29313 92.5822 1.4964 92.8329 1.4964Z" fill="white"></path>
  <path d="M82.581 1.4964C82.8317 1.4964 83.035 1.29313 83.035 1.04239C83.035 0.791645 82.8317 0.588379 82.581 0.588379C82.3302 0.588379 82.127 0.791645 82.127 1.04239C82.127 1.29313 82.3302 1.4964 82.581 1.4964Z" fill="white"></path>
  <path d="M72.3269 1.36338C72.5042 1.36338 72.6479 1.21965 72.6479 1.04235C72.6479 0.865044 72.5042 0.721313 72.3269 0.721313C72.1496 0.721313 72.0059 0.865044 72.0059 1.04235C72.0059 1.21965 72.1496 1.36338 72.3269 1.36338Z" fill="white"></path>
  <path d="M0.557247 73.2069C0.774398 73.2069 0.950436 73.0309 0.950436 72.8137C0.950436 72.5966 0.774398 72.4205 0.557247 72.4205C0.340096 72.4205 0.164062 72.5966 0.164062 72.8137C0.164062 73.0309 0.340096 73.2069 0.557247 73.2069Z" fill="white"></path>
  <path d="M0.556049 83.6228C0.863147 83.6228 1.1121 83.3739 1.1121 83.0668C1.1121 82.7597 0.863147 82.5107 0.556049 82.5107C0.248952 82.5107 0 82.7597 0 83.0668C0 83.3739 0.248952 83.6228 0.556049 83.6228Z" fill="white"></path>
  <path d="M0.556431 93.8277C0.836771 93.8277 1.06403 93.6004 1.06403 93.3201C1.06403 93.0398 0.836771 92.8125 0.556431 92.8125C0.27609 92.8125 0.0488281 93.0398 0.0488281 93.3201C0.0488281 93.6004 0.27609 93.8277 0.556431 93.8277Z" fill="white"></path>
  <path d="M0.555408 103.894C0.732711 103.894 0.876446 103.75 0.876446 103.573C0.876446 103.396 0.732711 103.252 0.555408 103.252C0.378106 103.252 0.234375 103.396 0.234375 103.573C0.234375 103.75 0.378106 103.894 0.555408 103.894Z" fill="white"></path>
</svg>
