<?xml version="1.0" encoding="UTF-8"?>
<svg xmlns="http://www.w3.org/2000/svg" width="167" height="167" viewBox="0 0 167 167" fill="none">
  <path d="M52.9572 116.769C54.3812 116.769 55.5355 115.614 55.5355 114.19C55.5355 112.766 54.3812 111.612 52.9572 111.612C51.5333 111.612 50.3789 112.766 50.3789 114.19C50.3789 115.614 51.5333 116.769 52.9572 116.769Z" fill="white"></path>
  <path d="M63.209 115.391C63.8724 115.391 64.4102 114.854 64.4102 114.19C64.4102 113.527 63.8724 112.989 63.209 112.989C62.5456 112.989 62.0078 113.527 62.0078 114.19C62.0078 114.854 62.5456 115.391 63.209 115.391Z" fill="white"></path>
  <path d="M73.4635 114.583C73.6806 114.583 73.8567 114.407 73.8567 114.19C73.8567 113.973 73.6806 113.797 73.4635 113.797C73.2463 113.797 73.0703 113.973 73.0703 114.19C73.0703 114.407 73.2463 114.583 73.4635 114.583Z" fill="white"></path>
  <path d="M93.9695 114.511C94.1468 114.511 94.2905 114.368 94.2905 114.19C94.2905 114.013 94.1468 113.869 93.9695 113.869C93.7922 113.869 93.6484 114.013 93.6484 114.19C93.6484 114.368 93.7922 114.511 93.9695 114.511Z" fill="white"></path>
  <path d="M104.223 115.325C104.85 115.325 105.358 114.817 105.358 114.19C105.358 113.563 104.85 113.055 104.223 113.055C103.596 113.055 103.088 113.563 103.088 114.19C103.088 114.817 103.596 115.325 104.223 115.325Z" fill="white"></path>
  <path d="M114.475 116.677C115.848 116.677 116.962 115.564 116.962 114.19C116.962 112.817 115.848 111.704 114.475 111.704C113.102 111.704 111.988 112.817 111.988 114.19C111.988 115.564 113.102 116.677 114.475 116.677Z" fill="white"></path>
  <path d="M114.475 105.026C115.077 105.026 115.564 104.539 115.564 103.937C115.564 103.336 115.077 102.849 114.475 102.849C113.874 102.849 113.387 103.336 113.387 103.937C113.387 104.539 113.874 105.026 114.475 105.026Z" fill="white"></path>
  <path d="M114.475 93.9112C114.6 93.9112 114.702 93.8095 114.702 93.6842C114.702 93.5588 114.6 93.4572 114.475 93.4572C114.35 93.4572 114.248 93.5588 114.248 93.6842C114.248 93.8095 114.35 93.9112 114.475 93.9112Z" fill="white"></path>
  <path d="M114.475 73.4051C114.6 73.4051 114.702 73.3034 114.702 73.1781C114.702 73.0527 114.6 72.951 114.475 72.951C114.35 72.951 114.248 73.0527 114.248 73.1781C114.248 73.3034 114.35 73.4051 114.475 73.4051Z" fill="white"></path>
  <path d="M114.476 63.6429C114.872 63.6429 115.194 63.3215 115.194 62.925C115.194 62.5285 114.872 62.2072 114.476 62.2072C114.079 62.2072 113.758 62.5285 113.758 62.925C113.758 63.3215 114.079 63.6429 114.476 63.6429Z" fill="white"></path>
  <path d="M114.476 54.2611C115.353 54.2611 116.065 53.5497 116.065 52.6721C116.065 51.7944 115.353 51.083 114.476 51.083C113.598 51.083 112.887 51.7944 112.887 52.6721C112.887 53.5497 113.598 54.2611 114.476 54.2611Z" fill="white"></path>
  <path d="M104.222 53.3898C104.618 53.3898 104.94 53.0684 104.94 52.672C104.94 52.2755 104.618 51.9541 104.222 51.9541C103.825 51.9541 103.504 52.2755 103.504 52.672C103.504 53.0684 103.825 53.3898 104.222 53.3898Z" fill="white"></path>
  <path d="M93.9692 52.899C94.0946 52.899 94.1962 52.7973 94.1962 52.672C94.1962 52.5466 94.0946 52.4449 93.9692 52.4449C93.8438 52.4449 93.7422 52.5466 93.7422 52.672C93.7422 52.7973 93.8438 52.899 93.9692 52.899Z" fill="white"></path>
  <path d="M73.4633 52.899C73.5887 52.899 73.6903 52.7973 73.6903 52.672C73.6903 52.5466 73.5887 52.4449 73.4633 52.4449C73.338 52.4449 73.2363 52.5466 73.2363 52.672C73.2363 52.7973 73.338 52.899 73.4633 52.899Z" fill="white"></path>
  <path d="M63.2098 53.7606C63.811 53.7606 64.2985 53.2732 64.2985 52.6719C64.2985 52.0707 63.811 51.5833 63.2098 51.5833C62.6085 51.5833 62.1211 52.0707 62.1211 52.6719C62.1211 53.2732 62.6085 53.7606 63.2098 53.7606Z" fill="white"></path>
  <path d="M52.9574 55.1588C54.3308 55.1588 55.4442 54.0454 55.4442 52.672C55.4442 51.2986 54.3308 50.1853 52.9574 50.1853C51.584 50.1853 50.4707 51.2986 50.4707 52.672C50.4707 54.0454 51.584 55.1588 52.9574 55.1588Z" fill="white"></path>
  <path d="M52.9573 64.0601C53.5842 64.0601 54.0923 63.5519 54.0923 62.9251C54.0923 62.2982 53.5842 61.79 52.9573 61.79C52.3304 61.79 51.8223 62.2982 51.8223 62.9251C51.8223 63.5519 52.3304 64.0601 52.9573 64.0601Z" fill="white"></path>
  <path d="M52.9558 73.4991C53.1331 73.4991 53.2768 73.3554 53.2768 73.1781C53.2768 73.0008 53.1331 72.8571 52.9558 72.8571C52.7785 72.8571 52.6348 73.0008 52.6348 73.1781C52.6348 73.3554 52.7785 73.4991 52.9558 73.4991Z" fill="white"></path>
  <path d="M52.9576 94.0774C53.1748 94.0774 53.3508 93.9014 53.3508 93.6842C53.3508 93.4671 53.1748 93.291 52.9576 93.291C52.7405 93.291 52.5645 93.4671 52.5645 93.6842C52.5645 93.9014 52.7405 94.0774 52.9576 94.0774Z" fill="white"></path>
  <path d="M52.9568 105.16C53.632 105.16 54.1793 104.612 54.1793 103.937C54.1793 103.262 53.632 102.715 52.9568 102.715C52.2817 102.715 51.7344 103.262 51.7344 103.937C51.7344 104.612 52.2817 105.16 52.9568 105.16Z" fill="white"></path>
  <path d="M42.7031 128.068C44.7052 128.068 46.3282 126.445 46.3282 124.443C46.3282 122.441 44.7052 120.818 42.7031 120.818C40.7011 120.818 39.0781 122.441 39.0781 124.443C39.0781 126.445 40.7011 128.068 42.7031 128.068Z" fill="white"></path>
  <path d="M52.9576 127.938C54.8877 127.938 56.4524 126.373 56.4524 124.443C56.4524 122.513 54.8877 120.949 52.9576 120.949C51.0275 120.949 49.4629 122.513 49.4629 124.443C49.4629 126.373 51.0275 127.938 52.9576 127.938Z" fill="white"></path>
  <path d="M63.2098 127.403C64.8445 127.403 66.1696 126.078 66.1696 124.443C66.1696 122.809 64.8445 121.484 63.2098 121.484C61.5752 121.484 60.25 122.809 60.25 124.443C60.25 126.078 61.5752 127.403 63.2098 127.403Z" fill="white"></path>
  <path d="M73.4635 126.758C74.742 126.758 75.7785 125.722 75.7785 124.443C75.7785 123.165 74.742 122.128 73.4635 122.128C72.1849 122.128 71.1484 123.165 71.1484 124.443C71.1484 125.722 72.1849 126.758 73.4635 126.758Z" fill="white"></path>
  <path d="M83.7169 126.486C84.8452 126.486 85.76 125.572 85.76 124.443C85.76 123.315 84.8452 122.4 83.7169 122.4C82.5885 122.4 81.6738 123.315 81.6738 124.443C81.6738 125.572 82.5885 126.486 83.7169 126.486Z" fill="white"></path>
  <path d="M93.9684 126.736C95.2346 126.736 96.2611 125.709 96.2611 124.443C96.2611 123.177 95.2346 122.151 93.9684 122.151C92.7022 122.151 91.6758 123.177 91.6758 124.443C91.6758 125.709 92.7022 126.736 93.9684 126.736Z" fill="white"></path>
  <path d="M104.222 127.368C105.837 127.368 107.146 126.059 107.146 124.443C107.146 122.828 105.837 121.519 104.222 121.519C102.606 121.519 101.297 122.828 101.297 124.443C101.297 126.059 102.606 127.368 104.222 127.368Z" fill="white"></path>
  <path d="M114.474 127.916C116.392 127.916 117.947 126.361 117.947 124.443C117.947 122.526 116.392 120.971 114.474 120.971C112.557 120.971 111.002 122.526 111.002 124.443C111.002 126.361 112.557 127.916 114.474 127.916Z" fill="white"></path>
  <path d="M124.729 128.068C126.731 128.068 128.354 126.445 128.354 124.443C128.354 122.441 126.731 120.818 124.729 120.818C122.726 120.818 121.104 122.441 121.104 124.443C121.104 126.445 122.726 128.068 124.729 128.068Z" fill="white"></path>
  <path d="M124.729 117.655C126.643 117.655 128.194 116.104 128.194 114.19C128.194 112.277 126.643 110.725 124.729 110.725C122.815 110.725 121.264 112.277 121.264 114.19C121.264 116.104 122.815 117.655 124.729 117.655Z" fill="white"></path>
  <path d="M124.728 106.8C126.309 106.8 127.59 105.518 127.59 103.937C127.59 102.356 126.309 101.075 124.728 101.075C123.147 101.075 121.865 102.356 121.865 103.937C121.865 105.518 123.147 106.8 124.728 106.8Z" fill="white"></path>
  <path d="M124.727 95.5969C125.784 95.5969 126.64 94.7406 126.64 93.6842C126.64 92.6278 125.784 91.7714 124.727 91.7714C123.671 91.7714 122.814 92.6278 122.814 93.6842C122.814 94.7406 123.671 95.5969 124.727 95.5969Z" fill="white"></path>
  <path d="M124.728 84.149C125.124 84.149 125.445 83.8276 125.445 83.4311C125.445 83.0347 125.124 82.7133 124.728 82.7133C124.331 82.7133 124.01 83.0347 124.01 83.4311C124.01 83.8276 124.331 84.149 124.728 84.149Z" fill="white"></path>
  <path d="M124.728 74.4214C125.414 74.4214 125.971 73.8647 125.971 73.1781C125.971 72.4914 125.414 71.9347 124.728 71.9347C124.041 71.9347 123.484 72.4914 123.484 73.1781C123.484 73.8647 124.041 74.4214 124.728 74.4214Z" fill="white"></path>
  <path d="M124.729 64.7552C125.739 64.7552 126.559 63.9358 126.559 62.925C126.559 61.9143 125.739 61.0948 124.729 61.0948C123.718 61.0948 122.898 61.9143 122.898 62.925C122.898 63.9358 123.718 64.7552 124.729 64.7552Z" fill="white"></path>
  <path d="M124.728 54.8729C125.944 54.8729 126.929 53.8875 126.929 52.672C126.929 51.4564 125.944 50.4711 124.728 50.4711C123.513 50.4711 122.527 51.4564 122.527 52.672C122.527 53.8875 123.513 54.8729 124.728 54.8729Z" fill="white"></path>
  <path d="M124.728 44.7116C125.994 44.7116 127.021 43.6852 127.021 42.419C127.021 41.1528 125.994 40.1263 124.728 40.1263C123.462 40.1263 122.436 41.1528 122.436 42.419C122.436 43.6852 123.462 44.7116 124.728 44.7116Z" fill="white"></path>
  <path d="M114.474 44.6198C115.69 44.6198 116.675 43.6345 116.675 42.4189C116.675 41.2034 115.69 40.218 114.474 40.218C113.259 40.218 112.273 41.2034 112.273 42.4189C112.273 43.6345 113.259 44.6198 114.474 44.6198Z" fill="white"></path>
  <path d="M104.223 44.2491C105.234 44.2491 106.053 43.4297 106.053 42.4189C106.053 41.4081 105.234 40.5887 104.223 40.5887C103.212 40.5887 102.393 41.4081 102.393 42.4189C102.393 43.4297 103.212 44.2491 104.223 44.2491Z" fill="white"></path>
  <path d="M93.9699 43.6623C94.6566 43.6623 95.2133 43.1056 95.2133 42.4189C95.2133 41.7322 94.6566 41.1755 93.9699 41.1755C93.2832 41.1755 92.7266 41.7322 92.7266 42.4189C92.7266 43.1056 93.2832 43.6623 93.9699 43.6623Z" fill="white"></path>
  <path d="M83.7159 43.1368C84.1124 43.1368 84.4338 42.8154 84.4338 42.4189C84.4338 42.0224 84.1124 41.701 83.7159 41.701C83.3194 41.701 82.998 42.0224 82.998 42.4189C82.998 42.8154 83.3194 43.1368 83.7159 43.1368Z" fill="white"></path>
  <path d="M73.4636 44.3317C74.52 44.3317 75.3764 43.4753 75.3764 42.4189C75.3764 41.3625 74.52 40.5061 73.4636 40.5061C72.4072 40.5061 71.5508 41.3625 71.5508 42.4189C71.5508 43.4753 72.4072 44.3317 73.4636 44.3317Z" fill="white"></path>
  <path d="M63.2101 45.2814C64.791 45.2814 66.0726 43.9998 66.0726 42.419C66.0726 40.8381 64.791 39.5565 63.2101 39.5565C61.6292 39.5565 60.3477 40.8381 60.3477 42.419C60.3477 43.9998 61.6292 45.2814 63.2101 45.2814Z" fill="white"></path>
  <path d="M52.9573 45.8841C54.871 45.8841 56.4224 44.3327 56.4224 42.419C56.4224 40.5052 54.871 38.9539 52.9573 38.9539C51.0436 38.9539 49.4922 40.5052 49.4922 42.419C49.4922 44.3327 51.0436 45.8841 52.9573 45.8841Z" fill="white"></path>
  <path d="M42.7031 46.0439C44.7052 46.0439 46.3282 44.421 46.3282 42.4189C46.3282 40.4169 44.7052 38.7939 42.7031 38.7939C40.7011 38.7939 39.0781 40.4169 39.0781 42.4189C39.0781 44.421 40.7011 46.0439 42.7031 46.0439Z" fill="white"></path>
  <path d="M42.703 56.1445C44.6208 56.1445 46.1755 54.5898 46.1755 52.672C46.1755 50.7542 44.6208 49.1995 42.703 49.1995C40.7852 49.1995 39.2305 50.7542 39.2305 52.672C39.2305 54.5898 40.7852 56.1445 42.703 56.1445Z" fill="white"></path>
  <path d="M42.7041 65.8498C44.3194 65.8498 45.6289 64.5403 45.6289 62.925C45.6289 61.3097 44.3194 60.0002 42.7041 60.0002C41.0888 60.0002 39.7793 61.3097 39.7793 62.925C39.7793 64.5403 41.0888 65.8498 42.7041 65.8498Z" fill="white"></path>
  <path d="M42.7028 75.4708C43.969 75.4708 44.9955 74.4443 44.9955 73.1781C44.9955 71.9119 43.969 70.8855 42.7028 70.8855C41.4366 70.8855 40.4102 71.9119 40.4102 73.1781C40.4102 74.4443 41.4366 75.4708 42.7028 75.4708Z" fill="white"></path>
  <path d="M42.7032 85.4742C43.8316 85.4742 44.7463 84.5595 44.7463 83.4311C44.7463 82.3028 43.8316 81.3881 42.7032 81.3881C41.5749 81.3881 40.6602 82.3028 40.6602 83.4311C40.6602 84.5595 41.5749 85.4742 42.7032 85.4742Z" fill="white"></path>
  <path d="M42.7037 95.9992C43.9823 95.9992 45.0187 94.9627 45.0187 93.6842C45.0187 92.4056 43.9823 91.3691 42.7037 91.3691C41.4251 91.3691 40.3887 92.4056 40.3887 93.6842C40.3887 94.9627 41.4251 95.9992 42.7037 95.9992Z" fill="white"></path>
  <path d="M42.7029 106.906C44.3423 106.906 45.6714 105.577 45.6714 103.937C45.6714 102.298 44.3423 100.969 42.7029 100.969C41.0634 100.969 39.7344 102.298 39.7344 103.937C39.7344 105.577 41.0634 106.906 42.7029 106.906Z" fill="white"></path>
  <path d="M42.7037 117.685C44.6338 117.685 46.1984 116.12 46.1984 114.19C46.1984 112.26 44.6338 110.696 42.7037 110.696C40.7736 110.696 39.209 112.26 39.209 114.19C39.209 116.12 40.7736 117.685 42.7037 117.685Z" fill="white"></path>
  <path d="M32.4499 137.363C33.9227 137.363 35.1167 136.169 35.1167 134.696C35.1167 133.224 33.9227 132.03 32.4499 132.03C30.9771 132.03 29.7832 133.224 29.7832 134.696C29.7832 136.169 30.9771 137.363 32.4499 137.363Z" fill="white"></path>
  <path d="M42.7046 138.176C44.6265 138.176 46.1845 136.618 46.1845 134.696C46.1845 132.774 44.6265 131.216 42.7046 131.216C40.7826 131.216 39.2246 132.774 39.2246 134.696C39.2246 136.618 40.7826 138.176 42.7046 138.176Z" fill="white"></path>
  <path d="M52.957 138.321C54.9591 138.321 56.5821 136.698 56.5821 134.696C56.5821 132.694 54.9591 131.071 52.957 131.071C50.955 131.071 49.332 132.694 49.332 134.696C49.332 136.698 50.955 138.321 52.957 138.321Z" fill="white"></path>
  <path d="M63.2104 138.307C65.2046 138.307 66.8211 136.691 66.8211 134.696C66.8211 132.702 65.2046 131.086 63.2104 131.086C61.2162 131.086 59.5996 132.702 59.5996 134.696C59.5996 136.691 61.2162 138.307 63.2104 138.307Z" fill="white"></path>
  <path d="M73.4625 138.235C75.4169 138.235 77.0012 136.651 77.0012 134.696C77.0012 132.742 75.4169 131.158 73.4625 131.158C71.5081 131.158 69.9238 132.742 69.9238 134.696C69.9238 136.651 71.5081 138.235 73.4625 138.235Z" fill="white"></path>
  <path d="M83.7163 138.176C85.6382 138.176 87.1962 136.618 87.1962 134.696C87.1962 132.774 85.6382 131.216 83.7163 131.216C81.7944 131.216 80.2363 132.774 80.2363 134.696C80.2363 136.618 81.7944 138.176 83.7163 138.176Z" fill="white"></path>
  <path d="M93.9689 138.228C95.9192 138.228 97.5003 136.647 97.5003 134.696C97.5003 132.746 95.9192 131.165 93.9689 131.165C92.0186 131.165 90.4375 132.746 90.4375 134.696C90.4375 136.647 92.0186 138.228 93.9689 138.228Z" fill="white"></path>
  <path d="M104.222 138.307C106.216 138.307 107.833 136.691 107.833 134.696C107.833 132.702 106.216 131.086 104.222 131.086C102.228 131.086 100.611 132.702 100.611 134.696C100.611 136.691 102.228 138.307 104.222 138.307Z" fill="white"></path>
  <path d="M114.475 138.321C116.477 138.321 118.1 136.698 118.1 134.696C118.1 132.694 116.477 131.071 114.475 131.071C112.473 131.071 110.85 132.694 110.85 134.696C110.85 136.698 112.473 138.321 114.475 138.321Z" fill="white"></path>
  <path d="M124.729 138.199C126.663 138.199 128.231 136.631 128.231 134.696C128.231 132.762 126.663 131.194 124.729 131.194C122.794 131.194 121.227 132.762 121.227 134.696C121.227 136.631 122.794 138.199 124.729 138.199Z" fill="white"></path>
  <path d="M134.981 137.439C136.496 137.439 137.724 136.211 137.724 134.696C137.724 133.182 136.496 131.953 134.981 131.953C133.466 131.953 132.238 133.182 132.238 134.696C132.238 136.211 133.466 137.439 134.981 137.439Z" fill="white"></path>
  <path d="M134.982 127.953C136.92 127.953 138.492 126.381 138.492 124.443C138.492 122.505 136.92 120.934 134.982 120.934C133.044 120.934 131.473 122.505 131.473 124.443C131.473 126.381 133.044 127.953 134.982 127.953Z" fill="white"></path>
  <path d="M134.98 117.815C136.983 117.815 138.605 116.192 138.605 114.19C138.605 112.188 136.983 110.565 134.98 110.565C132.978 110.565 131.355 112.188 131.355 114.19C131.355 116.192 132.978 117.815 134.98 117.815Z" fill="white"></path>
  <path d="M134.981 107.541C136.971 107.541 138.584 105.927 138.584 103.937C138.584 101.947 136.971 100.334 134.981 100.334C132.99 100.334 131.377 101.947 131.377 103.937C131.377 105.927 132.99 107.541 134.981 107.541Z" fill="white"></path>
  <path d="M134.98 96.6353C136.61 96.6353 137.931 95.3141 137.931 93.6842C137.931 92.0544 136.61 90.7332 134.98 90.7332C133.351 90.7332 132.029 92.0544 132.029 93.6842C132.029 95.3141 133.351 96.6353 134.98 96.6353Z" fill="white"></path>
  <path d="M134.98 84.6537C135.655 84.6537 136.203 84.1064 136.203 83.4312C136.203 82.7561 135.655 82.2087 134.98 82.2087C134.305 82.2087 133.758 82.7561 133.758 83.4312C133.758 84.1064 134.305 84.6537 134.98 84.6537Z" fill="white"></path>
  <path d="M134.981 75.0774C136.03 75.0774 136.881 74.227 136.881 73.1781C136.881 72.1291 136.03 71.2788 134.981 71.2788C133.932 71.2788 133.082 72.1291 133.082 73.1781C133.082 74.227 133.932 75.0774 134.981 75.0774Z" fill="white"></path>
  <path d="M134.981 65.2065C136.241 65.2065 137.262 64.185 137.262 62.9251C137.262 61.6651 136.241 60.6437 134.981 60.6437C133.721 60.6437 132.699 61.6651 132.699 62.9251C132.699 64.185 133.721 65.2065 134.981 65.2065Z" fill="white"></path>
  <path d="M134.982 54.9647C136.248 54.9647 137.275 53.9382 137.275 52.672C137.275 51.4058 136.248 50.3794 134.982 50.3794C133.716 50.3794 132.689 51.4058 132.689 52.672C132.689 53.9382 133.716 54.9647 134.982 54.9647Z" fill="white"></path>
  <path d="M134.982 44.6315C136.204 44.6315 137.195 43.6409 137.195 42.4189C137.195 41.1969 136.204 40.2063 134.982 40.2063C133.76 40.2063 132.77 41.1969 132.77 42.4189C132.77 43.6409 133.76 44.6315 134.982 44.6315Z" fill="white"></path>
  <path d="M134.981 33.8797C135.928 33.8797 136.695 33.1124 136.695 32.1659C136.695 31.2193 135.928 30.452 134.981 30.452C134.035 30.452 133.268 31.2193 133.268 32.1659C133.268 33.1124 134.035 33.8797 134.981 33.8797Z" fill="white"></path>
  <path d="M124.728 34.3785C125.95 34.3785 126.941 33.3879 126.941 32.166C126.941 30.944 125.95 29.9534 124.728 29.9534C123.506 29.9534 122.516 30.944 122.516 32.166C122.516 33.3879 123.506 34.3785 124.728 34.3785Z" fill="white"></path>
  <path d="M114.474 34.4586C115.74 34.4586 116.767 33.4321 116.767 32.1659C116.767 30.8997 115.74 29.8733 114.474 29.8733C113.208 29.8733 112.182 30.8997 112.182 32.1659C112.182 33.4321 113.208 34.4586 114.474 34.4586Z" fill="white"></path>
  <path d="M104.223 34.4473C105.483 34.4473 106.504 33.4259 106.504 32.1659C106.504 30.9059 105.483 29.8845 104.223 29.8845C102.963 29.8845 101.941 30.9059 101.941 32.1659C101.941 33.4259 102.963 34.4473 104.223 34.4473Z" fill="white"></path>
  <path d="M93.9696 34.0651C95.0185 34.0651 95.8689 33.2148 95.8689 32.1659C95.8689 31.1169 95.0185 30.2666 93.9696 30.2666C92.9207 30.2666 92.0703 31.1169 92.0703 32.1659C92.0703 33.2148 92.9207 34.0651 93.9696 34.0651Z" fill="white"></path>
  <path d="M83.7166 33.3884C84.3918 33.3884 84.9391 32.8411 84.9391 32.1659C84.9391 31.4908 84.3918 30.9435 83.7166 30.9435C83.0415 30.9435 82.4941 31.4908 82.4941 32.1659C82.4941 32.8411 83.0415 33.3884 83.7166 33.3884Z" fill="white"></path>
  <path d="M73.4628 35.117C75.0927 35.117 76.4139 33.7958 76.4139 32.1659C76.4139 30.5361 75.0927 29.2148 73.4628 29.2148C71.833 29.2148 70.5117 30.5361 70.5117 32.1659C70.5117 33.7958 71.833 35.117 73.4628 35.117Z" fill="white"></path>
  <path d="M63.2091 35.7695C65.1993 35.7695 66.8127 34.1561 66.8127 32.1659C66.8127 30.1757 65.1993 28.5623 63.2091 28.5623C61.2189 28.5623 59.6055 30.1757 59.6055 32.1659C59.6055 34.1561 61.2189 35.7695 63.2091 35.7695Z" fill="white"></path>
  <path d="M52.957 35.7909C54.9591 35.7909 56.5821 34.1679 56.5821 32.1659C56.5821 30.1639 54.9591 28.5409 52.957 28.5409C50.955 28.5409 49.332 30.1639 49.332 32.1659C49.332 34.1679 50.955 35.7909 52.957 35.7909Z" fill="white"></path>
  <path d="M42.7028 35.6754C44.641 35.6754 46.2123 34.1041 46.2123 32.1659C46.2123 30.2277 44.641 28.6565 42.7028 28.6565C40.7646 28.6565 39.1934 30.2277 39.1934 32.1659C39.1934 34.1041 40.7646 35.6754 42.7028 35.6754Z" fill="white"></path>
  <path d="M32.45 34.9088C33.9649 34.9088 35.1929 33.6808 35.1929 32.1659C35.1929 30.651 33.9649 29.423 32.45 29.423C30.9351 29.423 29.707 30.651 29.707 32.1659C29.707 33.6808 30.9351 34.9088 32.45 34.9088Z" fill="white"></path>
  <path d="M32.4513 45.921C34.3855 45.921 35.9534 44.3531 35.9534 42.419C35.9534 40.4848 34.3855 38.9169 32.4513 38.9169C30.5172 38.9169 28.9492 40.4848 28.9492 42.419C28.9492 44.3531 30.5172 45.921 32.4513 45.921Z" fill="white"></path>
  <path d="M32.4512 56.297C34.4532 56.297 36.0762 54.674 36.0762 52.672C36.0762 50.67 34.4532 49.047 32.4512 49.047C30.4491 49.047 28.8262 50.67 28.8262 52.672C28.8262 54.674 30.4491 56.297 32.4512 56.297Z" fill="white"></path>
  <path d="M32.4506 66.5358C34.4448 66.5358 36.0614 64.9193 36.0614 62.9251C36.0614 60.9309 34.4448 59.3143 32.4506 59.3143C30.4564 59.3143 28.8398 60.9309 28.8398 62.9251C28.8398 64.9193 30.4564 66.5358 32.4506 66.5358Z" fill="white"></path>
  <path d="M32.4513 76.7095C34.4017 76.7095 35.9827 75.1284 35.9827 73.1781C35.9827 71.2278 34.4017 69.6467 32.4513 69.6467C30.501 69.6467 28.9199 71.2278 28.9199 73.1781C28.9199 75.1284 30.501 76.7095 32.4513 76.7095Z" fill="white"></path>
  <path d="M32.4507 86.911C34.3726 86.911 35.9306 85.353 35.9306 83.4311C35.9306 81.5092 34.3726 79.9512 32.4507 79.9512C30.5287 79.9512 28.9707 81.5092 28.9707 83.4311C28.9707 85.353 30.5287 86.911 32.4507 86.911Z" fill="white"></path>
  <path d="M32.4508 97.2229C34.4052 97.2229 35.9895 95.6385 35.9895 93.6842C35.9895 91.7298 34.4052 90.1455 32.4508 90.1455C30.4964 90.1455 28.9121 91.7298 28.9121 93.6842C28.9121 95.6385 30.4964 97.2229 32.4508 97.2229Z" fill="white"></path>
  <path d="M32.4506 107.548C34.4448 107.548 36.0614 105.931 36.0614 103.937C36.0614 101.943 34.4448 100.326 32.4506 100.326C30.4564 100.326 28.8398 101.943 28.8398 103.937C28.8398 105.931 30.4564 107.548 32.4506 107.548Z" fill="white"></path>
  <path d="M32.4512 117.815C34.4532 117.815 36.0762 116.192 36.0762 114.19C36.0762 112.188 34.4532 110.565 32.4512 110.565C30.4491 110.565 28.8262 112.188 28.8262 114.19C28.8262 116.192 30.4491 117.815 32.4512 117.815Z" fill="white"></path>
  <path d="M32.4502 127.931C34.3763 127.931 35.9376 126.369 35.9376 124.443C35.9376 122.517 34.3763 120.956 32.4502 120.956C30.5242 120.956 28.9629 122.517 28.9629 124.443C28.9629 126.369 30.5242 127.931 32.4502 127.931Z" fill="white"></path>
  <path d="M32.45 146.062C33.0642 146.062 33.5621 145.564 33.5621 144.95C33.5621 144.335 33.0642 143.837 32.45 143.837C31.8358 143.837 31.3379 144.335 31.3379 144.95C31.3379 145.564 31.8358 146.062 32.45 146.062Z" fill="white"></path>
  <path d="M42.7032 147.352C44.03 147.352 45.1056 146.276 45.1056 144.949C45.1056 143.623 44.03 142.547 42.7032 142.547C41.3764 142.547 40.3008 143.623 40.3008 144.949C40.3008 146.276 41.3764 147.352 42.7032 147.352Z" fill="white"></path>
  <path d="M52.9567 148.168C54.7341 148.168 56.1751 146.727 56.1751 144.949C56.1751 143.172 54.7341 141.731 52.9567 141.731C51.1792 141.731 49.7383 143.172 49.7383 144.949C49.7383 146.727 51.1792 148.168 52.9567 148.168Z" fill="white"></path>
  <path d="M63.2096 148.473C65.156 148.473 66.7337 146.896 66.7337 144.949C66.7337 143.003 65.156 141.425 63.2096 141.425C61.2633 141.425 59.6855 143.003 59.6855 144.949C59.6855 146.896 61.2633 148.473 63.2096 148.473Z" fill="white"></path>
  <path d="M73.463 148.553C75.4532 148.553 77.0666 146.94 77.0666 144.949C77.0666 142.959 75.4532 141.346 73.463 141.346C71.4728 141.346 69.8594 142.959 69.8594 144.949C69.8594 146.94 71.4728 148.553 73.463 148.553Z" fill="white"></path>
  <path d="M83.7168 148.574C85.7189 148.574 87.3418 146.951 87.3418 144.949C87.3418 142.947 85.7189 141.324 83.7168 141.324C81.7148 141.324 80.0918 142.947 80.0918 144.949C80.0918 146.951 81.7148 148.574 83.7168 148.574Z" fill="white"></path>
  <path d="M93.9682 148.56C95.9624 148.56 97.579 146.944 97.579 144.949C97.579 142.955 95.9624 141.339 93.9682 141.339C91.974 141.339 90.3574 142.955 90.3574 144.949C90.3574 146.944 91.974 148.56 93.9682 148.56Z" fill="white"></path>
  <path d="M104.223 148.481C106.173 148.481 107.754 146.9 107.754 144.949C107.754 142.999 106.173 141.418 104.223 141.418C102.272 141.418 100.691 142.999 100.691 144.949C100.691 146.9 102.272 148.481 104.223 148.481Z" fill="white"></path>
  <path d="M114.475 148.192C116.265 148.192 117.717 146.74 117.717 144.949C117.717 143.159 116.265 141.707 114.475 141.707C112.684 141.707 111.232 143.159 111.232 144.949C111.232 146.74 112.684 148.192 114.475 148.192Z" fill="white"></path>
  <path d="M124.728 147.415C126.09 147.415 127.194 146.311 127.194 144.949C127.194 143.588 126.09 142.484 124.728 142.484C123.366 142.484 122.262 143.588 122.262 144.949C122.262 146.311 123.366 147.415 124.728 147.415Z" fill="white"></path>
  <path d="M134.981 146.151C135.644 146.151 136.182 145.613 136.182 144.949C136.182 144.286 135.644 143.748 134.981 143.748C134.317 143.748 133.779 144.286 133.779 144.949C133.779 145.613 134.317 146.151 134.981 146.151Z" fill="white"></path>
  <path d="M145.235 145.176C145.36 145.176 145.462 145.075 145.462 144.949C145.462 144.824 145.36 144.722 145.235 144.722C145.109 144.722 145.008 144.824 145.008 144.949C145.008 145.075 145.109 145.176 145.235 145.176Z" fill="white"></path>
  <path d="M145.234 135.898C145.898 135.898 146.436 135.36 146.436 134.696C146.436 134.033 145.898 133.495 145.234 133.495C144.571 133.495 144.033 134.033 144.033 134.696C144.033 135.36 144.571 135.898 145.234 135.898Z" fill="white"></path>
  <path d="M145.235 126.93C146.608 126.93 147.722 125.817 147.722 124.443C147.722 123.07 146.608 121.957 145.235 121.957C143.861 121.957 142.748 123.07 142.748 124.443C142.748 125.817 143.861 126.93 145.235 126.93Z" fill="white"></path>
  <path d="M145.235 117.456C147.039 117.456 148.501 115.994 148.501 114.19C148.501 112.386 147.039 110.924 145.235 110.924C143.431 110.924 141.969 112.386 141.969 114.19C141.969 115.994 143.431 117.456 145.235 117.456Z" fill="white"></path>
  <path d="M145.233 107.483C147.192 107.483 148.779 105.896 148.779 103.937C148.779 101.979 147.192 100.391 145.233 100.391C143.275 100.391 141.688 101.979 141.688 103.937C141.688 105.896 143.275 107.483 145.233 107.483Z" fill="white"></path>
  <path d="M145.235 96.7043C146.903 96.7043 148.255 95.3522 148.255 93.6842C148.255 92.0162 146.903 90.6641 145.235 90.6641C143.567 90.6641 142.215 92.0162 142.215 93.6842C142.215 95.3522 143.567 96.7043 145.235 96.7043Z" fill="white"></path>
  <path d="M145.233 84.7153C145.943 84.7153 146.518 84.1403 146.518 83.4311C146.518 82.7219 145.943 82.147 145.233 82.147C144.524 82.147 143.949 82.7219 143.949 83.4311C143.949 84.1403 144.524 84.7153 145.233 84.7153Z" fill="white"></path>
  <path d="M145.234 75.1176C146.306 75.1176 147.174 74.2492 147.174 73.1781C147.174 72.1069 146.306 71.2385 145.234 71.2385C144.163 71.2385 143.295 72.1069 143.295 73.1781C143.295 74.2492 144.163 75.1176 145.234 75.1176Z" fill="white"></path>
  <path d="M145.234 65.1608C146.469 65.1608 147.47 64.1599 147.47 62.9251C147.47 61.6903 146.469 60.6893 145.234 60.6893C143.999 60.6893 142.998 61.6903 142.998 62.9251C142.998 64.1599 143.999 65.1608 145.234 65.1608Z" fill="white"></path>
  <path d="M145.233 54.7276C146.369 54.7276 147.289 53.8073 147.289 52.672C147.289 51.5367 146.369 50.6163 145.233 50.6163C144.098 50.6163 143.178 51.5367 143.178 52.672C143.178 53.8073 144.098 54.7276 145.233 54.7276Z" fill="white"></path>
  <path d="M145.234 43.9752C146.094 43.9752 146.79 43.2785 146.79 42.419C146.79 41.5594 146.094 40.8627 145.234 40.8627C144.375 40.8627 143.678 41.5594 143.678 42.419C143.678 43.2785 144.375 43.9752 145.234 43.9752Z" fill="white"></path>
  <path d="M145.233 32.8837C145.63 32.8837 145.951 32.5623 145.951 32.1659C145.951 31.7694 145.63 31.448 145.233 31.448C144.837 31.448 144.516 31.7694 144.516 32.1659C144.516 32.5623 144.837 32.8837 145.233 32.8837Z" fill="white"></path>
  <path d="M134.982 22.6307C135.378 22.6307 135.699 22.3093 135.699 21.9128C135.699 21.5163 135.378 21.1949 134.982 21.1949C134.585 21.1949 134.264 21.5163 134.264 21.9128C134.264 22.3093 134.585 22.6307 134.982 22.6307Z" fill="white"></path>
  <path d="M124.728 23.4691C125.588 23.4691 126.284 22.7723 126.284 21.9128C126.284 21.0533 125.588 20.3566 124.728 20.3566C123.869 20.3566 123.172 21.0533 123.172 21.9128C123.172 22.7723 123.869 23.4691 124.728 23.4691Z" fill="white"></path>
  <path d="M114.476 23.9684C115.611 23.9684 116.531 23.0481 116.531 21.9128C116.531 20.7775 115.611 19.8572 114.476 19.8572C113.34 19.8572 112.42 20.7775 112.42 21.9128C112.42 23.0481 113.34 23.9684 114.476 23.9684Z" fill="white"></path>
  <path d="M104.222 24.1486C105.457 24.1486 106.458 23.1476 106.458 21.9129C106.458 20.6781 105.457 19.6771 104.222 19.6771C102.987 19.6771 101.986 20.6781 101.986 21.9129C101.986 23.1476 102.987 24.1486 104.222 24.1486Z" fill="white"></path>
  <path d="M93.9688 23.8523C95.04 23.8523 95.9084 22.984 95.9084 21.9128C95.9084 20.8416 95.04 19.9733 93.9688 19.9733C92.8977 19.9733 92.0293 20.8416 92.0293 21.9128C92.0293 22.984 92.8977 23.8523 93.9688 23.8523Z" fill="white"></path>
  <path d="M83.7151 23.1768C84.4131 23.1768 84.979 22.6109 84.979 21.9128C84.979 21.2148 84.4131 20.6489 83.7151 20.6489C83.017 20.6489 82.4512 21.2148 82.4512 21.9128C82.4512 22.6109 83.017 23.1768 83.7151 23.1768Z" fill="white"></path>
  <path d="M73.4628 24.9244C75.126 24.9244 76.4744 23.5761 76.4744 21.9128C76.4744 20.2496 75.126 18.9012 73.4628 18.9012C71.7995 18.9012 70.4512 20.2496 70.4512 21.9128C70.4512 23.5761 71.7995 24.9244 73.4628 24.9244Z" fill="white"></path>
  <path d="M63.21 25.4589C65.1684 25.4589 66.756 23.8713 66.756 21.9129C66.756 19.9545 65.1684 18.3669 63.21 18.3669C61.2516 18.3669 59.6641 19.9545 59.6641 21.9129C59.6641 23.8713 61.2516 25.4589 63.21 25.4589Z" fill="white"></path>
  <path d="M52.9575 25.179C54.7613 25.179 56.2235 23.7167 56.2235 21.9129C56.2235 20.1091 54.7613 18.6469 52.9575 18.6469C51.1537 18.6469 49.6914 20.1091 49.6914 21.9129C49.6914 23.7167 51.1537 25.179 52.9575 25.179Z" fill="white"></path>
  <path d="M42.7035 24.3996C44.0769 24.3996 45.1903 23.2863 45.1903 21.9129C45.1903 20.5395 44.0769 19.4261 42.7035 19.4261C41.3302 19.4261 40.2168 20.5395 40.2168 21.9129C40.2168 23.2863 41.3302 24.3996 42.7035 24.3996Z" fill="white"></path>
  <path d="M32.4512 23.1141C33.1146 23.1141 33.6524 22.5763 33.6524 21.9129C33.6524 21.2495 33.1146 20.7117 32.4512 20.7117C31.7878 20.7117 31.25 21.2495 31.25 21.9129C31.25 22.5763 31.7878 23.1141 32.4512 23.1141Z" fill="white"></path>
  <path d="M22.1977 22.1398C22.3231 22.1398 22.4247 22.0382 22.4247 21.9128C22.4247 21.7874 22.3231 21.6858 22.1977 21.6858C22.0723 21.6858 21.9707 21.7874 21.9707 21.9128C21.9707 22.0382 22.0723 22.1398 22.1977 22.1398Z" fill="white"></path>
  <path d="M22.1971 33.3454C22.8486 33.3454 23.3767 32.8173 23.3767 32.1659C23.3767 31.5144 22.8486 30.9863 22.1971 30.9863C21.5457 30.9863 21.0176 31.5144 21.0176 32.1659C21.0176 32.8173 21.5457 33.3454 22.1971 33.3454Z" fill="white"></path>
  <path d="M22.1984 44.8848C23.5602 44.8848 24.6643 43.7808 24.6643 42.4189C24.6643 41.057 23.5602 39.953 22.1984 39.953C20.8365 39.953 19.7324 41.057 19.7324 42.4189C19.7324 43.7808 20.8365 44.8848 22.1984 44.8848Z" fill="white"></path>
  <path d="M22.1975 55.9222C23.9926 55.9222 25.4478 54.467 25.4478 52.672C25.4478 50.8769 23.9926 49.4218 22.1975 49.4218C20.4024 49.4218 18.9473 50.8769 18.9473 52.672C18.9473 54.467 20.4024 55.9222 22.1975 55.9222Z" fill="white"></path>
  <path d="M22.1974 66.4565C24.1478 66.4565 25.7288 64.8754 25.7288 62.9251C25.7288 60.9747 24.1478 59.3937 22.1974 59.3937C20.2471 59.3937 18.666 60.9747 18.666 62.9251C18.666 64.8754 20.2471 66.4565 22.1974 66.4565Z" fill="white"></path>
  <path d="M22.1967 76.7889C24.1909 76.7889 25.8075 75.1723 25.8075 73.1781C25.8075 71.184 24.1909 69.5674 22.1967 69.5674C20.2025 69.5674 18.5859 71.184 18.5859 73.1781C18.5859 75.1723 20.2025 76.7889 22.1967 76.7889Z" fill="white"></path>
  <path d="M22.1973 87.0562C24.1993 87.0562 25.8223 85.4332 25.8223 83.4312C25.8223 81.4291 24.1993 79.8062 22.1973 79.8062C20.1952 79.8062 18.5723 81.4291 18.5723 83.4312C18.5723 85.4332 20.1952 87.0562 22.1973 87.0562Z" fill="white"></path>
  <path d="M22.1967 97.295C24.1909 97.295 25.8075 95.6784 25.8075 93.6842C25.8075 91.6901 24.1909 90.0735 22.1967 90.0735C20.2025 90.0735 18.5859 91.6901 18.5859 93.6842C18.5859 95.6784 20.2025 97.295 22.1967 97.295Z" fill="white"></path>
  <path d="M22.1979 107.461C24.1442 107.461 25.722 105.883 25.722 103.937C25.722 101.991 24.1442 100.413 22.1979 100.413C20.2516 100.413 18.6738 101.991 18.6738 103.937C18.6738 105.883 20.2516 107.461 22.1979 107.461Z" fill="white"></path>
  <path d="M22.1969 117.409C23.9744 117.409 25.4153 115.968 25.4153 114.19C25.4153 112.413 23.9744 110.972 22.1969 110.972C20.4194 110.972 18.9785 112.413 18.9785 114.19C18.9785 115.968 20.4194 117.409 22.1969 117.409Z" fill="white"></path>
  <path d="M22.1973 126.846C23.5242 126.846 24.5998 125.77 24.5998 124.443C24.5998 123.116 23.5242 122.041 22.1973 122.041C20.8705 122.041 19.7949 123.116 19.7949 124.443C19.7949 125.77 20.8705 126.846 22.1973 126.846Z" fill="white"></path>
  <path d="M22.198 135.808C22.8122 135.808 23.3101 135.311 23.3101 134.696C23.3101 134.082 22.8122 133.584 22.198 133.584C21.5838 133.584 21.0859 134.082 21.0859 134.696C21.0859 135.311 21.5838 135.808 22.198 135.808Z" fill="white"></path>
  <path d="M42.7045 155.884C43.0806 155.884 43.3855 155.579 43.3855 155.202C43.3855 154.826 43.0806 154.521 42.7045 154.521C42.3283 154.521 42.0234 154.826 42.0234 155.202C42.0234 155.579 42.3283 155.884 42.7045 155.884Z" fill="white"></path>
  <path d="M52.9567 156.759C53.8162 156.759 54.513 156.062 54.513 155.203C54.513 154.343 53.8162 153.646 52.9567 153.646C52.0972 153.646 51.4004 154.343 51.4004 155.203C51.4004 156.062 52.0972 156.759 52.9567 156.759Z" fill="white"></path>
  <path d="M63.2091 157.484C64.4691 157.484 65.4905 156.462 65.4905 155.203C65.4905 153.943 64.4691 152.921 63.2091 152.921C61.9492 152.921 60.9277 153.943 60.9277 155.203C60.9277 156.462 61.9492 157.484 63.2091 157.484Z" fill="white"></path>
  <path d="M73.4631 157.898C74.9519 157.898 76.1587 156.691 76.1587 155.202C76.1587 153.714 74.9519 152.507 73.4631 152.507C71.9744 152.507 70.7676 153.714 70.7676 155.202C70.7676 156.691 71.9744 157.898 73.4631 157.898Z" fill="white"></path>
  <path d="M83.7162 158.038C85.2821 158.038 86.5515 156.768 86.5515 155.202C86.5515 153.637 85.2821 152.367 83.7162 152.367C82.1503 152.367 80.8809 153.637 80.8809 155.202C80.8809 156.768 82.1503 158.038 83.7162 158.038Z" fill="white"></path>
  <path d="M93.9688 157.908C95.4628 157.908 96.6739 156.696 96.6739 155.202C96.6739 153.708 95.4628 152.497 93.9688 152.497C92.4748 152.497 91.2637 153.708 91.2637 155.202C91.2637 156.696 92.4748 157.908 93.9688 157.908Z" fill="white"></path>
  <path d="M104.222 157.506C105.494 157.506 106.526 156.475 106.526 155.203C106.526 153.93 105.494 152.899 104.222 152.899C102.949 152.899 101.918 153.93 101.918 155.203C101.918 156.475 102.949 157.506 104.222 157.506Z" fill="white"></path>
  <path d="M114.476 156.791C115.353 156.791 116.065 156.08 116.065 155.202C116.065 154.325 115.353 153.613 114.476 153.613C113.598 153.613 112.887 154.325 112.887 155.202C112.887 156.08 113.598 156.791 114.476 156.791Z" fill="white"></path>
  <path d="M124.728 155.92C125.124 155.92 125.445 155.599 125.445 155.202C125.445 154.806 125.124 154.485 124.728 154.485C124.331 154.485 124.01 154.806 124.01 155.202C124.01 155.599 124.331 155.92 124.728 155.92Z" fill="white"></path>
  <path d="M155.487 125.196C155.903 125.196 156.24 124.859 156.24 124.443C156.24 124.028 155.903 123.69 155.487 123.69C155.071 123.69 154.734 124.028 154.734 124.443C154.734 124.859 155.071 125.196 155.487 125.196Z" fill="white"></path>
  <path d="M155.487 115.843C156.399 115.843 157.139 115.103 157.139 114.19C157.139 113.277 156.399 112.538 155.487 112.538C154.574 112.538 153.834 113.277 153.834 114.19C153.834 115.103 154.574 115.843 155.487 115.843Z" fill="white"></path>
  <path d="M155.487 106.307C156.796 106.307 157.857 105.246 157.857 103.937C157.857 102.628 156.796 101.567 155.487 101.567C154.178 101.567 153.117 102.628 153.117 103.937C153.117 105.246 154.178 106.307 155.487 106.307Z" fill="white"></path>
  <path d="M155.487 95.9542C156.741 95.9542 157.757 94.9378 157.757 93.6841C157.757 92.4304 156.741 91.4141 155.487 91.4141C154.233 91.4141 153.217 92.4304 153.217 93.6841C153.217 94.9378 154.233 95.9542 155.487 95.9542Z" fill="white"></path>
  <path d="M155.488 84.4206C156.034 84.4206 156.477 83.9776 156.477 83.4311C156.477 82.8847 156.034 82.4417 155.488 82.4417C154.941 82.4417 154.498 82.8847 154.498 83.4311C154.498 83.9776 154.941 84.4206 155.488 84.4206Z" fill="white"></path>
  <path d="M155.487 74.6317C156.29 74.6317 156.94 73.9809 156.94 73.1782C156.94 72.3754 156.29 71.7246 155.487 71.7246C154.684 71.7246 154.033 72.3754 154.033 73.1782C154.033 73.9809 154.684 74.6317 155.487 74.6317Z" fill="white"></path>
  <path d="M155.487 64.3962C156.299 64.3962 156.958 63.7375 156.958 62.925C156.958 62.1125 156.299 61.4539 155.487 61.4539C154.674 61.4539 154.016 62.1125 154.016 62.925C154.016 63.7375 154.674 64.3962 155.487 64.3962Z" fill="white"></path>
  <path d="M155.488 53.6871C156.049 53.6871 156.503 53.2326 156.503 52.6719C156.503 52.1113 156.049 51.6567 155.488 51.6567C154.927 51.6567 154.473 52.1113 154.473 52.6719C154.473 53.2326 154.927 53.6871 155.488 53.6871Z" fill="white"></path>
  <path d="M155.487 42.873C155.738 42.873 155.941 42.6697 155.941 42.419C155.941 42.1682 155.738 41.965 155.487 41.965C155.236 41.965 155.033 42.1682 155.033 42.419C155.033 42.6697 155.236 42.873 155.487 42.873Z" fill="white"></path>
  <path d="M124.727 12.1138C124.978 12.1138 125.181 11.9106 125.181 11.6598C125.181 11.4091 124.978 11.2058 124.727 11.2058C124.477 11.2058 124.273 11.4091 124.273 11.6598C124.273 11.9106 124.477 12.1138 124.727 12.1138Z" fill="white"></path>
  <path d="M114.474 12.6751C115.035 12.6751 115.489 12.2205 115.489 11.6599C115.489 11.0992 115.035 10.6447 114.474 10.6447C113.914 10.6447 113.459 11.0992 113.459 11.6599C113.459 12.2205 113.914 12.6751 114.474 12.6751Z" fill="white"></path>
  <path d="M104.223 13.1484C105.045 13.1484 105.712 12.482 105.712 11.6598C105.712 10.8377 105.045 10.1713 104.223 10.1713C103.401 10.1713 102.734 10.8377 102.734 11.6598C102.734 12.482 103.401 13.1484 104.223 13.1484Z" fill="white"></path>
  <path d="M93.9692 13.1134C94.772 13.1134 95.4227 12.4626 95.4227 11.6598C95.4227 10.8571 94.772 10.2063 93.9692 10.2063C93.1664 10.2063 92.5156 10.8571 92.5156 11.6598C92.5156 12.4626 93.1664 13.1134 93.9692 13.1134Z" fill="white"></path>
  <path d="M83.7161 12.6493C84.2625 12.6493 84.7056 12.2063 84.7056 11.6598C84.7056 11.1133 84.2625 10.6703 83.7161 10.6703C83.1696 10.6703 82.7266 11.1133 82.7266 11.6598C82.7266 12.2063 83.1696 12.6493 83.7161 12.6493Z" fill="white"></path>
  <path d="M73.4634 13.9299C74.7172 13.9299 75.7335 12.9136 75.7335 11.6598C75.7335 10.4061 74.7172 9.38977 73.4634 9.38977C72.2097 9.38977 71.1934 10.4061 71.1934 11.6598C71.1934 12.9136 72.2097 13.9299 73.4634 13.9299Z" fill="white"></path>
  <path d="M63.2099 14.0298C64.5188 14.0298 65.5799 12.9687 65.5799 11.6598C65.5799 10.3509 64.5188 9.28979 63.2099 9.28979C61.9009 9.28979 60.8398 10.3509 60.8398 11.6598C60.8398 12.9687 61.9009 14.0298 63.2099 14.0298Z" fill="white"></path>
  <path d="M52.9573 13.3125C53.87 13.3125 54.61 12.5726 54.61 11.6598C54.61 10.7471 53.87 10.0072 52.9573 10.0072C52.0446 10.0072 51.3047 10.7471 51.3047 11.6598C51.3047 12.5726 52.0446 13.3125 52.9573 13.3125Z" fill="white"></path>
  <path d="M42.7041 12.4127C43.1199 12.4127 43.457 12.0756 43.457 11.6598C43.457 11.2439 43.1199 10.9069 42.7041 10.9069C42.2883 10.9069 41.9512 11.2439 41.9512 11.6598C41.9512 12.0756 42.2883 12.4127 42.7041 12.4127Z" fill="white"></path>
  <path d="M11.9444 43.1368C12.3409 43.1368 12.6623 42.8154 12.6623 42.4189C12.6623 42.0224 12.3409 41.701 11.9444 41.701C11.548 41.701 11.2266 42.0224 11.2266 42.4189C11.2266 42.8154 11.548 43.1368 11.9444 43.1368Z" fill="white"></path>
  <path d="M11.9445 54.2611C12.8221 54.2611 13.5336 53.5497 13.5336 52.6721C13.5336 51.7944 12.8221 51.083 11.9445 51.083C11.0669 51.083 10.3555 51.7944 10.3555 52.6721C10.3555 53.5497 11.0669 54.2611 11.9445 54.2611Z" fill="white"></path>
  <path d="M11.9445 65.2289C13.2169 65.2289 14.2484 64.1975 14.2484 62.9251C14.2484 61.6527 13.2169 60.6212 11.9445 60.6212C10.6721 60.6212 9.64062 61.6527 9.64062 62.9251C9.64062 64.1975 10.6721 65.2289 11.9445 65.2289Z" fill="white"></path>
  <path d="M11.9451 75.8927C13.4443 75.8927 14.6597 74.6773 14.6597 73.1781C14.6597 71.6789 13.4443 70.4635 11.9451 70.4635C10.4458 70.4635 9.23047 71.6789 9.23047 73.1781C9.23047 74.6773 10.4458 75.8927 11.9451 75.8927Z" fill="white"></path>
  <path d="M11.9447 86.2664C13.5106 86.2664 14.78 84.997 14.78 83.4311C14.78 81.8652 13.5106 80.5958 11.9447 80.5958C10.3788 80.5958 9.10938 81.8652 9.10938 83.4311C9.10938 84.997 10.3788 86.2664 11.9447 86.2664Z" fill="white"></path>
  <path d="M11.9456 96.3797C13.4343 96.3797 14.6411 95.1729 14.6411 93.6842C14.6411 92.1955 13.4343 90.9886 11.9456 90.9886C10.4568 90.9886 9.25 92.1955 9.25 93.6842C9.25 95.1729 10.4568 96.3797 11.9456 96.3797Z" fill="white"></path>
  <path d="M11.9455 106.219C13.2054 106.219 14.2269 105.197 14.2269 103.937C14.2269 102.677 13.2054 101.656 11.9455 101.656C10.6855 101.656 9.66406 102.677 9.66406 103.937C9.66406 105.197 10.6855 106.219 11.9455 106.219Z" fill="white"></path>
  <path d="M11.945 115.747C12.8045 115.747 13.5012 115.05 13.5012 114.19C13.5012 113.331 12.8045 112.634 11.945 112.634C11.0854 112.634 10.3887 113.331 10.3887 114.19C10.3887 115.05 11.0854 115.747 11.945 115.747Z" fill="white"></path>
  <path d="M11.9447 125.124C12.3208 125.124 12.6257 124.819 12.6257 124.443C12.6257 124.067 12.3208 123.762 11.9447 123.762C11.5686 123.762 11.2637 124.067 11.2637 124.443C11.2637 124.819 11.5686 125.124 11.9447 125.124Z" fill="white"></path>
  <path d="M63.2097 165.777C63.387 165.777 63.5307 165.633 63.5307 165.456C63.5307 165.278 63.387 165.135 63.2097 165.135C63.0324 165.135 62.8887 165.278 62.8887 165.456C62.8887 165.633 63.0324 165.777 63.2097 165.777Z" fill="white"></path>
  <path d="M73.4623 166.137C73.8384 166.137 74.1433 165.832 74.1433 165.456C74.1433 165.079 73.8384 164.775 73.4623 164.775C73.0861 164.775 72.7812 165.079 72.7812 165.456C72.7812 165.832 73.0861 166.137 73.4623 166.137Z" fill="white"></path>
  <path d="M83.7161 166.242C84.1504 166.242 84.5024 165.89 84.5024 165.456C84.5024 165.021 84.1504 164.669 83.7161 164.669C83.2818 164.669 82.9297 165.021 82.9297 165.456C82.9297 165.89 83.2818 166.242 83.7161 166.242Z" fill="white"></path>
  <path d="M93.9681 166.137C94.3442 166.137 94.6491 165.832 94.6491 165.456C94.6491 165.079 94.3442 164.775 93.9681 164.775C93.592 164.775 93.2871 165.079 93.2871 165.456C93.2871 165.832 93.592 166.137 93.9681 166.137Z" fill="white"></path>
  <path d="M104.221 165.777C104.399 165.777 104.542 165.633 104.542 165.456C104.542 165.278 104.399 165.135 104.221 165.135C104.044 165.135 103.9 165.278 103.9 165.456C103.9 165.633 104.044 165.777 104.221 165.777Z" fill="white"></path>
  <path d="M165.741 104.33C165.958 104.33 166.134 104.154 166.134 103.937C166.134 103.72 165.958 103.544 165.741 103.544C165.524 103.544 165.348 103.72 165.348 103.937C165.348 104.154 165.524 104.33 165.741 104.33Z" fill="white"></path>
  <path d="M165.74 94.2403C166.047 94.2403 166.296 93.9913 166.296 93.6842C166.296 93.3771 166.047 93.1282 165.74 93.1282C165.433 93.1282 165.184 93.3771 165.184 93.6842C165.184 93.9913 165.433 94.2403 165.74 94.2403Z" fill="white"></path>
  <path d="M165.741 83.6581C165.866 83.6581 165.968 83.5565 165.968 83.4311C165.968 83.3057 165.866 83.2041 165.741 83.2041C165.615 83.2041 165.514 83.3057 165.514 83.4311C165.514 83.5565 165.615 83.6581 165.741 83.6581Z" fill="white"></path>
  <path d="M165.741 73.4991C165.918 73.4991 166.062 73.3554 166.062 73.1781C166.062 73.0008 165.918 72.8571 165.741 72.8571C165.564 72.8571 165.42 73.0008 165.42 73.1781C165.42 73.3554 165.564 73.4991 165.741 73.4991Z" fill="white"></path>
  <path d="M165.741 63.152C165.866 63.152 165.968 63.0504 165.968 62.925C165.968 62.7996 165.866 62.698 165.741 62.698C165.615 62.698 165.514 62.7996 165.514 62.925C165.514 63.0504 165.615 63.152 165.741 63.152Z" fill="white"></path>
  <path d="M104.221 1.6337C104.347 1.6337 104.448 1.53206 104.448 1.40669C104.448 1.28132 104.347 1.17969 104.221 1.17969C104.096 1.17969 103.994 1.28132 103.994 1.40669C103.994 1.53206 104.096 1.6337 104.221 1.6337Z" fill="white"></path>
  <path d="M93.9694 1.79992C94.1865 1.79992 94.3626 1.62389 94.3626 1.40673C94.3626 1.18958 94.1865 1.01355 93.9694 1.01355C93.7522 1.01355 93.5762 1.18958 93.5762 1.40673C93.5762 1.62389 93.7522 1.79992 93.9694 1.79992Z" fill="white"></path>
  <path d="M83.7153 1.6337C83.8407 1.6337 83.9423 1.53206 83.9423 1.40669C83.9423 1.28132 83.8407 1.17969 83.7153 1.17969C83.5899 1.17969 83.4883 1.28132 83.4883 1.40669C83.4883 1.53206 83.5899 1.6337 83.7153 1.6337Z" fill="white"></path>
  <path d="M73.4623 1.96281C73.7694 1.96281 74.0184 1.71386 74.0184 1.40676C74.0184 1.09966 73.7694 0.850708 73.4623 0.850708C73.1552 0.850708 72.9062 1.09966 72.9062 1.40676C72.9062 1.71386 73.1552 1.96281 73.4623 1.96281Z" fill="white"></path>
  <path d="M63.2096 1.79992C63.4267 1.79992 63.6028 1.62389 63.6028 1.40673C63.6028 1.18958 63.4267 1.01355 63.2096 1.01355C62.9924 1.01355 62.8164 1.18958 62.8164 1.40673C62.8164 1.62389 62.9924 1.79992 63.2096 1.79992Z" fill="white"></path>
  <path d="M1.69213 63.2461C1.86943 63.2461 2.01317 63.1023 2.01317 62.925C2.01317 62.7477 1.86943 62.604 1.69213 62.604C1.51482 62.604 1.37109 62.7477 1.37109 62.925C1.37109 63.1023 1.51482 63.2461 1.69213 63.2461Z" fill="white"></path>
  <path d="M1.69079 73.8591C2.06691 73.8591 2.37181 73.5542 2.37181 73.1781C2.37181 72.802 2.06691 72.4971 1.69079 72.4971C1.31467 72.4971 1.00977 72.802 1.00977 73.1781C1.00977 73.5542 1.31467 73.8591 1.69079 73.8591Z" fill="white"></path>
  <path d="M1.69153 84.2496C2.14357 84.2496 2.51002 83.8832 2.51002 83.4312C2.51002 82.9791 2.14357 82.6127 1.69153 82.6127C1.23949 82.6127 0.873047 82.9791 0.873047 83.4312C0.873047 83.8832 1.23949 84.2496 1.69153 84.2496Z" fill="white"></path>
  <path d="M1.69079 94.3652C2.06691 94.3652 2.37181 94.0603 2.37181 93.6842C2.37181 93.3081 2.06691 93.0032 1.69079 93.0032C1.31467 93.0032 1.00977 93.3081 1.00977 93.6842C1.00977 94.0603 1.31467 94.3652 1.69079 94.3652Z" fill="white"></path>
  <path d="M1.69213 104.258C1.86943 104.258 2.01317 104.115 2.01317 103.937C2.01317 103.76 1.86943 103.616 1.69213 103.616C1.51482 103.616 1.37109 103.76 1.37109 103.937C1.37109 104.115 1.51482 104.258 1.69213 104.258Z" fill="white"></path>
</svg>
