<?xml version="1.0" encoding="UTF-8"?>
<svg xmlns="http://www.w3.org/2000/svg" width="106" height="32" viewBox="0 0 106 32" fill="none">
  <path d="M8.11097 25.8399H20.9793C21.1598 25.8399 21.1598 25.8956 20.9793 26.0199C19.6806 26.7835 18.4874 27.7137 17.4299 28.7868C15.9865 30.2257 14.8424 31.1251 12.3747 31.1251H0.0464062C-0.0154688 31.1251 -0.0154688 30.9451 0.0464062 30.9451C1.27482 30.1163 2.40535 29.1508 3.41634 28.0674C4.00699 27.3979 4.72782 26.8558 5.53485 26.4741C6.34189 26.0924 7.21822 25.8791 8.11041 25.8472L8.11097 25.8399ZM92.7644 25.8399H105.703C105.765 25.8399 105.765 25.8956 105.703 26.0199C104.198 26.7118 102.153 28.7868 102.153 28.7868C100.648 30.2257 99.5043 31.1251 97.0979 31.1251H84.7702C84.7077 31.1251 84.7077 30.9451 84.7702 30.9451C85.9984 30.1162 87.1287 29.1508 88.1395 28.0674C88.7172 27.3983 89.4268 26.8557 90.2238 26.4737C91.0209 26.0917 91.8883 25.8784 92.7717 25.8472L92.7644 25.8399ZM29.2998 25.8399H42.176C42.356 25.8399 42.356 25.8956 42.176 26.0199C40.877 26.7834 39.6836 27.7136 38.626 28.7868C37.1838 30.2257 36.0397 31.1251 33.5782 31.1251H21.2847C21.1042 31.1251 21.1042 30.9451 21.229 30.9451C22.4561 30.1145 23.5864 29.1492 24.599 28.0674C25.1896 27.3956 25.9112 26.8516 26.7195 26.4686C27.5278 26.0855 28.4059 25.8716 29.2998 25.8399ZM50.4065 25.8399H63.2753C63.4553 25.8399 63.4553 25.8956 63.2753 26.0199C61.9764 26.7834 60.7829 27.7136 59.7254 28.7868C58.2832 30.2257 57.139 31.1251 54.7332 31.1251H42.4741C42.4117 31.1251 42.4117 30.9451 42.4117 30.9451C43.6523 30.1325 44.7847 29.1655 45.7816 28.0674C46.3602 27.3996 47.07 26.858 47.8667 26.4761C48.6635 26.0941 49.5303 25.8801 50.4132 25.8472L50.4065 25.8399ZM71.5958 25.8399H84.5272C84.5896 25.8399 84.5896 25.8956 84.472 26.0199C83.0225 26.7118 80.9215 28.7868 80.9215 28.7868C79.4725 30.2257 78.3352 31.1251 75.9226 31.1251H63.5875C63.5251 31.1251 63.5251 30.9451 63.5875 30.9451C64.8143 30.1143 65.9444 29.1491 66.9569 28.0674C67.5298 27.3905 68.2392 26.8422 69.0386 26.4584C69.838 26.0745 70.7094 25.8638 71.5958 25.8399ZM75.139 0.750122C67.0126 0.750122 61.5974 4.94918 61.5974 11.3133C61.5974 17.1931 66.5896 21.0952 73.9325 21.0952C76.2931 21.0976 78.6427 20.7739 80.9148 20.1333V15.2907C80.1656 16.1642 79.231 16.8596 78.1791 17.3263C77.1272 17.793 75.9845 18.0192 74.8342 17.9885C70.445 18.0093 67.4356 15.0972 67.4356 10.8914C67.4356 6.68562 70.5074 3.74543 74.896 3.74543C75.9679 3.73222 77.0305 3.94465 78.0149 4.36892C78.9993 4.79319 79.8835 5.4198 80.6099 6.20806V1.22768C78.8007 0.932622 76.972 0.772992 75.139 0.750122ZM14.4273 4.22975C17.4367 4.22975 21.049 4.83162 22.5537 6.0905V1.40712H1.19053V6.0905C2.69522 4.83162 5.94703 4.29219 9.37266 4.29219V17.0756C9.37266 18.9363 9.19265 19.4757 8.47097 20.4376H15.3284C14.5448 19.4757 14.4273 18.9363 14.4273 17.0756V4.22975ZM36.2686 8.78825C35.062 9.27256 32.8013 9.32825 31.6988 9.32825H29.8893V4.29219H32.2951C34.4658 4.29219 38.1957 4.76918 39.5755 6.02806V1.47012H23.9954C24.779 2.36956 24.8971 2.97143 24.8971 4.76975V17.0761C24.8971 18.9369 24.7165 19.4763 24.0511 20.4382H40.6021V15.7548C38.3138 17.4986 33.9803 17.4986 32.24 17.4986H29.8342V12.1509H31.5745C33.1585 12.1503 34.7358 12.3528 36.2686 12.7527V8.78825ZM59.3716 2.099C56.7225 1.27333 53.9648 0.848996 51.19 0.840122C46.676 0.840122 42.2868 2.28575 42.2868 7.06587C42.2868 15.3667 55.8217 10.9674 55.8217 16.0586C55.8217 17.7399 53.4153 18.4042 51.4325 18.4042C48.2598 18.5447 45.1289 17.6378 42.5225 15.8234V20.0157C45.3304 20.8701 48.2555 21.2763 51.19 21.2195C55.8841 21.2195 60.2035 19.8357 60.2035 14.9932C60.2035 6.29131 46.7243 10.1928 46.7243 6.0005C46.7243 4.25731 48.8877 3.65544 50.8154 3.65544C54.0048 3.65544 57.4304 4.61731 59.2951 6.53993V2.099H59.3716ZM94.1515 1.04768C86.8711 1.04768 81.6359 5.24675 81.6359 11.189C81.6359 17.1307 86.33 20.873 93.125 20.873C100.53 20.873 105.606 16.7853 105.606 10.7874C105.668 4.96269 100.974 1.06175 94.1167 1.06175L94.1515 1.04768ZM93.6661 18.0093C89.755 18.0093 87.2941 14.8272 87.2941 10.9257C87.2941 7.02425 89.755 3.84219 93.6661 3.84219C97.5766 3.84219 100.045 7.02425 100.045 10.9257C100.045 14.8272 97.4585 18.0093 93.6661 18.0093Z" fill="white"></path>
</svg>
