<?xml version="1.0" encoding="UTF-8"?>
<svg xmlns="http://www.w3.org/2000/svg" width="68" height="44" viewBox="0 0 68 44" fill="none">
  <path fill-rule="evenodd" clip-rule="evenodd" d="M61.5505 0.00306819C58.6885 0.00306819 56.3255 2.08601 56.3255 2.08601H56.2822C56.2822 2.08601 53.8758 0.00306819 51.0577 0.00306819C50.321 -0.0218381 49.5871 0.105106 48.9016 0.376005C48.2141 0.647937 47.5895 1.05758 47.0662 1.57975C46.5402 2.10439 46.126 2.73008 45.8483 3.41913C45.5699 4.10993 45.4332 4.84963 45.4462 5.59432C45.4462 9.097 48.0775 12.5361 50.2032 14.3603C51.6518 15.6495 53.2716 16.7324 55.0165 17.5784C55.4097 17.7809 55.8299 17.9254 56.2636 18.0076H56.3069C56.7486 17.9558 57.174 17.8094 57.554 17.5784C59.2897 16.7197 60.9057 15.6378 62.3611 14.3603C64.4868 12.5553 67.1243 9.097 67.1243 5.59432C67.1364 4.85292 67 4.11661 66.7233 3.42869C66.4478 2.74284 66.0368 2.11955 65.515 1.59607C64.996 1.07459 64.3763 0.664093 63.6937 0.389506C63.0131 0.11588 62.2838 -0.0156287 61.5505 0.00306819ZM63.6824 4.64144C63.1546 6.81702 62.86 9.04264 62.8038 11.2806V11.3751H49.8539V11.2806C49.7725 9.04469 49.4783 6.82159 48.9753 4.64144V4.54694L50.5463 4.02944L51.2444 3.84044C52.2631 3.57544 53.3094 3.43138 54.3618 3.41125C55.0409 3.38141 55.7187 3.49527 56.3508 3.74538C56.9827 3.49451 57.6606 3.38063 58.3398 3.41125C59.3917 3.43094 60.4379 3.57494 61.4566 3.84044L62.149 4.02944L63.7201 4.54694L63.6824 4.64144ZM41.1633 41.654C42.4599 42.8847 45.278 43.8753 48.3267 43.8753V43.8635C53.5079 43.8635 56.6501 41.5471 56.6996 37.42C56.6996 32.4557 52.1363 31.8871 48.2348 31.401C45.3218 31.0381 42.7777 30.7211 42.7777 28.6546C42.7777 27.3923 44.1243 25.499 48.0961 25.499C51.4256 25.499 54.2932 27.6196 54.6172 30.1435H55.5403V24.9246H54.1998V25.9968C52.3596 24.8801 50.2487 24.2887 48.0961 24.2868C42.7777 24.2868 40.1469 27.0571 40.1469 30.2121C40.1469 35.2314 44.5913 35.7537 48.4735 36.2099C51.4837 36.5637 54.1559 36.8778 54.1559 39.2178C54.1559 40.543 53.1086 42.626 48.7441 42.626C44.1682 42.626 41.5807 40.3979 40.8826 37.0848H39.8229V43.2633H41.1633V41.654ZM61.5067 8.52889V8.05527L60.9644 7.9107C61.1999 6.70069 61.7776 5.58363 62.6289 4.69208H62.6474L63.0221 4.83102C62.4132 6.76545 62.0713 8.77392 62.0056 10.8008H50.4091C50.3435 8.77392 50.0015 6.76545 49.3927 4.83102L49.7606 4.69208H49.8106C50.6619 5.58363 51.2396 6.70069 51.4751 7.9107L50.9638 8.05583V8.52889L51.101 8.48501C52.0625 8.19405 53.0584 8.03269 54.0626 8.0052C54.6124 7.99607 55.16 8.07702 55.6837 8.24483C55.8636 8.29797 56.034 8.37902 56.1888 8.48501L56.2383 8.52889L56.2822 8.48501C56.4384 8.3777 56.6111 8.29658 56.7935 8.24483C57.3139 8.07292 57.86 7.99186 58.4079 8.0052C59.412 8.03264 60.408 8.19401 61.3694 8.48501L61.5067 8.52889ZM11.1557 25.6373C14.853 25.6373 17.0288 28.906 17.0288 31.7967V31.822L17.0726 36.9396C17.0726 40.1138 14.2044 42.3857 11.2929 42.3857C7.59562 42.3857 5.28262 39.5901 5.28262 34.4725C5.28262 28.2878 7.45838 25.6373 11.1557 25.6373ZM17.0288 43.6418C19.0023 43.3578 20.9954 43.2312 22.989 43.2632H24.5977V41.938H21.5985V15.307C19.5853 15.7935 17.5209 16.0304 15.4515 16.0135H13.8304V17.3449H17.0659V27.4924C16.3406 26.5172 15.3988 25.7237 14.3147 25.1744C13.235 24.627 12.0421 24.3404 10.8317 24.3374C4.07944 24.3374 0.75 29.55 0.75 34.2891C0.75 39.0287 3.75487 43.8122 10.4638 43.8122C11.7299 43.8643 12.9893 43.6043 14.1313 43.0551C15.2778 42.503 16.2723 41.6798 17.0288 40.6566V43.6418ZM37.3727 13.4074C37.3727 14.7389 38.7131 15.4454 40.0097 15.4454C41.2567 15.4454 42.8711 14.7833 42.8711 13.0789C42.8711 10.7569 40.1407 9.38104 37.6466 9.38104C33.6754 9.38104 29.3734 11.7537 29.3734 20.046V24.9747H25.7633V26.3567H29.3734V41.9127H25.9944V43.2379H37.7901V41.862H33.906V26.2746H37.9712V24.8987H33.906V16.0641C33.906 12.0377 35.6143 10.4222 37.6033 10.4222C38.6631 10.4222 39.0371 10.9459 39.0371 11.1349C39.0371 11.2419 38.8669 11.358 38.6354 11.5159C38.1429 11.8517 37.3727 12.377 37.3727 13.4074ZM56.2383 7.70869C55.7389 7.50234 55.2011 7.40547 54.6611 7.42462C53.8683 7.42499 53.0795 7.53555 52.3172 7.75312C52.0067 6.55874 51.3823 5.46919 50.5087 4.5975C51.5067 4.336 52.5322 4.19401 53.5637 4.1745C54.2526 4.15212 54.9402 4.2482 55.5965 4.45856C55.818 4.53985 56.0276 4.65033 56.2198 4.78706L56.2637 4.83769L56.307 4.78706C56.4935 4.64093 56.7048 4.52964 56.9308 4.45856C57.5872 4.24819 58.2746 4.15256 58.9631 4.17506C59.9943 4.197 61.0195 4.33857 62.018 4.59694C61.136 5.46204 60.5104 6.55414 60.2102 7.75256C59.4272 7.54111 58.6204 7.4309 57.8094 7.42462C57.2717 7.4092 56.7366 7.50594 56.2383 7.70869Z" fill="white"></path>
</svg>
