<?xml version="1.0" encoding="UTF-8"?>
<svg xmlns="http://www.w3.org/2000/svg" width="136" height="32" viewBox="0 0 136 32" fill="none">
  <path fill-rule="evenodd" clip-rule="evenodd" d="M0.149749 29.6609H127.695C127.832 29.6609 127.9 29.6609 127.9 29.5242L127.911 29.4745C128.112 28.6094 128.313 27.739 128.58 26.8681C128.787 26.0057 129.011 25.1432 129.235 24.2814C129.454 23.4383 129.672 22.5959 129.875 21.755C130.42 19.6389 130.964 17.4547 131.441 15.3453C131.751 13.9782 132.118 12.6111 132.484 11.244L132.485 11.2429L132.593 10.8397C132.727 10.2283 132.879 9.64092 133.031 9.05538C133.187 8.45254 133.343 7.85163 133.478 7.22843C133.65 6.46953 133.839 5.71063 134.029 4.9526L134.029 4.95118L134.029 4.94981L134.03 4.94848C134.215 4.20774 134.4 3.46783 134.568 2.72956C134.637 2.45097 134.707 2.15435 134.777 1.85804L134.777 1.85581L134.777 1.85568C134.844 1.57244 134.91 1.28951 134.977 1.02293C134.977 0.994777 134.988 0.966618 135.002 0.9336C135.021 0.88681 135.045 0.83026 135.045 0.750122H135.125V0.88681L134.308 4.97618C134.176 5.70385 134.026 6.43138 133.877 7.15814C133.718 7.93139 133.559 8.70377 133.422 9.4745C133.286 10.1571 133.15 10.8227 133.014 11.4882L133.012 11.4965L133.012 11.497C132.876 12.1597 132.741 12.8224 132.605 13.502C132.516 13.9335 132.439 14.3549 132.363 14.773C132.27 15.2809 132.178 15.7839 132.066 16.2942C131.966 16.7523 131.865 17.2553 131.764 17.762L131.764 17.7633C131.659 18.286 131.554 18.8126 131.447 19.298L130.828 22.4007C130.686 23.0763 130.543 23.7725 130.4 24.4686L130.399 24.4736C130.27 25.1053 130.14 25.7371 130.011 26.3534C129.68 27.8914 129.385 29.4368 129.125 30.9884C129.125 31.1251 129.057 31.1251 128.921 31.1251H126.444C125.563 31.1251 124.697 31.1081 123.83 31.0911L123.83 31.0911C122.962 31.0741 122.093 31.0571 121.207 31.0571C119.746 31.0571 118.283 31.0399 116.82 31.0228L116.82 31.0227C115.357 31.0056 113.894 30.9884 112.433 30.9884C111.65 30.9884 110.867 30.9714 110.083 30.9544C109.3 30.9374 108.517 30.9204 107.733 30.9204C106.741 30.9204 105.747 30.9031 104.762 30.8859C103.791 30.8691 102.829 30.8523 101.883 30.8523C100.641 30.8523 99.414 30.8351 98.1897 30.8179H98.1895H98.1893H98.1891C96.971 30.8008 95.756 30.7837 94.5333 30.7837C93.5498 30.7837 92.5647 30.7667 91.5788 30.7497C90.5912 30.7327 89.6027 30.7156 88.6141 30.7156C87.6268 30.7156 86.658 30.6986 85.6892 30.6816L85.689 30.6816H85.6889H85.6888H85.6886C84.7197 30.6646 83.7507 30.6476 82.763 30.6476C81.5249 30.6476 80.3178 30.6476 79.0916 30.5789C77.7048 30.5789 76.321 30.5621 74.9281 30.5452H74.928H74.9279H74.9278C73.5163 30.5281 72.0954 30.5109 70.6524 30.5109C69.6309 30.5109 68.6111 30.4939 67.5911 30.4768C66.571 30.4598 65.5508 30.4428 64.529 30.4428C63.2353 30.4428 61.9409 30.4428 60.5853 30.3742C59.4608 30.3742 58.3534 30.3571 57.2468 30.3401L57.2465 30.3401H57.2464H57.2464H57.2463C56.1412 30.3231 55.0368 30.3061 53.9169 30.3061C52.7593 30.3061 51.6697 30.3061 50.5115 30.2375C49.0513 30.2375 47.6064 30.2205 46.1608 30.2035C44.7135 30.1865 43.2654 30.1694 41.8001 30.1694C40.6813 30.1694 39.5438 30.1525 38.4048 30.1355L38.4045 30.1355H38.4044H38.4043H38.4043C37.2619 30.1184 36.1178 30.1014 34.9893 30.1014C33.5615 30.1014 32.1168 30.0843 30.6697 30.0671C29.2177 30.05 27.7633 30.0327 26.3212 30.0327C25.5375 30.0327 24.7707 30.0157 24.0046 29.9987C23.2398 29.9817 22.4758 29.9647 21.6963 29.9647H21.6962C20.1358 29.9647 18.427 29.9647 16.7924 29.8966C15.3917 29.8966 13.9909 29.8793 12.5979 29.862C11.2203 29.845 9.85036 29.828 8.49556 29.828C7.47336 29.828 6.45117 29.811 5.42974 29.7939H5.42967H5.42959H5.42951L5.42925 29.7939C4.40939 29.7769 3.3903 29.7599 2.37275 29.7599H0.329187H0.329164C0.193054 29.7599 0.125 29.7599 0.125 29.6919L0.149749 29.6609ZM76.584 23.2501C76.645 23.0359 76.6925 22.823 76.7386 22.6163C76.7952 22.3622 76.8498 22.1175 76.9249 21.8917C77.0462 21.4354 77.154 20.9791 77.2605 20.5287L77.2605 20.5286L77.2605 20.5284L77.2606 20.5281C77.3929 19.9683 77.523 19.4178 77.6741 18.888L79.1102 13.1358C79.3761 11.9264 79.712 10.7165 80.0382 9.54141L80.0636 9.44977L80.2684 8.63696C80.3515 8.35704 80.3638 8.06087 80.3043 7.77501C80.2448 7.48914 80.1153 7.22249 79.9275 6.99896C79.9275 6.96455 79.9104 6.9474 79.8847 6.92169C79.8592 6.89612 79.8253 6.86209 79.7914 6.79421H88.9055C89.6683 6.77177 90.4225 6.9606 91.0847 7.33983C91.5993 7.63111 92.0432 8.03251 92.3846 8.51531C92.726 8.99811 92.9565 9.55039 93.0596 10.1326C93.2182 10.9959 93.1716 11.8844 92.9235 12.7263C92.7959 13.2383 92.6683 13.7653 92.5406 14.2925C92.3959 14.8901 92.2511 15.488 92.1062 16.0648C91.8378 17.1335 91.4965 18.1826 91.0847 19.2046C90.826 20.0009 90.4347 20.7478 89.927 21.4136C89.3797 22.1029 88.6472 22.6219 87.8154 22.9098C87.1182 23.1562 86.3816 23.2717 85.6425 23.2507L76.584 23.2501ZM83.7294 9.59883C83.7643 9.67365 83.8104 9.74227 83.8655 9.80358C83.9382 9.89981 83.9882 10.0112 84.0118 10.1294C84.0353 10.2477 84.0319 10.3697 84.0017 10.4865L83.3824 12.9682L83.3737 13.0012L83.3736 13.0017C83.0362 14.2876 82.6988 15.5735 82.4289 16.8528C82.2934 17.3967 82.1577 17.9574 82.022 18.5182L82.022 18.5184C81.8851 19.0838 81.7483 19.6493 81.6116 20.1975V20.4022H84.4719C84.8139 20.4135 85.1565 20.391 85.494 20.3341C85.7313 20.3184 85.963 20.2554 86.1756 20.1489C86.3883 20.0424 86.5774 19.8944 86.732 19.7137C87.0881 19.2829 87.3213 18.7641 87.407 18.2118C87.535 17.6986 87.6629 17.1704 87.7909 16.642L87.791 16.6416L87.7913 16.64L87.7917 16.6385L87.7917 16.6384C87.9359 16.0434 88.08 15.4481 88.2244 14.8734C88.2924 14.5322 88.3775 14.1909 88.4626 13.8496C88.5477 13.5083 88.6327 13.1671 88.7008 12.8259C88.847 12.287 88.9607 11.7403 89.0417 11.1873C89.0876 10.9566 89.0671 10.7175 88.9827 10.4979C88.8983 10.2783 88.7533 10.0871 88.5647 9.94646C88.1503 9.64762 87.6446 9.50279 87.1348 9.53696H84.144C84.0697 9.61121 83.9336 9.61121 83.7356 9.61121L83.7294 9.59883ZM67.267 13.352C67.2429 13.1321 67.1565 12.9236 67.0181 12.7511C67.0564 12.7342 67.0888 12.7062 67.1109 12.6707H70.0337C70.7829 12.6707 71.0552 13.0802 70.919 13.7625V13.8311C70.8345 14.1907 70.7566 14.5496 70.6791 14.9063L70.6789 14.9072C70.5065 15.7014 70.3365 16.4843 70.1017 17.2376C69.7608 18.33 69.4886 19.4904 69.2163 20.6508C69.1281 20.9942 69.0409 21.3257 68.9543 21.6547L68.9533 21.6584L68.9528 21.6605C68.8334 22.1143 68.7151 22.5636 68.597 23.0336C68.529 23.1697 68.597 23.1697 68.7332 23.1697H72.1385C72.2747 23.1697 72.3427 23.1697 72.3427 23.0336L73.16 19.7632C73.4334 18.7021 73.688 17.6425 73.9426 16.583C74.1958 15.5296 74.4489 14.4763 74.7204 13.4216C74.7998 12.9935 74.8453 12.5597 74.8565 12.1245C74.8626 11.7827 74.7701 11.4465 74.59 11.156C74.41 10.8655 74.15 10.633 73.8412 10.4865C73.3886 10.2975 72.9017 10.2044 72.4113 10.2131H68.3248C68.1788 10.2131 68.1109 10.2131 68.0899 10.1817C68.0716 10.1544 68.0887 10.1035 68.1206 10.0083L68.7393 7.55752C68.7517 7.32465 68.7979 7.09459 68.8755 6.87465H64.2258C64.2519 6.90096 64.278 6.91718 64.3003 6.93102C64.3361 6.95328 64.362 6.96937 64.362 7.01134C64.5498 7.23489 64.6792 7.50154 64.7387 7.7874C64.7982 8.07326 64.7859 8.36941 64.7028 8.64934C64.2246 10.4844 63.7704 12.3256 63.3405 14.1725C63.1384 15.0475 62.9194 15.9074 62.7004 16.768L62.7003 16.7683L62.7002 16.7686C62.4767 17.6467 62.2529 18.5256 62.0467 19.4218C61.905 20.0386 61.7407 20.6747 61.577 21.3087C61.4327 21.8674 61.2889 22.4245 61.1613 22.965C61.0989 23.2383 61.1613 23.2383 61.3655 23.2383H64.6348C64.7709 23.2383 64.839 23.1697 64.907 23.0336C64.9751 22.7945 65.0261 22.5571 65.0772 22.3198C65.1282 22.0824 65.1793 21.845 65.2473 21.606C65.5202 20.3088 65.8667 18.9195 66.2008 17.7157C66.372 17.0997 66.5285 16.4644 66.686 15.8246L66.6861 15.8243C66.8366 15.2135 66.988 14.5986 67.1542 13.9925C67.252 13.7941 67.2911 13.5719 67.267 13.352ZM115.419 12.2489C115.383 12.4107 115.348 12.5725 115.312 12.7511C115.436 12.7441 115.559 12.7745 115.665 12.8383H120.494C120.656 12.8276 120.819 12.8501 120.971 12.9063C121.105 12.9394 121.221 13.0217 121.297 13.1367C121.373 13.2517 121.402 13.391 121.38 13.5268C121.368 13.782 121.322 14.0345 121.244 14.2777C121.176 14.4144 121.108 14.4825 120.971 14.4825H118.39C117.577 14.4796 116.771 14.6182 116.006 14.892C114.992 15.2289 114.142 15.9328 113.622 16.8652C113.297 17.4865 113.069 18.1541 112.947 18.8447C112.811 19.3823 112.811 19.9455 112.947 20.4832C113.172 21.272 113.643 21.9684 114.292 22.4711C114.94 22.9736 115.731 23.2555 116.551 23.2755H122.445C122.649 23.2755 122.717 23.2074 122.717 23.0707C122.798 22.5429 122.912 22.0206 123.058 21.507C123.132 21.2049 123.203 20.9113 123.273 20.6212L123.273 20.6207L123.274 20.6195C123.492 19.7184 123.703 18.8512 123.955 17.8704C124.113 17.2577 124.259 16.6466 124.404 16.0355L124.404 16.0348L124.405 16.0341C124.567 15.3519 124.729 14.6698 124.909 13.9858C124.94 13.7698 124.984 13.5538 125.03 13.3315L125.03 13.3312C125.086 13.0619 125.144 12.7833 125.181 12.4839C125.219 12.2034 125.196 11.9181 125.114 11.6472C125.032 11.3764 124.892 11.1265 124.705 10.9145C124.393 10.5917 123.988 10.3747 123.547 10.2941C122.981 10.2367 122.413 10.2142 121.844 10.2255H116.129C115.993 10.2255 115.925 10.2255 115.857 10.4302C115.768 10.8909 115.654 11.3471 115.516 11.7954C115.484 11.9545 115.452 12.1011 115.419 12.2476L115.419 12.2489ZM117.968 16.7724H120.538C120.499 16.8506 120.482 16.9291 120.464 17.0122C120.451 17.0738 120.438 17.138 120.414 17.2066C120.278 17.6846 120.158 18.1798 120.039 18.6751L120.039 18.6752L120.039 18.6756C119.92 19.17 119.801 19.6644 119.665 20.1418C119.597 20.2785 119.535 20.3465 119.399 20.3465H117.355C117.055 20.3398 116.758 20.2942 116.47 20.2098C116.262 20.156 116.08 20.0308 115.956 19.8561C115.831 19.6815 115.772 19.4685 115.789 19.2547C115.772 18.5702 116.015 17.9047 116.47 17.3928C116.666 17.1957 116.9 17.0395 117.157 16.933C117.414 16.8265 117.69 16.7719 117.968 16.7724ZM94.9535 12.1939C94.9083 12.3596 94.863 12.5255 94.818 12.7511C94.98 12.738 95.1431 12.7507 95.3011 12.7888H100.199C100.811 12.7888 101.152 13.1297 101.016 13.8125C101.016 13.9487 101.016 14.0173 100.948 14.222C100.879 14.4268 100.743 14.4268 100.607 14.4268H98.0934C97.2811 14.4239 96.4744 14.5625 95.7095 14.8363C94.8018 15.1872 94.0209 15.8035 93.4685 16.6048C93.0242 17.2629 92.7221 18.0071 92.5832 18.789C92.4009 19.4629 92.4246 20.1761 92.6512 20.8365C92.9169 21.5487 93.3889 22.1656 94.0068 22.6083C94.6242 23.0504 95.3595 23.2978 96.1185 23.3188H102.044C102.18 23.3188 102.248 23.2507 102.316 23.114C102.354 22.8838 102.414 22.677 102.471 22.4795C102.516 22.3257 102.559 22.1776 102.588 22.0284C102.752 21.2116 102.958 20.3951 103.173 19.5442C103.227 19.328 103.282 19.1097 103.338 18.8885C103.47 18.357 103.603 17.8094 103.735 17.262L103.736 17.259C103.876 16.6824 104.015 16.1062 104.155 15.5495C104.22 15.2546 104.286 14.9769 104.351 14.6992L104.351 14.6982L104.352 14.6979C104.422 14.3977 104.493 14.0975 104.564 13.7754C104.699 13.2393 104.767 12.6892 104.768 12.1368C104.773 11.7569 104.655 11.3855 104.432 11.078C104.209 10.7705 103.892 10.5433 103.529 10.4302C103.111 10.2958 102.675 10.2267 102.236 10.2255H95.7034C95.4992 10.2255 95.4311 10.2941 95.363 10.4988C95.282 10.9837 95.1684 11.4624 95.0227 11.9321C94.9997 12.0246 94.9766 12.1092 94.9535 12.1939ZM96.2484 17.1138C96.6222 16.8369 97.0777 16.6926 97.5427 16.7038H99.7218C99.9941 16.7038 99.9941 16.7038 99.926 16.9766C99.868 17.2389 99.7975 17.5135 99.7252 17.7951L99.7252 17.7953C99.628 18.1738 99.5276 18.5651 99.4496 18.9566C99.4205 19.1022 99.3791 19.2603 99.3358 19.4254C99.2777 19.6474 99.2161 19.8822 99.1768 20.117C99.1768 20.1851 99.1087 20.2537 98.9726 20.2537H96.8615C96.5325 20.2582 96.2062 20.1885 95.9081 20.049C95.7373 19.9746 95.5934 19.8496 95.4959 19.6909C95.3984 19.5322 95.3521 19.3473 95.363 19.1613C95.3494 18.7757 95.4218 18.392 95.575 18.0378C95.7281 17.6837 95.9582 17.368 96.2484 17.1138ZM5.00338 23.752C4.98649 23.8367 4.96961 23.9214 4.9361 23.9893L4.94228 23.9955C5.26836 23.9361 5.58773 23.8445 5.89572 23.7221C6.66387 23.4717 7.4556 23.2257 8.24162 22.9815L8.24192 22.9814L8.24233 22.9812C8.7805 22.814 9.31599 22.6476 9.83941 22.4812C10.3028 22.342 10.7963 22.1778 11.2906 22.0134C11.7208 21.8703 12.1516 21.727 12.5636 21.5998C13.256 21.3917 13.9484 21.166 14.6398 20.9406L14.64 20.9405C15.3091 20.7224 15.9774 20.5046 16.644 20.3032C17.8686 19.9739 19.0387 19.4679 20.1174 18.8013C20.8102 18.4023 21.3948 17.8398 21.8201 17.1628C22.1336 16.5765 22.359 15.9473 22.4889 15.2953C22.586 14.857 22.6918 14.4289 22.797 14.0032L22.7971 14.0032L22.7971 14.003L22.7971 14.0029C22.9868 13.2356 23.1745 12.4759 23.3062 11.6778C23.4721 10.6678 23.2793 9.63162 22.7612 8.7489C22.514 8.24118 22.152 7.79798 21.7039 7.45441C21.2557 7.11084 20.7338 6.87633 20.1793 6.76946C19.2995 6.64457 18.4082 6.62154 17.5232 6.70084C17.4879 6.70379 17.4549 6.71916 17.43 6.74419C17.4051 6.76923 17.3898 6.8023 17.387 6.83752C17.3527 6.94308 17.3355 7.04708 17.3185 7.15031C17.3015 7.25338 17.2846 7.35567 17.2509 7.45796C17.1828 7.76818 17.0976 8.07854 17.0124 8.3889C16.9272 8.69926 16.842 9.00962 16.7739 9.31984C16.7739 9.41819 16.7739 9.46783 16.7987 9.49288C16.824 9.5184 16.875 9.5184 16.9781 9.5184H17.7768C18.0138 9.50793 18.2499 9.55422 18.4653 9.6534C18.7902 9.80392 19.0504 10.0657 19.199 10.3914C19.3475 10.7171 19.3746 11.0853 19.2753 11.4292L18.656 14.0915C18.5424 14.6361 18.31 15.1489 17.9754 15.5934C17.5496 16.0468 17.0079 16.3752 16.4088 16.5429C15.5203 16.8565 14.5842 17.1633 13.6534 17.4683L13.6527 17.4685C13.3316 17.5738 13.0112 17.6788 12.6935 17.7838C11.6302 18.1035 10.587 18.4399 9.54299 18.7767L9.5428 18.7767C8.58095 19.0869 7.6184 19.3974 6.63878 19.6952C6.42096 19.7256 6.22045 19.8307 6.07142 19.9925C5.92239 20.1542 5.83405 20.3626 5.82147 20.5822C5.62072 21.586 5.35507 22.5184 5.08816 23.4552L5.07222 23.5111C5.03767 23.58 5.02052 23.666 5.00338 23.752ZM48.5486 20.7001C48.5657 20.5961 48.5827 20.493 48.617 20.3898C48.4809 20.3898 48.4438 20.3898 48.3633 20.3094H43.8746C43.5095 20.3229 43.1445 20.2998 42.7845 20.2408C42.4622 20.2233 42.1573 20.0867 41.9289 19.8577C41.7005 19.6288 41.5644 19.3233 41.5464 18.9999C41.5441 18.4027 41.6106 17.8072 41.7444 17.2252C41.7472 17.1899 41.7625 17.1567 41.7877 17.1318C41.8125 17.1068 41.8454 17.0914 41.8805 17.0885H49.1621C49.2982 17.0885 49.3663 17.0205 49.4343 16.8157L49.8427 15.1839C50.093 14.2874 50.0693 13.3365 49.7747 12.4535C49.6112 11.879 49.2883 11.3624 48.8434 10.9637C48.3985 10.5651 47.8498 10.3005 47.2608 10.2007C46.2214 10.0757 45.1722 10.0529 44.1283 10.1327C43.7841 10.1445 43.442 10.1903 43.1068 10.2693C41.9133 10.4464 40.8255 11.0533 40.0479 11.976C39.457 12.751 39.0181 13.6309 38.7542 14.5691C38.7182 14.713 38.6823 14.8546 38.6467 14.9947C38.4798 15.6524 38.3213 16.2768 38.2091 16.9524C38.0004 17.9761 38.0004 19.0314 38.2091 20.0551C38.2934 20.565 38.4821 21.0519 38.7633 21.4853C39.0446 21.9188 39.4124 22.2894 39.8437 22.574C40.649 23.0371 41.5648 23.2731 42.4937 23.2569H47.8059C47.8336 23.2612 47.862 23.2589 47.8886 23.2502C47.9291 23.237 47.9636 23.2099 47.9859 23.1736C48.0081 23.1373 48.0167 23.0942 48.0101 23.0522C48.0773 22.718 48.1598 22.3824 48.2424 22.0461L48.2424 22.046L48.2425 22.0459C48.3271 21.7013 48.412 21.3558 48.4809 21.0103C48.5147 20.9056 48.5317 20.8025 48.5486 20.7001ZM46.6916 15.0039H42.3575C42.3837 14.8143 42.4401 14.6295 42.5246 14.4577C42.6312 14.1054 42.7678 13.7629 42.933 13.434C43.0553 13.2054 43.2326 13.0108 43.4488 12.8677C43.665 12.7247 43.9134 12.6376 44.1716 12.6144C44.6475 12.5807 45.1256 12.5807 45.602 12.6144C45.98 12.6358 46.335 12.8045 46.5898 13.0858C46.8447 13.367 46.979 13.737 46.9638 14.1163C46.9638 14.2187 46.9468 14.3382 46.9298 14.4577C46.9128 14.5772 46.8958 14.6968 46.8958 14.7991C46.8997 14.8269 46.8974 14.8551 46.889 14.8818C46.8761 14.9224 46.8491 14.957 46.8129 14.9794C46.7767 15.0018 46.7337 15.0105 46.6916 15.0039ZM41.6763 9.6112H36.7229C36.7569 9.64544 36.7739 9.67954 36.7908 9.71357C36.8079 9.74774 36.8249 9.78184 36.859 9.81595C36.9295 9.90106 36.9786 10.0017 37.0024 10.1096C37.0261 10.2175 37.0239 10.3295 36.9957 10.4364C36.791 11.2221 36.6035 12.0079 36.4161 12.7937C36.2289 13.5779 36.0418 14.3623 35.8375 15.1468C35.6679 15.823 35.4984 16.5282 35.3301 17.2278L35.3298 17.229L35.3294 17.2308C35.2278 17.6534 35.1267 18.0739 35.0264 18.4846C34.8547 19.2425 34.6655 19.9829 34.4764 20.7227L34.4763 20.723C34.2908 21.4491 34.1054 22.1746 33.9368 22.9154C33.8688 23.1202 33.8007 23.1888 33.5965 23.1888H29.578C29.6092 23.0948 29.6261 23.0009 29.6418 22.9136L29.6418 22.9136C29.6604 22.8103 29.6773 22.7164 29.7141 22.6426C29.8323 22.1326 29.9506 21.6434 30.0701 21.1499L30.0701 21.1498L30.0702 21.1492C30.1571 20.7901 30.2445 20.4286 30.3329 20.0551C30.4672 19.5175 30.6014 18.9965 30.7356 18.4758L30.7357 18.4754C30.8742 17.9382 31.0125 17.4013 31.1508 16.8466C31.3155 16.1887 31.4803 15.5453 31.6451 14.9017L31.6455 14.9003L31.6455 14.9002C31.821 14.2151 31.9966 13.5296 32.1723 12.8259C32.3162 12.2848 32.4412 11.7438 32.5673 11.198L32.5673 11.1979C32.6798 10.7111 32.7932 10.2206 32.9215 9.72314C32.9896 9.58645 32.8535 9.51838 32.7854 9.51838H28.2966C28.1607 9.51838 28.0925 9.51838 28.0667 9.48531C28.0407 9.45202 28.0577 9.38523 28.0919 9.2512C28.2133 8.76552 28.3345 8.30397 28.457 7.83781C28.541 7.51789 28.6256 7.19581 28.7112 6.86226C28.7112 6.72613 28.7731 6.72614 28.9092 6.72614H42.2523C42.5245 6.72614 42.5245 6.72614 42.4565 6.99895C42.1334 7.84964 41.8727 8.72269 41.6763 9.6112ZM60.1206 20.3898C60.0865 20.5271 60.0523 20.647 60.0181 20.767C59.9842 20.8859 59.9503 21.0049 59.9165 21.1408C59.8484 21.4819 59.7633 21.8045 59.6783 22.1272L59.6782 22.1274C59.5932 22.4501 59.5081 22.7729 59.44 23.114C59.44 23.2507 59.3714 23.2507 59.2353 23.2507H54.6351C53.7296 23.2516 52.8471 22.9648 52.1151 22.4317C51.456 21.9421 50.977 21.2484 50.7528 20.4584C50.5 19.4438 50.4537 18.3886 50.6166 17.3557C50.782 16.0732 51.1263 14.8194 51.6387 13.6319C52.0494 12.4904 52.8643 11.5391 53.9292 10.9578C54.7251 10.5328 55.6091 10.2992 56.5111 10.2755H62.4983L62.2941 11.0945L62.2908 11.1077L62.2908 11.1078C62.1558 11.649 62.0208 12.1902 61.8852 12.6639C61.8852 12.8006 61.8171 12.8006 61.681 12.8006H57.8054C57.2787 12.7947 56.7603 12.9312 56.3048 13.1955C55.8492 13.4599 55.4735 13.8423 55.2173 14.3024C54.8178 15.0225 54.5435 15.8052 54.4062 16.6171L54.2015 18.2551C54.2137 18.6 54.2595 18.9429 54.3381 19.2789C54.4292 19.5883 54.6161 19.8608 54.872 20.0571C55.1278 20.2534 55.4394 20.3634 55.7618 20.3713C55.8569 20.3713 55.9519 20.3859 56.0536 20.4017C56.1709 20.4198 56.2972 20.4393 56.443 20.4393H59.6442C59.7995 20.3982 59.9602 20.3815 60.1206 20.3898ZM112.217 7.70657C112.182 7.91065 112.131 8.09769 112.08 8.28467C112.029 8.47288 111.978 8.66103 111.944 8.86645C111.91 9.0712 111.859 9.25739 111.808 9.44357C111.757 9.62976 111.706 9.81595 111.672 10.0207C111.603 10.1574 111.672 10.2254 111.808 10.2254H113.708C113.981 10.2254 113.981 10.2254 113.913 10.4988C113.845 10.8086 113.76 11.1184 113.675 11.4283L113.675 11.4285L113.675 11.4287C113.589 11.7393 113.504 12.0499 113.436 12.3607C113.3 12.7696 113.3 12.7696 112.897 12.7696H110.514C110.548 12.8039 110.565 12.838 110.582 12.872C110.599 12.9062 110.616 12.9403 110.65 12.9744C110.723 13.0833 110.774 13.2063 110.797 13.3356C110.82 13.4648 110.817 13.5976 110.786 13.7253L110.769 13.792C110.434 15.0667 110.1 16.335 109.833 17.6099C109.765 17.9511 109.679 18.2924 109.594 18.6336C109.509 18.975 109.424 19.3163 109.356 19.6574C109.361 19.6946 109.357 19.7324 109.346 19.7681C109.334 19.8037 109.314 19.8361 109.288 19.8628C109.264 19.936 109.259 20.0138 109.273 20.0895C109.286 20.1652 109.317 20.2365 109.364 20.2974C109.411 20.3584 109.472 20.4071 109.542 20.4394C109.611 20.4718 109.688 20.4868 109.765 20.4832H111.808C111.736 20.7043 111.69 20.9332 111.672 21.1655C111.603 21.5083 111.518 21.8323 111.432 22.1563C111.347 22.4776 111.263 22.799 111.195 23.1388C111.199 23.1666 111.197 23.1951 111.188 23.2219C111.179 23.2487 111.164 23.2731 111.145 23.2931C111.125 23.313 111.1 23.328 111.073 23.3368C111.047 23.3455 111.018 23.3478 110.99 23.3435H106.656C106.475 23.3544 106.294 23.3266 106.124 23.2621C105.954 23.1976 105.8 23.0979 105.672 22.9694C105.544 22.8409 105.445 22.6867 105.381 22.5169C105.317 22.3471 105.289 22.1656 105.301 21.9845C105.334 21.566 105.403 21.1509 105.505 20.7436C105.613 20.2716 105.741 19.7751 105.868 19.283L105.868 19.2828C105.98 18.8496 106.09 18.4198 106.186 18.0133C106.321 17.473 106.455 16.9259 106.589 16.377L106.589 16.3762C106.863 15.2611 107.138 14.1384 107.424 13.0492C107.424 12.9125 107.424 12.8444 107.288 12.8444H106.049C106.021 12.8488 105.993 12.8465 105.966 12.8377C105.939 12.8289 105.915 12.814 105.895 12.794C105.875 12.7741 105.86 12.7497 105.852 12.7229C105.843 12.696 105.841 12.6675 105.845 12.6397C105.947 12.2647 106.032 11.9067 106.117 11.5487L106.117 11.5486C106.203 11.1898 106.288 10.8311 106.39 10.4555C106.39 10.3188 106.458 10.3188 106.594 10.3188H107.832C108.037 10.3188 108.105 10.3188 108.105 10.1141C108.105 10.0013 108.126 9.92981 108.144 9.86559C108.16 9.81324 108.173 9.76571 108.173 9.70457C108.269 9.41597 108.288 9.10732 108.229 8.8091C108.169 8.51089 108.032 8.23343 107.832 8.00414C107.772 7.94753 107.725 7.87738 107.696 7.79938C109.176 7.70657 110.675 7.70657 112.217 7.70657ZM6.29782 18.6838C7.04708 15.6181 7.79633 12.6144 8.54558 9.6112H5.41245C5.20826 9.6112 5.1402 9.6112 5.20826 9.34457C5.41245 8.52557 5.61664 7.70657 5.82701 6.95563C5.82701 6.81895 5.89564 6.81895 6.03176 6.81895H6.03176H16.0926C16.2293 6.81895 16.2974 6.81895 16.2974 7.0237C16.1022 7.82287 15.8957 8.61926 15.6781 9.41264C15.61 9.54314 15.542 9.6112 15.4058 9.6112H12.217C12.251 9.71357 12.3021 9.78192 12.3531 9.85026C12.4042 9.9186 12.4552 9.98695 12.4893 10.0893C12.5228 10.1523 12.5404 10.2227 12.5404 10.2941C12.5404 10.3655 12.5228 10.4358 12.4893 10.4988C12.0809 12.2735 11.6039 14.1163 11.1275 15.8909C11.0585 16.1298 11.0069 16.3527 10.9551 16.5766L10.9551 16.5766C10.9045 16.7949 10.8538 17.0141 10.7866 17.2499C10.7866 17.318 10.6505 17.3866 10.5824 17.3866C10.3392 17.4671 10.0873 17.5476 9.83427 17.6284C9.44347 17.7533 9.04987 17.879 8.68114 18.0071L8.55415 18.0513C7.9711 18.2544 7.26839 18.4992 6.57008 18.6894L6.29782 18.6838ZM126.185 9.54314C126.006 9.55247 125.828 9.52641 125.66 9.46645C125.492 9.4065 125.337 9.31384 125.205 9.19382C124.938 8.95122 124.778 8.6126 124.76 8.2522C124.757 7.88433 124.897 7.52958 125.15 7.26237C125.403 6.99516 125.749 6.83624 126.117 6.81895C126.467 6.81758 126.805 6.95182 127.058 7.19358C127.312 7.43534 127.463 7.76589 127.478 8.11607C127.493 8.29621 127.471 8.47747 127.413 8.64857C127.354 8.81967 127.261 8.97694 127.14 9.11057C127.019 9.24435 126.871 9.35178 126.707 9.4262C126.543 9.50062 126.365 9.54042 126.185 9.54314ZM126.185 7.0237C125.891 7.03039 125.611 7.1459 125.398 7.34779C125.185 7.54968 125.055 7.82351 125.033 8.11607C125.023 8.26444 125.044 8.41314 125.095 8.55306C125.145 8.69298 125.223 8.82118 125.325 8.92982C125.426 9.03845 125.549 9.12523 125.685 9.18484C125.821 9.24446 125.968 9.27565 126.117 9.27651C126.411 9.27132 126.693 9.15647 126.907 8.95442C127.121 8.75237 127.252 8.47769 127.274 8.18414C127.282 7.8863 127.171 7.59751 126.967 7.38031C126.764 7.16311 126.482 7.03499 126.185 7.0237ZM125.838 8.86646V8.32083C126.048 8.25221 126.185 8.32083 126.172 8.46314L126.376 8.87265C126.444 9.00933 126.581 9.00933 126.717 8.94127L126.308 8.32027C126.342 8.32027 126.359 8.3034 126.376 8.28652C126.393 8.26964 126.41 8.25277 126.444 8.25277C126.649 8.18414 126.717 8.04746 126.717 7.77464C126.72 7.72927 126.713 7.68382 126.696 7.64133C126.673 7.57681 126.629 7.5217 126.571 7.48421C126.513 7.44671 126.445 7.42882 126.376 7.43321H125.565V8.93508C125.602 8.97227 125.65 8.99622 125.701 9.00314C125.737 9.00008 125.769 8.98468 125.794 8.95967C125.819 8.93465 125.835 8.90164 125.838 8.86646ZM126.308 8.04746H126.048C126.048 8.04746 125.918 8.04746 125.906 8.11608V7.70602C125.906 7.69711 125.907 7.6883 125.911 7.68009C125.914 7.67188 125.919 7.66444 125.926 7.65821C125.932 7.65184 125.939 7.64678 125.948 7.6433C125.956 7.63983 125.965 7.63801 125.974 7.63796H126.308C126.363 7.63796 126.415 7.65953 126.453 7.69793C126.491 7.73633 126.513 7.78841 126.513 7.84271C126.513 7.89701 126.491 7.94909 126.453 7.98749C126.415 8.02589 126.363 8.04746 126.308 8.04746Z" fill="white"></path>
</svg>
