<?xml version="1.0" encoding="UTF-8"?>
<svg xmlns="http://www.w3.org/2000/svg" width="94" height="27" viewBox="0 0 94 27" fill="none">
  <path d="M10.8027 25.9971H4.30586L0.255859 21.9471V4.05964L4.30586 0.00964355H10.8309L14.8809 4.05964V21.8909L10.8309 25.9971H10.8027ZM5.17773 21.6096H10.0152V4.39714H5.17773V21.6096ZM31.5027 25.9971H20.9277V0.00964355H31.5027L35.5527 4.05964V21.8909L31.5027 25.9971ZM25.7652 21.6096H30.7434V4.39714H25.7934V21.6096H25.7652ZM41.6277 25.9971V0.00964355H53.834V4.39714H46.4934V10.4159H52.6809V14.8034H46.4934V21.6659H53.8059V26.0534H41.6559L41.6277 25.9971ZM68.8527 25.9971H62.384L58.334 21.9471V4.05964L62.384 0.00964355H68.8527L72.9027 4.05964V21.8909L68.8527 25.9971ZM63.2277 21.6096H68.0652V4.39714H63.2277V21.6096ZM88.9902 25.9971L83.3652 10.4159L83.5902 25.9971H79.034V0.00964355H83.984L89.5527 15.5909H89.6652L89.4402 0.00964355H93.884V25.9971H88.9902Z" fill="white"></path>
</svg>
