<?xml version="1.0" encoding="UTF-8"?>
<svg xmlns="http://www.w3.org/2000/svg" width="80" height="54" viewBox="0 0 80 54" fill="none">
  <path fill-rule="evenodd" clip-rule="evenodd" d="M50.112 29.9379C50.112 26.8611 48.7642 25.5954 45.4454 25.5954H43.4401V36.81H45.4454C48.695 36.81 50.112 35.442 50.112 32.3651V29.9379ZM52.2899 29.9036V32.3314C52.2899 36.5709 50.0085 38.6904 45.5833 38.6567H41.2621V23.6126H45.5833C49.9741 23.6126 52.2899 25.7664 52.2899 29.9036ZM59.3769 32.4337L56.8186 31.3054C54.5371 30.2799 53.6383 29.0829 53.5691 27.1682C53.5691 24.6724 55.2285 23.4411 58.6164 23.4411C60.4485 23.4411 62.2113 23.6807 62.7648 23.8179L62.9032 23.8517V25.5954H62.73C62.0386 25.5268 60.2758 25.3564 58.7199 25.3564C56.646 25.3564 55.8163 25.8688 55.8163 27.1682C55.8163 28.1261 56.1273 28.7752 57.7518 29.493L60.3101 30.5876C62.5916 31.6131 63.5253 32.8438 63.5253 34.8615C63.5253 37.5626 61.7276 39.0324 58.4437 39.0324C56.6803 39.0324 54.7447 38.7934 54.1569 38.6224L54.0185 38.5881V36.8449L54.1912 36.8786C55.125 36.981 56.5768 37.1177 58.4088 37.1177C60.4141 37.1177 61.313 36.4342 61.313 34.8615C61.313 33.8355 61.0014 33.1515 59.3769 32.4337ZM33.8298 43.614L36.3881 44.7081C38.6353 45.6654 39.5336 46.8967 39.5336 49.0162C39.5336 51.7517 37.7707 53.1877 34.452 53.1877C32.6891 53.1877 30.753 52.9487 30.1651 52.7777L30.0273 52.7434V50.9996H30.2C31.1332 51.102 32.585 51.2387 34.4176 51.2387C36.4573 51.2387 37.3213 50.5552 37.3213 48.9825C37.3213 47.9565 37.0102 47.2725 35.3857 46.5547L32.8275 45.4264C30.5454 44.4347 29.6471 43.2382 29.6471 41.2892C29.6471 38.7934 31.3064 37.5621 34.6938 37.5621C36.4916 37.5621 38.3236 37.8017 38.8423 37.9389L38.9806 37.9727V39.7164H38.808C38.694 39.7089 38.5133 39.6931 38.2839 39.673C37.469 39.6018 36.0387 39.4768 34.7979 39.4768C32.7234 39.4768 31.8937 39.9898 31.8937 41.2892C31.8937 42.2466 32.2048 42.8962 33.8298 43.614ZM48.902 42.4176C50.112 41.6992 51.2184 41.3235 52.2899 41.3235C55.6436 41.3235 55.6436 43.8193 55.6087 45.3577V52.7434H53.4656V45.3577C53.4656 43.8193 53.4656 43.1016 51.9789 43.1016C51.3219 43.1016 50.3195 43.443 49.3863 43.956C49.4555 44.469 49.4555 44.982 49.4555 45.3921V52.7777H47.3118V45.3921C47.3118 43.8536 47.3118 43.1353 45.9984 43.1353C45.0995 43.1353 44.028 43.614 43.3018 44.0246V52.8114H41.193V41.5626H43.3018V42.2809C44.028 41.8365 45.0995 41.3235 46.4129 41.3235C47.5886 41.3235 48.3834 41.6655 48.902 42.4176ZM60.1031 52.8114H57.9594V41.5626H60.1031V52.8114ZM63.7672 38.7591H65.9103V38.7247H66.0144V41.5288H68.9529V43.3406H66.0144V50.0079C66.0144 51.2049 66.0487 51.273 66.9476 51.273C67.5354 51.273 68.3994 51.2387 68.7453 51.2049H68.918V52.7434L68.7796 52.7777C68.4686 52.8801 67.5697 53.0854 66.6708 53.0854C64.5277 53.0854 63.7672 52.3327 63.7672 50.1789V43.4092L61.5549 43.2382V41.5969H63.7672V38.7591ZM72.4443 42.1442C73.5508 41.5626 74.7258 41.3235 75.8666 41.3235C78.3905 41.3235 79.6005 42.7596 79.6348 45.7684V52.8801H77.4916V45.8027C77.4916 43.614 76.8346 43.2382 75.5555 43.2382C74.4491 43.2382 73.2391 43.614 72.4786 43.956V52.8801H70.3698V37.1863H72.4443V42.1442ZM3.44301 10.3461C1.81851 7.54256 0.884766 4.32899 0.884766 0.875244H20.0019C27.0282 0.875244 33.2315 4.64281 36.5247 10.2841C36.5254 10.282 36.526 10.28 36.5267 10.278C36.5498 10.3162 36.5747 10.3561 36.6001 10.3968C36.6885 10.5388 36.784 10.6919 36.8378 10.8248C38.3334 13.5615 39.1179 16.63 39.1193 19.7488C39.1193 23.202 38.1861 26.4161 36.561 29.2196C34.8721 32.1101 32.4536 34.5064 29.5475 36.1685C26.6415 37.8306 23.3499 38.7002 20.0021 38.6905H0.88501V38.5538C1.35711 35.8178 2.85032 33.3089 4.20709 31.0294C4.24057 30.9731 4.27396 30.917 4.30726 30.861C5.99613 27.9704 8.41462 25.5741 11.3206 23.9119C14.2267 22.2497 17.5183 21.3799 20.8661 21.3896C29.3193 21.3896 34.1761 17.2023 36.4318 10.5635C34.7497 13.3568 32.3801 15.6746 29.5473 17.2949C26.6413 18.957 23.3496 19.8266 20.0019 19.8169C12.9498 19.8169 6.72689 16.0217 3.44301 10.3461Z" fill="white"></path>
</svg>
