<?xml version="1.0" encoding="UTF-8"?>
<svg xmlns="http://www.w3.org/2000/svg" width="120" height="24" viewBox="0 0 120 24" fill="none">
  <path d="M116.614 14.2009H115.043C115.054 13.6074 115.148 13.0185 115.324 12.4515C115.553 11.9749 115.955 11.6041 116.449 11.4154C117.216 11.1141 118.044 11.0029 118.863 11.0914H119.256V5.90739C118.559 5.908 117.864 5.97316 117.179 6.10202C116.598 6.2915 116.088 6.65301 115.717 7.13871C115.203 7.68691 114.836 8.35539 114.648 9.08271V6.16671H108.306V9.86008H109.656V14.2015H108.306V17.8948H116.502V14.1368H116.615V14.2015L116.614 14.2009ZM98.5378 8.37002C98.9524 8.37822 99.3583 8.48957 99.7191 8.69402C100.005 8.89329 100.237 9.1604 100.394 9.47139C100.513 9.9588 100.551 10.4623 100.507 10.962V11.2855C99.5164 10.8489 98.4448 10.628 97.3628 10.6375C96.1029 10.5932 94.8624 10.9568 93.8258 11.6741C93.3942 11.9816 93.0451 12.3909 92.8096 12.8656C92.5741 13.3403 92.4594 13.8658 92.4758 14.3955C92.468 14.868 92.5591 15.3369 92.7431 15.7721C92.9272 16.2073 93.2001 16.5993 93.5445 16.9228C94.2758 17.7002 95.3411 18.0242 96.7446 18.0242C98.043 18.1006 99.3292 17.7352 100.394 16.9875V17.8313H106.962V14.1368H105.671V10.7674C105.716 9.97931 105.621 9.18948 105.39 8.43471C105.177 7.91496 104.85 7.44972 104.433 7.07346C103.837 6.57405 103.121 6.23916 102.356 6.10202C101.843 5.97014 101.314 5.90473 100.784 5.90739C100.15 5.85354 99.5124 5.83195 98.8753 5.84271C96.9105 5.84271 95.4508 6.03733 94.4406 6.55539C93.4371 7.05312 92.6561 7.90831 92.2513 8.95277L96.3491 9.40671C96.618 9.08648 96.9529 8.82807 97.3308 8.64915C97.7087 8.47024 98.1208 8.37502 98.5389 8.37002H98.5378ZM98.9316 15.4969C98.5485 15.4807 98.1862 15.3185 97.9191 15.0435C97.7729 14.8893 97.662 14.7051 97.594 14.5038C97.5261 14.3024 97.5026 14.0887 97.5253 13.8775C97.5063 13.4531 97.6467 13.0369 97.9191 12.7108C98.0569 12.5704 98.2244 12.4626 98.4094 12.3954C98.5943 12.3282 98.792 12.3034 98.9878 12.3227C99.5179 12.3283 100.039 12.4614 100.507 12.7108V14.8478C100.314 15.072 100.071 15.2475 99.7981 15.3601C99.5249 15.4728 99.229 15.5192 98.9344 15.4958L98.9316 15.4969ZM85.5705 15.4969C84.3893 15.4969 83.7176 14.5255 83.7176 12.6461H91.6905C91.6343 10.3787 90.9593 8.62877 89.7814 7.52739C88.4872 6.36922 86.8024 5.74418 85.0659 5.77802C84.1871 5.72277 83.3067 5.85605 82.4836 6.16892C81.6606 6.48179 80.9139 6.96703 80.2937 7.59208C79.7037 8.17429 79.2399 8.87162 78.9309 9.64074C78.6219 10.4098 78.4744 11.2343 78.4976 12.0628C78.4611 12.8931 78.6023 13.7216 78.9118 14.4928C79.2212 15.2641 79.6918 15.9605 80.292 16.5353C81.471 17.7011 83.2676 18.2843 85.6819 18.2846C86.9667 18.3212 88.2344 17.9835 89.3308 17.3126C89.8124 17.0314 90.2331 16.657 90.5683 16.2113C90.9026 15.7924 91.185 15.3345 91.4093 14.8478L87.0302 14.2003C86.9943 14.5606 86.8237 14.894 86.5525 15.1339C86.2814 15.3737 85.9296 15.5024 85.5677 15.4941L85.5705 15.4969ZM83.7739 10.8968C83.7771 10.2978 83.8915 9.70459 84.1114 9.14739C84.2022 8.93849 84.3513 8.76018 84.5409 8.63379C84.7304 8.5074 84.9523 8.43828 85.1801 8.43471C85.4088 8.4305 85.6343 8.48859 85.8325 8.60274C86.0306 8.71689 86.194 8.8828 86.3051 9.08271C86.599 9.54561 86.737 10.0905 86.6989 10.6375V11.0261H83.7795L83.7739 10.8968ZM78.0476 14.2015H77.0914V1.11264H70.6924V4.80602H71.7611V14.2661H70.6924V17.9595H77.9908V14.2015H78.0471H78.0476ZM64.0132 15.1088C63.7316 15.1115 63.4541 15.0413 63.2077 14.905C62.9612 14.7687 62.7543 14.5709 62.607 14.3308C62.2237 13.6848 62.0288 12.9444 62.0445 12.1933C62.0288 11.4423 62.2236 10.7019 62.607 10.0558C62.7689 9.79958 62.9925 9.58806 63.2574 9.44064C63.5222 9.29323 63.8198 9.21464 64.1229 9.21208C65.0792 9.21208 65.7508 9.92477 66.144 11.2208H69.3441V6.16671H66.144V6.94408C65.2058 6.20317 64.0275 5.83408 62.8342 5.90739C62.0389 5.87342 61.2457 6.01221 60.5091 6.31421C59.7726 6.6162 59.1102 7.07424 58.5677 7.65677C58.002 8.24062 57.5572 8.93034 57.2585 9.68641C56.9599 10.4425 56.8133 11.25 56.8273 12.0628C56.7817 12.8993 56.9243 13.7354 57.2447 14.5094C57.5651 15.2834 58.055 15.9757 58.6785 16.5353C60.0916 17.7114 61.8951 18.3137 63.7314 18.2228C65.1596 18.2776 66.5702 17.8932 67.773 17.1214C68.8382 16.4067 69.5989 15.3207 69.9066 14.0755L65.9769 13.0388C65.5832 14.5294 64.9644 15.1121 64.0121 15.1121L64.0132 15.1088ZM47.3947 8.37002C47.8093 8.37839 48.2152 8.48973 48.576 8.69402C48.8618 8.89342 49.0937 9.1605 49.251 9.47139C49.3699 9.95876 49.4079 10.4623 49.3635 10.962V11.2855C48.3732 10.8489 47.3013 10.628 46.2191 10.6375C44.9595 10.5934 43.7192 10.957 42.6827 11.6741C42.2506 11.9817 41.9011 12.3913 41.6654 12.8664C41.4297 13.3416 41.315 13.8676 41.3316 14.3978C41.324 14.8702 41.4151 15.339 41.5992 15.7742C41.7832 16.2094 42.0561 16.6014 42.4003 16.9251C43.1316 17.7025 44.1969 18.0265 45.6004 18.0265C46.8986 18.101 48.1839 17.7341 49.2471 16.9853V17.829H55.8154V14.1368H54.5244V10.7674C54.5702 9.97929 54.4749 9.18936 54.2432 8.43471C54.068 7.89542 53.7348 7.42118 53.2869 7.07346C52.691 6.57408 51.9749 6.23919 51.2096 6.10202C50.6962 5.97017 50.168 5.90477 49.638 5.90739C49.0033 5.85355 48.3663 5.83196 47.7294 5.84271C45.7641 5.84271 44.3049 6.03733 43.2941 6.55539C42.2906 7.05312 41.5097 7.90831 41.1049 8.95277L45.2027 9.40671C45.4718 9.08619 45.807 8.82762 46.1854 8.64869C46.5637 8.46976 46.9763 8.3747 47.3947 8.37002ZM47.7885 15.4969C47.4055 15.4807 47.0432 15.3185 46.776 15.0435C46.6298 14.8893 46.5189 14.7051 46.4509 14.5038C46.3829 14.3024 46.3595 14.0887 46.3823 13.8775C46.3632 13.4531 46.5037 13.0369 46.776 12.7108C46.9138 12.5704 47.0814 12.4626 47.2663 12.3955C47.4513 12.3283 47.6489 12.3034 47.8447 12.3227C48.3739 12.3287 48.8938 12.4618 49.3607 12.7108V14.8478C49.1649 15.0679 48.9216 15.2406 48.6493 15.3529C48.3769 15.4652 48.0825 15.514 47.7885 15.4958V15.4969ZM28.5881 22.9478C29.2631 23.0771 29.8228 23.1418 30.3842 23.2065C30.9626 23.2608 31.5437 23.2826 32.1246 23.2718C33.3158 23.303 34.5057 23.172 35.6616 22.8825C36.472 22.637 37.2191 22.2178 37.8508 21.654C38.436 21.1076 38.8635 20.4138 39.0883 19.6453C39.3669 18.5671 39.4807 17.4529 39.4258 16.3406V9.86008H40.6605V6.16671H34.1468V6.94408C33.1566 6.31309 32.0077 5.97622 30.8336 5.97264C30.0946 5.9436 29.3583 6.07975 28.6786 6.37119C27.9988 6.66262 27.3925 7.102 26.904 7.65733C26.3463 8.24408 25.9102 8.93547 25.6211 9.6916C25.3319 10.4477 25.1954 11.2536 25.2193 12.0628C25.1733 12.8312 25.2955 13.6003 25.5772 14.3165C25.8589 15.0328 26.2935 15.679 26.8506 16.2101C27.3488 16.7096 27.9454 17.0999 28.6025 17.3566C29.2596 17.6132 29.9629 17.7304 30.6677 17.7008C31.9096 17.752 33.1392 17.4364 34.203 16.7935C34.2436 17.3433 34.1669 17.8955 33.978 18.4135C33.8951 18.6496 33.7615 18.8647 33.5866 19.0438C33.4117 19.2228 33.1997 19.3613 32.9655 19.4496C32.3082 19.7898 31.5714 19.9466 30.8325 19.9035C29.6909 19.9773 28.5496 19.7541 27.5199 19.2555L26.0608 22.2368C26.8621 22.5998 27.7135 22.8401 28.5864 22.9495L28.5881 22.9478ZM31.0018 10.2476C31.1267 10.0007 31.321 9.79555 31.5608 9.65745C31.8006 9.51936 32.0755 9.4543 32.3518 9.47027C32.6179 9.46916 32.8792 9.54105 33.1074 9.67811C33.3355 9.81517 33.5216 10.0122 33.6456 10.2476C33.9928 10.8336 34.1501 11.5127 34.0956 12.1916C34.095 12.8239 33.9406 13.4465 33.6456 14.0057C33.5049 14.2391 33.3072 14.4329 33.071 14.569C32.8349 14.7051 32.5681 14.7789 32.2956 14.7836C32.0294 14.7846 31.7681 14.7126 31.54 14.5755C31.3119 14.4383 31.1257 14.2413 31.0018 14.0057C30.7067 13.4234 30.553 12.7798 30.553 12.127C30.553 11.4741 30.7067 10.83 31.0018 10.2476ZM18.5953 4.41733C19.2222 4.7957 19.9398 4.99727 20.6721 5.00064C21.3781 4.99594 22.0721 4.81784 22.6931 4.48202C22.9431 4.32391 23.1473 4.10312 23.2854 3.84161C23.4236 3.5801 23.4909 3.28698 23.4806 2.99139C23.4985 2.69471 23.4345 2.39881 23.2956 2.13603C23.1568 1.87324 22.9483 1.65368 22.6931 1.50133C22.1089 1.06925 21.3986 0.841531 20.6721 0.853331C19.9484 0.8581 19.2363 1.03592 18.5953 1.37196C18.3463 1.53549 18.1399 1.75601 17.9932 2.01525C17.8465 2.27448 17.7636 2.56495 17.7516 2.86258C17.7436 3.17296 17.8173 3.47998 17.9654 3.75286C18.1135 4.02575 18.3307 4.2549 18.5953 4.41733ZM24.3778 14.2015H23.4778V6.23139H17.1919V9.92477H18.2606V14.2661H17.1919V17.9595H24.4335L24.3778 14.2015ZM8.93888 14.3978C8.54727 14.4254 8.15574 14.343 7.80852 14.1598C7.46131 13.9766 7.17226 13.7 6.97406 13.3611C6.52406 12.6484 6.29906 11.4176 6.29906 9.53608C6.29906 7.65452 6.52406 6.42546 6.97406 5.64864C7.192 5.32314 7.49706 5.06546 7.85443 4.90503C8.21179 4.7446 8.60707 4.68787 8.99513 4.74133C9.61251 4.74637 10.2159 4.92597 10.7355 5.25939C11.2747 5.67664 11.6844 6.23843 11.9168 6.87939H15.4538V1.11264H11.9145V2.27927C10.9043 1.24258 9.44456 0.788644 7.70419 0.788644C6.67616 0.763931 5.6553 0.965918 4.71415 1.38026C3.77299 1.7946 2.93463 2.41112 2.25863 3.18602C1.48382 4.04404 0.886496 5.04693 0.501103 6.13688C0.115709 7.22684 -0.0501365 8.38229 0.0131269 9.53664C-0.0270053 11.1633 0.360945 12.7719 1.13813 14.2015C1.77037 15.5515 2.86389 16.6315 4.22175 17.2468C5.63204 17.8882 7.16348 18.2196 8.71275 18.2188C9.77739 18.2339 10.8321 18.0126 11.8009 17.5708C12.788 17.1637 13.6428 16.4908 14.2703 15.6268C14.8885 14.8614 15.3475 13.9802 15.6203 13.0348C15.9026 11.6717 16.0159 10.2789 15.9578 8.88808H9.44456V12.1281H10.9599C10.9037 13.6828 10.2287 14.3955 8.93888 14.3955V14.3978Z" fill="white"></path>
</svg>
