<svg xmlns="http://www.w3.org/2000/svg" width="50.313" height="37.847" viewBox="0 0 50.313 37.847" class="animationScale" style="translate: none; rotate: none; scale: none; transform: translate(0px, 0px) text-white;">
                    <path id="Path_906" data-name="Path 906" d="M16974.686-1638.053a1.9,1.9,0,0,1,1.9-1.905,1.905,1.905,0,0,1,1.906,1.905,1.9,1.9,0,0,1-1.906,1.9A1.9,1.9,0,0,1,16974.686-1638.053Zm-38.865,0a1.9,1.9,0,0,1,1.9-1.905,1.9,1.9,0,0,1,1.9,1.905,1.9,1.9,0,0,1-1.9,1.9A1.9,1.9,0,0,1,16935.82-1638.053Zm34.828,0a1.085,1.085,0,0,1,1.084-1.083,1.084,1.084,0,0,1,1.082,1.083,1.084,1.084,0,0,1-1.082,1.083A1.085,1.085,0,0,1,16970.648-1638.053Zm-29.146,0a1.08,1.08,0,0,1,1.082-1.083,1.08,1.08,0,0,1,1.078,1.083,1.08,1.08,0,0,1-1.078,1.083A1.08,1.08,0,0,1,16941.5-1638.053Zm39.082,0a.866.866,0,0,1,.865-.865.866.866,0,0,1,.865.865.866.866,0,0,1-.865.865A.866.866,0,0,1,16980.584-1638.053Zm-48.582,0a.863.863,0,0,1,.865-.865.866.866,0,0,1,.865.865.866.866,0,0,1-.865.865A.863.863,0,0,1,16932-1638.053Zm37.568-4.863a2.163,2.163,0,0,1,2.162-2.165,2.162,2.162,0,0,1,2.164,2.165,2.161,2.161,0,0,1-2.164,2.161A2.162,2.162,0,0,1,16969.57-1642.916Zm-29.15,0a2.161,2.161,0,0,1,2.16-2.165,2.162,2.162,0,0,1,2.164,2.165,2.161,2.161,0,0,1-2.164,2.161A2.16,2.16,0,0,1,16940.42-1642.916Zm34.266,0a1.9,1.9,0,0,1,1.9-1.905,1.905,1.905,0,0,1,1.906,1.905,1.9,1.9,0,0,1-1.906,1.9A1.9,1.9,0,0,1,16974.686-1642.916Zm-38.865,0a1.9,1.9,0,0,1,1.9-1.905,1.9,1.9,0,0,1,1.9,1.905,1.9,1.9,0,0,1-1.9,1.9A1.9,1.9,0,0,1,16935.82-1642.916Zm33.75-4.863a2.163,2.163,0,0,1,2.162-2.165,2.162,2.162,0,0,1,2.164,2.165,2.161,2.161,0,0,1-2.164,2.161A2.162,2.162,0,0,1,16969.57-1647.779Zm-29.15,0a2.161,2.161,0,0,1,2.16-2.165,2.162,2.162,0,0,1,2.164,2.165,2.161,2.161,0,0,1-2.164,2.161A2.16,2.16,0,0,1,16940.42-1647.779Zm35.3,0a.866.866,0,0,1,.865-.865.863.863,0,0,1,.865.865.863.863,0,0,1-.865.865A.866.866,0,0,1,16975.725-1647.779Zm-38.869,0a.866.866,0,0,1,.865-.865.863.863,0,0,1,.865.865.863.863,0,0,1-.865.865A.866.866,0,0,1,16936.855-1647.779Zm27.857-4.863a2.161,2.161,0,0,1,2.16-2.165,2.166,2.166,0,0,1,2.166,2.165,2.165,2.165,0,0,1-2.166,2.161A2.16,2.16,0,0,1,16964.713-1652.642Zm-19.436,0a2.163,2.163,0,0,1,2.162-2.165,2.162,2.162,0,0,1,2.164,2.165,2.161,2.161,0,0,1-2.164,2.161A2.162,2.162,0,0,1,16945.277-1652.642Zm24.555,0a1.9,1.9,0,0,1,1.9-1.905,1.9,1.9,0,0,1,1.9,1.905,1.9,1.9,0,0,1-1.9,1.9A1.9,1.9,0,0,1,16969.832-1652.642Zm-29.152,0a1.9,1.9,0,0,1,1.9-1.905,1.9,1.9,0,0,1,1.9,1.905,1.9,1.9,0,0,1-1.9,1.9A1.9,1.9,0,0,1,16940.68-1652.642Zm24.033-4.863a2.161,2.161,0,0,1,2.16-2.165,2.166,2.166,0,0,1,2.166,2.165,2.165,2.165,0,0,1-2.166,2.161A2.16,2.16,0,0,1,16964.713-1657.5Zm-19.436,0a2.163,2.163,0,0,1,2.162-2.165,2.162,2.162,0,0,1,2.164,2.165,2.161,2.161,0,0,1-2.164,2.161A2.162,2.162,0,0,1,16945.277-1657.5Zm25.59,0a.865.865,0,0,1,.865-.865.866.866,0,0,1,.865.865.864.864,0,0,1-.865.865A.862.862,0,0,1,16970.867-1657.509Zm-29.152,0a.866.866,0,0,1,.869-.865.866.866,0,0,1,.865.865.864.864,0,0,1-.865.865A.863.863,0,0,1,16941.715-1657.509Zm18.135-4.863a2.164,2.164,0,0,1,2.164-2.161,2.165,2.165,0,0,1,2.166,2.161,2.166,2.166,0,0,1-2.166,2.165A2.164,2.164,0,0,1,16959.85-1662.372Zm-9.713,0a2.16,2.16,0,0,1,2.16-2.161,2.165,2.165,0,0,1,2.166,2.161,2.166,2.166,0,0,1-2.166,2.165A2.161,2.161,0,0,1,16950.137-1662.372Zm14.836,0a1.9,1.9,0,0,1,1.9-1.9,1.9,1.9,0,0,1,1.906,1.9,1.905,1.905,0,0,1-1.906,1.905A1.9,1.9,0,0,1,16964.973-1662.372Zm-19.436,0a1.9,1.9,0,0,1,1.906-1.9,1.9,1.9,0,0,1,1.9,1.9,1.9,1.9,0,0,1-1.9,1.905A1.905,1.905,0,0,1,16945.537-1662.372Zm14.313-4.863a2.164,2.164,0,0,1,2.164-2.161,2.165,2.165,0,0,1,2.166,2.161,2.166,2.166,0,0,1-2.166,2.165A2.164,2.164,0,0,1,16959.85-1667.235Zm-4.855,0a2.162,2.162,0,0,1,2.162-2.161,2.161,2.161,0,0,1,2.164,2.161,2.162,2.162,0,0,1-2.164,2.165A2.163,2.163,0,0,1,16954.994-1667.235Zm-4.857,0a2.16,2.16,0,0,1,2.16-2.161,2.165,2.165,0,0,1,2.166,2.161,2.166,2.166,0,0,1-2.166,2.165A2.161,2.161,0,0,1,16950.137-1667.235Zm15.658,0a1.077,1.077,0,0,1,1.078-1.078,1.077,1.077,0,0,1,1.082,1.078,1.08,1.08,0,0,1-1.082,1.083A1.081,1.081,0,0,1,16965.795-1667.235Zm-19.436,0a1.079,1.079,0,0,1,1.084-1.078,1.077,1.077,0,0,1,1.078,1.078,1.081,1.081,0,0,1-1.078,1.083A1.082,1.082,0,0,1,16946.359-1667.235Zm8.9-4.863a1.9,1.9,0,0,1,1.9-1.9,1.9,1.9,0,0,1,1.9,1.9,1.9,1.9,0,0,1-1.9,1.905A1.9,1.9,0,0,1,16955.256-1672.1Zm5.676,0a1.084,1.084,0,0,1,1.082-1.083,1.085,1.085,0,0,1,1.084,1.083,1.085,1.085,0,0,1-1.084,1.083A1.084,1.084,0,0,1,16960.932-1672.1Zm-9.717,0a1.084,1.084,0,0,1,1.082-1.083,1.083,1.083,0,0,1,1.082,1.083,1.083,1.083,0,0,1-1.082,1.083A1.084,1.084,0,0,1,16951.215-1672.1Z" transform="translate(-16932.002 1673.999)" fill="currentColor"></path>
                    </svg>