<?xml version="1.0" encoding="UTF-8"?>
<svg xmlns="http://www.w3.org/2000/svg" width="100" height="59" viewBox="0 0 100 59" fill="none">
  <g clip-path="url(#clip0_2234_9)">
    <path d="M43.3597 43.4381C40.9725 41.7678 38.0639 41.031 35.4228 41.1356C32.7511 41.2402 31.5502 43.2216 31.5502 43.2216C30.3456 41.1331 27.9632 39.8485 24.2823 39.8784C18.3354 39.9445 12.4301 42.671 7.7578 42.6686C3.27074 42.6661 0.00363067 39.8667 0.113019 34.8923C0.307226 26.1726 7.72337 18.3176 13.2662 14.7826C16.4509 12.7507 19.1188 12.1485 20.8645 12.3432C22.1357 12.4839 23.667 13.9459 22.7003 16.0977C21.2822 19.2518 19.3234 18.9872 19.3947 17.481C19.4366 16.5015 20.0915 15.885 20.5842 15.5486C20.8983 15.3334 21.4506 15.2708 21.7392 15.2659C22.0193 15.0303 22.2336 13.3059 19.9519 13.874C17.6682 14.4409 14.9225 16.6683 12.302 19.5385C9.68164 22.4079 5.60474 27.852 4.59558 33.5593C4.12479 36.2083 4.43725 41.0337 10.7479 40.9818C16.0969 40.938 23.9996 37.4391 31.2537 37.5047C34.0695 37.5308 36.5196 38.285 38.4293 39.4587C40.3135 40.6159 42.5639 42.2938 43.3597 43.4381ZM45.0818 27.6279L46.1788 27.6282C46.1788 27.6282 40.6795 35.5255 37.5719 35.1654C35.8372 34.9658 36.3516 32.8375 36.3516 32.8375C36.3516 32.8375 33.91 35.6722 31.6823 35.1044C29.6539 34.5867 30.9615 31.2345 30.9615 31.2345C30.7318 31.326 26.3396 36.2471 23.2569 35.0654C20.0291 33.8276 21.7046 29.7089 22.3199 28.4703C22.8394 27.4266 23.415 26.4084 23.415 26.4084C23.415 26.4084 22.9196 26.5482 22.612 26.6191C22.305 26.689 21.8367 26.7792 21.8367 26.7792C21.8367 26.7792 20.3095 29.2458 19.3773 30.4757C18.4436 31.7079 14.4772 35.9387 12.1391 35.0944C9.8035 34.2483 10.3814 31.0021 11.6952 28.4206C13.8254 24.2338 18.8788 19.091 21.9191 19.8627C24.9917 20.6431 22.4476 25.5987 22.4476 25.5987C22.4476 25.5987 23.0589 25.677 24.5246 24.6843C26.6386 23.2551 29.4193 19.4056 32.4351 19.8572C33.8514 20.0689 35.168 21.5134 33.3652 24.2553C32.7865 25.1355 31.8184 25.9229 31.075 25.1459C30.614 24.6651 31.0158 23.7809 31.501 23.1753C32.1862 22.3188 33.1308 22.437 33.1308 22.437C33.1308 22.437 33.6268 21.2993 32.3627 21.3222C31.3371 21.3412 28.7404 23.7176 27.2735 26.1184C25.9273 28.3211 23.8915 32.0764 25.9376 32.896C27.8133 33.6478 31.3792 29.4401 33.0329 27.2341C34.6867 25.0303 38.4467 20.0292 41.604 19.8268C42.6907 19.7566 43.3386 20.7411 43.3386 20.7411L43.7046 20.1667L46.8564 20.1684C46.8564 20.1684 40.9085 30.0341 40.4427 30.7815C40.0758 31.3668 39.5902 32.6808 40.9376 31.943C42.2835 31.2042 45.0818 27.6279 45.0818 27.6279ZM20.6103 26.6138C20.5551 26.5941 19.7609 26.3674 18.9862 25.8737C18.2106 25.3813 17.8542 24.6509 17.8266 24.5983C17.7975 24.5478 17.7664 24.5869 17.7362 24.6304C17.7031 24.6725 17.5381 24.8844 16.4121 26.5262C15.2861 28.1669 13.6172 31.5291 15.1794 32.1046C16.1803 32.4723 17.8602 30.7272 18.7697 29.5721C19.6128 28.5005 20.6171 26.8527 20.6612 26.7549C20.7046 26.6571 20.6639 26.6325 20.6103 26.6138ZM21.8604 21.3692C21.0341 20.7479 18.9271 22.2005 18.915 23.6865C18.9026 25.2104 20.8171 25.6451 21.0635 25.6577C21.0635 25.6577 21.2792 25.7165 21.365 25.5349C21.4189 25.4221 21.6792 24.9452 21.9709 24.1887C22.2622 23.433 22.6299 21.9503 21.8604 21.3692ZM37.9289 29.5962C39.2031 27.8592 42.7209 21.7777 42.7209 21.7777C42.7209 21.7777 42.6629 21.3492 42.2527 21.3315C41.7669 21.3099 40.9607 21.4723 39.3442 23.477C37.7259 25.4811 36.4818 27.0796 35.5694 28.7378C34.5709 30.5487 34.1336 31.8273 34.7068 32.1749C34.8672 32.2702 35.1105 32.2851 35.3086 32.2358C35.6835 32.1431 36.1709 31.7712 36.8416 31.003C37.1565 30.6426 37.5133 30.161 37.9289 29.5962ZM52.1111 20.1834L49.1161 20.1821L47.4238 22.9039L50.4193 22.9053L52.1111 20.1834ZM96.3316 15.3162C94.116 16.7297 91.0466 18.011 88.0991 17.7272C87.3545 18.4951 86.5546 19.381 85.7534 20.3498C90.8655 21.3541 95.3417 18.2089 97.7231 15.528C99.2108 13.8554 99.9439 12.3617 99.9439 12.3617C99.9439 12.3617 98.5259 13.9147 96.3316 15.3162ZM87.5535 38.3984C87.1294 39.0736 86.6481 40.3659 88.0494 39.5602C89.7552 38.5811 92.1852 34.9175 92.1852 34.9175L93.2845 34.918C93.2845 34.918 91.8351 37.1938 89.9444 39.272C88.2149 41.1749 86.1068 42.9058 84.6214 42.733C82.8872 42.5332 83.4304 40.2681 83.4304 40.2681C83.4304 40.2681 80.9391 42.8959 79.2286 42.7066C76.9103 42.4518 77.6173 39.6008 77.6173 39.6008C77.6173 39.6008 74.9941 42.806 73.2083 42.7036C70.4056 42.5433 71.1111 39.1448 71.8907 36.7684C72.309 35.4939 72.6945 34.4902 72.6945 34.4902C72.6945 34.4902 72.4159 34.5631 71.8209 34.6503C71.5095 34.6943 70.9409 34.725 70.9409 34.725C70.9409 34.725 69.774 36.7714 68.8417 38.0013C67.9078 39.2335 63.9404 43.4685 61.6058 42.621C59.4482 41.8362 60.1607 38.552 61.4188 35.942C63.2527 32.1382 68.4106 26.6713 71.3838 27.3886C74.4675 28.1324 71.4539 33.7232 71.4539 33.7232C71.4539 33.7232 71.4549 33.7453 71.4857 33.7574C71.5482 33.781 71.7078 33.7964 72.081 33.727C72.6735 33.6139 73.2091 33.3927 73.2091 33.3927C73.2091 33.3927 76.3091 26.94 79.7347 22.7202C83.158 18.4989 89.9915 11.2316 92.6735 12.9909C93.3301 13.4226 93.0311 14.9127 92.1476 16.7204C91.7569 16.8426 91.3514 16.9498 90.9372 17.0359C91.5273 15.9706 91.9204 15.0716 92.0357 14.4447C92.4379 12.2641 87.3156 16.8591 83.6534 21.8077C79.9917 26.7544 77.7938 31.2351 77.7938 31.2351C77.7938 31.2351 78.5318 30.8192 79.683 29.898C80.8852 28.9358 82.5387 27.4284 84.3341 25.585C85.5427 24.345 86.9632 22.7868 88.2923 21.0461C88.6892 21.027 89.0778 20.987 89.4564 20.9275C87.974 22.911 86.414 24.7211 85.09 26.054C83.6339 27.5203 82.0499 29.1012 80.6742 30.2518C78.4885 32.0775 76.8011 33.1113 76.8011 33.1113C76.8011 33.1113 73.5903 39.5223 75.3338 39.9369C76.3584 40.1798 78.3813 37.0839 78.3813 37.0839C78.3813 37.0839 81.0179 33.0827 82.609 31.2834C84.78 28.8308 86.6467 27.4162 88.5128 27.3863C89.6003 27.3673 90.2419 28.5197 90.2419 28.5197L90.7544 27.7333L93.9038 27.735C93.9038 27.735 88.0229 37.6523 87.5535 38.3984ZM69.8424 34.4836C69.7873 34.4648 69.1048 34.1545 68.3953 33.566C67.6895 32.9799 67.3313 32.3064 67.3043 32.255C67.2765 32.2041 67.2452 32.2434 67.2131 32.2859C67.182 32.329 67.0557 32.4401 65.9276 34.0809C64.8026 35.7236 63.0797 39.1073 64.6419 39.6838C65.6422 40.0519 67.3071 38.3126 68.2174 37.1591C69.0615 36.0871 69.8507 34.7245 69.893 34.6259C69.9376 34.5279 69.8983 34.5038 69.8424 34.4836ZM71.4354 31.7145C71.7259 30.9587 72.0953 29.476 71.3259 28.8951C70.4985 28.2746 68.3923 29.7275 68.3805 31.2135C68.367 32.7363 69.8625 33.4247 70.2241 33.5217C70.4283 33.5778 70.4998 33.5695 70.5993 33.4056C70.6617 33.2988 71.1439 32.471 71.4354 31.7145ZM89.5264 29.6308C89.5898 29.5183 89.6201 29.4196 89.6201 29.4196C89.6201 29.4196 89.5624 28.9911 89.1522 28.9736C88.6662 28.9507 88 29.0427 86.2602 30.9582C84.5273 32.8654 83.4725 34.5228 82.5587 36.1798C81.5612 37.992 81.1585 39.3394 81.7323 39.6864C81.8928 39.7846 82.1374 39.7962 82.3341 39.7491C82.7238 39.654 83.1609 39.2951 83.8331 38.5261C84.1462 38.1672 84.4951 37.6543 84.9105 37.0875C86.0569 35.528 88.9521 30.6198 89.5264 29.6308ZM96.3316 15.3162C94.116 16.7297 91.0466 18.011 88.0991 17.7272C87.3545 18.4951 86.5546 19.381 85.7534 20.3498C90.8655 21.3541 95.3417 18.2089 97.7231 15.528C99.2108 13.8554 99.9439 12.3617 99.9439 12.3617C99.9439 12.3617 98.5259 13.9147 96.3316 15.3162ZM81.9619 18.9937C79.5432 17.7619 77.7773 16.2552 75.9372 15.3165C74.1817 14.4207 73.0477 14.0472 71.6301 14.234C71.3963 14.2668 71.0449 14.3788 71.0449 14.3788C71.0449 14.3788 71.7758 16.8577 68.8695 21.0256C65.9249 25.2458 63.2532 25.2228 62.4953 24.0558C61.7005 22.8321 62.7253 20.3346 64.4412 18.1142C66.2369 15.7913 69.3925 13.863 69.3925 13.863C69.3925 13.863 68.3862 13.2521 65.9143 14.6438C63.508 15.9969 59.3502 19.2217 55.508 24.6628C51.6662 30.1026 50.897 33.0977 50.3417 35.4546C49.785 37.8118 50.2913 40.3343 52.9218 40.3358C55.5536 40.3372 58.614 36.3495 59.4767 34.9632C61.0817 32.3824 62.1294 28.4225 59.9451 28.9683C58.8687 29.2355 57.9978 30.4221 57.4489 31.5598C56.8837 32.7312 56.657 33.8502 56.657 33.8502C56.657 33.8502 55.7476 34.1731 54.5261 35.0818C53.3035 35.9905 52.5051 36.857 52.5051 36.857C52.5051 36.857 52.5136 34.9746 54.0254 31.9255C55.5369 28.8773 58.311 27.4823 59.8808 27.3536C61.297 27.2391 63.1376 28.4356 61.578 32.8441C60.0183 37.2541 55.4125 42.6001 50.574 42.6686C46.1098 42.73 43.1872 37.0652 49.4021 27.1844C56.2762 16.2563 64.3507 12.9049 66.9689 12.5317C69.5905 12.1581 70.4389 13.3078 70.4389 13.3078C70.4389 13.3078 72.6351 12.3019 75.4196 12.491C78.6191 12.7065 81.094 14.9567 84.3559 16.5371C83.5025 17.3582 82.6908 18.2012 81.9619 18.9937ZM70.0501 14.7028C70.0501 14.7028 68.1775 15.4431 66.0015 17.8267C63.8176 20.2176 62.5572 22.8932 63.4943 23.6031C63.8537 23.8744 64.6835 23.92 66.1938 22.5728C67.3724 21.522 68.5707 20.1451 69.385 18.1744C70.3602 15.8129 70.0501 14.7317 70.0501 14.7028Z" fill="white"></path>
    <path d="M44.7227 1.05266L38.0339 1.04907L38.0332 2.52L40.5532 2.52194L40.5498 8.56349L42.1984 8.56426L42.2018 2.52242L44.7219 2.52378L44.7227 1.05266ZM51.8508 1.05644L51.8492 3.77997L47.9849 3.77804L47.9863 1.0543L46.3389 1.05324L46.3347 8.56648L47.9821 8.56755L47.9838 5.23888L51.8483 5.24081L51.8467 8.5692L53.4951 8.57026L53.4994 1.05692L51.8508 1.05644ZM61.8114 7.14468L57.3395 7.14227L57.3405 5.41136L60.3528 5.41271L60.3537 3.97261L57.3414 3.97076L57.342 2.48938L61.7089 2.4919L61.9211 1.06167L55.6943 1.05867L55.6903 8.57143L62.0206 8.57492L61.8114 7.14468Z" fill="white"></path>
    <path d="M23.7549 58.7663C24.3715 58.7669 24.9467 58.6678 25.4826 58.47C26.0179 58.2735 26.4582 57.9763 26.8004 57.5787L25.7715 56.4618C25.2261 57.0116 24.5652 57.2852 23.7881 57.2849C23.2973 57.2846 22.8547 57.1788 22.46 56.9661C22.0633 56.7538 21.7568 56.4651 21.537 56.1006C21.3169 55.7336 21.2058 55.3259 21.2058 54.8742C21.2061 54.4212 21.3177 54.0128 21.543 53.6472C21.7663 53.2821 22.0733 52.9942 22.4618 52.7815C22.8515 52.5697 23.2856 52.4628 23.7688 52.4633C24.1404 52.4633 24.4848 52.533 24.8036 52.667C25.1219 52.8037 25.4287 53.0188 25.7211 53.3113L26.7514 52.1741C26.4149 51.7838 25.9838 51.4889 25.4555 51.2866C24.9274 51.0843 24.3512 50.9821 23.7282 50.9821C22.9239 50.9812 22.1986 51.1493 21.5549 51.4875C20.9113 51.8231 20.4068 52.2903 20.0427 52.8847C19.6788 53.4802 19.4956 54.1418 19.4951 54.873C19.4948 55.6032 19.6768 56.2658 20.0407 56.8609C20.4041 57.4543 20.9091 57.9217 21.5562 58.2595C22.2023 58.5984 22.9364 58.766 23.7549 58.7663ZM31.6923 58.7706C32.4708 58.7712 33.165 58.6063 33.7775 58.2775C34.3903 57.9459 34.87 57.4862 35.2172 56.8943C35.5633 56.3037 35.7372 55.6321 35.7377 54.8818C35.738 54.1301 35.565 53.4592 35.2192 52.8671C34.8728 52.2764 34.3938 51.8139 33.7815 51.4822C33.1688 51.1529 32.4748 50.9864 31.6966 50.9862C30.9196 50.9852 30.2267 51.1513 29.6126 51.4803C28.9998 51.8111 28.5202 52.2726 28.1745 52.8633C27.8267 53.4551 27.653 54.126 27.6527 54.8776C27.6525 55.6275 27.8254 56.2997 28.172 56.8906C28.5174 57.4832 28.9964 57.9426 29.6088 58.2752C30.2227 58.6048 30.9153 58.7701 31.6923 58.7706ZM31.6931 57.289C31.2452 57.289 30.845 57.1867 30.493 56.9807C30.1379 56.7745 29.8612 56.4902 29.6632 56.1246C29.4642 55.7587 29.3645 55.3441 29.3647 54.8781C29.3647 54.411 29.4645 53.9953 29.6645 53.6316C29.8625 53.2646 30.14 52.98 30.495 52.7756C30.8475 52.5712 31.2475 52.4673 31.6958 52.4674C32.1452 52.4674 32.5437 52.5719 32.8988 52.7773C33.2519 52.982 33.5291 53.2662 33.7271 53.6334C33.9261 53.9977 34.0259 54.4135 34.0256 54.8808C34.0251 55.3464 33.9254 55.7612 33.7257 56.1267C33.5271 56.4919 33.2502 56.7764 32.8963 56.9822C32.5412 57.1879 32.1424 57.2892 31.6931 57.289ZM46.4377 51.1303L44.2234 51.1291L42.0033 56.3457L39.7387 51.1266L37.5241 51.1253L37.5202 58.6386L39.1157 58.6397L39.1184 53.2657L41.4156 58.5363L42.5176 58.5369L44.84 53.132L44.837 58.6424L46.4339 58.6435L46.4377 51.1303ZM52.5169 51.1334L48.6317 51.1313L48.6277 58.644L50.2765 58.6452L50.2775 55.9012L52.5141 55.9021C53.0865 55.9028 53.575 55.7987 53.974 55.5902C54.3715 55.3806 54.6735 55.0964 54.876 54.7347C55.0791 54.3733 55.1806 53.9663 55.1806 53.5147C55.1808 53.0603 55.0803 52.655 54.877 52.2919C54.6753 51.9314 54.3737 51.6483 53.9763 51.4419C53.5775 51.2372 53.0893 51.1338 52.5169 51.1336M52.4723 54.4518L50.2781 54.4505L50.2795 52.5831L52.4732 52.5842C52.8009 52.5844 53.0587 52.6644 53.24 52.8239C53.4222 52.9846 53.5128 53.214 53.5128 53.5141C53.5128 53.8123 53.4217 54.0443 53.2389 54.2066C53.0575 54.3697 52.7999 54.4518 52.4723 54.4518ZM61.4886 58.6514L63.2214 58.6523L60.2234 51.1376L58.1956 51.1366L55.1898 58.6478L56.9119 58.649L57.542 56.9799L60.8598 56.9815L61.4886 58.6514ZM58.0781 55.5616L59.2039 52.5876L60.3264 55.5627L58.0781 55.5616ZM69.9973 51.1427L69.9945 56.2349L66.375 51.1405L64.6655 51.14L64.6618 58.6528L66.2657 58.6539L66.2688 53.478L69.9402 58.6556L71.5989 58.6567L71.6029 51.1437L69.9973 51.1427ZM80.5598 51.1486L78.7439 51.1475L76.7673 54.6613L74.7645 51.1453L72.9061 51.1442L75.9261 56.1657L75.9246 58.659L77.5747 58.6599L77.5758 56.1346L80.5598 51.1486Z" fill="white"></path>
  </g>
  <defs>
    <clipPath id="clip0_2234_9">
      <rect width="100" height="58" fill="white" transform="translate(0 0.918945)"></rect>
    </clipPath>
  </defs>
</svg>
